<?xml version="1.0" encoding="UTF-8"?>
<svg width="67px" height="51px" viewBox="0 0 67 51" version="1.1" xmlns="http://www.w3.org/2000/svg" xmlns:xlink="http://www.w3.org/1999/xlink">
    <!-- Generator: Sketch 43.1 (39012) - http://www.bohemiancoding.com/sketch -->
    <title>Page 1</title>
    <desc>Created with Sketch.</desc>
    <defs>
        <polygon id="path-1" points="17.7188384 18.328125 0.109587215 18.328125 0.109587215 0.7497 17.7188384 0.7497"></polygon>
    </defs>
    <g id="Symbols" stroke="none" stroke-width="1" fill="none" fill-rule="evenodd">
        <g id="Flow-Icons-PB/Entregue-à-transportadora">
            <g id="Page-1">
                <path d="M65.1507202,21.5871844 L59.1582083,11.3879813 C58.7976845,10.7735906 58.137256,10.3958719 57.4233869,10.3958719 L43.4467083,10.3958719 L43.4467083,34.7595281 C43.9994583,34.6312313 44.5761369,34.5619031 45.1679702,34.5619031 C47.5536488,34.5619031 49.682494,35.6607938 51.0775298,37.3780594 L63.4151012,37.3780594 C64.5261845,37.3780594 65.427494,36.4783875 65.427494,35.3691375 L65.427494,22.6039969 C65.427494,22.2462 65.3317798,21.895575 65.1507202,21.5871844" id="Fill-1" fill="#898989"></path>
                <path d="M43.4467083,4.45046719 C43.4467083,3.06151406 42.3196726,1.93473281 40.9294226,1.93473281 L3.84970833,1.93473281 C2.45945833,1.93473281 1.33242262,3.06151406 1.33242262,4.45046719 L1.33242262,37.3781391 C1.33242262,38.7670922 2.45945833,39.8938734 3.84970833,39.8938734 L8.03242262,39.8938734 C8.99833929,36.8043891 11.884125,34.5619828 15.294744,34.5619828 C18.7045655,34.5619828 21.5911488,36.8043891 22.5570655,39.8938734 L37.9056488,39.8938734 C38.7032679,37.3406859 40.8137679,35.3684203 43.4467083,34.7596078 L43.4467083,4.45046719 Z" id="Fill-3" fill="#C9CACA"></path>
                <path d="M22.9017964,42.1619391 C22.9017964,46.3598766 19.4951655,49.7625328 15.2949036,49.7625328 C11.0930464,49.7625328 7.6872131,46.3598766 7.6872131,42.1619391 C7.6872131,37.9640016 11.0930464,34.5621422 15.2949036,34.5621422 C19.4951655,34.5621422 22.9017964,37.9640016 22.9017964,42.1619391" id="Fill-5" fill="#333333"></path>
                <path d="M52.7751024,42.1619391 C52.7751024,46.3598766 49.3684714,49.7625328 45.1682095,49.7625328 C40.9663524,49.7625328 37.560519,46.3598766 37.560519,42.1619391 C37.560519,37.9640016 40.9663524,34.5621422 45.1682095,34.5621422 C49.3684714,34.5621422 52.7751024,37.9640016 52.7751024,42.1619391" id="Fill-7" fill="#333333"></path>
                <path d="M15.2948238,45.4327125 C13.4890143,45.4327125 12.0205976,43.9656656 12.0205976,42.1623375 C12.0205976,40.3582125 13.4890143,38.8911656 15.2948238,38.8911656 C17.1006333,38.8911656 18.5682524,40.3582125 18.5682524,42.1623375 C18.5682524,43.9656656 17.1006333,45.4327125 15.2948238,45.4327125" id="Fill-9" fill="#C9CACA"></path>
                <path d="M20.5221798,36.6406313 C21.4545964,37.5227719 22.165275,38.6383969 22.556906,39.893475 L37.9054893,39.893475 C38.2979179,38.6376 39.0101917,37.5227719 39.9442036,36.6406313 L20.5221798,36.6406313 Z" id="Fill-11" fill="#898989"></path>
                <path d="M3.85010714,39.8935547 L8.03202381,39.8935547 C8.42445238,38.6384766 9.13353571,37.5228516 10.06675,36.6407109 L1.33282143,36.6407109 L1.33282143,37.3786172 C1.33282143,38.7675703 2.45985714,39.8935547 3.85010714,39.8935547" id="Fill-13" fill="#898989"></path>
                <path d="M40.9292631,1.93457344 L39.9442036,1.93457344 L39.9442036,36.6408703 C40.908525,35.7308391 42.1089417,35.0686359 43.4465488,34.7594484 L43.4465488,4.45030781 C43.4465488,3.06135469 42.3195131,1.93457344 40.9292631,1.93457344" id="Fill-15" fill="#898989"></path>
                <path d="M47.3382119,34.8765094 L47.3382119,10.3957125 L43.4466286,10.3957125 L43.4466286,34.7601656 C43.9993786,34.6310719 44.5760571,34.5617437 45.1678905,34.5617437 C45.9224381,34.5617437 46.6498667,34.6717125 47.3382119,34.8765094" id="Fill-17" fill="#595757"></path>
                <path d="M45.1681298,45.4327125 C43.3615226,45.4327125 41.8939036,43.9656656 41.8939036,42.1623375 C41.8939036,40.3582125 43.3615226,38.8911656 45.1681298,38.8911656 C46.9731417,38.8911656 48.4415583,40.3582125 48.4415583,42.1623375 C48.4415583,43.9656656 46.9731417,45.4327125 45.1681298,45.4327125" id="Fill-19" fill="#C9CACA"></path>
                <path d="M15.2948238,39.6024563 C13.8822405,39.6024563 12.7320738,40.7507531 12.7320738,42.1620188 C12.7320738,43.5732844 13.8822405,44.7215813 15.2948238,44.7215813 C16.7074071,44.7215813 17.8567762,43.5732844 17.8567762,42.1620188 C17.8567762,40.7507531 16.7074071,39.6024563 15.2948238,39.6024563 M15.2948238,46.1448 C13.0965857,46.1448 11.3083238,44.3582063 11.3083238,42.1620188 C11.3083238,39.9658313 13.0965857,38.1800344 15.2948238,38.1800344 C17.4930619,38.1800344 19.2805262,39.9658313 19.2805262,42.1620188 C19.2805262,44.3582063 17.4930619,46.1448 15.2948238,46.1448" id="Fill-21" fill="#C9CACA"></path>
                <path d="M45.1681298,39.6024563 C43.7555464,39.6024563 42.6053798,40.7507531 42.6053798,42.1620188 C42.6053798,43.5732844 43.7555464,44.7215813 45.1681298,44.7215813 C46.5807131,44.7215813 47.7292845,43.5732844 47.7292845,42.1620188 C47.7292845,40.7507531 46.5807131,39.6024563 45.1681298,39.6024563 M45.1681298,46.1448 C42.9698917,46.1448 41.1816298,44.3582063 41.1816298,42.1620188 C41.1816298,39.9658313 42.9698917,38.1800344 45.1681298,38.1800344 C47.3655702,38.1800344 49.1538321,39.9658313 49.1538321,42.1620188 C49.1538321,44.3582063 47.3655702,46.1448 45.1681298,46.1448" id="Fill-23" fill="#C9CACA"></path>
                <path d="M35.1438131,25.5793688 C35.1262655,25.5921188 35.116694,25.6120406 35.1190869,25.6335563 C35.0090155,26.1929625 34.6580631,26.6750719 34.1587536,26.9507906 C33.6570512,27.2615719 33.0508607,27.3556031 32.4789679,27.209775 L32.1846464,27.1340719 C31.5896226,26.9260875 31.0655869,26.5571344 30.6715631,26.0654625 C30.154706,25.5299625 29.9712536,24.7561969 30.1937893,24.0461813 C30.3317774,23.6517281 30.5782417,23.3042906 30.9060631,23.0421188 C31.2378726,22.7504625 31.6414679,22.5528375 32.0761702,22.4707594 C32.8674083,22.1496188 33.772706,22.313775 34.4012298,22.8915094 L34.509706,22.9775719 C34.8901702,23.2915406 35.1589679,23.7194625 35.2770155,24.1983844 C35.3966583,24.659775 35.3495988,25.1490563 35.1438131,25.5793688 M26.9012179,13.3473375 C26.9044083,13.5760406 26.8876583,13.80315 26.8517655,14.0278687 C26.8342179,14.2677281 26.7847655,14.5036031 26.704206,14.7299156 C26.6132774,15.0104156 26.4960274,15.2813531 26.352456,15.5387437 C26.1985155,15.8630719 26.0517536,16.1658844 25.9145631,16.4352281 C25.7925274,16.6623375 25.6984083,16.8456187 25.6234321,16.9643531 C25.5492536,17.0830875 25.4359917,17.2560094 25.2756702,17.52615 C25.096206,17.8138219 24.9167417,18.1046812 24.7356821,18.4003219 C24.5394679,18.6903844 24.3608012,18.9931969 24.2028726,19.3071656 C24.044944,19.5988219 23.8965869,19.8681656 23.7546107,20.1167906 C23.5950869,20.3861344 23.4299798,20.6674312 23.2457298,20.9590875 C23.0255869,21.306525 22.8333607,21.6714937 22.671444,22.0492125 C22.4991583,22.4062125 22.3803131,22.6651969 22.3141107,22.8269625 L22.286194,22.8588375 C21.9735274,22.6859156 21.6680393,22.5129937 21.371325,22.3193531 C21.0538726,22.1249156 20.7380155,21.9304781 20.4189679,21.714525 C20.0552536,21.4874156 19.7266345,21.2722594 19.4291226,21.0778219 C19.1308131,20.8825875 18.8237298,20.656275 18.5038845,20.4299625 C18.1585155,20.1821344 17.893706,19.9869 17.7110512,19.8474469 C17.5738607,19.7605875 17.3648845,19.5876656 17.0873131,19.3605562 C16.7929917,19.1334469 16.5122298,18.8888062 16.2466226,18.6266344 C15.9642655,18.3572906 15.6795155,18.0975094 15.3995512,17.8496812 C15.1626583,17.6122125 14.9130036,17.3532281 14.6505869,17.0830875 C14.3833845,16.7699156 14.1050155,16.4463844 13.8162774,16.1116969 C13.5275393,15.79215 13.257944,15.4574625 13.006694,15.1076344 C12.768206,14.8056187 12.5624202,14.4804937 12.3925274,14.1362437 C12.2417774,13.8549469 12.1141583,13.5624937 12.0120631,13.261275 C11.9466583,13.1003062 11.9163488,12.9273844 11.9227298,12.7536656 C11.9123607,12.598275 11.9259202,12.4412906 11.9650036,12.2898844 C11.9817536,12.2444625 12.0096702,12.2038219 12.0463607,12.17115 C12.1197417,12.06915 12.2202417,11.9902594 12.336694,11.9448375 C12.4643131,11.8563844 12.6102774,11.7974156 12.7626226,11.7719156 C12.9947298,11.7017906 13.2340155,11.654775 13.475694,11.6316656 C13.7237536,11.6157281 13.9718131,11.6157281 14.219075,11.6316656 C14.4519798,11.6539781 14.6832893,11.6906344 14.912206,11.7392437 C15.0956583,11.7806812 15.2727298,11.846025 15.4394321,11.9336812 C15.6061345,12.0157594 15.7648607,12.113775 15.9140155,12.2253375 C16.1533012,12.3831187 16.3710512,12.5719781 16.5624798,12.7863375 C16.7969798,13.0182281 17.0107417,13.2716344 17.1997774,13.5425719 C17.4007774,13.8342281 17.5778488,14.1035719 17.7309917,14.3410406 C17.8865274,14.6008219 18.0412655,14.84865 18.1928131,15.0749625 C18.3443607,15.3020719 18.4679917,15.4741969 18.5684917,15.6152437 C18.6769679,15.7881656 18.7655036,15.9499312 18.842075,16.0901812 C18.9784679,16.2917906 19.1547417,16.4647125 19.3581345,16.5977906 C19.4993131,16.6934156 19.6644202,16.7452125 19.8343131,16.7484 C19.9954321,16.7348531 20.1517655,16.6878375 20.2921464,16.60815 C20.4420988,16.5300562 20.5808845,16.4320406 20.7053131,16.3164937 C20.8193726,16.206525 20.9270512,16.091775 21.0291464,15.97065 C21.1312417,15.8415562 21.2022298,15.7554937 21.2365274,15.7013062 C21.2676345,15.6574781 21.293956,15.6104625 21.314694,15.5610562 C21.354575,15.3347437 21.4016345,15.097275 21.4606583,14.84865 C21.5188845,14.6008219 21.5683369,14.3306812 21.6265631,14.0820562 C21.6465036,13.8828375 21.6887774,13.6876031 21.7533845,13.4987437 C21.7781107,13.3576969 21.8203845,13.2190406 21.880206,13.0883531 C21.9368369,12.955275 22.014206,12.8317594 22.1091226,12.7217906 C22.2168012,12.5807437 22.3500036,12.4189781 22.5007536,12.2572125 C22.6180036,12.1257281 22.7543964,12.0133687 22.905944,11.922525 C23.073444,11.8014 23.2521107,11.6962125 23.4403488,11.61015 C23.6445393,11.5344469 23.8487298,11.4802594 24.0537179,11.4260719 C24.2595036,11.3726812 24.4238131,11.3400094 24.547444,11.3184937 C24.744456,11.2866187 24.9438607,11.2682906 25.1432655,11.2643063 C25.3530393,11.25315 25.5309083,11.2427906 25.6832536,11.2427906 C25.7917298,11.25315 25.8994083,11.2754625 26.0070869,11.2858219 C26.0756821,11.2929937 26.1418845,11.3121187 26.2040988,11.3400094 C26.2272298,11.361525 26.2495631,11.3934 26.2766821,11.4260719 C26.3580393,11.5001812 26.4306226,11.5838531 26.4928369,11.6746969 C26.5670155,11.7798844 26.6228488,11.8962281 26.657944,12.0197437 C26.7289321,12.2054156 26.7823726,12.3966656 26.8174679,12.5919 C26.8461821,12.8508844 26.8740988,13.1106656 26.9012179,13.3473375 M29.0165036,11.3400094 C28.898456,11.0308219 28.7437179,10.736775 28.5546821,10.4650406 C28.3847893,10.2204 28.194956,9.98930625 27.9867774,9.77415 C27.7682298,9.54943125 27.5129917,9.36216563 27.2306345,9.22430625 C26.9769917,9.10875938 26.7129798,9.0187125 26.4417893,8.95416563 C26.1777774,8.90236875 25.9097774,8.87368125 25.6409798,8.86730625 C25.357825,8.83463438 25.0722774,8.83463438 24.7891226,8.86730625 C24.5466464,8.87288438 24.3057655,8.89519688 24.0664798,8.93185313 C23.8598964,8.964525 23.599075,9.00755625 23.2919917,9.08325938 C22.9569917,9.15736875 22.6291702,9.26175938 22.3133131,9.39563438 C21.9791107,9.55261875 21.6608607,9.74068125 21.3633488,9.95743125 C21.0626464,10.1415094 20.7890631,10.3662281 20.5521702,10.6268063 C20.3743012,10.8268219 20.2075988,11.0364 20.0512655,11.25315 C19.8893488,11.48265 19.746575,11.7241031 19.6245393,11.9767125 C19.5264321,12.1424625 19.4498607,12.3201656 19.3972179,12.5058375 L19.2895393,12.3544313 C19.0191464,11.9289 18.697706,11.5376344 18.3339917,11.1878063 C18.014944,10.8594938 17.6647893,10.5630563 17.2883131,10.303275 C17.0243012,10.1040563 16.7403488,9.93432188 16.4396464,9.79566563 C16.1094321,9.65222813 15.7680512,9.53269688 15.4194917,9.4394625 C15.0485988,9.35100938 14.671325,9.28965 14.2908607,9.25618125 C13.8952417,9.22350938 13.4972298,9.22350938 13.1024083,9.25618125 C12.7195512,9.29363438 12.3414798,9.36136875 11.9705869,9.46097813 C11.5853369,9.54863438 11.2176345,9.69765 10.8802417,9.90324375 C10.5875155,10.0745719 10.3235036,10.2897281 10.0961821,10.5407438 C9.87524167,10.787775 9.70295595,11.0730563 9.58809881,11.3830406 C9.46765833,11.78865 9.41900357,12.2125875 9.44452738,12.6349313 C9.44612262,13.0779938 9.51551548,13.5186656 9.65111071,13.9418063 C9.78909881,14.3211188 9.95739643,14.689275 10.1544083,15.0422906 C10.3841226,15.5411344 10.6688726,16.0120875 11.0054679,16.4463844 C11.298194,16.8472125 11.6148488,17.2289156 11.9546345,17.5906969 C12.242575,17.9253844 12.5305155,18.2489156 12.8192536,18.5620875 C13.0944321,18.8959781 13.3943369,19.2099469 13.7149798,19.5016031 C13.9973369,19.7709469 14.2804917,20.0410875 14.5652417,20.3112281 C14.8699321,20.5917281 15.184194,20.8618688 15.5104202,21.1312125 C15.8565869,21.4013531 16.1341583,21.6173063 16.3415393,21.7687125 C16.4994679,21.8770875 16.7411464,22.0492125 17.0617893,22.2866813 C17.4087536,22.5568219 17.7525274,22.8054469 18.094706,23.0317594 C18.4360869,23.2469156 18.768694,23.4525094 19.0989083,23.6581031 C19.4299202,23.8629 19.7601345,24.0788531 20.1023131,24.2948063 C20.443694,24.5107594 20.795444,24.7370719 21.1567655,24.9426656 C21.5180869,25.1474625 21.8179917,25.3092281 22.068444,25.4606344 L22.4393369,25.6877438 C22.7272774,25.8534938 23.0654679,25.9108688 23.3924917,25.8495094 C23.7083488,25.8024938 23.9859202,25.6168219 24.1486345,25.3419 C24.2706702,25.1179781 24.319325,24.8613844 24.2898131,24.6079781 C24.3153369,24.5330719 24.3496345,24.4605563 24.3911107,24.392025 C24.4421583,24.2629313 24.5075631,24.1218844 24.5953012,23.9489625 C24.6830393,23.7760406 24.811456,23.4963375 24.9797536,23.1504938 C25.1089679,22.8500719 25.257325,22.5576188 25.4224321,22.275525 C25.6226345,21.9878531 25.8068845,21.6969938 25.9735869,21.4013531 C26.1434798,21.1104938 26.3045988,20.8076813 26.4601345,20.4945094 C26.5917417,20.2251656 26.7424917,19.9653844 26.9107893,19.7175563 C27.1085988,19.4043844 27.277694,19.1230875 27.4188726,18.8752594 C27.5680274,18.6648844 27.7020274,18.4457438 27.8208726,18.2170406 C27.9118012,18.0759938 28.0242655,17.8600406 28.161456,17.5906969 C28.2978488,17.3205563 28.4581702,17.0073844 28.6296583,16.6623375 C28.8107179,16.3125094 28.9606702,15.9475406 29.0787179,15.5714156 C29.203944,15.2152125 29.2892893,14.8454625 29.3347536,14.4709313 C29.3794202,14.1051656 29.4025512,13.7378063 29.4025512,13.36965 C29.3873964,13.0254 29.3491107,12.6819469 29.2884917,12.3440719 C29.237444,11.9998219 29.1481107,11.6627438 29.0212893,11.3400094" id="Fill-25" fill="#333333"></path>
                <g id="Group-29" transform="translate(0.000000, 0.742130)" fill="#333333">
                    <path d="M42.278356,33.605175 C40.0474155,34.5072375 38.6818917,35.8794563 37.2254393,37.9800188 C36.9717964,38.3449875 38.6404155,38.0262375 37.0132726,38.3378156 C36.1502488,38.5035656 35.0224155,38.3378156 34.1498202,38.3378156 L23.4920345,38.3378156 C21.803475,34.6227844 18.1599512,32.4361594 13.9764393,33.1437844 C11.9425107,33.4872375 9.99392738,34.5247688 8.62601071,36.078675 C8.58533214,36.1240969 7.48142738,38.0660813 7.59070119,38.4326438 C6.83057024,38.513925 5.23293929,38.4047531 4.94978452,38.3378156 C1.71783214,37.5775969 2.50109405,34.6108313 2.50109405,31.9747688 L2.50109405,20.0750344 L2.50109405,8.46058125 C2.50109405,6.86205 1.73458214,2.903175 3.76133214,2.00509688 C5.02795119,1.44409688 7.884225,2.00509688 9.2369869,2.00509688 L21.0872131,2.00509688 L34.4146298,2.00509688 C36.6144631,2.00509688 41.6011774,0.86955 42.278356,3.97656563 L42.278356,33.605175 Z M44.6129869,3.59406562 C44.6185702,3.5311125 44.6161774,3.46576875 44.6026179,3.39883125 C43.6311179,-1.40712188 34.422606,0.379471875 30.9529631,0.379471875 L7.32270119,0.379471875 C5.75378452,0.379471875 3.69991548,0.0822375 2.239475,0.81695625 C0.028475,1.92939375 0.164070238,4.00047187 0.164070238,6.09784687 L0.164070238,29.3514562 C0.164070238,31.6998469 -0.205227381,34.3813312 0.164070238,36.7082062 C0.802963095,40.7292375 4.77191548,39.9634406 7.92091548,39.9634406 C8.3237131,39.9634406 8.97217738,39.6757687 9.13249881,39.266175 C11.5365226,33.1413937 19.1178917,33.6450187 21.401475,39.4606125 C21.5745583,39.9020812 22.0260107,39.9634406 22.4455583,39.9634406 L37.7941417,39.9634406 C38.1985345,39.9634406 38.8430107,39.6757687 39.005725,39.266175 C39.8974631,37.0253625 41.0899036,35.5758469 43.6502607,34.7749875 C43.990844,34.6682062 44.6153798,34.3709719 44.6153798,33.9207375 L44.6153798,3.6108 C44.6153798,3.60522187 44.6129869,3.60044062 44.6129869,3.59406562 L44.6129869,3.59406562 Z" id="Fill-27"></path>
                </g>
                <path d="M64.2308262,34.8616875 C63.7259333,36.4785469 63.0886357,36.0067969 61.7598024,36.1829062 C59.0997429,36.5359219 54.6410524,36.7853437 51.9921595,36.1829062 C50.8220524,35.91675 50.4846595,34.9963594 49.0983976,34.2935156 C47.6650762,33.5675625 46.1711357,33.3436406 44.6428976,33.4297031 L44.6428976,11.5913437 L49.275469,11.5913437 C51.5526714,11.5913437 54.882731,10.9546406 57.0745881,11.5913437 C58.902731,12.1220625 59.8128143,14.8633125 60.732469,16.428375 C61.8291952,18.2954531 62.926719,20.1633281 64.0234452,22.0296094 C64.7197667,24.7437656 64.2308262,28.0930312 64.2308262,30.8757187 C64.2308262,31.9929375 64.5722071,33.7691719 64.2308262,34.8616875 M66.3516952,21.4869375 C66.3413262,21.3705938 66.3046357,21.2510625 66.2511952,21.1299375 C66.2240762,21.0614063 66.1937667,20.9976563 66.1578738,20.9394844 C64.8473857,18.7082344 63.5368976,16.4785781 62.2264095,14.2473281 C61.0762429,12.291 60.1868976,9.74976563 57.7421952,9.24375 C53.3305643,8.32814063 47.9617905,9.20071875 43.446469,9.20071875 C42.7996,9.20071875 42.2500405,9.747375 42.2500405,10.3960313 L42.2500405,34.7596875 C42.2500405,35.5956094 43.010969,36.0426563 43.764719,35.9119688 C47.1298738,35.3278594 48.5209214,37.8690938 51.2304333,38.5735313 C52.4268619,38.8843125 54.1218024,38.5735313 55.3501357,38.5735313 C57.92485,38.5735313 62.4585167,39.4787813 64.8920524,38.1966094 C67.3574929,36.8961094 66.6236833,33.1260938 66.6236833,30.8757188 C66.6236833,27.8515781 67.0910881,24.4505156 66.3516952,21.4869375" id="Fill-30" fill="#333333"></path>
                <g id="Group-34" transform="translate(6.380952, 32.617130)">
                    <mask id="mask-2" fill="white">
                        <use xlink:href="#path-1"></use>
                    </mask>
                    <g id="Clip-33"></g>
                    <path d="M2.50252976,9.54480938 C2.50252976,1.26846563 14.882375,1.33859063 15.324256,9.54480938 C14.882375,17.74545 2.50252976,17.8203563 2.50252976,9.54480938 M17.7171131,9.54480938 C17.7242917,9.41491875 17.7083393,9.30016875 17.6828155,9.1933875 C17.2728393,4.57868438 13.7736845,0.7497 8.91379167,0.7497 C4.14243452,0.7497 0.0881369048,4.7627625 0.109672619,9.54480938 C0.130410714,14.1770438 3.85927976,18.1040438 8.49982738,18.3184031 C13.5184464,18.5494969 17.2552917,14.6774813 17.6820179,9.90021563 C17.7075417,9.79184063 17.7242917,9.67549688 17.7171131,9.54480938" id="Fill-32" fill="#333333" mask="url(#mask-2)"></path>
                </g>
                <path d="M46.142581,35.8243125 C54.3293429,37.0913438 52.3648071,49.3026563 44.1812357,48.4842656 C36.13645,46.7925 37.9566167,34.5580781 46.142581,35.8243125 M43.8151286,50.8462031 C43.94195,50.8732969 44.0576048,50.8748906 44.1676762,50.866125 C48.7946643,51.1673437 53.1177595,48.2977969 53.8611405,43.5006094 C54.5917595,38.7894844 51.2425571,34.1731875 46.5086881,33.462375 C41.9231762,32.773875 37.4684738,35.8537969 36.5464262,40.4031562 C35.5502,45.3230625 38.8076762,49.6046719 43.4681643,50.7569531 C43.5718548,50.7991875 43.6835214,50.8334531 43.8151286,50.8462031" id="Fill-35" fill="#333333"></path>
                <path d="M48.10935,14.2830281 C47.6834214,14.2830281 47.3380524,14.628075 47.3380524,15.0536063 L47.3380524,23.1163875 C47.3380524,23.5419188 47.6834214,23.8869656 48.10935,23.8869656 L59.8247786,23.8869656 C60.1845048,23.8869656 60.5179095,23.6973094 60.7013619,23.3897156 C60.8864095,23.0805281 60.8943857,22.6980281 60.7228976,22.3816688 L56.7994095,15.11895 C56.5218381,14.6033719 55.9826476,14.2830281 55.3979929,14.2830281 L48.10935,14.2830281 Z" id="Fill-37" fill="#F7F7F7"></path>
                <path d="M55.4694595,22.5086109 C53.6014357,22.5086109 50.7651024,22.9978922 48.8205071,22.5245484 C48.6179119,21.4535484 48.8133286,20.1028453 48.8133286,19.0844391 C48.8133286,18.0620484 48.6187095,16.7272828 48.8173167,15.6602672 L51.3784714,15.6602672 C52.3874595,15.6602672 54.2020429,15.2984859 55.1536024,15.6602672 C56.0046619,15.9845953 56.3284952,17.0938453 56.7512333,17.8771734 C57.4419714,19.1545641 58.1319119,20.4327516 58.82265,21.7101422 C58.9032095,21.8591578 59.1839714,22.2265172 59.3044119,22.4894859 C59.2557571,22.4862984 59.1863643,22.4910797 59.0818762,22.5086109 C57.9548405,22.7014547 56.6092571,22.5086109 55.4694595,22.5086109 M60.1873762,19.4605641 C59.3730071,17.9520797 58.6583405,16.3129078 57.7139595,14.8825172 C56.0924,12.4241578 51.513269,13.2983297 48.7886024,13.3827984 C48.6083405,13.3238297 48.3961738,13.3294078 48.1600786,13.4154703 C47.9782214,13.4521266 47.828269,13.5310172 47.7054357,13.6346109 C46.5919595,14.2705172 46.5417095,15.2259703 46.5417095,16.5487828 C46.5417095,18.4875797 46.39415,20.4933141 46.5417095,22.4265328 C46.7905667,25.6825641 50.5609119,24.7789078 52.9657333,24.7789078 C54.8640667,24.7789078 61.13415,25.9335797 61.5975667,22.9970953 C61.7866024,21.7946109 60.7225786,20.4502828 60.1873762,19.4605641" id="Fill-39" fill="#333333"></path>
            </g>
        </g>
    </g>
</svg>