<?xml version="1.0" encoding="UTF-8"?>
<svg width="22px" height="16px" viewBox="0 0 22 16" version="1.1" xmlns="http://www.w3.org/2000/svg" xmlns:xlink="http://www.w3.org/1999/xlink">
    <!-- Generator: Sketch 43.1 (39012) - http://www.bohemiancoding.com/sketch -->
    <title>acompanhar</title>
    <desc>Created with Sketch.</desc>
    <defs>
        <polygon id="path-1" points="3.4421 4 0.3751 4 0.3751 0.9331 3.4421 0.9331"></polygon>
        <polygon id="path-3" points="3.5174 4 0.4504 4 0.4504 0.9331 3.5174 0.9331"></polygon>
    </defs>
    <g id="Symbols" stroke="none" stroke-width="1" fill="none" fill-rule="evenodd">
        <g id="Hover-Menu" transform="translate(-7.000000, -62.000000)">
            <g id="acompanhar" transform="translate(7.000000, 63.000000)">
                <path d="M10.1889,12.6108 L10.1889,12.6108 C10.1889,11.3248 9.1469,10.2828 7.8609,10.2828 C6.5749,10.2828 5.5329,11.3248 5.5329,12.6108 L3.1109,12.6108 L3.1109,10.4408" id="Stroke-1" stroke="#00B0C7" stroke-linecap="round" stroke-linejoin="round"></path>
                <g id="Group-5" transform="translate(6.000000, 10.522000)">
                    <mask id="mask-2" fill="white">
                        <use xlink:href="#path-1"></use>
                    </mask>
                    <g id="Clip-4"></g>
                    <path d="M1.9081,0.9331 C1.0611,0.9331 0.3751,1.6201 0.3751,2.4661 C0.3751,3.3131 1.0611,4.0001 1.9081,4.0001 C2.7551,4.0001 3.4421,3.3131 3.4421,2.4661 C3.4421,1.6201 2.7551,0.9331 1.9081,0.9331 M1.9081,1.9331 C2.2021,1.9331 2.4421,2.1721 2.4421,2.4661 C2.4421,2.7611 2.2021,3.0001 1.9081,3.0001 C1.6141,3.0001 1.3751,2.7611 1.3751,2.4661 C1.3751,2.1721 1.6141,1.9331 1.9081,1.9331" id="Fill-3" fill="#00B0C7" mask="url(#mask-2)"></path>
                </g>
                <g id="Group-8" transform="translate(15.000000, 10.522000)">
                    <mask id="mask-4" fill="white">
                        <use xlink:href="#path-3"></use>
                    </mask>
                    <g id="Clip-7"></g>
                    <path d="M1.9834,0.9331 C1.1364,0.9331 0.4504,1.6201 0.4504,2.4661 C0.4504,3.3131 1.1364,4.0001 1.9834,4.0001 C2.8304,4.0001 3.5174,3.3131 3.5174,2.4661 C3.5174,1.6201 2.8304,0.9331 1.9834,0.9331 M1.9834,1.9331 C2.2774,1.9331 2.5174,2.1721 2.5174,2.4661 C2.5174,2.7611 2.2774,3.0001 1.9834,3.0001 C1.6894,3.0001 1.4504,2.7611 1.4504,2.4661 C1.4504,2.1721 1.6894,1.9331 1.9834,1.9331" id="Fill-6" fill="#00B0C7" mask="url(#mask-4)"></path>
                </g>
                <polyline id="Stroke-9" stroke="#00B0C7" stroke-linecap="round" stroke-linejoin="round" points="3.0009 3.1108 3.0009 0.4998 14.6559 0.4998 14.6559 12.6108"></polyline>
                <polyline id="Stroke-11" stroke="#00B0C7" stroke-linecap="round" stroke-linejoin="round" points="21.2148 10.2832 21.2148 7.8772 16.9678 7.8772 16.9678 5.6902 19.6888 5.6902 18.4938 3.8032 14.6558 3.8032 14.6558 12.6112"></polyline>
                <path d="M19.3115,12.6108 L19.3115,12.6108 C19.3115,11.3248 18.2695,10.2828 16.9835,10.2828 C15.6975,10.2828 14.6555,11.3248 14.6555,12.6108" id="Stroke-13" stroke="#00B0C7" stroke-linecap="round" stroke-linejoin="round"></path>
                <path d="M3.6342,6.7265 L0.9472,6.7265" id="Stroke-15" stroke="#00B0C7" stroke-linecap="round" stroke-linejoin="round"></path>
                <path d="M4.0825,8.5176 L1.3955,8.5176" id="Stroke-17" stroke="#00B0C7" stroke-linecap="round" stroke-linejoin="round"></path>
                <path d="M3.1865,4.9355 L0.4995,4.9355" id="Stroke-19" stroke="#00B0C7" stroke-linecap="round" stroke-linejoin="round"></path>
            </g>
        </g>
    </g>
</svg>