<?xml version="1.0" encoding="UTF-8"?>
<svg width="19px" height="15px" viewBox="0 0 19 15" version="1.1" xmlns="http://www.w3.org/2000/svg" xmlns:xlink="http://www.w3.org/1999/xlink">
    <!-- Generator: Sketch 43.1 (39012) - http://www.bohemiancoding.com/sketch -->
    <title>trocas</title>
    <desc>Created with Sketch.</desc>
    <defs>
        <polygon id="path-1" points="2.425 1 0.97 1 0.97 0.0597 2.425 0.0597 2.425 1"></polygon>
    </defs>
    <g id="Symbols" stroke="none" stroke-width="1" fill="none" fill-rule="evenodd">
        <g id="Hover-Menu" transform="translate(-9.000000, -114.000000)">
            <g id="trocas" transform="translate(9.000000, 115.000000)">
                <polyline id="Stroke-1" stroke="#00B0C7" stroke-linecap="round" stroke-linejoin="round" points="6.3283 6.4176 3.4073 9.3386 0.5003 6.2736"></polyline>
                <path d="M3.4069,5.5719 C3.4069,2.7729 5.6759,0.5039 8.4749,0.5039" id="Stroke-3" stroke="#00B0C7" stroke-linecap="round" stroke-linejoin="round"></path>
                <path d="M10.6271,0.4997 C11.1381,0.5617 11.6271,0.7127 12.0821,0.9407" id="Stroke-5" stroke="#00B0C7" stroke-linecap="round" stroke-linejoin="round"></path>
                <polyline id="Stroke-7" stroke="#00B0C7" stroke-linecap="round" stroke-linejoin="round" points="11.7238 7.0827 14.6448 4.1607 17.5518 7.2257"></polyline>
                <path d="M14.6452,7.9284 C14.6452,10.7274 12.3762,12.9954 9.5772,12.9954" id="Stroke-9" stroke="#00B0C7" stroke-linecap="round" stroke-linejoin="round"></path>
                <g id="Group-13" transform="translate(5.000000, 12.500000)">
                    <mask id="mask-2" fill="white">
                        <use xlink:href="#path-1"></use>
                    </mask>
                    <g id="Clip-12"></g>
                    <path d="M2.425,0.4997 C1.914,0.4377 1.425,0.2867 0.97,0.0597" id="Stroke-11" stroke="#00B0C7" stroke-linecap="round" stroke-linejoin="round" mask="url(#mask-2)"></path>
                </g>
            </g>
        </g>
    </g>
</svg>