<?xml version="1.0" encoding="UTF-8"?>
<svg width="74px" height="74px" viewBox="0 0 74 74" version="1.1" xmlns="http://www.w3.org/2000/svg" xmlns:xlink="http://www.w3.org/1999/xlink">
    <!-- Generator: Sketch 43.1 (39012) - http://www.bohemiancoding.com/sketch -->
    <title>Page 1 Copy 12</title>
    <desc>Created with Sketch.</desc>
    <defs></defs>
    <g id="Page-1" stroke="none" stroke-width="1" fill="none" fill-rule="evenodd">
        <g id="SejaCriativa/Escolha-de-Coleções" transform="translate(-1023.000000, -181.000000)">
            <g id="Page-1-Copy-12" transform="translate(1023.362735, 181.000000)">
                <path d="M40.3879136,72.1443325 C36.215169,72.1443325 32.8600262,70.9320574 30.7344415,68.6937357 C30.6677352,68.9686016 30.559563,69.2380956 30.4045161,69.5022175 C29.5625754,70.9329528 27.6948011,71.7548645 25.2816585,71.7548645 C23.6455531,71.7548645 20.3742439,71.3546526 16.8460256,68.6749338 C14.9611241,67.2415126 11.9683584,63.7846485 13.398035,60.5086408 C13.4088522,59.2327974 13.8974302,57.0347655 15.0260274,52.239385 C15.4208561,50.5597484 15.8445308,48.7574517 16.2600925,46.8906914 C15.6966954,48.1450469 14.863769,49.5471317 13.8352312,50.2821965 C13.4034436,50.5901896 12.8661881,50.7522441 12.2811565,50.7522441 C11.2922818,50.7522441 10.2312923,50.2938358 9.57775159,49.5838401 C9.47859369,49.4764007 9.38935158,49.3635893 9.31002526,49.2463012 C7.99032377,49.7226161 7.49994289,49.7512666 7.27097829,49.7655919 C7.23492087,49.7682778 7.1465802,49.7709638 7.11052278,49.7709638 C5.52850358,49.7709638 4.2448595,48.4002156 3.62016474,47.5836758 C2.38880393,45.9738748 1.32420867,43.3550384 2.03003262,40.8355835 C2.43748144,39.3860463 4.15651883,38.1343768 11.2246741,34.1349436 L15.3838973,31.7873917 C16.0924255,31.3853891 16.8009538,30.9798052 17.503172,30.5742214 C16.3917021,29.164974 15.5731987,27.5820329 15.0774092,25.8809084 C13.321413,25.5183002 12.0035144,24.0419032 12.0035144,22.281687 L12.0035144,20.5223661 C12.0035144,19.4130539 12.5380656,18.3834259 13.4133594,17.6967088 L13.4836714,15.7977166 C13.0735182,15.3008092 12.8382436,14.6678118 12.8382436,13.9909433 C12.8382436,12.4160602 14.1281977,11.1348448 15.7138227,11.1348448 C16.8334055,11.1348448 17.8060543,11.7741095 18.2802094,12.704356 C21.1503798,9.61547201 25.3835207,7.71379387 29.9754328,7.71379387 C34.5709507,7.71379387 38.8599805,9.6432272 41.7472783,12.7965749 C42.2034046,11.8161899 43.2030965,11.1348448 44.3596382,11.1348448 C44.5777856,11.1348448 44.7932286,11.1608093 45.0014602,11.2082618 C45.7009741,10.3854547 46.4744057,9.52683447 47.3163464,8.64404038 L48.0780594,7.85615114 L48.6811197,7.24911828 L49.2706585,6.66804996 L49.8520843,6.1075742 L50.9707657,5.06630693 L51.7225629,4.39301976 L52.2345782,3.9480414 L52.7096347,3.54693414 C52.8430472,3.43591339 52.9818682,3.32220664 53.1152807,3.21566253 C53.3000749,3.06703797 53.683185,2.77426548 53.683185,2.77426548 L54.074408,2.49044629 C54.1239869,2.45463314 54.4133477,2.26482346 54.4133477,2.26482346 C54.4728424,2.22721965 54.548563,2.18245322 54.6233822,2.1412681 C54.639608,2.13231481 54.7342587,2.08038575 54.751386,2.07143246 C54.8550511,2.01771274 54.9451946,1.98010893 55.0299295,1.94698177 C55.0993401,1.91922658 55.2183295,1.87893679 55.2904444,1.86013489 C55.4382798,1.81715911 55.6230741,1.79119458 55.8114741,1.79119458 C56.0413401,1.79119458 56.2973478,1.83954233 56.5100865,1.92370323 C56.7282339,1.99801551 57.1365842,2.22274301 57.4439737,2.71785978 C57.4818339,2.77874213 57.5305115,2.87185631 57.5611603,2.93721531 C57.5836961,2.98108641 57.6233593,3.06703797 57.6657268,3.17626807 C57.6747411,3.20044194 57.7026856,3.28012619 57.7107985,3.30430007 C57.746856,3.41173951 57.7711947,3.49142376 57.7955335,3.58095663 L57.8946914,3.98474987 C57.8946914,3.98474987 58.0163852,4.59178273 58.0163852,4.59357338 L58.0975144,5.08242285 C58.1272617,5.27402319 58.1984751,5.79152317 58.1993766,5.79510449 L58.2814072,6.45943838 L58.3589306,7.16406206 L58.4283412,7.88659231 L58.4923431,8.63598243 L58.5491335,9.40775576 C58.5680637,9.68172634 58.5860924,9.96554553 58.6023182,10.2538414 L58.6527986,11.2995853 L58.6852503,12.18417 L58.7014761,12.8126908 L56.902211,12.9962332 L58.7050818,12.9622107 C58.7627737,15.978573 58.6446857,20.1463281 57.7594761,22.8806619 C56.9743258,25.307898 55.0452539,29.6681487 53.2748347,33.4965742 C56.4010128,34.2414877 59.2612675,35.7017688 61.419304,37.6750732 C63.89735,37.908754 66.0003989,38.608901 67.6833789,39.7629797 C67.7681138,39.8077461 67.849243,39.8569892 67.9276679,39.9142903 C67.9907683,39.9608474 68.0511645,40.0091951 68.1115607,40.0593335 L68.2810306,40.1945281 C68.6920851,40.5275904 69.0202076,40.8328975 69.3167799,41.1579018 C69.3384143,41.180285 69.4105292,41.2653413 69.4303608,41.2886198 C69.782822,41.6906224 70.0694785,42.0738231 70.3128661,42.4677677 C72.3897733,45.8297269 72.0625522,50.2830918 69.3925005,55.0077413 C66.9090458,59.4038052 62.6326361,63.5957341 57.3511258,66.8144408 C51.7108442,70.2516076 45.6847483,72.1443325 40.3879136,72.1443325 L40.3879136,72.1443325" id="Fill-1" fill="#FEFEFE"></path>
                <path d="M55.8118346,0.000447664346 C55.4593734,0.000447664346 55.1033064,0.0505860711 54.7535494,0.149072227 C54.6336585,0.183094717 54.493936,0.231442467 54.3713408,0.279790216 C54.2505485,0.325451979 54.1063188,0.388124988 53.9359475,0.474076542 C53.8656355,0.50988969 53.8016336,0.544807509 53.7376317,0.580620656 C53.642981,0.634340378 53.5456259,0.690746085 53.4392566,0.758791066 L53.2778996,0.861753865 C53.1886575,0.920845559 53.1039226,0.979041924 53.0155819,1.03992428 L52.8533235,1.15542168 C52.7685886,1.21630403 52.672135,1.28703499 52.5738785,1.3622426 L52.442269,1.46072876 C52.3124622,1.56011024 52.1781484,1.6648637 52.036623,1.77857045 L51.974424,1.82870885 C51.8392086,1.93704362 51.6931761,2.05612234 51.5426364,2.18236369 L51.4146325,2.28980313 L51.3641522,2.33188358 L51.0522555,2.59600554 L50.8863914,2.74015346 L50.8413196,2.77865259 L50.5339301,3.04635587 L50.3013598,3.25228147 L49.9876602,3.53341468 L49.753287,3.74650291 L49.4008258,4.06971657 L49.3449368,4.12164563 L49.1862841,4.26758421 C49.0105042,4.43142936 48.83202,4.59975115 48.6526343,4.77075893 L48.6075626,4.81283938 C48.4101482,5.00085841 48.2127339,5.19156342 48.0135166,5.38495441 L47.8701884,5.52462569 L47.8016793,5.59267067 L47.4086534,5.98124332 L47.2283663,6.16120439 L47.163463,6.22566806 L46.7857615,6.60797341 L46.5441768,6.85508413 L46.1502496,7.26245868 L46.1033749,7.31170176 L46.0060199,7.41197857 C45.9870897,7.43257113 45.9681596,7.45316369 45.9492295,7.47465158 C45.3434648,8.11123028 44.7710533,8.73616971 44.2356007,9.34588855 C43.2728676,9.37185308 42.381348,9.68611345 41.6475795,10.2062994 C38.5205,7.51762736 34.372094,5.92304696 29.974892,5.92304696 C25.5695769,5.92304696 21.456327,7.50419743 18.3517833,10.156161 C17.5999862,9.644033 16.6922407,9.34499322 15.7141832,9.34499322 C13.1333736,9.34499322 11.0348318,11.4293184 11.0348318,13.9908538 C11.0348318,14.8315674 11.2583878,15.6302006 11.660428,16.3213944 L11.6387936,16.8970907 C10.7337524,17.8765803 10.2001026,19.1569003 10.2001026,20.5222766 L10.2001026,22.2815975 C10.2001026,24.5288725 11.6216663,26.4645731 13.6480932,27.3070774 C13.9843286,28.2391146 14.4089047,29.1353386 14.9182157,29.9885869 C14.7775918,30.0682711 14.635165,30.149746 14.4891325,30.2330116 C13.6913621,30.6851526 12.8953946,31.1337123 12.1120472,31.5751093 L10.3317122,32.5796681 C2.98411189,36.7357839 0.907204631,38.1727864 0.294228529,40.3547024 C-0.456667196,43.0308399 0.250058192,46.1376305 2.18453865,48.666934 C3.61151096,50.5336943 5.36029572,51.5615317 7.10998192,51.5615317 C7.20373121,51.5615317 7.29657906,51.5588457 7.38762404,51.5525784 C7.72566233,51.5328812 8.15023842,51.4746848 8.78755328,51.2974097 C9.75569495,52.077241 11.0357333,52.5437072 12.2806156,52.5437072 C12.5663707,52.5437072 12.8476185,52.518638 13.119852,52.4702903 C12.1499075,56.6013369 11.6739496,58.7492304 11.6036376,60.1933956 C10.6715534,62.9689145 11.5414386,66.9003028 15.7511421,70.0975216 C18.6790044,72.3206227 22.0638945,73.5463277 25.282019,73.5463277 C27.782601,73.5463277 29.8613111,72.787089 31.181914,71.4261893 C33.5553935,73.0637455 36.6986989,73.9349003 40.3873728,73.9349003 C46.0123299,73.9349003 52.3728584,71.9472706 58.2943879,68.3399914 C70.5629242,60.8648921 76.5169054,49.0886338 71.8492726,41.5311643 C71.5599118,41.0620121 71.222775,40.6089758 70.8189319,40.1469862 C70.7621415,40.0789412 70.7098582,40.0171635 70.6557721,39.9580718 C70.2942965,39.5632319 69.9021721,39.1961471 69.4523558,38.8326437 C69.3730295,38.76818 69.3135347,38.7198323 69.2549414,38.6741705 C69.1647979,38.5998582 69.0809644,38.5344992 68.995328,38.4718262 C68.8799443,38.3876653 68.7618562,38.3115624 68.639261,38.2435174 C66.8535174,37.0366143 64.6909738,36.2711083 62.1912933,35.9586386 C60.3676894,34.39629 58.1862156,33.173271 55.7811858,32.3504639 C57.3037103,28.9956673 58.795586,25.5316406 59.4761697,23.4285135 C60.2486999,21.0424626 60.5957525,17.5103909 60.5074119,12.9272033 L60.5065104,12.9272033 L60.5047076,12.8027526 C60.4992989,12.5601185 60.4938903,12.3479256 60.4875803,12.1348374 L60.4857774,12.087385 L60.4794674,11.8778781 C60.4713545,11.6576272 60.4632415,11.436481 60.4542272,11.2162302 L60.4515229,11.1580338 L60.4452128,11.0022466 C60.4325927,10.7381247 60.4199726,10.477584 60.4055497,10.218834 L60.4019439,10.156161 C60.3857181,9.85980721 60.3676894,9.56972072 60.3478578,9.28590152 L60.3478578,9.28411087 C60.3298291,9.01461693 60.3099975,8.75139029 60.2892645,8.4926403 L60.2784473,8.35923633 L60.2730387,8.29656332 C60.2577143,8.10048634 60.240587,7.90799067 60.2243611,7.71907631 L60.2045296,7.5158367 C60.1865009,7.32155037 60.1693736,7.14696128 60.1513449,6.97774416 L60.128809,6.75838863 C60.1116817,6.59006683 60.0927516,6.42711701 60.0738214,6.26685318 L60.0675114,6.21044747 L60.0503841,6.06540422 C60.0296511,5.89171045 60.0080166,5.72249333 59.9863822,5.55775285 L59.9692549,5.42882552 C59.940409,5.21484196 59.9106616,5.01249768 59.8818157,4.82179267 C59.8800128,4.81373471 59.8791114,4.80478142 59.8773085,4.79672346 C59.8484626,4.60870444 59.8196166,4.43859199 59.7907707,4.27743282 L59.7691362,4.16014476 C59.7402903,4.0052529 59.716853,3.88438353 59.6934157,3.77336277 L59.6591611,3.61399426 C59.6303152,3.48596226 59.6059764,3.38299946 59.5825391,3.28898995 L59.5320587,3.10097092 C59.499607,2.98189221 59.4662539,2.87445276 59.4338023,2.77596661 C59.4076606,2.69717768 59.3833219,2.62734204 59.360786,2.56556437 C59.304897,2.41604447 59.2426979,2.27547787 59.1732874,2.13401594 C59.1074826,1.99792597 59.0362692,1.8707893 58.9740702,1.77230314 C58.4142788,0.875183796 57.6642845,0.444530695 57.133339,0.24308174 C56.7204816,0.08550389 56.253538,0.000447664346 55.8118346,0.000447664346 M55.8118346,3.58176243 C55.8226519,3.58176243 55.8325677,3.58265776 55.8406806,3.58623907 C55.8632165,3.59429703 55.8857523,3.62026156 55.9091897,3.65786537 C55.9164012,3.67039997 55.9245141,3.68830654 55.9317256,3.70352713 C55.9479514,3.73575896 55.9641772,3.77067678 55.9813045,3.81544322 C55.9903189,3.83872176 55.9993332,3.86737228 56.0083476,3.89512747 C56.0245734,3.94257989 56.0398978,3.99450896 56.0561236,4.05180999 C56.0660394,4.08672781 56.0759552,4.12343629 56.085871,4.16283075 C56.1020969,4.22729442 56.1183227,4.29713005 56.1345485,4.37054701 C56.1435629,4.41262746 56.1534787,4.4547079 56.162493,4.49857901 C56.1814232,4.58632122 56.1994519,4.68212139 56.2174806,4.77971222 C56.2246921,4.82089734 56.232805,4.85850114 56.2400165,4.90058159 C56.2652567,5.04383418 56.2904969,5.19514473 56.3166385,5.35719922 C56.3166385,5.35988521 56.3175399,5.3625712 56.3175399,5.36615251 C56.3436816,5.53716029 56.3698232,5.71801669 56.3959648,5.9087217 C56.4013734,5.9463255 56.4058806,5.98751062 56.4112892,6.02511443 C56.4311208,6.17642498 56.4509524,6.33221217 56.470784,6.49516199 C56.4779954,6.55425369 56.4852069,6.61782202 56.4924184,6.6795997 C56.5095457,6.82822426 56.5266729,6.97953481 56.5438002,7.13621733 C56.5501103,7.20426232 56.5582232,7.2723073 56.5645332,7.34214293 C56.5816605,7.50240677 56.5978863,7.66535659 56.6132108,7.83188773 C56.6195208,7.90082804 56.6258308,7.96976835 56.6321409,8.04049931 C56.6483667,8.21956505 56.6645926,8.40131678 56.6790155,8.58664981 C56.6844242,8.64842749 56.6898328,8.71020517 56.6943399,8.77287818 C56.7141715,9.01909357 56.7331017,9.27068094 56.7502289,9.52674494 C56.7511304,9.52674494 56.7511304,9.52764027 56.7511304,9.52764027 C56.7691591,9.79802953 56.7862864,10.0737908 56.8025122,10.3540287 C56.8034136,10.3746212 56.8043151,10.3952138 56.8052165,10.4167017 C56.818738,10.6629171 56.8313581,10.9127138 56.8430768,11.1643011 C56.8457811,11.2323461 56.8484854,11.3003911 56.8511897,11.3684361 C56.8602041,11.577943 56.868317,11.7874499 56.8755285,11.9996428 C56.8782328,12.0802224 56.8809371,12.160802 56.8827399,12.2422769 C56.88905,12.4437258 56.8944586,12.6478608 56.8989658,12.8519957 C56.8998672,12.9003435 56.9016701,12.9477959 56.9025715,12.9970389 L56.9016701,12.9970389 C56.9683763,16.456589 56.7736663,20.0764029 56.0435036,22.3317359 C55.220493,24.8744694 52.9623972,29.9447157 50.6565253,34.8520123 C54.5759666,35.3014673 58.1835113,36.9488721 60.6354157,39.4119213 C63.1215747,39.5569646 65.2642867,40.2123452 66.8652361,41.3825398 C66.8634332,41.3744818 66.8634332,41.3664239 66.8625317,41.3592612 C66.9166179,41.3986557 66.9661968,41.4434221 67.0184801,41.4846073 C67.0716648,41.524897 67.1230466,41.5678728 67.1753298,41.6099533 C67.4637892,41.8427387 67.7360227,42.0925354 67.983016,42.3620294 C68.0163691,42.3987378 68.0461165,42.437237 68.0776667,42.4739455 C68.3336744,42.7649273 68.5707519,43.0711297 68.7753778,43.404192 C72.332442,49.1611555 66.7949241,58.9596327 56.4085849,65.2878158 C50.8936029,68.6470891 45.1217117,70.3535856 40.3873728,70.3535856 C36.2047123,70.3535856 32.8306394,69.0213365 31.1629839,66.3201298 C31.0448958,66.1285295 30.9385264,65.9333478 30.84027,65.7336895 C30.8087197,65.6692259 30.7825781,65.6020762 30.7537322,65.5376125 C30.6915331,65.4006273 30.6293341,65.2627466 30.5761494,65.1203894 C30.546402,65.0424958 30.5211618,64.9610209 30.4950202,64.8813366 C30.4499484,64.748828 30.4066795,64.6172147 30.3697207,64.48202 C30.3462834,64.3978591 30.3273532,64.3119076 30.3066202,64.2268513 C30.2741685,64.0916567 30.2453226,63.9555667 30.2200824,63.8167908 C30.2128709,63.7773963 30.2020537,63.7388972 30.1957436,63.6995027 C30.1975465,63.7012934 30.1993494,63.7021887 30.2020537,63.7039794 C29.8973685,61.8596023 30.2290967,59.7922883 31.1125035,57.6533481 C31.0746432,57.3444597 31.03498,57.0284087 30.9908097,56.705195 C30.7086604,55.6889969 30.5427963,54.6226605 30.4878087,53.5231968 C30.3444805,52.7550048 30.1777149,51.9662202 29.9830049,51.1622151 C29.2843924,56.7213109 27.4941416,61.9177986 26.8216708,63.2652683 C26.8081492,63.2930235 26.7693875,63.3136161 26.7477531,63.3386853 C27.8285742,65.130238 29.5521187,67.4025822 28.8480976,68.597846 C28.3595196,69.4296064 27.0299024,69.9650129 25.282019,69.9650129 C23.1906888,69.9650129 20.5026083,69.1977162 17.9416302,67.252167 C16.9419383,66.4929283 13.7066865,63.4407528 15.2265067,60.8827987 C14.9227229,59.3616352 17.3836417,50.9491268 19.0314657,42.4506669 C17.7874848,43.1875224 16.4831077,43.9100527 15.2048722,44.5770726 C14.7622674,46.1259912 13.7436454,48.1422714 12.7827152,48.8280932 C12.6538099,48.920312 12.4771286,48.9623925 12.2806156,48.9623925 C11.5747917,48.9623925 10.6138615,48.4251953 10.6724548,47.7805586 C10.7013007,47.4716702 10.7995572,47.0777256 10.9401811,46.6452818 C9.15714181,47.4349617 7.75631113,47.9426131 7.16136374,47.9784263 C7.14423647,47.9793216 7.12710919,47.9802169 7.10998192,47.9802169 C5.67309382,47.9802169 2.91019419,44.371147 3.76745929,41.3162855 C4.04059423,40.3430632 7.67518194,38.2041229 12.1174558,35.6909353 C13.455186,34.9343825 14.8632282,34.1447026 16.2784818,33.3415928 L16.2784818,33.3415928 C17.6495651,32.5635522 19.0224513,31.7747676 20.3367442,30.9931456 C18.3445719,29.1630938 16.9761929,26.7662989 16.5092493,24.0910568 C16.3208493,24.1411952 16.1243364,24.176113 15.9179076,24.176113 C14.7514502,24.176113 13.8058444,23.3273414 13.8058444,22.2815975 L13.8058444,20.5222766 C13.8058444,19.7102135 14.3782559,19.0234964 15.1778291,18.7531071 L15.3184531,14.980192 C14.9218215,14.8244048 14.6405736,14.4412041 14.6405736,13.9908538 C14.6405736,13.4026228 15.1210387,12.926308 15.7141832,12.926308 C16.3064263,12.926308 16.78599,13.4026228 16.78599,13.9908538 C16.78599,14.397333 16.5579268,14.7500925 16.2216914,14.9291583 L16.3379766,18.6662602 C16.5020378,18.6958061 16.6561833,18.7459445 16.8040187,18.8077222 C18.3707135,13.4509706 23.6657453,9.50436172 29.974892,9.50436172 C35.8549554,9.50436172 40.8525135,12.9334706 42.7761767,17.7351184 C42.8419815,17.5829125 42.9068848,17.4333926 42.9690839,17.298198 C43.1917384,16.8129298 43.4829021,16.2945345 43.8254475,15.7555466 L43.8506877,14.9291583 C43.5153538,14.7500925 43.2863891,14.397333 43.2863891,13.9908538 C43.2863891,13.4026228 43.7677557,12.926308 44.3590973,12.926308 C44.817928,12.926308 45.2028409,13.2146038 45.3560849,13.6166064 C46.3314381,12.3720995 47.4672467,11.0908842 48.6255913,9.8750278 C48.6246898,9.8750278 48.6246898,9.8750278 48.6246898,9.87413247 C48.6706631,9.82668005 48.7166363,9.78012296 48.7626095,9.73177521 C48.8870076,9.60195255 49.0123071,9.47212989 49.1376066,9.34409789 C49.2142286,9.26530896 49.2908506,9.18652004 49.3674727,9.10862644 C49.4864621,8.98596641 49.6054516,8.86599237 49.7253425,8.74691365 C49.802866,8.66812473 49.8812909,8.5893358 49.9597157,8.5114422 C50.0850153,8.38609619 50.2103148,8.26343616 50.3356143,8.14077613 C50.4023205,8.07541713 50.4699282,8.00826748 50.5366344,7.94290849 C50.7259359,7.7593661 50.9143359,7.57761438 51.1000316,7.4003393 C51.115356,7.38601404 51.1297789,7.37258411 51.1451033,7.35825885 C51.3163761,7.19530903 51.4858459,7.03504519 51.6526115,6.88015333 C51.722022,6.81479433 51.7905311,6.75391198 51.8590402,6.69034365 C51.9699168,6.58648552 52.0816948,6.48441805 52.1907685,6.38503656 C52.2655876,6.31699158 52.3377024,6.25073726 52.4116201,6.18448294 C52.5125809,6.09495007 52.6117388,6.0054172 52.7090938,5.91767499 C52.7821101,5.85321132 52.8533235,5.79053831 52.9245369,5.72696997 C53.0218919,5.64191375 53.1165427,5.55954351 53.210292,5.4780686 C53.2760967,5.42076756 53.342803,5.3625712 53.4077063,5.30795615 C53.5059628,5.22379525 53.6006135,5.14321567 53.6943628,5.06442674 C53.7475475,5.01876498 53.8034365,4.97220789 53.8557197,4.92923211 C53.990935,4.8164207 54.1216432,4.70987658 54.2460413,4.60959977 C54.2631685,4.59527451 54.2802958,4.58184458 54.2974231,4.56841465 C54.4191169,4.47082382 54.5345006,4.38129095 54.6444757,4.29713005 C54.6832375,4.26758421 54.7165906,4.24161968 54.7535494,4.21475981 C54.8310729,4.15656345 54.9067935,4.10015774 54.976204,4.04912401 C55.0158671,4.02047349 55.052826,3.99540429 55.0897849,3.97033508 C55.1519839,3.92646398 55.2105772,3.88617419 55.2655648,3.85036104 C55.2989179,3.82708249 55.332271,3.80648993 55.3629198,3.7867927 C55.4143016,3.75456087 55.4593734,3.72859634 55.5035437,3.70442246 C55.5305868,3.68920187 55.5567284,3.67398129 55.5810672,3.66144668 C55.6234346,3.63906347 55.6585906,3.62563354 55.6919437,3.61220361 C55.7081696,3.6059363 55.7270997,3.59787835 55.7406212,3.59429703 C55.7685657,3.58623907 55.7929045,3.58176243 55.8118346,3.58176243" id="Fill-3" fill="#FEFEFE"></path>
                <path d="M50.6831177,41.8772089 C51.6737952,44.8326889 50.0394928,48.8768886 49.6960459,49.4543756 C49.3264573,50.076629 48.5827731,50.082001 48.228509,49.4176671 C47.6993664,48.4238523 47.1116305,47.319912 44.8850849,45.9464778 L47.3703424,37.9297047 C48.758553,38.3845317 50.0178583,39.8922652 50.6831177,41.8772089" id="Fill-5" fill="#EEDC33"></path>
                <path d="M33.6897074,35.3344154 C30.9529494,36.8537882 29.4151005,40.936487 29.2771809,41.592763 C29.1284441,42.3000726 29.6738125,42.802352 30.3859465,42.5480787 C31.4523446,42.1684593 32.6359294,41.7467595 35.2113304,42.222179 L38.8161708,34.636059 C37.4820463,34.0424561 35.5286357,34.3128454 33.6897074,35.3344154" id="Fill-7" fill="#EEDC33"></path>
                <path d="M56.0433233,22.332094 C57.7839951,16.9556452 56.4877309,3.83549858 55.8405003,3.5865972 C55.1941711,3.3368005 45.3324673,12.1620554 42.9689036,17.2985561 C40.5314221,22.596216 34.9758755,41.3560381 34.6171042,43.2854714 C34.5404822,43.6991132 36.0413722,45.3680059 39.0161092,46.5131313 C39.0377436,46.5211893 39.0575752,46.5274566 39.0774068,46.5355145 C39.0981398,46.5435725 39.1170699,46.5525258 39.137803,46.5605837 C42.1134414,47.7057091 44.3544099,47.4782956 44.5779659,47.1210595 C45.6227295,45.4548528 54.2485653,27.8777599 56.0433233,22.332094" id="Fill-9" fill="#3F973B"></path>
                <path d="M41.6437033,44.7388584 C40.3023674,48.1769206 38.4994965,50.6883176 37.6169912,50.348988 C36.7344859,50.0096585 37.1076802,46.946739 38.4490161,43.5086768 C39.7912535,40.0706146 41.0640804,37.3550827 42.4766297,37.8985472 C43.8882776,38.4429071 42.9859407,41.3007963 41.6437033,44.7388584" id="Fill-11" fill="#EEDC33"></path>
                <path d="M47.8049245,24.2634971 C46.1300574,23.6179651 45.2953282,21.7404608 45.9452631,20.0769401 C46.5942967,18.4134194 48.4855082,17.584345 50.1594738,18.229877 C51.8352423,18.8736183 52.6690701,20.7520179 52.0200366,22.416434 C51.3710031,24.0799547 49.4797915,24.9081337 47.8049245,24.2634971" id="Fill-13" fill="#FEFEFE"></path>
                <path d="M51.3411656,22.1545503 C50.8363617,23.4483003 49.3706277,24.090251 48.0680535,23.5897622 C46.7654792,23.0874828 46.11915,21.6316784 46.6239539,20.3388238 C47.1287577,19.0441785 48.5944918,18.4022278 49.897066,18.9036119 C51.1996402,19.4058913 51.8468708,20.8608004 51.3411656,22.1545503" id="Fill-15" fill="#3E91C0"></path>
                <path d="M51.0955244,22.6284478 C50.4221521,23.0071719 49.4152487,23.0492523 48.4272755,22.6687376 C47.4393022,22.2882229 46.7235625,21.5827039 46.4837807,20.853011 C46.2998878,21.9972411 46.9363013,23.1531104 48.0685042,23.5891355 C49.1998057,24.0251606 50.4555052,23.5971935 51.0955244,22.6284478" id="Fill-17" fill="#2A7495"></path>
                <path d="M47.3810695,20.1121265 C48.0147786,19.4137701 48.9639901,19.2355997 49.6815328,19.4594319 C49.6815328,19.4594319 49.6671098,19.4531646 49.6815328,19.4594319 C49.559839,19.3537831 49.4201165,19.2687269 49.2614638,19.2069492 C48.526794,18.9249207 47.6992762,19.2866335 47.4144226,20.0172217 C47.4018025,20.0485582 47.3909853,20.0798947 47.3810695,20.1121265" id="Fill-19" fill="#FEFEFE"></path>
                <path d="M44.5350575,32.6414458 C42.8601905,31.9968091 42.0254613,30.1193048 42.6753962,28.4548888 C43.3244297,26.7922634 45.2156413,25.9622937 46.8896069,26.6078257 C48.5653754,27.2524624 49.3992032,29.130862 48.7501697,30.7943827 C48.1011361,32.4579034 46.2099246,33.2869778 44.5350575,32.6414458" id="Fill-21" fill="#FEFEFE"></path>
                <path d="M48.0712986,30.5325886 C47.5664948,31.8263385 46.1007607,32.4691845 44.7981865,31.9678005 C43.4956123,31.4664164 42.8492831,30.0106119 43.354087,28.716862 C43.8588908,27.4222167 45.3246248,26.7811614 46.6262976,27.2816501 C47.9297733,27.7839295 48.5761025,29.2397339 48.0712986,30.5325886" id="Fill-23" fill="#3E91C0"></path>
                <path d="M47.8256575,31.006486 C47.1522852,31.3852101 46.1453818,31.4281859 45.1574086,31.0467758 C44.1694353,30.6671565 43.4536956,29.9607421 43.2139137,29.2319446 C43.0300209,30.3761746 43.6664343,31.532044 44.7977358,31.9671737 C45.9299387,32.4040941 47.1847369,31.9752317 47.8256575,31.006486" id="Fill-25" fill="#2A7495"></path>
                <path d="M44.1112026,28.4900752 C44.7449117,27.7917188 45.6941232,27.6135484 46.4116658,27.8373806 C46.4116658,27.8373806 46.3972429,27.8311133 46.4116658,27.8373806 C46.289972,27.7326272 46.1502496,27.6475709 45.9915969,27.5857932 C45.256927,27.3028694 44.4294093,27.6645822 44.1445557,28.3960657 C44.1319356,28.4274022 44.1211184,28.4578434 44.1112026,28.4900752" id="Fill-27" fill="#FEFEFE"></path>
                <path d="M52.6431088,12.8926436 C52.5619796,13.1003599 52.3267049,13.204218 52.1175719,13.1236384 C51.9102418,13.0430588 51.8056752,12.8093781 51.8868044,12.6016618 C51.9679336,12.3939455 52.2032083,12.2918781 52.4114399,12.3715623 C52.6205729,12.4521419 52.724238,12.6858227 52.6431088,12.8926436" id="Fill-29" fill="#FEFEFE"></path>
                <path d="M54.5053843,13.4714736 C54.4242551,13.6791899 54.1889804,13.7821527 53.9807488,13.7015731 C53.7716158,13.6209935 53.6679507,13.3882081 53.7490799,13.1804918 C53.8302091,12.9727755 54.0645823,12.8698127 54.2737153,12.9503923 C54.4828484,13.0309719 54.5865134,13.2646527 54.5053843,13.4714736" id="Fill-31" fill="#FEFEFE"></path>
                <path d="M56.3650456,13.9033802 C56.2839164,14.1102011 56.0486417,14.2140592 55.8404101,14.1334797 C55.6312771,14.0529001 55.527612,13.8192193 55.6087412,13.6123984 C55.688969,13.4037868 55.9242436,13.3017193 56.1333767,13.3822989 C56.3425097,13.4628785 56.4461748,13.6956639 56.3650456,13.9033802" id="Fill-33" fill="#FEFEFE"></path>
                <path d="M50.1183684,11.782257 C50.0372392,11.9899732 50.1409043,12.223654 50.3500373,12.3033383 C50.5591703,12.3839179 50.794445,12.2818504 50.8746727,12.0741341 C50.9558019,11.8664179 50.8521368,11.6327371 50.6439052,11.5521575 C50.4347722,11.4724733 50.1994976,11.5754361 50.1183684,11.782257" id="Fill-35" fill="#FEFEFE"></path>
                <path d="M48.4519748,10.8572034 C48.3717471,11.0640243 48.4745107,11.2968098 48.6836437,11.3773893 C48.8927767,11.4579689 49.1280514,11.3559015 49.2082792,11.1481852 C49.2894083,10.9404689 49.1857433,10.7067882 48.9766102,10.6262086 C48.7683787,10.545629 48.533104,10.6494871 48.4519748,10.8572034" id="Fill-37" fill="#FEFEFE"></path>
                <path d="M52.5009524,11.8285455 C53.9189104,12.3738006 55.4486463,12.7605826 56.9026617,12.9969494 C56.8107153,8.21052223 56.2166693,3.73029746 55.8407707,3.58614954 C55.4639707,3.44110629 51.9537811,6.37957506 48.62478,9.87404294 C49.9012126,10.7165472 51.082093,11.282395 52.5009524,11.8285455" id="Fill-39" fill="#D83318"></path>
                <path d="M37.332408,37.6541225 C40.5802799,28.5190839 42.4561671,19.424335 48.001798,12.3279598 C42.2975145,16.4258792 37.9580042,35.5384608 37.332408,37.6541225" id="Fill-41" fill="#FEFEFE"></path>
                <path d="M43.6314586,22.0837298 C43.6314586,29.0305852 37.5179235,34.663098 29.9756131,34.663098 C22.4333027,34.663098 16.3197676,29.0305852 16.3197676,22.0837298 C16.3197676,15.1359792 22.4333027,9.50436172 29.9756131,9.50436172 C37.5179235,9.50436172 43.6314586,15.1359792 43.6314586,22.0837298" id="Fill-43" fill="#D83318"></path>
                <path d="M38.3451708,22.6302385 C38.3451708,25.7710515 35.7814884,28.3182616 32.6183514,28.3182616 L27.3323339,28.3182616 C24.169197,28.3182616 21.6055146,25.7710515 21.6055146,22.6302385 C21.6055146,19.4885301 24.169197,16.94132 27.3323339,16.94132 L32.6183514,16.94132 C35.7814884,16.94132 38.3451708,19.4885301 38.3451708,22.6302385" id="Fill-45" fill="#ECB66A"></path>
                <path d="M15.6596464,60.2978804 C13.1834032,62.955216 16.8639641,66.4344633 17.9411795,67.2527937 C22.6430668,70.8251552 27.7749388,70.4231526 28.8485484,68.5984727 C29.6057541,67.3109901 27.5495799,64.7754192 26.5111263,62.9364141 L15.6596464,60.2978804 Z" id="Fill-47" fill="#EEDC33"></path>
                <path d="M32.3581971,62.9235214 C31.0592286,66.3060732 35.7809475,68.1701475 37.0871275,68.530965 C42.7914109,70.1031621 47.4013518,67.8290273 47.7132485,65.7384348 C47.9322973,64.2629331 45.0711412,62.6728293 43.4170071,61.3504289 L32.3581971,62.9235214 Z" id="Fill-49" fill="#EEDC33"></path>
                <path d="M24.6484902,38.5100567 L20.9598164,30.6204203 C13.6906409,34.9949963 4.215653,39.7214365 3.76673815,41.3169122 C2.90045868,44.4075868 5.73998033,48.0667952 7.16154403,47.9781577 C7.75649142,47.9414492 9.1573221,47.4355885 10.9403614,46.6441179 C10.7997375,47.077457 10.701481,47.4714016 10.6726351,47.78029 C10.5978159,48.6030971 12.1888495,49.2522104 12.781994,48.8278246 C13.7429242,48.1428981 14.7624477,46.1266179 15.2041511,44.576804 C18.8279215,42.6876604 22.6860652,40.3544338 24.6484902,38.5100567" id="Fill-51" fill="#D83318"></path>
                <path d="M29.8862808,26.061138 C28.8829832,26.061138 28.0004779,25.6448102 27.4875611,25.0162894 C27.5786061,26.0199529 28.6170597,26.9242349 29.8862808,26.9242349 C31.1564034,26.9242349 32.1939556,26.0199529 32.2850006,25.0162894 C31.7729852,25.6448102 30.8904799,26.061138 29.8862808,26.061138" id="Fill-53" fill="#2A2422"></path>
                <path d="M25.0389019,22.1301079 C24.3673325,22.1301079 23.8192597,21.5875387 23.8192597,20.9196235 C23.8192597,20.2517083 24.3673325,19.7100344 25.0389019,19.7100344 C25.7113727,19.7100344 26.2576426,20.2517083 26.2576426,20.9196235 C26.2576426,21.5875387 25.7113727,22.1301079 25.0389019,22.1301079" id="Fill-55" fill="#FEFEFE"></path>
                <path d="M24.2391484,20.9436183 C24.2391484,21.3456209 24.5672709,21.6715205 24.9720154,21.6715205 C25.3785628,21.6715205 25.7066853,21.3456209 25.7066853,20.9436183 C25.7066853,20.5407204 25.3785628,20.2157161 24.9720154,20.2157161 C24.5672709,20.2157161 24.2391484,20.5407204 24.2391484,20.9436183" id="Fill-57" fill="#2A2422"></path>
                <path d="M24.916487,20.8247186 C24.916487,20.9688666 25.0336736,21.0852593 25.1788047,21.0852593 C25.3230343,21.0852593 25.4411224,20.9688666 25.4411224,20.8247186 C25.4411224,20.6805707 25.3230343,20.564178 25.1788047,20.564178 C25.0336736,20.564178 24.916487,20.6805707 24.916487,20.8247186" id="Fill-59" fill="#FEFEFE"></path>
                <path d="M34.7148198,22.1301079 C34.0432504,22.1301079 33.4960791,21.5875387 33.4960791,20.9196235 C33.4960791,20.2517083 34.0432504,19.7100344 34.7148198,19.7100344 C35.3872906,19.7100344 35.9335605,20.2517083 35.9335605,20.9196235 C35.9335605,21.5875387 35.3872906,22.1301079 34.7148198,22.1301079" id="Fill-61" fill="#FEFEFE"></path>
                <path d="M33.9158776,20.9436183 C33.9158776,21.3456209 34.2430986,21.6715205 34.6478431,21.6715205 C35.055292,21.6715205 35.382513,21.3456209 35.382513,20.9436183 C35.382513,20.5407204 35.055292,20.2157161 34.6478431,20.2157161 C34.2430986,20.2157161 33.9158776,20.5407204 33.9158776,20.9436183" id="Fill-63" fill="#2A2422"></path>
                <path d="M34.5924049,20.8247186 C34.5924049,20.9688666 34.7095915,21.0852593 34.8547226,21.0852593 C34.9998537,21.0852593 35.1179417,20.9688666 35.1179417,20.8247186 C35.1179417,20.6805707 34.9998537,20.564178 34.8547226,20.564178 C34.7095915,20.564178 34.5924049,20.6805707 34.5924049,20.8247186" id="Fill-65" fill="#FEFEFE"></path>
                <path d="M29.9153071,22.6127796 C29.3627271,22.6127796 28.8768534,22.3835754 28.5956056,22.0370832 C28.646086,22.5903963 29.2166946,23.0873038 29.9153071,23.0873038 C30.6139195,23.0873038 31.1854296,22.5903963 31.23591,22.0370832 C30.9528593,22.3835754 30.467887,22.6127796 29.9153071,22.6127796" id="Fill-67" fill="#CB9459"></path>
                <path d="M11.1379561,36.5663877 C11.8338642,37.7133037 13.5664231,37.9451939 15.0042127,37.0838877 C16.4420022,36.2216861 17.0423582,34.5939786 16.3464501,33.4470625 C16.3248156,33.4112494 16.3022797,33.3763316 16.277941,33.3414137 C14.4678586,34.3692511 12.6631848,35.3764959 11.0117551,36.319277 C11.0478125,36.4025425 11.0892785,36.4858081 11.1379561,36.5663877" id="Fill-69" fill="#EEDC33"></path>
                <path d="M35.6078719,38.5100567 L39.2974472,30.6204203 C46.5648197,34.9949963 56.0407091,39.7214365 56.4887225,41.3169122 C57.3568048,44.4075868 54.5163818,48.0667952 53.0948181,47.9781577 C52.4998707,47.9414492 51.09904,47.4355885 49.3150993,46.6441179 C49.4557232,47.077457 49.5548811,47.4714016 49.5828256,47.78029 C49.6585462,48.6030971 48.0675126,49.2522104 47.4743681,48.8278246 C46.5125365,48.1428981 45.493013,46.1266179 45.0513096,44.576804 C41.4284406,42.6876604 37.5702969,40.3544338 35.6078719,38.5100567" id="Fill-71" fill="#D83318"></path>
                <path d="M49.1179553,36.5663877 C48.4211457,37.7133037 46.6903897,37.9451939 45.2516987,37.0838877 C43.8139092,36.2216861 43.2126517,34.5939786 43.9094613,33.4470625 C43.9310958,33.4112494 43.9536317,33.3763316 43.9779704,33.3414137 C45.7880528,34.3692511 47.5927266,35.3764959 49.2450577,36.319277 C49.2090003,36.4025425 49.1666328,36.4858081 49.1179553,36.5663877" id="Fill-73" fill="#EEDC33"></path>
                <path d="M38.4173757,30.5491521 L20.4445559,30.456038 C20.5554324,41.1167167 14.3805996,59.7896919 15.2919509,61.0583726 C17.140795,63.6342333 26.195714,64.5197134 26.8222116,63.2653579 C27.4946825,61.9178882 29.2849333,56.7214005 29.9835457,51.1614093 C31.5394233,57.586288 31.2798099,63.1149426 32.3029391,63.7658466 C34.985611,65.4705524 43.719619,62.9376676 43.8286927,61.5409548 C43.963908,59.8380396 43.1625319,52.4363573 42.3647616,48.0787926 C41.5994429,43.8993983 40.1192859,35.7626511 38.4173757,30.5491521" id="Fill-75" fill="#D83318"></path>
                <path d="M39.7382491,30.8857957 C37.2584002,33.2261849 33.8068039,34.6631875 29.9748018,34.6631875 C26.2275347,34.6631875 22.8318274,33.2709514 20.3655,31.0183044 L19.9165851,31.2886936 C22.0782273,34.3551944 25.656926,35.8656139 29.9748018,35.8656139 C34.3810183,35.8656139 38.2382605,34.0480967 40.143895,31.1857308 L39.7382491,30.8857957 Z" id="Fill-77" fill="#B32A18"></path>
                <path d="M30.6706198,48.5518843 C30.6706198,48.8992718 30.3352858,49.1813003 29.9224284,49.1813003 C29.5086695,49.1813003 29.174237,48.8992718 29.174237,48.5518843 L29.174237,37.8088353 C29.174237,37.4605524 29.5086695,37.1794192 29.9224284,37.1794192 C30.3352858,37.1794192 30.6706198,37.4605524 30.6706198,37.8088353 L30.6706198,48.5518843 Z" id="Fill-79" fill="#EEDC33"></path>
                <path d="M16.78599,13.9908538 C16.78599,13.4026228 16.3064263,12.926308 15.7141832,12.926308 C15.1210387,12.926308 14.6405736,13.4026228 14.6405736,13.9908538 C14.6405736,14.4412041 14.9218215,14.8244048 15.3184531,14.980192 L15.1399689,19.7675145 L16.3722311,19.7675145 L16.2216914,14.9291583 C16.5579268,14.7500925 16.78599,14.397333 16.78599,13.9908538" id="Fill-81" fill="#EEDC33"></path>
                <path d="M18.02943,22.2813289 C18.02943,23.3270728 17.0838242,24.1758444 15.9173668,24.1758444 C14.7509093,24.1758444 13.806205,23.3270728 13.806205,22.2813289 L13.806205,20.522008 C13.806205,19.4753688 14.7509093,18.6274925 15.9173668,18.6274925 C17.0838242,18.6274925 18.02943,19.4753688 18.02943,20.522008 L18.02943,22.2813289 Z" id="Fill-83" fill="#D83318"></path>
                <path d="M43.2867497,13.9908538 C43.2867497,13.4026228 43.7672148,12.926308 44.3594579,12.926308 C44.951701,12.926308 45.4321661,13.4026228 45.4321661,13.9908538 C45.4321661,14.4412041 45.1509182,14.8244048 44.7542866,14.980192 L44.9327708,19.7675145 L43.7005086,19.7675145 L43.8510483,14.9291583 C43.5148129,14.7500925 43.2867497,14.397333 43.2867497,13.9908538" id="Fill-85" fill="#EEDC33"></path>
                <path d="M42.0433097,22.2813289 C42.0433097,23.3270728 42.9889155,24.1758444 44.1553729,24.1758444 C45.3218304,24.1758444 46.2665347,23.3270728 46.2665347,22.2813289 L46.2665347,20.522008 C46.2665347,19.4753688 45.3218304,18.6274925 44.1553729,18.6274925 C42.9889155,18.6274925 42.0433097,19.4753688 42.0433097,20.522008 L42.0433097,22.2813289 Z" id="Fill-87" fill="#D83318"></path>
                <path d="M22.3297278,55.4715216 C21.8727,57.4313961 22.7038235,58.2927023 23.911747,58.5702542 C25.1196705,58.8478061 26.2473662,58.4377456 26.704394,56.4769757 C27.1614218,54.5162059 26.3789758,53.4427068 25.1710523,53.1660502 C23.9631288,52.887603 22.7858541,53.5107518 22.3297278,55.4715216" id="Fill-89" fill="#EEDC33"></path>
                <path d="M37.4226417,56.3169805 C37.7408484,58.3055055 38.8360925,58.7934596 40.0611433,58.6000686 C41.286194,58.407573 42.1750094,57.6053585 41.8577041,55.6186241 C41.5403988,53.6309944 40.4099988,52.9272661 39.1858495,53.1206571 C37.9607987,53.3140481 37.1053365,54.3293508 37.4226417,56.3169805" id="Fill-91" fill="#EEDC33"></path>
                <path d="M68.7756482,43.4037443 C72.331811,49.1624984 66.7951945,58.959185 56.4088553,65.2873682 C46.0216147,71.6164467 34.7194171,72.0784363 31.1623529,66.3205775 C27.6070915,60.5627187 33.143708,50.7651368 43.5309486,44.4360583 C53.9172878,38.1078751 65.2194854,37.6458855 68.7756482,43.4037443" id="Fill-93" fill="#B32A18"></path>
                <path d="M53.5274169,60.622258 C44.5869802,66.0694378 34.968664,67.1697968 30.1955633,63.7003981 C30.3488074,64.6378072 30.6679155,65.5188106 31.1628036,66.3201298 C34.7189664,72.078884 46.0220654,71.615999 56.4084046,65.2878158 C66.7947438,58.9596327 72.3322617,49.1620508 68.7760989,43.404192 C68.2803094,42.6019775 67.6339802,41.9206323 66.8623515,41.3592612 C67.8133659,47.1583052 62.4669522,55.1750783 53.5274169,60.622258" id="Fill-95" fill="#D83318"></path>
                <path d="M62.3327285,41.5343875 C64.4303688,44.9312646 59.4490365,51.8405161 51.161239,56.8892746 C42.8725401,61.9398237 34.4134699,63.2192484 32.3167311,59.8232667 C28.3350907,53.3769001 30.7842908,42.3697292 39.0738912,37.31918 C47.3625901,32.2686309 58.3510881,35.0889163 62.3327285,41.5343875" id="Fill-97" fill="#294C95"></path>
                <path d="M43.7801955,60.4097965 C46.1356463,59.5977334 48.6560598,58.4158995 51.1611489,56.8893641 C53.686971,55.3511894 55.9054036,53.639321 57.7100774,51.9068599 C55.3275835,48.1491654 50.3381383,46.9843428 46.5169535,49.3121974 C42.6912615,51.6436333 41.4779294,56.5956963 43.7801955,60.4097965" id="Fill-99" fill="#87AE27"></path>
                <path d="M47.1808607,40.9713153 L45.8124817,38.7553768 C46.0279248,38.3954547 46.0396434,37.9307791 45.8043688,37.5493691 C45.4645276,36.9996372 44.740675,36.8268388 44.1871936,37.1643777 C43.6337122,37.5019166 43.4606366,38.2208656 43.7995763,38.7705974 C44.0330481,39.1484261 44.4477084,39.3489797 44.8641716,39.3265965 L46.0288262,41.2121587 C44.8470443,41.5219425 43.6219936,42.0385471 42.4348031,42.7610774 C41.2548241,43.4809216 40.2416107,44.3252166 39.4294173,45.2250219 L38.2719742,43.3502036 C38.4874173,42.9902815 38.5000374,42.5256059 38.2629599,42.1441959 C37.9240201,41.5935688 37.2001675,41.4216656 36.6466861,41.7592046 C36.0932047,42.0958481 35.9201291,42.8156924 36.2590689,43.3645289 C36.4925406,43.7432529 36.9072009,43.9420159 37.3236641,43.920528 L38.6911417,46.1337805 C37.2163933,48.1608047 36.7692813,50.3328721 37.7356201,51.8979067 C39.2905963,54.4155709 44.7812395,55.8087024 48.9314483,53.2802942 C53.0807557,50.7518859 54.3184265,45.2590444 52.7643518,42.7422755 C51.8007173,41.1817176 49.6580053,40.5925913 47.1808607,40.9713153" id="Fill-101" fill="#87AE27"></path>
                <path d="M43.1177306,47.7361503 C43.6324502,48.5705966 43.3692311,49.661107 42.5299947,50.173235 C41.6898568,50.6844677 40.591007,50.4230317 40.0762874,49.5885854 C39.5606663,48.7559297 39.8238855,47.664524 40.6640233,47.152396 C41.5041611,46.640268 42.6021095,46.901704 43.1177306,47.7361503" id="Fill-103" fill="#FEFEFE"></path>
                <path d="M42.9187838,47.9625789 C43.2414977,48.4845556 43.0756335,49.1676914 42.5500967,49.488219 C42.0245598,49.8087467 41.3367646,49.6449015 41.0140507,49.1229249 C40.6913368,48.600053 40.8572009,47.9169172 41.3818363,47.5972848 C41.9082746,47.2758618 42.5960699,47.439707 42.9187838,47.9625789" id="Fill-105" fill="#2A2422"></path>
                <path d="M49.7090265,43.7203325 C50.2237462,44.5547789 49.9614285,45.6443939 49.1221921,46.1574172 C48.2820542,46.6677546 47.1832044,46.4063186 46.6684848,45.5727676 C46.1537652,44.7392166 46.4169843,43.6478109 47.2562207,43.1365782 C48.0963585,42.6235549 49.1943069,42.8858862 49.7090265,43.7203325" id="Fill-107" fill="#FEFEFE"></path>
                <path d="M49.5109812,43.9458658 C49.8336951,44.4678425 49.6687324,45.1509782 49.1431955,45.4715059 C48.6167572,45.7929289 47.928962,45.6281884 47.6062481,45.1062118 C47.2835342,44.5833399 47.4484969,43.9010994 47.9749352,43.5805717 C48.500472,43.2591487 49.1882673,43.4229939 49.5109812,43.9458658" id="Fill-109" fill="#2A2422"></path>
                <path d="M46.5060461,49.266267 C45.921916,49.6217125 45.2584595,49.6933388 44.7347255,49.5089011 C45.1484843,50.0604236 46.0769629,50.2188968 46.8161399,49.7694418 C47.555317,49.3181961 47.8338605,48.4246581 47.526471,47.8077766 C47.4543562,48.3548224 47.0901763,48.9108215 46.5060461,49.266267" id="Fill-111" fill="#2A2422"></path>
                <path d="M45.4236926,47.5569055 C45.1027816,47.7529825 44.7377002,47.7914816 44.4483394,47.6903095 C44.6764026,47.9938259 45.1884179,48.0806728 45.5940639,47.8335621 C46.0015127,47.5846607 46.1556582,47.0922299 45.9852869,46.754691 C45.9456237,47.0546261 45.745505,47.3599332 45.4236926,47.5569055" id="Fill-113" fill="#6F8D2C"></path>
                <path d="M37.0251087,66.490869 C37.5587585,67.3539659 38.69637,67.6252505 39.5653538,67.0952159 C40.435239,66.5651813 40.7074725,65.4352765 40.1747241,64.5712843 C39.6401729,63.7081874 38.5034628,63.4369028 37.6335776,63.9678328 C36.7636924,64.496972 36.4914589,65.6268768 37.0251087,66.490869" id="Fill-115" fill="#EEDC33"></path>
                <path d="M37.5621839,66.6534607 C36.6850873,65.815433 37.0609858,64.1572843 38.5654816,63.9916485 C38.5654816,63.9916485 38.5492557,64.0006018 38.5654816,63.9916485 C37.6433131,64.5530196 37.2358643,65.4510343 37.5621839,66.6534607" id="Fill-117" fill="#FEFEFE"></path>
                <path d="M44.4584355,65.3165559 C45.0434671,66.2656043 46.2928566,66.5619581 47.2474768,65.9799945 C48.2029983,65.3980308 48.5022749,64.1580006 47.9163419,63.2089522 C47.3313103,62.2607991 46.0819207,61.9644453 45.1263992,62.5455136 C44.171779,63.1274772 43.8725025,64.3675075 44.4584355,65.3165559" id="Fill-119" fill="#EEDC33"></path>
                <path d="M45.0482447,65.4958007 C44.0864131,64.5754028 44.4983691,62.7551996 46.1497988,62.5725525 C46.1497988,62.5725525 46.1326716,62.5832965 46.1497988,62.5725525 C45.1374868,63.1903293 44.6894734,64.1751909 45.0482447,65.4958007" id="Fill-121" fill="#FEFEFE"></path>
                <path d="M51.8218109,61.8638103 C52.4465057,62.8755317 53.7788273,63.1924781 54.7983508,62.5720153 C55.8169728,61.9515525 56.1351795,60.6273614 55.5104848,59.61564 C54.8848886,58.6039186 53.5534684,58.2869722 52.5348464,58.907435 C51.5153229,59.5287931 51.1971162,60.8511936 51.8218109,61.8638103" id="Fill-123" fill="#EEDC33"></path>
                <path d="M52.4508326,62.0544258 C51.4240976,61.0731456 51.8639981,59.1302823 53.6263044,58.9368913 C53.6263044,58.9368913 53.6073743,58.9467399 53.6263044,58.9368913 C52.5463847,59.5949579 52.068624,60.6460738 52.4508326,62.0544258" id="Fill-125" fill="#FEFEFE"></path>
                <path d="M66.3693564,48.6122294 C66.9030062,49.4753263 66.6307727,50.6061264 65.7599861,51.1352657 C64.8910023,51.6653003 63.7533908,51.3940157 63.219741,50.5309188 C62.6860912,49.6669266 62.9592261,48.5370218 63.8282099,48.0069872 C64.6980951,47.4769527 65.8357066,47.7482372 66.3693564,48.6122294" id="Fill-127" fill="#EEDC33"></path>
                <path d="M66.2720915,49.1613345 C65.916926,48.0054652 64.2582847,47.5873467 63.4289641,48.8434928 C63.4289641,48.8434928 63.4442885,48.8336442 63.4289641,48.8434928 C64.3502312,48.2821217 65.3400073,48.3268882 66.2720915,49.1613345" id="Fill-129" fill="#FEFEFE"></path>
                <path d="M61.9466437,54.6618759 C62.5316753,55.610029 62.2323987,56.8500592 61.2777786,57.4320228 C60.3231585,58.0130912 59.0746704,57.7167374 58.4887373,56.7685843 C57.9028043,55.8195359 58.2020809,54.5795056 59.156701,53.997542 C60.1122226,53.4155783 61.3607107,53.7128275 61.9466437,54.6618759" id="Fill-131" fill="#EEDC33"></path>
                <path d="M61.8401842,55.264253 C61.4507641,53.9955723 59.628963,53.5362686 58.7185132,54.9150748 C58.7185132,54.9150748 58.7356405,54.9052262 58.7185132,54.9150748 C59.7308252,54.2990887 60.8179564,54.3492271 61.8401842,55.264253" id="Fill-133" fill="#FEFEFE"></path>
            </g>
        </g>
    </g>
</svg>