<?xml version="1.0" encoding="UTF-8"?>
<svg width="77px" height="48px" viewBox="0 0 77 48" version="1.1" xmlns="http://www.w3.org/2000/svg" xmlns:xlink="http://www.w3.org/1999/xlink">
    <!-- Generator: Sketch 43.1 (39012) - http://www.bohemiancoding.com/sketch -->
    <title>Page 1</title>
    <desc>Created with Sketch.</desc>
    <defs>
        <polygon id="path-1" points="3.40967776e-20 0.263573029 3.40967776e-20 16.8991604 27.2114509 16.8991604 27.2114509 0.263573029 0 0.263573029"></polygon>
    </defs>
    <g id="Page-1" stroke="none" stroke-width="1" fill="none" fill-rule="evenodd">
        <g id="SejaCriativa/Escolha-de-Coleções" transform="translate(-1058.000000, -274.000000)">
            <g id="Page-1" transform="translate(1058.680248, 274.852066)">
                <path d="M29.8058451,24.055882 C28.8548356,23.7147421 27.5390209,23.5040381 26.0873476,23.5040381 C24.7514057,23.5040381 23.5286793,23.6846416 22.6003128,23.9781222 L22.6003128,15.9312338 C23.5286793,16.2247144 24.7514057,16.4028095 26.0873476,16.4028095 C27.5390209,16.4028095 28.8548356,16.1921055 29.8058451,15.8509655 L29.8058451,24.055882 Z" id="Fill-1" fill="#9C9C9C"></path>
                <path d="M27.0564716,29.5161273 L27.0564716,42.7327904 C27.0564716,44.9878255 31.9700206,46.8164358 38.0333351,46.8164358 C44.0941337,46.8164358 49.0101986,44.9878255 49.0101986,42.7327904 L49.0101986,29.5161273 L27.0564716,29.5161273 Z" id="Fill-3" fill="#D9D9D9"></path>
                <path d="M49.0091923,29.5161273 C49.0091923,31.7711624 44.0956432,33.6022811 38.0323288,33.6022811 C31.9715302,33.6022811 27.0554652,31.7711624 27.0554652,29.5161273 C27.0554652,27.2610922 31.9715302,25.4299735 38.0323288,25.4299735 C44.0956432,25.4299735 49.0091923,27.2610922 49.0091923,29.5161273" id="Fill-5" fill="#B2B2B1"></path>
                <path d="M29.8206889,12.327191 L29.8206889,27.8264814 C29.8206889,29.5146223 33.496416,30.8816903 38.0325803,30.8816903 C42.5687447,30.8816903 46.2469877,29.5146223 46.2469877,27.8264814 L46.2469877,12.327191 L29.8206889,12.327191 Z" id="Fill-7" fill="#D9D9D9"></path>
                <path d="M46.2464845,12.327191 C46.2464845,14.0153318 42.5707574,15.3849082 38.0320772,15.3849082 C33.4984287,15.3849082 29.8201857,14.0153318 29.8201857,12.327191 C29.8201857,10.6390501 33.4984287,9.26947368 38.0320772,9.26947368 C42.5707574,9.26947368 46.2464845,10.6390501 46.2464845,12.327191" id="Fill-9" fill="#B2B2B1"></path>
                <path d="M32.7884423,5.53449335 L32.7884423,11.5445759 C32.7884423,12.62318 35.1357752,13.4986052 38.031574,13.4986052 C40.9298886,13.4986052 43.2772216,12.62318 43.2772216,11.5445759 L43.2772216,5.53449335 L32.7884423,5.53449335 Z" id="Fill-11" fill="#D9D9D9"></path>
                <path d="M43.2784795,5.53449335 C43.2784795,6.61309748 40.9286307,7.4860143 38.0328319,7.4860143 C35.1370332,7.4860143 32.7897002,6.61309748 32.7897002,5.53449335 C32.7897002,4.45588923 35.1370332,3.5829724 38.0328319,3.5829724 C40.9286307,3.5829724 43.2784795,4.45588923 43.2784795,5.53449335" id="Fill-13" fill="#B2B2B1"></path>
                <path d="M40.970143,2.92828478 C40.970143,4.54619097 39.6543283,5.85556621 38.0340899,5.85556621 C36.4113356,5.85556621 35.0955209,4.54619097 35.0955209,2.92828478 C35.0955209,1.31037859 36.4113356,0.00100335268 38.0340899,0.00100335268 C39.6543283,0.00100335268 40.970143,1.31037859 40.970143,2.92828478" id="Fill-15" fill="#9C9C9C"></path>
                <path d="M46.2464845,24.055882 C47.197494,23.7147421 48.5133088,23.5040381 49.964982,23.5040381 C51.3009239,23.5040381 52.5236504,23.6846416 53.4495009,23.9781222 L53.4495009,15.9312338 C52.5236504,16.2247144 51.3009239,16.4028095 49.964982,16.4028095 C48.5133088,16.4028095 47.197494,16.1921055 46.2464845,15.8509655 L46.2464845,24.055882 Z" id="Fill-17" fill="#9C9C9C"></path>
                <path d="M75.9864131,26.0450287 C75.9864131,27.2841693 63.5478128,28.2900303 62.3024432,28.2900303 C61.0570736,28.2900303 48.774459,27.2841693 48.774459,26.0450287 L48.774459,13.8969362 C48.774459,12.6577957 61.0570736,11.654443 62.3024432,11.654443 C63.5478128,11.654443 75.9864131,12.6577957 75.9864131,13.8969362 L75.9864131,26.0450287 Z" id="Fill-19" fill="#D9D9D9"></path>
                <path d="M55.3235934,15.7689415 C55.3235934,16.5666068 54.6744917,17.2137693 53.8744361,17.2137693 L51.4264672,17.2137693 C50.6238957,17.2137693 49.9773099,16.5666068 49.9773099,15.7689415 C49.9773099,14.9712761 50.6238957,14.3241136 51.4264672,14.3241136 L53.8744361,14.3241136 C54.6744917,14.3241136 55.3235934,14.9712761 55.3235934,15.7689415" id="Fill-21" fill="#9C9C9C"></path>
                <path d="M61.7655505,15.7689415 C61.7655505,16.5666068 61.1164488,17.2137693 60.3163932,17.2137693 L57.8684243,17.2137693 C57.0658528,17.2137693 56.4167511,16.5666068 56.4167511,15.7689415 C56.4167511,14.9712761 57.0658528,14.3241136 57.8684243,14.3241136 L60.3163932,14.3241136 C61.1164488,14.3241136 61.7655505,14.9712761 61.7655505,15.7689415" id="Fill-23" fill="#9C9C9C"></path>
                <path d="M68.2090172,15.7689415 C68.2090172,16.5666068 67.5599155,17.2137693 66.757344,17.2137693 L64.3093751,17.2137693 C63.5093195,17.2137693 62.8602178,16.5666068 62.8602178,15.7689415 C62.8602178,14.9712761 63.5093195,14.3241136 64.3093751,14.3241136 L66.757344,14.3241136 C67.5599155,14.3241136 68.2090172,14.9712761 68.2090172,15.7689415" id="Fill-25" fill="#9C9C9C"></path>
                <path d="M74.6497164,15.7689415 C74.6497164,16.5666068 74.0006147,17.2137693 73.2005591,17.2137693 L70.7525902,17.2137693 C69.9525346,17.2137693 69.300917,16.5666068 69.300917,15.7689415 C69.300917,14.9712761 69.9525346,14.3241136 70.7525902,14.3241136 L73.2005591,14.3241136 C74.0006147,14.3241136 74.6497164,14.9712761 74.6497164,15.7689415" id="Fill-27" fill="#9C9C9C"></path>
                <path d="M55.3235934,19.8450617 C55.3235934,20.6427271 54.6744917,21.2923979 53.8744361,21.2923979 L51.4264672,21.2923979 C50.6238957,21.2923979 49.9773099,20.6427271 49.9773099,19.8450617 C49.9773099,19.0473963 50.6238957,18.4002339 51.4264672,18.4002339 L53.8744361,18.4002339 C54.6744917,18.4002339 55.3235934,19.0473963 55.3235934,19.8450617" id="Fill-29" fill="#9C9C9C"></path>
                <path d="M61.7655505,19.8450617 C61.7655505,20.6427271 61.1164488,21.2923979 60.3163932,21.2923979 L57.8684243,21.2923979 C57.0658528,21.2923979 56.4167511,20.6427271 56.4167511,19.8450617 C56.4167511,19.0473963 57.0658528,18.4002339 57.8684243,18.4002339 L60.3163932,18.4002339 C61.1164488,18.4002339 61.7655505,19.0473963 61.7655505,19.8450617" id="Fill-31" fill="#9C9C9C"></path>
                <path d="M68.2090172,19.8450617 C68.2090172,20.6427271 67.5599155,21.2923979 66.757344,21.2923979 L64.3093751,21.2923979 C63.5093195,21.2923979 62.8602178,20.6427271 62.8602178,19.8450617 C62.8602178,19.0473963 63.5093195,18.4002339 64.3093751,18.4002339 L66.757344,18.4002339 C67.5599155,18.4002339 68.2090172,19.0473963 68.2090172,19.8450617" id="Fill-33" fill="#9C9C9C"></path>
                <path d="M74.6497164,19.8450617 C74.6497164,20.6427271 74.0006147,21.2923979 73.2005591,21.2923979 L70.7525902,21.2923979 C69.9525346,21.2923979 69.300917,20.6427271 69.300917,19.8450617 C69.300917,19.0473963 69.9525346,18.4002339 70.7525902,18.4002339 L73.2005591,18.4002339 C74.0006147,18.4002339 74.6497164,19.0473963 74.6497164,19.8450617" id="Fill-35" fill="#9C9C9C"></path>
                <path d="M55.3235934,24.1025379 C55.3235934,24.9002033 54.6744917,25.5498742 53.8744361,25.5498742 L51.4264672,25.5498742 C50.6238957,25.5498742 49.9773099,24.9002033 49.9773099,24.1025379 C49.9773099,23.3048726 50.6238957,22.6577101 51.4264672,22.6577101 L53.8744361,22.6577101 C54.6744917,22.6577101 55.3235934,23.3048726 55.3235934,24.1025379" id="Fill-37" fill="#9C9C9C"></path>
                <path d="M61.7655505,24.1025379 C61.7655505,24.9002033 61.1164488,25.5498742 60.3163932,25.5498742 L57.8684243,25.5498742 C57.0658528,25.5498742 56.4167511,24.9002033 56.4167511,24.1025379 C56.4167511,23.3048726 57.0658528,22.6577101 57.8684243,22.6577101 L60.3163932,22.6577101 C61.1164488,22.6577101 61.7655505,23.3048726 61.7655505,24.1025379" id="Fill-39" fill="#9C9C9C"></path>
                <path d="M68.2090172,24.1025379 C68.2090172,24.9002033 67.5599155,25.5498742 66.757344,25.5498742 L64.3093751,25.5498742 C63.5093195,25.5498742 62.8602178,24.9002033 62.8602178,24.1025379 C62.8602178,23.3048726 63.5093195,22.6577101 64.3093751,22.6577101 L66.757344,22.6577101 C67.5599155,22.6577101 68.2090172,23.3048726 68.2090172,24.1025379" id="Fill-41" fill="#9C9C9C"></path>
                <path d="M74.6497164,24.1025379 C74.6497164,24.9002033 74.0006147,25.5498742 73.2005591,25.5498742 L70.7525902,25.5498742 C69.9525346,25.5498742 69.300917,24.9002033 69.300917,24.1025379 C69.300917,23.3048726 69.9525346,22.6577101 70.7525902,22.6577101 L73.2005591,22.6577101 C74.0006147,22.6577101 74.6497164,23.3048726 74.6497164,24.1025379" id="Fill-43" fill="#9C9C9C"></path>
                <g id="Group-47" transform="translate(0.000000, 11.390870)">
                    <mask id="mask-2" fill="white">
                        <use xlink:href="#path-1"></use>
                    </mask>
                    <g id="Clip-46"></g>
                    <path d="M-0.000503179625,14.6541588 C-0.000503179625,15.8932993 12.4380971,16.8991604 13.6834667,16.8991604 C14.9288363,16.8991604 27.2114509,15.8932993 27.2114509,14.6541588 L27.2114509,2.50606626 C27.2114509,1.2669257 14.9288363,0.263573029 13.6834667,0.263573029 C12.4380971,0.263573029 -0.000503179625,1.2669257 -0.000503179625,2.50606626 L-0.000503179625,14.6541588 Z" id="Fill-45" fill="#D9D9D9" mask="url(#mask-2)"></path>
                </g>
                <path d="M20.6623165,15.7689415 C20.6623165,16.5666068 21.3114182,17.2137693 22.1139897,17.2137693 L24.5594427,17.2137693 C25.3620142,17.2137693 26.0111159,16.5666068 26.0111159,15.7689415 C26.0111159,14.9712761 25.3620142,14.3241136 24.5594427,14.3241136 L22.1139897,14.3241136 C21.3114182,14.3241136 20.6623165,14.9712761 20.6623165,15.7689415" id="Fill-48" fill="#9C9C9C"></path>
                <path d="M14.2203594,15.7689415 C14.2203594,16.5666068 14.8694611,17.2137693 15.6720326,17.2137693 L18.1174856,17.2137693 C18.9200571,17.2137693 19.5691588,16.5666068 19.5691588,15.7689415 C19.5691588,14.9712761 18.9200571,14.3241136 18.1174856,14.3241136 L15.6720326,14.3241136 C14.8694611,14.3241136 14.2203594,14.9712761 14.2203594,15.7689415" id="Fill-50" fill="#9C9C9C"></path>
                <path d="M7.77815064,15.7689415 C7.77815064,16.5666068 8.42725236,17.2137693 9.22730796,17.2137693 L11.6752768,17.2137693 C12.4778483,17.2137693 13.1269501,16.5666068 13.1269501,15.7689415 C13.1269501,14.9712761 12.4778483,14.3241136 11.6752768,14.3241136 L9.22730796,14.3241136 C8.42725236,14.3241136 7.77815064,14.9712761 7.77815064,15.7689415" id="Fill-52" fill="#9C9C9C"></path>
                <path d="M1.33619349,15.7689415 C1.33619349,16.5666068 1.98529521,17.2137693 2.78535081,17.2137693 L5.23331969,17.2137693 C6.03589119,17.2137693 6.6849929,16.5666068 6.6849929,15.7689415 C6.6849929,14.9712761 6.03589119,14.3241136 5.23331969,14.3241136 L2.78535081,14.3241136 C1.98529521,14.3241136 1.33619349,14.9712761 1.33619349,15.7689415" id="Fill-54" fill="#9C9C9C"></path>
                <path d="M20.6623165,19.8450617 C20.6623165,20.6427271 21.3114182,21.2923979 22.1139897,21.2923979 L24.5594427,21.2923979 C25.3620142,21.2923979 26.0111159,20.6427271 26.0111159,19.8450617 C26.0111159,19.0473963 25.3620142,18.4002339 24.5594427,18.4002339 L22.1139897,18.4002339 C21.3114182,18.4002339 20.6623165,19.0473963 20.6623165,19.8450617" id="Fill-56" fill="#9C9C9C"></path>
                <path d="M14.2203594,19.8450617 C14.2203594,20.6427271 14.8694611,21.2923979 15.6720326,21.2923979 L18.1174856,21.2923979 C18.9200571,21.2923979 19.5691588,20.6427271 19.5691588,19.8450617 C19.5691588,19.0473963 18.9200571,18.4002339 18.1174856,18.4002339 L15.6720326,18.4002339 C14.8694611,18.4002339 14.2203594,19.0473963 14.2203594,19.8450617" id="Fill-58" fill="#9C9C9C"></path>
                <path d="M7.77815064,19.8450617 C7.77815064,20.6427271 8.42725236,21.2923979 9.22730796,21.2923979 L11.6752768,21.2923979 C12.4778483,21.2923979 13.1269501,20.6427271 13.1269501,19.8450617 C13.1269501,19.0473963 12.4778483,18.4002339 11.6752768,18.4002339 L9.22730796,18.4002339 C8.42725236,18.4002339 7.77815064,19.0473963 7.77815064,19.8450617" id="Fill-60" fill="#9C9C9C"></path>
                <path d="M1.33619349,19.8450617 C1.33619349,20.6427271 1.98529521,21.2923979 2.78535081,21.2923979 L5.23331969,21.2923979 C6.03589119,21.2923979 6.6849929,20.6427271 6.6849929,19.8450617 C6.6849929,19.0473963 6.03589119,18.4002339 5.23331969,18.4002339 L2.78535081,18.4002339 C1.98529521,18.4002339 1.33619349,19.0473963 1.33619349,19.8450617" id="Fill-62" fill="#9C9C9C"></path>
                <path d="M20.6623165,24.1025379 C20.6623165,24.9002033 21.3114182,25.5498742 22.1139897,25.5498742 L24.5594427,25.5498742 C25.3620142,25.5498742 26.0111159,24.9002033 26.0111159,24.1025379 C26.0111159,23.3048726 25.3620142,22.6577101 24.5594427,22.6577101 L22.1139897,22.6577101 C21.3114182,22.6577101 20.6623165,23.3048726 20.6623165,24.1025379" id="Fill-64" fill="#9C9C9C"></path>
                <path d="M14.2203594,24.1025379 C14.2203594,24.9002033 14.8694611,25.5498742 15.6720326,25.5498742 L18.1174856,25.5498742 C18.9200571,25.5498742 19.5691588,24.9002033 19.5691588,24.1025379 C19.5691588,23.3048726 18.9200571,22.6577101 18.1174856,22.6577101 L15.6720326,22.6577101 C14.8694611,22.6577101 14.2203594,23.3048726 14.2203594,24.1025379" id="Fill-66" fill="#9C9C9C"></path>
                <path d="M7.77815064,24.1025379 C7.77815064,24.9002033 8.42725236,25.5498742 9.22730796,25.5498742 L11.6752768,25.5498742 C12.4778483,25.5498742 13.1269501,24.9002033 13.1269501,24.1025379 C13.1269501,23.3048726 12.4778483,22.6577101 11.6752768,22.6577101 L9.22730796,22.6577101 C8.42725236,22.6577101 7.77815064,23.3048726 7.77815064,24.1025379" id="Fill-68" fill="#9C9C9C"></path>
                <path d="M1.33619349,24.1025379 C1.33619349,24.9002033 1.98529521,25.5498742 2.78535081,25.5498742 L5.23331969,25.5498742 C6.03589119,25.5498742 6.6849929,24.9002033 6.6849929,24.1025379 C6.6849929,23.3048726 6.03589119,22.6577101 5.23331969,22.6577101 L2.78535081,22.6577101 C1.98529521,22.6577101 1.33619349,23.3048726 1.33619349,24.1025379" id="Fill-70" fill="#9C9C9C"></path>
            </g>
        </g>
    </g>
</svg>