<?xml version="1.0" encoding="UTF-8"?>
<svg width="75px" height="55px" viewBox="0 0 75 55" version="1.1" xmlns="http://www.w3.org/2000/svg" xmlns:xlink="http://www.w3.org/1999/xlink">
    <!-- Generator: Sketch 43.1 (39012) - http://www.bohemiancoding.com/sketch -->
    <title>Page 1 Copy 7</title>
    <desc>Created with Sketch.</desc>
    <defs>
        <polygon id="path-1" points="0 0.0346413042 0 40.7771043 74.0441797 40.7771043 74.0441797 0.0346413042 1.63936786e-19 0.0346413042"></polygon>
        <polygon id="path-3" points="0 0.16744045 0 25.0956576 74.0435749 25.0956576 74.0435749 0.16744045"></polygon>
        <polygon id="path-5" points="0.372832752 0.0203885522 59.4607214 0.0203885522 59.4607214 38.2606088 0.372832752 38.2606088 0.372832752 0.0203885522"></polygon>
    </defs>
    <g id="Page-1" stroke="none" stroke-width="1" fill="none" fill-rule="evenodd">
        <g id="SejaCriativa/Escolha-de-Coleções" transform="translate(-972.000000, -278.000000)">
            <g id="Page-1-Copy-7" transform="translate(972.621974, 278.101406)">
                <g id="Group-3" transform="translate(0.000000, 14.021679)">
                    <mask id="mask-2" fill="white">
                        <use xlink:href="#path-1"></use>
                    </mask>
                    <g id="Clip-2"></g>
                    <path d="M74.0441797,20.406171 C74.0441797,31.6547852 57.469088,40.7777006 37.0231483,40.7777006 C16.5741845,40.7777006 -0.000907229981,31.6547852 -0.000907229981,20.406171 C-0.000907229981,9.15755668 16.5741845,0.0346413042 37.0231483,0.0346413042 C57.469088,0.0346413042 74.0441797,9.15755668 74.0441797,20.406171" id="Fill-1" fill="#B32A18" mask="url(#mask-2)"></path>
                </g>
                <g id="Group-6" transform="translate(0.000000, 29.703125)">
                    <mask id="mask-4" fill="white">
                        <use xlink:href="#path-3"></use>
                    </mask>
                    <g id="Clip-5"></g>
                    <path d="M37.0225435,15.9804938 C19.4222818,15.9804938 4.69491515,9.22178489 0.929910731,0.16744045 C0.322066643,1.63426214 -0.00151204997,3.15772938 -0.00151204997,4.72591679 C-0.00151204997,15.9745311 16.5735797,25.0974464 37.0225435,25.0974464 C57.4684831,25.0974464 74.0435749,15.9745311 74.0435749,4.72591679 C74.0435749,3.15772938 73.7199962,1.63426214 73.1151762,0.16744045 C69.3501718,9.22178489 54.619781,15.9804938 37.0225435,15.9804938" id="Fill-4" fill="#D83318" mask="url(#mask-4)"></path>
                </g>
                <g id="Group-9" transform="translate(7.017463, 0.076678)">
                    <mask id="mask-6" fill="white">
                        <use xlink:href="#path-5"></use>
                    </mask>
                    <g id="Clip-8"></g>
                    <path d="M59.4607214,26.1235538 C59.4607214,32.7600275 46.2333083,38.2606088 29.9182891,38.2606088 C13.6002459,38.2606088 0.372832752,32.7600275 0.372832752,26.1235538 C0.372832752,13.5273716 13.6002459,0.0188978797 29.9182891,0.0188978797 C46.2333083,0.0188978797 59.4607214,13.5273716 59.4607214,26.1235538" id="Fill-7" fill="#294C95" mask="url(#mask-6)"></path>
                </g>
                <path d="M23.2680297,36.9491729 C27.3566128,37.8346323 32.0046545,38.3384796 36.9369614,38.3384796 C41.9085817,38.3384796 46.5929125,37.8256883 50.7056885,36.9283035 C50.6149655,29.5315868 44.5093077,23.5629343 36.985347,23.5629343 C29.4553382,23.5629343 23.3436322,29.5435122 23.2680297,36.9491729" id="Fill-10" fill="#87AE27"></path>
                <path d="M45.3049484,12.2949413 L45.3049484,7.96602853 C45.9309371,7.63808059 46.3573352,6.99411009 46.3573352,6.24579253 C46.3573352,5.16952702 45.474298,4.29897431 44.385622,4.29897431 C43.2939219,4.29897431 42.4108847,5.16952702 42.4108847,6.24579253 C42.4108847,6.98516606 42.8312346,7.62615521 43.4421028,7.95410315 L43.4421028,11.6390454 C41.479462,11.0576832 39.2688449,10.7327166 36.9342398,10.7327166 C34.611731,10.7327166 32.4162345,11.0547018 30.4596418,11.6271201 L30.4596418,7.96602853 C31.0856305,7.63808059 31.5120286,6.99411009 31.5120286,6.24579253 C31.5120286,5.16952702 30.6289914,4.29897431 29.5433395,4.29897431 C28.4516394,4.29897431 27.5686023,5.16952702 27.5686023,6.24579253 C27.5686023,6.98516606 27.9829039,7.62615521 28.5998203,7.95410315 L28.5998203,12.2800346 C24.7017555,13.8810168 22.143367,16.5791339 22.143367,19.6379938 C22.143367,24.5542315 28.7631217,31.2831269 36.9342398,31.2831269 C45.1053578,31.2831269 51.7281366,24.5542315 51.7281366,19.6379938 C51.7281366,16.588078 49.1818445,13.8989049 45.3049484,12.2949413" id="Fill-12" fill="#87AE27"></path>
                <path d="M33.5170068,18.3828476 C33.5170068,20.0136432 32.1773306,21.334379 30.5231479,21.334379 C28.8689652,21.334379 27.529289,20.0136432 27.529289,18.3828476 C27.529289,16.7550333 28.8689652,15.4342975 30.5231479,15.4342975 C32.1773306,15.4342975 33.5170068,16.7550333 33.5170068,18.3828476" id="Fill-14" fill="#FEFEFE"></path>
                <path d="M33.0328484,18.5342999 C33.0328484,19.5539199 32.1921486,20.3797524 31.1579065,20.3797524 C30.1236643,20.3797524 29.2829645,19.5539199 29.2829645,18.5342999 C29.2829645,17.5116986 30.1236643,16.6858661 31.1579065,16.6858661 C32.1921486,16.6858661 33.0328484,17.5116986 33.0328484,18.5342999" id="Fill-16" fill="#2A2422"></path>
                <path d="M46.49221,18.3828476 C46.49221,20.0136432 45.1555578,21.334379 43.5013752,21.334379 C41.8471925,21.334379 40.5075162,20.0136432 40.5075162,18.3828476 C40.5075162,16.7550333 41.8471925,15.4342975 43.5013752,15.4342975 C45.1555578,15.4342975 46.49221,16.7550333 46.49221,18.3828476" id="Fill-18" fill="#FEFEFE"></path>
                <path d="M46.0092613,18.5342999 C46.0092613,19.5539199 45.1715856,20.3797524 44.1343193,20.3797524 C43.1000771,20.3797524 42.2593773,19.5539199 42.2593773,18.5342999 C42.2593773,17.5116986 43.1000771,16.6858661 44.1343193,16.6858661 C45.1715856,16.6858661 46.0092613,17.5116986 46.0092613,18.5342999" id="Fill-20" fill="#2A2422"></path>
                <path d="M37.0107495,23.4866119 C35.8615915,23.4866119 34.8515421,23.0155594 34.2648667,22.3000366 C34.3676861,23.4389104 35.5561574,24.4674744 37.0107495,24.4674744 C38.4653416,24.4674744 39.6538128,23.4389104 39.7596563,22.3000366 C39.1729809,23.0155594 38.1599075,23.4866119 37.0107495,23.4866119" id="Fill-22" fill="#2A2422"></path>
                <path d="M36.9738555,20.123953 C36.3418186,20.123953 35.7853842,19.864576 35.4618055,19.4680571 C35.5192634,20.0971209 36.1754931,20.6665578 36.9738555,20.6665578 C37.775242,20.6665578 38.4284475,20.0971209 38.4859054,19.4680571 C38.1653508,19.864576 37.6058924,20.123953 36.9738555,20.123953" id="Fill-24" fill="#6F8D2C"></path>
                <path d="M8.23462413,39.7415005 C8.23462413,41.4259604 9.622686,42.7943977 11.3343266,42.7943977 C13.0459671,42.7943977 14.434029,41.4259604 14.434029,39.7415005 C14.434029,38.0540593 13.0459671,36.685622 11.3343266,36.685622 C9.622686,36.685622 8.23462413,38.0540593 8.23462413,39.7415005" id="Fill-26" fill="#EEDC33"></path>
                <path d="M8.85910076,40.4343651 C8.34500378,38.4905282 10.3469579,36.4602323 12.6452739,37.5245725 C12.6452739,37.5245725 12.6150329,37.5215911 12.6452739,37.5245725 C10.8308139,37.5245725 9.45484845,38.445808 8.85910076,40.4343651" id="Fill-28" fill="#FEFEFE"></path>
                <path d="M19.9043234,44.5044971 C19.9043234,46.3559123 21.4284697,47.8585101 23.3064358,47.8585101 C25.187426,47.8585101 26.7115723,46.3559123 26.7115723,44.5044971 C26.7115723,42.6501006 25.187426,41.1475028 23.3064358,41.1475028 C21.4284697,41.1475028 19.9043234,42.6501006 19.9043234,44.5044971" id="Fill-30" fill="#EEDC33"></path>
                <path d="M20.589282,45.2674233 C20.0267994,43.1268177 22.2253201,40.899753 24.7474194,42.0714216 C24.7474194,42.0714216 24.7111302,42.0714216 24.7474194,42.0714216 C22.7545376,42.0714216 21.2424876,43.0850788 20.589282,45.2674233" id="Fill-32" fill="#FEFEFE"></path>
                <path d="M33.486161,45.9689337 C33.486161,47.9455654 35.1131268,49.549529 37.118105,49.549529 C39.1230833,49.549529 40.747025,47.9455654 40.747025,45.9689337 C40.747025,43.9923021 39.1230833,42.3913199 37.118105,42.3913199 C35.1131268,42.3913199 33.486161,43.9923021 33.486161,45.9689337" id="Fill-34" fill="#EEDC33"></path>
                <path d="M34.217086,46.7843316 C33.6152901,44.5036027 35.9619916,42.1274708 38.6534406,43.373673 C38.6534406,43.373673 38.6171514,43.373673 38.6534406,43.373673 C36.5274983,43.373673 34.9156531,44.4559012 34.217086,46.7843316" id="Fill-36" fill="#FEFEFE"></path>
                <path d="M66.0009811,39.7415005 C66.0009811,41.4259604 64.6129193,42.7943977 62.9012787,42.7943977 C61.1896381,42.7943977 59.8015763,41.4259604 59.8015763,39.7415005 C59.8015763,38.0540593 61.1896381,36.685622 62.9012787,36.685622 C64.6129193,36.685622 66.0009811,38.0540593 66.0009811,39.7415005" id="Fill-38" fill="#EEDC33"></path>
                <path d="M65.3765045,40.4343651 C65.8875774,38.4905282 63.8856232,36.4602323 61.5903314,37.5245725 C61.5903314,37.5245725 61.6205724,37.5215911 61.5903314,37.5245725 C63.4047913,37.5245725 64.7807568,38.445808 65.3765045,40.4343651" id="Fill-40" fill="#FEFEFE"></path>
                <path d="M54.3300722,44.5044971 C54.3300722,46.3559123 52.80895,47.8585101 50.9279598,47.8585101 C49.0469696,47.8585101 47.5258474,46.3559123 47.5258474,44.5044971 C47.5258474,42.6501006 49.0469696,41.1475028 50.9279598,41.1475028 C52.80895,41.1475028 54.3300722,42.6501006 54.3300722,44.5044971" id="Fill-42" fill="#EEDC33"></path>
                <path d="M53.6448112,45.2674233 C54.2103179,43.1268177 52.0087731,40.899753 49.4866738,42.0714216 L49.4866738,42.0714216 C51.4825797,42.0714216 52.9916056,43.0850788 53.6448112,45.2674233" id="Fill-44" fill="#FEFEFE"></path>
            </g>
        </g>
    </g>
</svg>