<?xml version="1.0" encoding="UTF-8"?>
<svg width="55px" height="55px" viewBox="0 0 55 55" version="1.1" xmlns="http://www.w3.org/2000/svg" xmlns:xlink="http://www.w3.org/1999/xlink">
    <!-- Generator: Sketch 43.1 (39012) - http://www.bohemiancoding.com/sketch -->
    <title>Page 1 Copy 8</title>
    <desc>Created with Sketch.</desc>
    <defs>
        <polygon id="path-1" points="54.3972933 54.2450913 0.00201588428 54.2450913 0.00201588428 0.000707708337 54.3972933 0.000707708337 54.3972933 54.2450913"></polygon>
    </defs>
    <g id="Page-1" stroke="none" stroke-width="1" fill="none" fill-rule="evenodd">
        <g id="SejaCriativa/Escolha-de-Coleções" transform="translate(-954.000000, -190.000000)">
            <g id="Page-1-Copy-8" transform="translate(954.000000, 190.000000)">
                <g id="Group-3" transform="translate(0.000000, 0.638906)">
                    <mask id="mask-2" fill="white">
                        <use xlink:href="#path-1"></use>
                    </mask>
                    <g id="Clip-2"></g>
                    <path d="M54.3972933,27.1215594 C54.3972933,42.1041966 42.2213523,54.2457613 27.1962948,54.2457613 C12.1779569,54.2457613 0.00201588428,42.1041966 0.00201588428,27.1215594 C0.00201588428,12.1422724 12.1779569,0.000707708337 27.1962948,0.000707708337 C42.2213523,0.000707708337 54.3972933,12.1422724 54.3972933,27.1215594" id="Fill-1" fill="#94B031" mask="url(#mask-2)"></path>
                </g>
                <path d="M45.5777996,7.76976798 C45.5173231,7.71616283 45.4635662,7.66590801 45.4030896,7.61230287 C40.5851262,3.27698699 34.2014927,0.640284061 27.1962948,0.640284061 C21.6761317,0.640284061 16.5356268,2.28194154 12.2485129,5.10291215 C18.9580477,6.05440343 21.4342256,8.49678772 29.6086363,9.7933621 C36.0124287,10.8085095 41.4082789,10.2389548 45.5845192,7.77646862 C45.5845192,7.77646862 45.5777996,7.7731183 45.5777996,7.76976798" id="Fill-4" fill="#1B648E"></path>
                <path d="M35.6294107,40.4290359 C22.4320883,46.0709771 14.8893213,37.5477595 2.36060049,38.8275823 C6.6073967,48.2922402 16.1290901,54.8823224 27.1962948,54.8823224 C38.8682648,54.8823224 48.8200135,47.5551695 52.6770721,37.2663325 C48.1413324,35.8290446 42.2448709,37.6013647 35.6294107,40.4290359" id="Fill-6" fill="#1B648E"></path>
                <path d="M54.3905737,27.243511 C54.3200177,23.3805905 53.4363885,19.7153389 51.9043164,16.4085717 C40.5112104,21.6819775 37.5848184,17.7453499 27.5826726,17.7453499 C16.4684306,17.7453499 13.0044695,21.457506 2.42443682,16.5559858 C0.865486317,19.9699633 0.00201588428,23.7658774 0.00201588428,27.7594605 C0.00201588428,28.858366 0.0658522197,29.9438701 0.193524891,31.0092723 C11.3144865,26.4126313 16.1391695,32.5169169 28.3050311,31.9842158 C39.439432,31.4950689 44.438825,26.0641979 54.3905737,27.243511" id="Fill-8" fill="#1B648E"></path>
            </g>
        </g>
    </g>
</svg>