<?xml version="1.0" encoding="UTF-8"?>
<svg width="71px" height="52px" viewBox="0 0 71 52" version="1.1" xmlns="http://www.w3.org/2000/svg" xmlns:xlink="http://www.w3.org/1999/xlink">
    <!-- Generator: Sketch 43.1 (39012) - http://www.bohemiancoding.com/sketch -->
    <title>Page 1 Copy 4</title>
    <desc>Created with Sketch.</desc>
    <defs>
        <polygon id="path-1" points="0 0.0327855201 0 38.5926166 70.0775272 38.5926166 70.0775272 0.0327855201 1.55154458e-19 0.0327855201"></polygon>
        <polygon id="path-3" points="0 0.158470426 0 23.7512474 70.0769548 23.7512474 70.0769548 0.158470426"></polygon>
        <polygon id="path-5" points="0.352859569 0.0192963083 56.2753256 0.0192963083 56.2753256 36.2109333 0.352859569 36.2109333 0.352859569 0.0192963083"></polygon>
    </defs>
    <g id="Page-1" stroke="none" stroke-width="1" fill="none" fill-rule="evenodd">
        <g id="SejaCriativa/Escolha-de-Coleções" transform="translate(-1153.000000, -275.000000)">
            <g id="Page-1-Copy-4" transform="translate(1153.596065, 274.852066)">
                <g id="Group-3" transform="translate(0.000000, 13.270517)">
                    <mask id="mask-2" fill="white">
                        <use xlink:href="#path-1"></use>
                    </mask>
                    <g id="Clip-2"></g>
                    <path d="M70.0775272,19.3129832 C70.0775272,29.9589932 54.3903868,38.5931809 35.0397654,38.5931809 C15.6862818,38.5931809 -0.000858628375,29.9589932 -0.000858628375,19.3129832 C-0.000858628375,8.66697328 15.6862818,0.0327855201 35.0397654,0.0327855201 C54.3903868,0.0327855201 70.0775272,8.66697328 70.0775272,19.3129832" id="Fill-1" fill="#B32A18" mask="url(#mask-2)"></path>
                </g>
                <g id="Group-6" transform="translate(0.000000, 28.111886)">
                    <mask id="mask-4" fill="white">
                        <use xlink:href="#path-3"></use>
                    </mask>
                    <g id="Clip-5"></g>
                    <path d="M35.0391929,15.1243959 C18.3818025,15.1243959 4.44340184,8.7277607 0.880094084,0.158470426 C0.304813073,1.54671238 -0.00143104729,2.9885653 -0.00143104729,4.47274268 C-0.00143104729,15.1187526 15.6857094,23.7529404 35.0391929,23.7529404 C54.3898144,23.7529404 70.0769548,15.1187526 70.0769548,4.47274268 C70.0769548,2.9885653 69.7707107,1.54671238 69.1982918,0.158470426 C65.634984,8.7277607 51.6937213,15.1243959 35.0391929,15.1243959" id="Fill-4" fill="#D83318" mask="url(#mask-4)"></path>
                </g>
                <g id="Group-9" transform="translate(6.641527, 0.072571)">
                    <mask id="mask-6" fill="white">
                        <use xlink:href="#path-5"></use>
                    </mask>
                    <g id="Clip-8"></g>
                    <path d="M56.2753256,24.7240777 C56.2753256,31.005026 43.7565239,36.2109333 28.3155236,36.2109333 C12.8716613,36.2109333 0.352859569,31.005026 0.352859569,24.7240777 C0.352859569,12.802691 12.8716613,0.0178854933 28.3155236,0.0178854933 C43.7565239,0.0178854933 56.2753256,12.802691 56.2753256,24.7240777" id="Fill-7" fill="#294C95" mask="url(#mask-6)"></path>
                </g>
                <path d="M22.0215281,34.9697529 C25.89108,35.807777 30.2901194,36.2846325 34.9581957,36.2846325 C39.6634792,36.2846325 44.0968637,35.7993121 47.9893123,34.9500015 C47.9034495,27.9495375 42.1248805,22.3006343 35.0039892,22.3006343 C27.8773737,22.3006343 22.0930805,27.960824 22.0215281,34.9697529" id="Fill-10" fill="#87AE27"></path>
                <path d="M42.8778976,11.6362837 L42.8778976,7.539277 C43.4703512,7.2288977 43.8739065,6.61942562 43.8739065,5.9111965 C43.8739065,4.89258807 43.0381749,4.06867212 42.0078208,4.06867212 C40.9746047,4.06867212 40.1388731,4.89258807 40.1388731,5.9111965 C40.1388731,6.61096073 40.5367042,7.21761118 41.1148473,7.52799048 L41.1148473,11.0155251 C39.2573479,10.4653073 37.1651568,10.1577496 34.9556198,10.1577496 C32.7575311,10.1577496 30.6796505,10.4624857 28.8278753,11.0042386 L28.8278753,7.539277 C29.4203288,7.2288977 29.8238842,6.61942562 29.8238842,5.9111965 C29.8238842,4.89258807 28.9881526,4.06867212 27.9606606,4.06867212 C26.9274445,4.06867212 26.0917128,4.89258807 26.0917128,5.9111965 C26.0917128,6.61096073 26.4838198,7.21761118 27.0676871,7.52799048 L27.0676871,11.6221756 C23.3784472,13.1373909 20.9571152,15.690966 20.9571152,18.5859584 C20.9571152,23.2388263 27.2222402,29.6072451 34.9556198,29.6072451 C42.6889993,29.6072451 48.9569865,23.2388263 48.9569865,18.5859584 C48.9569865,15.6994309 46.5471028,13.1543207 42.8778976,11.6362837" id="Fill-12" fill="#87AE27"></path>
                <path d="M31.7214529,17.3980522 C31.7214529,18.9414838 30.453545,20.1914659 28.8879793,20.1914659 C27.3224135,20.1914659 26.0545056,18.9414838 26.0545056,17.3980522 C26.0545056,15.8574422 27.3224135,14.6074601 28.8879793,14.6074601 C30.453545,14.6074601 31.7214529,15.8574422 31.7214529,17.3980522" id="Fill-14" fill="#FEFEFE"></path>
                <path d="M31.2632315,17.541391 C31.2632315,18.5063884 30.4675693,19.2879799 29.4887329,19.2879799 C28.5098966,19.2879799 27.7142343,18.5063884 27.7142343,17.541391 C27.7142343,16.5735719 28.5098966,15.7919804 29.4887329,15.7919804 C30.4675693,15.7919804 31.2632315,16.5735719 31.2632315,17.541391" id="Fill-16" fill="#2A2422"></path>
                <path d="M44.0015559,17.3980522 C44.0015559,18.9414838 42.7365101,20.1914659 41.1709444,20.1914659 C39.6053786,20.1914659 38.3374707,18.9414838 38.3374707,17.3980522 C38.3374707,15.8574422 39.6053786,14.6074601 41.1709444,14.6074601 C42.7365101,14.6074601 44.0015559,15.8574422 44.0015559,17.3980522" id="Fill-18" fill="#FEFEFE"></path>
                <path d="M43.5444794,17.541391 C43.5444794,18.5063884 42.7516792,19.2879799 41.7699808,19.2879799 C40.7911444,19.2879799 39.9954821,18.5063884 39.9954821,17.541391 C39.9954821,16.5735719 40.7911444,15.7919804 41.7699808,15.7919804 C42.7516792,15.7919804 43.5444794,16.5735719 43.5444794,17.541391" id="Fill-20" fill="#2A2422"></path>
                <path d="M35.0280308,22.2284006 C33.9404348,22.2284006 32.9844952,21.782583 32.4292489,21.1053918 C32.5265601,22.1832545 33.6513633,23.1567168 35.0280308,23.1567168 C36.4046983,23.1567168 37.5295014,22.1832545 37.6296747,21.1053918 C37.0744284,21.782583 36.1156267,22.2284006 35.0280308,22.2284006" id="Fill-22" fill="#2A2422"></path>
                <path d="M34.9931132,19.0458841 C34.3949354,19.0458841 33.86831,18.8004023 33.5620659,18.4251255 C33.6164457,19.0204894 34.2375202,19.5594207 34.9931132,19.5594207 C35.7515683,19.5594207 36.3697807,19.0204894 36.4241605,18.4251255 C36.1207785,18.8004023 35.591291,19.0458841 34.9931132,19.0458841" id="Fill-24" fill="#6F8D2C"></path>
                <path d="M7.79348355,37.6124916 C7.79348355,39.2067125 9.10718496,40.5018407 10.7271305,40.5018407 C12.347076,40.5018407 13.6607774,39.2067125 13.6607774,37.6124916 C13.6607774,36.015449 12.347076,34.7203208 10.7271305,34.7203208 C9.10718496,34.7203208 7.79348355,36.015449 7.79348355,37.6124916" id="Fill-26" fill="#EEDC33"></path>
                <path d="M8.38450608,38.2682384 C7.89795,36.4285356 9.79265662,34.5070056 11.9678485,35.5143275 C11.9678485,35.5143275 11.9392276,35.5115059 11.9678485,35.5143275 C10.2505917,35.5143275 8.94833871,36.3862112 8.38450608,38.2682384" id="Fill-28" fill="#FEFEFE"></path>
                <path d="M18.8380203,42.1203276 C18.8380203,43.8725599 20.280516,45.2946614 22.0578767,45.2946614 C23.8380996,45.2946614 25.2805952,43.8725599 25.2805952,42.1203276 C25.2805952,40.3652738 23.8380996,38.9431723 22.0578767,38.9431723 C20.280516,38.9431723 18.8380203,40.3652738 18.8380203,42.1203276" id="Fill-30" fill="#EEDC33"></path>
                <path d="M19.4862848,42.8423828 C18.9539352,40.8164524 21.0346779,38.7086948 23.4216648,39.8175954 C23.4216648,39.8175954 23.3873197,39.8175954 23.4216648,39.8175954 C21.5355445,39.8175954 20.1044972,40.7769496 19.4862848,42.8423828" id="Fill-32" fill="#FEFEFE"></path>
                <path d="M31.6922595,43.5063123 C31.6922595,45.377053 33.2320664,46.8950899 35.1296351,46.8950899 C37.0272038,46.8950899 38.5641486,45.377053 38.5641486,43.5063123 C38.5641486,41.6355716 37.0272038,40.1203563 35.1296351,40.1203563 C33.2320664,40.1203563 31.6922595,41.6355716 31.6922595,43.5063123" id="Fill-34" fill="#EEDC33"></path>
                <path d="M32.3840278,44.2780281 C31.814471,42.1194812 34.0354564,39.8706421 36.5827205,41.0500834 C36.5827205,41.0500834 36.5483754,41.0500834 36.5827205,41.0500834 C34.5706681,41.0500834 33.0451716,42.0743351 32.3840278,44.2780281" id="Fill-36" fill="#FEFEFE"></path>
                <path d="M62.4652143,37.6124916 C62.4652143,39.2067125 61.1515129,40.5018407 59.5315673,40.5018407 C57.9116218,40.5018407 56.5979204,39.2067125 56.5979204,37.6124916 C56.5979204,36.015449 57.9116218,34.7203208 59.5315673,34.7203208 C61.1515129,34.7203208 62.4652143,36.015449 62.4652143,37.6124916" id="Fill-38" fill="#EEDC33"></path>
                <path d="M61.8741917,38.2682384 C62.3578857,36.4285356 60.4631791,34.5070056 58.2908493,35.5143275 C58.2908493,35.5143275 58.3194703,35.5115059 58.2908493,35.5143275 C60.0081061,35.5143275 61.3103591,36.3862112 61.8741917,38.2682384" id="Fill-40" fill="#FEFEFE"></path>
                <path d="M51.4195327,42.1203276 C51.4195327,43.8725599 49.9798991,45.2946614 48.1996762,45.2946614 C46.4194534,45.2946614 44.9798198,43.8725599 44.9798198,42.1203276 C44.9798198,40.3652738 46.4194534,38.9431723 48.1996762,38.9431723 C49.9798991,38.9431723 51.4195327,40.3652738 51.4195327,42.1203276" id="Fill-42" fill="#EEDC33"></path>
                <path d="M50.770982,42.8423828 C51.3061937,40.8164524 49.2225888,38.7086948 46.835602,39.8175954 L46.835602,39.8175954 C48.7245844,39.8175954 50.1527696,40.7769496 50.770982,42.8423828" id="Fill-44" fill="#FEFEFE"></path>
            </g>
        </g>
    </g>
</svg>