<?xml version="1.0" encoding="utf-8"?>
<!-- Generator: Adobe Illustrator 21.1.0, SVG Export Plug-In . SVG Version: 6.00 Build 0)  -->
<svg version="1.1" id="Camada_1" xmlns="http://www.w3.org/2000/svg" xmlns:xlink="http://www.w3.org/1999/xlink" x="0px" y="0px"
	 viewBox="0 0 82 83" style="enable-background:new 0 0 82 83;" xml:space="preserve">
<style type="text/css">
	.st0{fill:#F9DF19;}
	.st1{fill:#77BD1F;}
	.st2{fill:#E14559;}
	.st3{fill:#F97719;}
	.st4{fill:#3B0173;}
	.st5{fill:#00B0C7;}
	.st6{filter:url(#Adobe_OpacityMaskFilter);}
	.st7{fill:#FFFFFF;}
	.st8{mask:url(#mask-2_1_);fill:none;}
	.st9{fill:#333333;}
	.st10{fill:#AA062B;}
	.st11{fill:#FF6A93;}
</style>
<title>Group</title>
<desc>Created with Sketch.</desc>
<g id="Symbols">
	<g id="Flow-Icons_x2F_Confecção">
		<g id="Page-1">
			<path id="Fill-1" class="st0" d="M21.6,14l0.8,61.4c0,0,10.5-0.8,23.8-6.8c6.6-3,14-7.3,21-13.5L21.6,14z"/>
			<path id="Fill-3" class="st1" d="M35.2,45.9c-7.1,3.2-12.8,3.8-13.1,3.9L22,45c0.1,0,12.1-1.6,22.5-10.3l3.6,3.3
				C44,41.4,39,44.1,35.2,45.9"/>
			<path id="Fill-5" class="st2" d="M30.3,54c0.6,1.2,0,2.7-1.2,3.3c-1.2,0.6-2.7,0-3.3-1.2c-0.6-1.2,0-2.7,1.2-3.3
				C28.3,52.2,29.7,52.7,30.3,54"/>
			<path id="Fill-7" class="st2" d="M39.9,50.6c0.6,1.2,0,2.7-1.2,3.3c-1.2,0.6-2.7,0-3.3-1.2c-0.6-1.2,0-2.7,1.2-3.3
				C37.9,48.8,39.4,49.3,39.9,50.6"/>
			<path id="Fill-9" class="st3" d="M21.6,14l0.1,5.9c0.9-0.4,2-0.6,3.6-0.4c15.4,18,31.4,31,18.6,40.1c-9.1,6.5-18.5,9-21.5,9.7
				l0.1,6c0,0,10.5-0.8,23.8-6.8c6.6-3,14-7.3,21-13.5L21.6,14z"/>
			<path id="Fill-11" class="st4" d="M24.2,74.9l3.4-6.2l5.4,4.5C33,73.3,27,75.2,24.2,74.9"/>
			<path id="Fill-13" class="st4" d="M36.5,72.3l1.7-7.5l6.2,4.5C44.4,69.2,40.6,71.3,36.5,72.3"/>
			<path id="Fill-15" class="st4" d="M47.7,67.8c0,0,4-1.4,7.5-4.1c-7-3.2-6.9-3.5-6.9-3.5L47.7,67.8z"/>
			<path id="Fill-17" class="st4" d="M58,62c0,0,3.6-2.2,7.3-5.2C60.1,55,58,54.8,58,54.8L58,62z"/>
			<path id="Fill-19" class="st5" d="M40.9,60c-10.5,4.8-18.1,5.2-18.5,5.3l-0.1-2.5c0.2,0,17.2-1.1,35.4-16.3l2,1.9
				C53.1,53.7,46.4,57.5,40.9,60"/>
			<g id="Group-23" transform="translate(7.000000, 14.370000)">
				<g id="Clip-22">
				</g>
				<defs>
					<filter id="Adobe_OpacityMaskFilter" filterUnits="userSpaceOnUse" x="16" y="7" width="5.4" height="44.1">
						<feColorMatrix  type="matrix" values="1 0 0 0 0  0 1 0 0 0  0 0 1 0 0  0 0 0 1 0"/>
					</filter>
				</defs>
				<mask maskUnits="userSpaceOnUse" x="16" y="7" width="5.4" height="44.1" id="mask-2_1_">
					<g class="st6">
						<path id="path-1_1_" class="st7" d="M18.2,51.1c-1.4,0-1.7-0.7-1.7-0.7L16,7l5.4,43.3C19.9,50.9,18.9,51.1,18.2,51.1
							L18.2,51.1L18.2,51.1z"/>
					</g>
				</mask>
				<path id="Fill-21" class="st8" d="M16,7l0.4,43.4c0,0,0.9,1.7,4.9-0.1L16,7z"/>
			</g>
			<g id="Group-26" transform="translate(0.000000, 0.370000)">
				<path id="Fill-24" class="st9" d="M39,70c-5,1.8-10.3,3.3-15.6,3.9c-0.2-17.5-0.5-35-0.7-52.6l0-2.3c0.2,0,0.4-0.1,0.6-0.1
					c0.6-0.2,1.2-0.5,1.7-0.9c5.8,5.2,11.6,10.5,17.4,15.7c7.8,7,15.5,14,23.3,21C57.7,61.3,48.7,66.5,39,70 M18.2,14
					c-1.5-3.9,4.1-6,6.1-2.5c0.3,1,0.3,2.1-0.1,2.9c-0.4-0.4-0.9-0.8-1.3-1.1c-0.2-0.1-0.3-0.3-0.5-0.4c-0.3-0.2-0.6-0.3-0.8-0.2
					c-0.4,0-0.7,0.2-0.8,0.6c-0.1,0.2-0.1,0.3-0.1,0.5c0,0.8,0,1.6,0,2.3C19.5,15.9,18.6,15.1,18.2,14 M67.9,54
					C56.1,43.4,44.4,32.8,32.7,22.3c-2.1-1.9-4.2-3.8-6.3-5.8c1.2-1.7,1.5-3.9,0.7-6c0,0,0-0.1,0-0.1c0-0.1-0.1-0.2-0.1-0.3
					c-1.5-3-5.1-4.4-8.2-3c-3.1,1.4-4.5,5-3.3,8.1c0.9,2.2,3,3.6,5.2,3.9l0.6,48.2c0,2.6,0.1,5.1,0.1,7.7c0,0.5,0.5,1,1,1
					c6.1-0.5,12.2-2.3,17.9-4.4c10.1-3.7,19.4-9.2,27.6-16.2C68.3,55,68.3,54.3,67.9,54"/>
			</g>
			<path id="Fill-27" class="st2" d="M25.6,11.3c1.1,2.4,0,5.2-2.4,6.3c-2.4,1.1-5.2,0-6.3-2.4c-1.1-2.4,0-5.2,2.4-6.3
				C21.7,7.8,24.5,8.9,25.6,11.3"/>
			<path id="Fill-29" class="st10" d="M23.4,9c0.2,0.3,0.4,0.6,0.6,0.9c1.1,2.4,0,5.2-2.4,6.3c-1.4,0.6-2.8,0.5-4.1-0.1
				c1.3,1.7,3.7,2.4,5.8,1.4c2.4-1.1,3.5-3.9,2.4-6.3C25.1,10.2,24.3,9.5,23.4,9"/>
			<path id="Fill-31" class="st11" d="M21,11.6c0.4,0.9,0,1.9-0.9,2.3c-0.9,0.4-2,0-2.4-0.9c-0.4-0.9,0-1.9,0.9-2.3
				C19.5,10.4,20.6,10.7,21,11.6"/>
			<path id="Fill-33" class="st2" d="M49.2,45.4c0.6,1.2,0,2.7-1.2,3.3c-1.2,0.6-2.7,0-3.3-1.2c-0.6-1.2,0-2.7,1.2-3.3
				C47.2,43.6,48.6,44.2,49.2,45.4"/>
		</g>
	</g>
</g>
</svg>
