<?xml version="1.0" encoding="utf-8"?>
<!-- Generator: Adobe Illustrator 21.1.0, SVG Export Plug-In . SVG Version: 6.00 Build 0)  -->
<svg version="1.1" id="Camada_1" xmlns="http://www.w3.org/2000/svg" xmlns:xlink="http://www.w3.org/1999/xlink" x="0px" y="0px"
	 viewBox="0 0 82 83" style="enable-background:new 0 0 82 83;" xml:space="preserve">
<style type="text/css">
	.st0{fill:#00B0C7;}
	.st1{fill:#FFFFFF;}
	.st2{fill:#F9DF19;}
	.st3{fill:#F6B300;}
	.st4{fill:#E14559;}
	.st5{fill:#E10059;}
	.st6{fill:#F7F7F7;}
	.st7{fill:#C6C6C9;}
	.st8{fill:#333333;}
	.st9{fill:#2B81B4;}
</style>
<title>Group</title>
<desc>Created with Sketch.</desc>
<g id="Symbols">
	<g id="Flow-Icons_x2F_Pagamento-Aprovado">
		<g id="Pagamento-Aprovado">
			<path id="Fill-1" class="st0" d="M66,22.1c0-2.6-2.1-4.7-4.7-4.7h-2.4v6.7c0,0.5-0.4,1-1,1H23.4c-0.5,0-1-0.4-1-1v-6.7h-2.4
				c-2.6,0-4.7,2.1-4.7,4.7v48.8c0,2.6,2.1,4.7,4.7,4.7h41.3c2.6,0,4.7-2.1,4.7-4.7V22.1z"/>
			<path id="Fill-3" class="st1" d="M59.5,35.6c0,1-0.8,1.8-1.8,1.8h-34c-1,0-1.8-0.8-1.8-1.8v-4.1c0-1,0.8-1.8,1.8-1.8h34
				c1,0,1.8,0.8,1.8,1.8V35.6z"/>
			<path id="Fill-5" class="st2" d="M44.4,48.5c0,0.7-0.5,1.2-1.2,1.2h-5c-0.7,0-1.2-0.5-1.2-1.2v-3.6c0-0.7,0.5-1.2,1.2-1.2h5
				c0.7,0,1.2,0.5,1.2,1.2V48.5z"/>
			<path id="Fill-7" class="st3" d="M40.7,43.6v6h2.5c0.7,0,1.2-0.5,1.2-1.2v-3.6c0-0.7-0.5-1.2-1.2-1.2H40.7z"/>
			<path id="Fill-9" class="st2" d="M31.8,48.5c0,0.7-0.5,1.2-1.2,1.2h-5c-0.7,0-1.2-0.5-1.2-1.2v-3.6c0-0.7,0.5-1.2,1.2-1.2h5
				c0.7,0,1.2,0.5,1.2,1.2V48.5z"/>
			<path id="Fill-11" class="st4" d="M44.4,57.7c0,0.7-0.5,1.2-1.2,1.2h-5c-0.7,0-1.2-0.5-1.2-1.2v-3.6c0-0.7,0.5-1.2,1.2-1.2h5
				c0.7,0,1.2,0.5,1.2,1.2V57.7z"/>
			<path id="Fill-13" class="st5" d="M40.7,52.9v6h2.5c0.7,0,1.2-0.5,1.2-1.2v-3.6c0-0.7-0.5-1.2-1.2-1.2H40.7z"/>
			<path id="Fill-15" class="st4" d="M31.8,57.7c0,0.7-0.5,1.2-1.2,1.2h-5c-0.7,0-1.2-0.5-1.2-1.2v-3.6c0-0.7,0.5-1.2,1.2-1.2h5
				c0.7,0,1.2,0.5,1.2,1.2V57.7z"/>
			<path id="Fill-17" class="st5" d="M49.6,57.7c0,0.7,0.5,1.2,1.2,1.2h5c0.7,0,1.2-0.5,1.2-1.2v-3.6c0-0.7-0.5-1.2-1.2-1.2h-5
				c-0.7,0-1.2,0.5-1.2,1.2V57.7z"/>
			<path id="Fill-19" class="st4" d="M44.4,66.9c0,0.7-0.5,1.2-1.2,1.2h-5c-0.7,0-1.2-0.5-1.2-1.2v-3.6c0-0.7,0.5-1.2,1.2-1.2h5
				c0.7,0,1.2,0.5,1.2,1.2V66.9z"/>
			<path id="Fill-21" class="st5" d="M40.7,62.1v6h2.5c0.7,0,1.2-0.5,1.2-1.2v-3.6c0-0.7-0.5-1.2-1.2-1.2H40.7z"/>
			<path id="Fill-23" class="st4" d="M31.8,66.9c0,0.7-0.5,1.2-1.2,1.2h-5c-0.7,0-1.2-0.5-1.2-1.2v-3.6c0-0.7,0.5-1.2,1.2-1.2h5
				c0.7,0,1.2,0.5,1.2,1.2V66.9z"/>
			<path id="Fill-25" class="st5" d="M49.6,66.9c0,0.7,0.5,1.2,1.2,1.2h5c0.7,0,1.2-0.5,1.2-1.2v-3.6c0-0.7-0.5-1.2-1.2-1.2h-5
				c-0.7,0-1.2,0.5-1.2,1.2V66.9z"/>
			<path id="Fill-27" class="st6" d="M58.9,24.1c0,0.5-0.4,1-1,1H23.4c-0.5,0-1-0.4-1-1V7c0.8,0.4,1.5,1.3,2.3,1.5
				c0.7,0.2,1.5-0.6,2.3-1.2c0.7-0.5,1.6-0.5,2.3,0c0.8,0.6,1.5,1.3,2.3,1.1c0.8-0.2,1.4-1.1,2.3-1.5c0.7-0.3,1.5,0.2,2.3,0.8
				c0.7,0.6,1.6,0.8,2.3,0.4c0.8-0.5,1.5-1.4,2.3-1.4c0.8,0,1.5,0.9,2.3,1.4c0.7,0.4,1.6,0.2,2.3-0.4c0.7-0.6,1.6-1.1,2.3-0.8
				c0.8,0.3,1.5,1.3,2.3,1.5c0.7,0.2,1.5-0.5,2.3-1.1c0.7-0.5,1.6-0.6,2.3,0c0.8,0.6,1.5,1.3,2.3,1.2c0.8-0.2,1.5-1.1,2.3-1.5V24.1z
				"/>
			<path id="Fill-29" class="st3" d="M49.6,48.5c0,0.7,0.5,1.2,1.2,1.2h5c0.7,0,1.2-0.5,1.2-1.2v-3.6c0-0.7-0.5-1.2-1.2-1.2h-5
				c-0.7,0-1.2,0.5-1.2,1.2V48.5z"/>
			<path id="Fill-31" class="st7" d="M24.4,34.1c0-1,0.8-1.8,1.8-1.8h33.3v-0.7c0-1-0.8-1.8-1.8-1.8h-34c-1,0-1.8,0.8-1.8,1.8v4.1
				c0,1,0.8,1.8,1.8,1.8h0.7V34.1z"/>
			<path id="Fill-33" class="st8" d="M38.2,44.4c-0.2,0-0.4,0.2-0.4,0.4v3.6c0,0.2,0.2,0.4,0.4,0.4h5c0.2,0,0.4-0.2,0.4-0.4v-3.6
				c0-0.2-0.2-0.4-0.4-0.4H38.2z M43.2,50.4h-5c-1.1,0-2-0.9-2-2v-3.6c0-1.1,0.9-2,2-2h5c1.1,0,2,0.9,2,2v3.6
				C45.2,49.5,44.3,50.4,43.2,50.4L43.2,50.4z"/>
			<path id="Fill-35" class="st8" d="M25.6,44.4c-0.2,0-0.4,0.2-0.4,0.4v3.6c0,0.2,0.2,0.4,0.4,0.4h5c0.2,0,0.4-0.2,0.4-0.4v-3.6
				c0-0.2-0.2-0.4-0.4-0.4H25.6z M30.6,50.4h-5c-1.1,0-2-0.9-2-2v-3.6c0-1.1,0.9-2,2-2h5c1.1,0,2,0.9,2,2v3.6
				C32.6,49.5,31.7,50.4,30.6,50.4L30.6,50.4z"/>
			<path id="Fill-37" class="st8" d="M50.8,44.4c-0.2,0-0.4,0.2-0.4,0.4v3.6c0,0.2,0.2,0.4,0.4,0.4h5c0.2,0,0.4-0.2,0.4-0.4v-3.6
				c0-0.2-0.2-0.4-0.4-0.4H50.8z M55.8,50.4h-5c-1.1,0-2-0.9-2-2v-3.6c0-1.1,0.9-2,2-2h5c1.1,0,2,0.9,2,2v3.6
				C57.8,49.5,56.9,50.4,55.8,50.4L55.8,50.4z"/>
			<path id="Fill-39" class="st8" d="M38.2,53.6c-0.2,0-0.4,0.2-0.4,0.4v3.6c0,0.2,0.2,0.4,0.4,0.4h5c0.2,0,0.4-0.2,0.4-0.4v-3.6
				c0-0.2-0.2-0.4-0.4-0.4H38.2z M43.2,59.6h-5c-1.1,0-2-0.9-2-2v-3.6c0-1.1,0.9-2,2-2h5c1.1,0,2,0.9,2,2v3.6
				C45.2,58.8,44.3,59.6,43.2,59.6L43.2,59.6z"/>
			<path id="Fill-41" class="st8" d="M25.6,53.6c-0.2,0-0.4,0.2-0.4,0.4v3.6c0,0.2,0.2,0.4,0.4,0.4h5c0.2,0,0.4-0.2,0.4-0.4v-3.6
				c0-0.2-0.2-0.4-0.4-0.4H25.6z M30.6,59.6h-5c-1.1,0-2-0.9-2-2v-3.6c0-1.1,0.9-2,2-2h5c1.1,0,2,0.9,2,2v3.6
				C32.6,58.8,31.7,59.6,30.6,59.6L30.6,59.6z"/>
			<path id="Fill-43" class="st8" d="M50.8,53.6c-0.2,0-0.4,0.2-0.4,0.4v3.6c0,0.2,0.2,0.4,0.4,0.4h5c0.2,0,0.4-0.2,0.4-0.4v-3.6
				c0-0.2-0.2-0.4-0.4-0.4H50.8z M55.8,59.6h-5c-1.1,0-2-0.9-2-2v-3.6c0-1.1,0.9-2,2-2h5c1.1,0,2,0.9,2,2v3.6
				C57.8,58.8,56.9,59.6,55.8,59.6L55.8,59.6z"/>
			<path id="Fill-45" class="st8" d="M38.2,62.8c-0.2,0-0.4,0.2-0.4,0.4v3.6c0,0.2,0.2,0.4,0.4,0.4h5c0.2,0,0.4-0.2,0.4-0.4v-3.6
				c0-0.2-0.2-0.4-0.4-0.4H38.2z M43.2,68.9h-5c-1.1,0-2-0.9-2-2v-3.6c0-1.1,0.9-2,2-2h5c1.1,0,2,0.9,2,2v3.6
				C45.2,68,44.3,68.9,43.2,68.9L43.2,68.9z"/>
			<path id="Fill-47" class="st8" d="M25.6,62.8c-0.2,0-0.4,0.2-0.4,0.4v3.6c0,0.2,0.2,0.4,0.4,0.4h5c0.2,0,0.4-0.2,0.4-0.4v-3.6
				c0-0.2-0.2-0.4-0.4-0.4H25.6z M30.6,68.9h-5c-1.1,0-2-0.9-2-2v-3.6c0-1.1,0.9-2,2-2h5c1.1,0,2,0.9,2,2v3.6
				C32.6,68,31.7,68.9,30.6,68.9L30.6,68.9z"/>
			<path id="Fill-49" class="st8" d="M50.8,62.8c-0.2,0-0.4,0.2-0.4,0.4v3.6c0,0.2,0.2,0.4,0.4,0.4h5c0.2,0,0.4-0.2,0.4-0.4v-3.6
				c0-0.2-0.2-0.4-0.4-0.4H50.8z M55.8,68.9h-5c-1.1,0-2-0.9-2-2v-3.6c0-1.1,0.9-2,2-2h5c1.1,0,2,0.9,2,2v3.6
				C57.8,68,56.9,68.9,55.8,68.9L55.8,68.9z"/>
			<path id="Fill-51" class="st9" d="M62.6,17.6c0.1,0.4,0.2,0.8,0.2,1.2v48.8c0,2.6-2.1,4.7-4.7,4.7H16.8c-0.4,0-0.8-0.1-1.2-0.2
				c0.5,2,2.4,3.4,4.5,3.4h41.3c2.6,0,4.7-2.1,4.7-4.7V22.1C66,19.9,64.6,18.1,62.6,17.6"/>
			<path id="Fill-53" class="st9" d="M19.2,20.8c0,0.5,0.4,1,1,1h2.3v-4.4h-2.4c-0.3,0-0.6,0-0.9,0.1V20.8z"/>
			<path id="Fill-55" class="st8" d="M64.8,71c-0.7,4-3.1,3.8-6,3.8H23.1c-1.9,0-4,0.3-5.5-1.5c-1.1-1.4-0.9-3.1-0.9-4.8V52.2V29.9
				c0-4.5-1.4-11.1,4.6-11.7c-0.2,2.4-0.9,6.5,1.3,7.5c0.7,0.3,1.8,0.1,2.5,0.1h16.1c5,0,10,0,15,0c0.9,0,1.9,0.1,2.8-0.3
				c2.2-1.1,1.6-4.8,1.4-7.2c2.3,0.3,4.2,1.2,4.5,4.1v30.1v16.3C64.8,69.5,64.9,70.3,64.8,71 M67.3,62.8V22c0,0,0,0,0-0.1
				c0,0,0-0.1,0-0.1c-0.5-4.5-4-5.1-7.9-5.1c-0.4,0-1.7,0.2-1.7,0.9c0,1.7-0.3,3.8,0,5.5c0.2,1,0.8,0.9,0.3,1.3
				c-0.5,0.4-2.7,0-3.3,0H41.2H27.9c-0.8,0-2.7,0.4-3.5,0c-1.5-0.8-0.7-5.2-0.7-7c0-0.4-0.4-0.6-0.8-0.6c-5.2,0-8.7,1.6-8.8,7.2
				c-0.1,6,0,12.1,0,18.1v22.4c0,3.6-1.1,9.4,2.9,11.4c3.5,1.8,9.7,0.6,13.4,0.6h22.5c3.6,0,9.3,1,12.3-1.5
				C68.4,72.2,67.3,66.3,67.3,62.8"/>
			<path id="Fill-57" class="st8" d="M53.6,36.6h-9.5H25.3c-0.4,0-1.2,0.1-1.6,0c-1.4-0.4-1.2-3.2-1-4.3c0.3-2.3,2.4-1.7,4.2-1.7h20
				h9.2c0.4,0,1.1-0.1,1.6,0c1.5,0.5,1,3.6,1,4.9C58.3,37.2,54.8,36.6,53.6,36.6 M57.6,28.9c-2.3-0.1-4.6,0-6.9,0H27.2
				c-1.7,0-4.5-0.5-5.7,1.1c-0.9,1.2-0.6,3.5-0.5,4.9c0,1.8,0.7,3.2,2.7,3.4c1.8,0.2,3.7,0,5.5,0h12H54c2.3,0,5.8,0.7,6.3-2.4
				c0,0,0,0,0-0.1c0-0.1,0-0.1,0-0.2C60.4,33.1,61.1,29.1,57.6,28.9"/>
			<path id="Fill-59" class="st8" d="M27.6,14.6c1.1-0.3,2.2-0.5,3.3-0.6c1.1-0.1,2.2-0.2,3.3,0c1.1,0.1,2.2,0.4,3.3,0.4
				c1.1,0.1,2.2,0,3.3-0.2c1.1-0.2,2.2-0.3,3.3-0.3c1.1-0.1,2.2-0.1,3.3-0.1c2.2,0.1,4.4,0.3,6.6,0.8v0.2c-2.2,0.6-4.4,0.7-6.6,0.8
				c-1.1,0-2.2,0-3.3-0.1c-1.1,0-2.2-0.2-3.3-0.3c-1.1-0.2-2.2-0.2-3.3-0.2c-1.1,0.1-2.2,0.3-3.3,0.4c-1.1,0.1-2.2,0-3.3,0
				c-1.1-0.1-2.2-0.3-3.3-0.6V14.6z"/>
			<path id="Fill-61" class="st8" d="M54,18.7c-1.1,0.3-2.2,0.5-3.3,0.6c-1.1,0.1-2.2,0.2-3.3,0c-1.1-0.1-2.2-0.4-3.3-0.4
				c-1.1-0.1-2.2,0-3.3,0.2c-1.1,0.2-2.2,0.3-3.3,0.3c-1.1,0.1-2.2,0.1-3.3,0.1c-2.2-0.1-4.4-0.3-6.6-0.8v-0.2
				c2.2-0.6,4.4-0.7,6.6-0.8c1.1,0,2.2,0,3.3,0.1c1.1,0,2.2,0.2,3.3,0.3c1.1,0.2,2.2,0.2,3.3,0.2c1.1-0.1,2.2-0.3,3.3-0.4
				c1.1-0.1,2.2,0,3.3,0c1.1,0.1,2.2,0.3,3.3,0.6V18.7z"/>
			<path id="Fill-63" class="st8" d="M56.2,24.2h-5.7H34.5h-6.6c-0.7,0-3.1,0.4-3.7,0c-1.1-0.7-0.5-5.1-0.5-6.5V8.9
				c0.6,0.2,1.2,0.2,2.4,0c1.9-0.3,3.6,0.5,5.4,0.4c0.7-0.1,1.1-0.6,1.7-0.7c0.6-0.8,1.2-0.8,2-0.1c0.5,0.3,0.9,0.5,1.4,0.7
				c1.7,0.2,2.7-1,4.1-0.9c1.5,0.1,2.3,1.1,4,0.8c0.5-0.2,1-0.5,1.4-0.7c0.8-0.4,1.5-0.3,2,0.4c0.6,0.2,0.8,0.5,1.5,0.6
				c0.7,0.1,1.3-0.3,1.9-0.4c1.6-0.3,3,0.5,4.5,0.4c0.7-0.1,1.2-0.2,1.8-0.5v15.4c0,0,0,0,0,0C57.2,24.3,56.6,24.2,56.2,24.2
				L56.2,24.2z M60.2,6.8c0-1-1.5-0.7-2.1-0.4c-1.8,1.2-3.3-0.6-5.1-0.3c-0.8,0.1-1.1,0.5-1.7,0.7c-2,0.4-1.2,0-2.8-0.5
				c-1.1-0.4-1.9,0.1-2.9,0.2c-4.7,0.8-1.2,0.1-3.4-0.2C41.5,6.2,41.3,6,40.7,6c-0.6,0-1,0.4-1.5,0.5c-0.2,0.2-0.5,0.4-0.7,0.5
				c-1,0.2-1.8,0-2.4-0.8c-1-0.2-1.8-0.1-2.8,0C32,6.5,31.8,6.9,30,6.5c-0.6-0.1-1.1-0.5-1.7-0.5c-0.6,0-1.2,0.3-1.8,0.5
				c-1.8,0.7-1.5,0.7-3.1-0.3c-0.6-0.4-2.2-0.1-2.2,0.8v13c0,2-0.8,4.9,1.5,5.7c0.9,0.3,2.3,0.1,3.2,0.1h7.7H52c2.2,0,6.7,0.9,8-1.4
				c0.1-0.1,0.2-0.3,0.2-0.5V6.8z"/>
		</g>
	</g>
</g>
</svg>
