<?xml version="1.0" encoding="utf-8"?>
<!-- Generator: Adobe Illustrator 21.1.0, SVG Export Plug-In . SVG Version: 6.00 Build 0)  -->
<svg version="1.1" id="Camada_1" xmlns="http://www.w3.org/2000/svg" xmlns:xlink="http://www.w3.org/1999/xlink" x="0px" y="0px"
	 viewBox="0 0 82 83" style="enable-background:new 0 0 82 83;" xml:space="preserve">
<style type="text/css">
	.st0{fill:#F7F7F7;}
	.st1{filter:url(#Adobe_OpacityMaskFilter);}
	.st2{fill:#FFFFFF;}
	.st3{mask:url(#mask-2_1_);fill:#333333;}
	.st4{fill:#E14559;}
	.st5{fill:#F9DF19;}
	.st6{fill:#00C7A4;}
	.st7{fill:#C6C6C9;}
</style>
<title>Group</title>
<desc>Created with Sketch.</desc>
<g id="Symbols">
	<g id="Flow-Icons_x2F_-Pedido-Recebido">
		<g id="Pedido-Recebido">
			<path id="Fill-1" class="st0" d="M66,74.3v-66C66,8.1,65.8,8,65.7,8H15.8c-0.2,0-0.3,0.1-0.3,0.3v66c0.6-0.4,1.2-0.9,2-1
				c0.2,0,0.3-0.1,0.5-0.1c1.2,0,2.1,0.7,3.1,1.4c0.2,0.2,0.4,0.3,0.6,0.4c0.6,0.5,1.4,0.4,2,0c0.1-0.1,0.3-0.2,0.4-0.3
				c1-0.8,2-1.5,3.2-1.5c0.2,0,0.4,0,0.6,0.1c0,0,0,0,0,0c0.9,0.2,1.6,0.8,2.2,1.3c0.4,0.4,0.8,0.7,1.2,0.9c0,0,0,0,0,0
				c0.1,0,0.1,0,0.2,0c0.3,0,0.9-0.2,1.9-1.1c0.9-0.8,1.9-1.1,2.9-1.1c0.6,0,1.2,0.2,1.7,0.5c0.4,0.3,0.8,0.6,1.2,0.9
				c0.6,0.4,1.1,0.9,1.5,0.9c0.4,0,1-0.5,1.5-0.9c0.4-0.3,0.8-0.6,1.2-0.9c0.5-0.3,1.1-0.5,1.7-0.5c1,0,2,0.4,2.9,1.1
				c1.1,0.9,1.7,1.1,1.9,1.1c0.1,0,0.1,0,0.2,0c0,0,0,0,0,0c0.4-0.2,0.8-0.5,1.2-0.9c0.6-0.5,1.3-1.1,2.2-1.3c0,0,0,0,0,0
				c0.2,0,0.4-0.1,0.6-0.1c1.2,0,2.2,0.8,3.2,1.5c0.1,0.1,0.3,0.2,0.4,0.3c0.6,0.5,1.4,0.5,2,0.1c0.2-0.2,0.4-0.3,0.6-0.5
				c0.9-0.7,1.9-1.4,3.1-1.4c0.2,0,0.4,0,0.5,0.1C64.8,73.4,65.4,73.9,66,74.3"/>
			<g id="Group-5" transform="translate(0.000000, 0.356255)">
				<g id="Clip-4">
				</g>
				<defs>
					<filter id="Adobe_OpacityMaskFilter" filterUnits="userSpaceOnUse" x="14" y="6.6" width="53.4" height="69.5">
						<feColorMatrix  type="matrix" values="1 0 0 0 0  0 1 0 0 0  0 0 1 0 0  0 0 0 1 0"/>
					</filter>
				</defs>
				<mask maskUnits="userSpaceOnUse" x="14" y="6.6" width="53.4" height="69.5" id="mask-2_1_">
					<g class="st1">
						<polygon id="path-1_1_" class="st2" points="14,6.6 67.4,6.6 67.4,76.1 14,76.1 						"/>
					</g>
				</mask>
				<path id="Fill-3" class="st3" d="M60.8,73c-1.1,0.4-0.9,1.1-2.3,0.7c-0.7-0.1-1.4-1-2-1.3c-0.8-0.3-1.7-0.5-2.6-0.3
					c-0.8,0.1-1.5,0.5-2.2,0.9c-2.2,1.2-1.6,0.6-3.7-0.3c-1.1-0.5-2.2-0.7-3.5-0.4c-1.3,0.3-2.4,1.5-3.6,1.5
					c-1.2-0.1-2.2-1.4-3.6-1.5c-1-0.1-2,0.1-2.9,0.5c-0.6,0.2-1.2,0.8-1.7,1c-0.1,0.3-0.2,0.5-0.3,0.8c-0.6-0.4-1.2-0.8-1.7-1.2
					c-0.8-0.5-1.6-1-2.6-1.1c-1.1-0.1-2.1,0.2-3,0.7c-2.4,1.1-1.9,1-4.4-0.1c-1.4-0.6-2.6-0.7-3.8-0.3V37.7V14.8
					c0-1.5,0.7-4.8,0-6.2c0,0,0-0.1,0-0.1c6.6,0.7,13.7,0,20.3,0h23.4c0.9,0,3.3-0.4,4.4-0.1c-0.7,0-0.2,2-0.2,2.9v20v41
					C63.5,72,62.3,72.4,60.8,73 M67.3,73.7V34.5V12.1c0-2.8,0.9-5.1-2.3-5.3c-6.9-0.5-14.1,0-21,0H19.7c-2.8,0-5.3-0.5-5.5,2.7
					c-0.4,6.2,0,12.5,0,18.7v45.9c0,1.1,1.6,0.8,2.2,0.4c2.3-1.6,4.2,1.7,6.5,1.4c0.8-0.1,1.4-0.7,2.1-1c4.8-1.8,2.1,0,5.4,0.9
					c1.1,0.3,1.8,0,2.8-0.4c0.4-0.2,0.8-0.5,1.2-0.8c1.5-0.9,2.8-0.8,3.9,0.4c0.8,0.4,1.1,1,2.1,1.1c0.7,0,1.1-0.3,1.7-0.5
					c0.4-0.2,0.8-0.5,1.1-0.8c1.9-0.8,3.5-0.6,4.8,0.7c1.1,0.3,1.6,0.7,2.8,0.3c2-0.7,1.6-2.4,4.7-1.4c1.1,0.4,1.4,1.3,2.7,1.5
					c2.3,0.4,4.5-2.9,6.9-1.2c0.1,0.1,0.2,0.1,0.3,0.1c0,0,0,0,0.1,0c0,0,0,0,0,0c0.8,0.2,2-0.3,2-1v0
					C67.3,73.8,67.3,73.7,67.3,73.7"/>
			</g>
			<path id="Fill-6" class="st4" d="M58.5,36.9c0,9.7-7.9,17.6-17.7,17.6c-9.8,0-17.7-7.9-17.7-17.6c0-9.7,7.9-17.6,17.7-17.6
				C50.5,19.3,58.5,27.2,58.5,36.9"/>
			<path id="Fill-8" class="st5" d="M49.8,36.6C49.8,36.6,49.8,36.7,49.8,36.6c-0.1,0.4-0.3,0.8-0.7,1c-0.4,0.2-0.8,0.3-1.2,0.2
				l-0.2-0.1c-0.4-0.1-0.8-0.4-1.1-0.8c-0.4-0.4-0.5-0.9-0.3-1.4c0.1-0.3,0.3-0.5,0.5-0.7c0.2-0.2,0.5-0.3,0.8-0.4
				c0.6-0.2,1.2-0.1,1.6,0.3l0.1,0.1c0.3,0.2,0.5,0.5,0.5,0.9C50,36,49.9,36.3,49.8,36.6 M43.9,28c0,0.2,0,0.3,0,0.5
				c0,0.2,0,0.3-0.1,0.5c-0.1,0.2-0.1,0.4-0.2,0.6c-0.1,0.2-0.2,0.4-0.3,0.6c-0.1,0.2-0.2,0.3-0.2,0.4c-0.1,0.1-0.1,0.2-0.2,0.4
				c-0.1,0.2-0.3,0.4-0.4,0.6c-0.1,0.2-0.3,0.4-0.4,0.6c-0.1,0.2-0.2,0.4-0.3,0.6c-0.1,0.2-0.2,0.4-0.4,0.6
				c-0.2,0.2-0.3,0.5-0.4,0.8c-0.1,0.3-0.2,0.4-0.3,0.5l0,0c-0.2-0.1-0.4-0.2-0.6-0.4c-0.2-0.1-0.4-0.3-0.7-0.4
				c-0.3-0.2-0.5-0.3-0.7-0.4c-0.2-0.1-0.4-0.3-0.7-0.5c-0.2-0.2-0.4-0.3-0.6-0.4c-0.1-0.1-0.2-0.2-0.4-0.3
				c-0.2-0.2-0.4-0.3-0.6-0.5c-0.2-0.2-0.4-0.4-0.6-0.5c-0.2-0.2-0.3-0.3-0.5-0.5c-0.2-0.2-0.4-0.4-0.6-0.7
				c-0.2-0.2-0.4-0.5-0.6-0.7c-0.2-0.2-0.3-0.4-0.4-0.7c-0.1-0.2-0.2-0.4-0.3-0.6c0-0.1-0.1-0.2-0.1-0.4c0-0.1,0-0.2,0-0.3
				c0,0,0-0.1,0.1-0.1c0.1-0.1,0.1-0.1,0.2-0.2c0.1-0.1,0.2-0.1,0.3-0.1c0.2,0,0.3-0.1,0.5-0.1c0.2,0,0.4,0,0.5,0
				c0.2,0,0.3,0,0.5,0.1c0.1,0,0.3,0.1,0.4,0.1c0.1,0.1,0.2,0.1,0.3,0.2c0.2,0.1,0.3,0.2,0.5,0.4c0.2,0.2,0.3,0.3,0.5,0.5
				c0.1,0.2,0.3,0.4,0.4,0.6c0.1,0.2,0.2,0.4,0.3,0.5c0.1,0.2,0.2,0.3,0.3,0.4c0.1,0.1,0.1,0.2,0.2,0.3c0.1,0.1,0.2,0.3,0.4,0.4
				c0.1,0.1,0.2,0.1,0.3,0.1c0.1,0,0.2,0,0.3-0.1c0.1-0.1,0.2-0.1,0.3-0.2c0.1-0.1,0.2-0.2,0.2-0.2c0.1-0.1,0.1-0.2,0.1-0.2
				c0,0,0-0.1,0.1-0.1c0-0.2,0.1-0.3,0.1-0.5c0-0.2,0.1-0.4,0.1-0.5c0-0.1,0-0.3,0.1-0.4c0-0.1,0-0.2,0.1-0.3c0-0.1,0.1-0.2,0.2-0.3
				c0.1-0.1,0.2-0.2,0.3-0.3c0.1-0.1,0.2-0.2,0.3-0.2c0.1-0.1,0.2-0.2,0.4-0.2c0.1-0.1,0.3-0.1,0.4-0.1c0.1,0,0.3-0.1,0.3-0.1
				c0.1,0,0.3,0,0.4,0c0.1,0,0.3,0,0.4,0c0.1,0,0.2,0,0.2,0c0,0,0.1,0,0.1,0c0,0,0,0,0.1,0.1c0.1,0.1,0.1,0.1,0.2,0.2
				c0.1,0.1,0.1,0.2,0.1,0.2c0.1,0.1,0.1,0.3,0.1,0.4C43.9,27.7,43.9,27.9,43.9,28 M45.4,26.6c-0.1-0.2-0.2-0.4-0.3-0.6
				c-0.1-0.2-0.3-0.3-0.4-0.5c-0.2-0.2-0.3-0.3-0.5-0.4C44,25,43.8,25,43.6,24.9c-0.2,0-0.4-0.1-0.6-0.1c-0.2,0-0.4,0-0.6,0
				c-0.2,0-0.3,0-0.5,0c-0.1,0-0.3,0.1-0.5,0.1c-0.2,0.1-0.5,0.1-0.7,0.2c-0.2,0.1-0.5,0.2-0.7,0.4c-0.2,0.1-0.4,0.3-0.6,0.5
				c-0.1,0.1-0.2,0.3-0.4,0.4c-0.1,0.2-0.2,0.3-0.3,0.5c-0.1,0.1-0.1,0.2-0.2,0.4l-0.1-0.1c-0.2-0.3-0.4-0.6-0.7-0.8
				c-0.2-0.2-0.5-0.4-0.7-0.6c-0.2-0.1-0.4-0.3-0.6-0.4c-0.2-0.1-0.5-0.2-0.7-0.3c-0.3-0.1-0.5-0.1-0.8-0.1c-0.3,0-0.6,0-0.8,0
				c-0.3,0-0.5,0.1-0.8,0.1c-0.3,0.1-0.5,0.2-0.8,0.3c-0.2,0.1-0.4,0.3-0.6,0.4c-0.2,0.2-0.3,0.4-0.4,0.6c-0.1,0.3-0.1,0.6-0.1,0.9
				c0,0.3,0.1,0.6,0.1,0.9c0.1,0.3,0.2,0.5,0.4,0.8c0.2,0.4,0.4,0.7,0.6,1c0.2,0.3,0.4,0.6,0.7,0.8c0.2,0.2,0.4,0.5,0.6,0.7
				c0.2,0.2,0.4,0.5,0.6,0.7c0.2,0.2,0.4,0.4,0.6,0.6c0.2,0.2,0.4,0.4,0.7,0.6c0.2,0.2,0.4,0.3,0.6,0.4c0.1,0.1,0.3,0.2,0.5,0.4
				c0.2,0.2,0.5,0.4,0.7,0.5c0.2,0.2,0.5,0.3,0.7,0.4c0.2,0.1,0.5,0.3,0.7,0.4s0.5,0.3,0.7,0.5c0.3,0.1,0.5,0.3,0.6,0.4l0.3,0.2
				c0.2,0.1,0.4,0.2,0.7,0.1c0.2,0,0.4-0.2,0.5-0.4c0.1-0.2,0.1-0.3,0.1-0.5c0-0.1,0-0.1,0.1-0.2c0-0.1,0.1-0.2,0.1-0.3
				c0.1-0.1,0.2-0.3,0.3-0.6c0.1-0.2,0.2-0.4,0.3-0.6c0.1-0.2,0.3-0.4,0.4-0.6c0.1-0.2,0.2-0.4,0.3-0.6c0.1-0.2,0.2-0.4,0.3-0.5
				c0.1-0.2,0.3-0.4,0.4-0.6c0.1-0.1,0.2-0.3,0.3-0.5c0.1-0.1,0.1-0.3,0.2-0.4s0.2-0.4,0.3-0.7c0.1-0.2,0.2-0.5,0.3-0.8
				c0.1-0.3,0.2-0.5,0.2-0.8c0-0.3,0-0.5,0-0.8c0-0.2,0-0.5-0.1-0.7C45.6,27.1,45.5,26.8,45.4,26.6"/>
			<path id="Fill-10" class="st6" d="M49,42.8H32.5c-0.8,0-1.4-0.6-1.4-1.4c0-0.8,0.6-1.4,1.4-1.4H49c0.8,0,1.4,0.6,1.4,1.4
				C50.4,42.2,49.8,42.8,49,42.8"/>
			<path id="Fill-12" class="st6" d="M46.2,47.3h-11c-0.8,0-1.4-0.6-1.4-1.4c0-0.8,0.6-1.4,1.4-1.4h11c0.8,0,1.4,0.6,1.4,1.4
				C47.6,46.7,47,47.3,46.2,47.3"/>
			<path id="Fill-14" class="st7" d="M49,60.3H32.5c-0.8,0-1.4-0.6-1.4-1.4c0-0.8,0.6-1.4,1.4-1.4H49c0.8,0,1.4,0.6,1.4,1.4
				C50.4,59.7,49.8,60.3,49,60.3"/>
			<path id="Fill-16" class="st7" d="M46.2,64.9h-11c-0.8,0-1.4-0.6-1.4-1.4c0-0.8,0.6-1.4,1.4-1.4h11c0.8,0,1.4,0.6,1.4,1.4
				C47.6,64.3,47,64.9,46.2,64.9"/>
		</g>
	</g>
</g>
</svg>
