<?xml version="1.0" encoding="utf-8"?>
<!-- Generator: Adobe Illustrator 21.1.0, SVG Export Plug-In . SVG Version: 6.00 Build 0)  -->
<svg version="1.1" id="Camada_1" xmlns="http://www.w3.org/2000/svg" xmlns:xlink="http://www.w3.org/1999/xlink" x="0px" y="0px"
	 viewBox="0 0 82 83" style="enable-background:new 0 0 82 83;" xml:space="preserve">
<style type="text/css">
	.st0{fill:#00B0C7;}
	.st1{fill:#E14559;}
	.st2{fill:#333333;}
	.st3{fill:#F9DF19;}
	.st4{fill:none;stroke:#00B0C7;}
	.st5{fill:#E83434;}
	.st6{fill:#0086C7;}
	.st7{fill:#F7F7F7;}
</style>
<title>Group</title>
<desc>Created with Sketch.</desc>
<g id="Symbols">
	<g id="Flow-Icons_x2F_Entregue-à-Transportadora">
		<g id="Page-1">
			<path id="Fill-1" class="st0" d="M77.4,36.5l-6.8-11.6c-0.4-0.7-1.2-1.1-2-1.1H52.8v27.8c0.6-0.1,1.3-0.2,2-0.2
				c2.7,0,5.1,1.3,6.7,3.2h14c1.3,0,2.3-1,2.3-2.3V37.7C77.7,37.3,77.6,36.9,77.4,36.5"/>
			<path id="Fill-3" class="st1" d="M52.6,16.7c0-1.6-1.3-2.9-2.9-2.9H7.7c-1.6,0-2.9,1.3-2.9,2.9v37.5c0,1.6,1.3,2.9,2.9,2.9h4.7
				c1.1-3.5,4.4-6.1,8.2-6.1c3.9,0,7.1,2.6,8.2,6.1h17.4c0.9-2.9,3.3-5.2,6.3-5.8V16.7z"/>
			<path id="Fill-5" class="st2" d="M29.3,59.7c0,4.8-3.9,8.7-8.6,8.7c-4.8,0-8.6-3.9-8.6-8.7s3.9-8.7,8.6-8.7
				C25.4,51,29.3,54.9,29.3,59.7"/>
			<path id="Fill-7" class="st2" d="M62.8,59.7c0,4.8-3.9,8.7-8.6,8.7c-4.8,0-8.6-3.9-8.6-8.7s3.9-8.7,8.6-8.7
				C58.9,51,62.8,54.9,62.8,59.7"/>
			<path id="Fill-9" class="st3" d="M20.3,63.9c-2,0-3.7-1.7-3.7-3.7c0-2.1,1.7-3.7,3.7-3.7s3.7,1.7,3.7,3.7
				C24,62.3,22.3,63.9,20.3,63.9"/>
			<path id="Stroke-11" class="st4" d="M20.3,63.9c-2,0-3.7-1.7-3.7-3.7c0-2.1,1.7-3.7,3.7-3.7s3.7,1.7,3.7,3.7
				C24,62.3,22.3,63.9,20.3,63.9z"/>
			<path id="Fill-13" class="st5" d="M26.5,53.8c1.1,1,1.9,2.3,2.3,3.7h17.4c0.4-1.4,1.3-2.7,2.3-3.7H26.5z"/>
			<path id="Fill-15" class="st5" d="M7.7,57.5h4.7c0.4-1.4,1.2-2.7,2.3-3.7H4.8v0.8C4.8,56.2,6.1,57.5,7.7,57.5"/>
			<path id="Fill-17" class="st5" d="M49.4,13.8h-1.1v39.5c1.1-1,2.5-1.8,4-2.1V16.7C52.2,15.1,50.9,13.8,49.4,13.8"/>
			<path id="Fill-19" class="st6" d="M57.2,51.7V23.8h-4.4v27.8c0.6-0.1,1.3-0.2,2-0.2C55.6,51.3,56.4,51.5,57.2,51.7"/>
			<path id="Fill-21" class="st3" d="M54.7,63.9c-2,0-3.7-1.7-3.7-3.7c0-2.1,1.7-3.7,3.7-3.7c2,0,3.7,1.7,3.7,3.7
				C58.4,62.3,56.7,63.9,54.7,63.9"/>
			<path id="Stroke-23" class="st4" d="M54.7,63.9c-2,0-3.7-1.7-3.7-3.7c0-2.1,1.7-3.7,3.7-3.7c2,0,3.7,1.7,3.7,3.7
				C58.4,62.3,56.7,63.9,54.7,63.9z"/>
			<path id="Fill-25" class="st3" d="M20.2,57.2c-1.6,0-2.9,1.3-2.9,2.9c0,1.6,1.3,2.9,2.9,2.9s2.9-1.3,2.9-2.9
				C23.1,58.5,21.8,57.2,20.2,57.2 M20.2,64.6c-2.5,0-4.5-2-4.5-4.5s2-4.5,4.5-4.5s4.5,2,4.5,4.5S22.7,64.6,20.2,64.6"/>
			<path id="Fill-27" class="st3" d="M54.6,57.2c-1.6,0-2.9,1.3-2.9,2.9c0,1.6,1.3,2.9,2.9,2.9s2.9-1.3,2.9-2.9
				C57.5,58.5,56.2,57.2,54.6,57.2 M54.6,64.6c-2.5,0-4.5-2-4.5-4.5s2-4.5,4.5-4.5c2.5,0,4.5,2,4.5,4.5S57.1,64.6,54.6,64.6"/>
			<path id="Fill-29" class="st3" d="M43,41C43,41.1,43,41.1,43,41c-0.2,0.7-0.6,1.2-1.1,1.6c-0.6,0.4-1.3,0.5-1.9,0.3l-0.3-0.1
				c-0.7-0.2-1.3-0.7-1.7-1.2c-0.6-0.6-0.8-1.5-0.5-2.3c0.2-0.5,0.4-0.8,0.8-1.1c0.4-0.3,0.8-0.6,1.3-0.7c0.9-0.4,1.9-0.2,2.6,0.5
				l0.1,0.1c0.4,0.4,0.7,0.8,0.9,1.4C43.3,40,43.2,40.6,43,41 M33.7,27.1c0,0.3,0,0.5-0.1,0.8c0,0.3-0.1,0.5-0.2,0.8
				c-0.1,0.3-0.2,0.6-0.4,0.9c-0.2,0.4-0.3,0.7-0.5,1c-0.1,0.3-0.2,0.5-0.3,0.6c-0.1,0.1-0.2,0.3-0.4,0.6c-0.2,0.3-0.4,0.7-0.6,1
				c-0.2,0.3-0.4,0.7-0.6,1c-0.2,0.3-0.3,0.6-0.5,0.9c-0.2,0.3-0.4,0.6-0.6,1c-0.2,0.4-0.5,0.8-0.7,1.2c-0.2,0.4-0.3,0.7-0.4,0.9
				l0,0c-0.4-0.2-0.7-0.4-1-0.6c-0.4-0.2-0.7-0.4-1.1-0.7c-0.4-0.3-0.8-0.5-1.1-0.7c-0.3-0.2-0.7-0.5-1-0.7
				c-0.4-0.3-0.7-0.5-0.9-0.7c-0.2-0.1-0.4-0.3-0.7-0.6c-0.3-0.3-0.7-0.5-1-0.8c-0.3-0.3-0.6-0.6-1-0.9c-0.3-0.3-0.6-0.6-0.8-0.9
				c-0.3-0.4-0.6-0.7-0.9-1.1c-0.3-0.4-0.6-0.7-0.9-1.1c-0.3-0.3-0.5-0.7-0.7-1.1c-0.2-0.3-0.3-0.7-0.4-1c-0.1-0.2-0.1-0.4-0.1-0.6
				c0-0.2,0-0.4,0-0.5c0-0.1,0.1-0.1,0.1-0.1c0.1-0.1,0.2-0.2,0.3-0.3c0.1-0.1,0.3-0.2,0.5-0.2c0.3-0.1,0.5-0.1,0.8-0.2
				c0.3,0,0.6,0,0.8,0c0.3,0,0.5,0.1,0.8,0.1c0.2,0,0.4,0.1,0.6,0.2c0.2,0.1,0.4,0.2,0.5,0.3c0.3,0.2,0.5,0.4,0.7,0.6
				c0.3,0.3,0.5,0.6,0.7,0.9c0.2,0.3,0.4,0.6,0.6,0.9c0.2,0.3,0.4,0.6,0.5,0.8c0.2,0.3,0.3,0.5,0.4,0.6c0.1,0.2,0.2,0.4,0.3,0.5
				c0.2,0.2,0.4,0.4,0.6,0.6c0.2,0.1,0.3,0.2,0.5,0.2c0.2,0,0.4-0.1,0.5-0.2c0.2-0.1,0.3-0.2,0.5-0.3c0.1-0.1,0.3-0.3,0.4-0.4
				c0.1-0.1,0.2-0.2,0.2-0.3c0,0,0.1-0.1,0.1-0.2c0-0.3,0.1-0.5,0.2-0.8c0.1-0.3,0.1-0.6,0.2-0.9c0-0.2,0.1-0.4,0.1-0.7
				c0-0.2,0.1-0.3,0.1-0.5c0.1-0.2,0.2-0.3,0.3-0.4c0.1-0.2,0.3-0.3,0.4-0.5c0.1-0.1,0.3-0.3,0.5-0.4c0.2-0.1,0.4-0.3,0.6-0.4
				c0.2-0.1,0.5-0.1,0.7-0.2c0.2-0.1,0.4-0.1,0.6-0.1c0.2,0,0.4-0.1,0.7-0.1c0.2,0,0.4,0,0.6,0c0.1,0,0.2,0,0.4,0
				c0.1,0,0.2,0,0.2,0.1c0,0,0.1,0.1,0.1,0.1c0.1,0.1,0.2,0.2,0.2,0.3c0.1,0.1,0.1,0.3,0.2,0.4c0.1,0.2,0.1,0.4,0.2,0.7
				C33.6,26.6,33.6,26.8,33.7,27.1 M36.1,24.8c-0.1-0.4-0.3-0.7-0.5-1c-0.2-0.3-0.4-0.5-0.6-0.8c-0.2-0.3-0.5-0.5-0.9-0.6
				c-0.3-0.1-0.6-0.2-0.9-0.3c-0.3-0.1-0.6-0.1-0.9-0.1c-0.3,0-0.6,0-1,0c-0.3,0-0.5,0-0.8,0.1c-0.2,0-0.5,0.1-0.9,0.2
				c-0.4,0.1-0.8,0.2-1.1,0.4c-0.4,0.2-0.7,0.4-1.1,0.6c-0.3,0.2-0.7,0.5-0.9,0.8c-0.2,0.2-0.4,0.5-0.6,0.7
				c-0.2,0.3-0.3,0.5-0.5,0.8c-0.1,0.2-0.2,0.4-0.3,0.6L25,26c-0.3-0.5-0.7-0.9-1.1-1.3c-0.4-0.4-0.8-0.7-1.2-1
				c-0.3-0.2-0.6-0.4-1-0.6c-0.4-0.2-0.8-0.3-1.2-0.4c-0.4-0.1-0.8-0.2-1.3-0.2c-0.4,0-0.9,0-1.3,0c-0.4,0-0.9,0.1-1.3,0.2
				c-0.4,0.1-0.9,0.3-1.2,0.5c-0.3,0.2-0.6,0.4-0.9,0.7c-0.3,0.3-0.4,0.6-0.6,1c-0.1,0.5-0.2,0.9-0.2,1.4c0,0.5,0.1,1,0.2,1.5
				c0.2,0.4,0.3,0.9,0.6,1.3c0.3,0.6,0.6,1.1,1,1.6c0.3,0.5,0.7,0.9,1.1,1.3c0.3,0.4,0.7,0.7,1,1.1c0.3,0.4,0.7,0.7,1,1.1
				c0.3,0.3,0.6,0.6,1,0.9c0.3,0.3,0.7,0.6,1.1,0.9c0.4,0.3,0.7,0.6,0.9,0.7c0.2,0.1,0.5,0.3,0.8,0.6c0.4,0.3,0.8,0.6,1.2,0.8
				c0.4,0.2,0.8,0.5,1.1,0.7c0.4,0.2,0.8,0.5,1.1,0.7c0.4,0.2,0.8,0.5,1.2,0.7c0.4,0.2,0.8,0.4,1,0.6l0.4,0.3
				c0.3,0.2,0.7,0.3,1.1,0.2c0.4-0.1,0.7-0.3,0.9-0.6c0.1-0.3,0.2-0.5,0.2-0.8c0-0.1,0.1-0.2,0.1-0.2c0.1-0.1,0.1-0.3,0.2-0.5
				c0.1-0.2,0.2-0.5,0.4-0.9c0.1-0.3,0.3-0.7,0.5-1c0.2-0.3,0.4-0.7,0.6-1c0.2-0.3,0.4-0.7,0.6-1c0.1-0.3,0.3-0.6,0.5-0.9
				c0.2-0.4,0.4-0.7,0.6-1c0.2-0.2,0.3-0.5,0.5-0.8c0.1-0.2,0.2-0.4,0.4-0.7c0.2-0.3,0.3-0.7,0.5-1.1c0.2-0.4,0.4-0.8,0.5-1.2
				c0.1-0.4,0.2-0.8,0.3-1.3c0.1-0.4,0.1-0.8,0.1-1.3c0-0.4-0.1-0.8-0.1-1.2C36.3,25.6,36.2,25.2,36.1,24.8"/>
			<g id="Group-33" transform="translate(0.000000, 0.845334)">
				<path id="Fill-31" class="st2" d="M51,50.2c-2.5,1-4.1,2.6-5.7,5c-0.3,0.4,1.6,0.1-0.2,0.4c-1,0.2-2.3,0-3.2,0H29.6
					c-1.9-4.2-6-6.7-10.8-5.9c-2.3,0.4-4.5,1.6-6.1,3.3c0,0.1-1.3,2.3-1.2,2.7c-0.9,0.1-2.7,0-3-0.1c-3.7-0.9-2.8-4.2-2.8-7.2V34.8
					V21.6c0-1.8-0.9-6.3,1.4-7.4c1.4-0.6,4.7,0,6.2,0h13.4H42c2.5,0,8.2-1.3,8.9,2.2V50.2z M53.6,16c0-0.1,0-0.1,0-0.2
					c-1.1-5.5-11.5-3.4-15.5-3.4H11.3c-1.8,0-4.1-0.3-5.8,0.5c-2.5,1.3-2.4,3.6-2.4,6v26.5c0,2.7-0.4,5.7,0,8.4
					c0.7,4.6,5.2,3.7,8.8,3.7c0.5,0,1.2-0.3,1.4-0.8c2.7-7,11.3-6.4,13.9,0.2c0.2,0.5,0.7,0.6,1.2,0.6h17.4c0.5,0,1.2-0.3,1.4-0.8
					c1-2.6,2.4-4.2,5.3-5.1c0.4-0.1,1.1-0.5,1.1-1L53.6,16C53.6,16,53.6,16,53.6,16L53.6,16z"/>
			</g>
			<path id="Fill-34" class="st2" d="M75.9,51.6c-0.6,1.8-1.3,1.3-2.8,1.5c-3,0.4-8.1,0.7-11.1,0c-1.3-0.3-1.7-1.4-3.3-2.2
				c-1.6-0.8-3.3-1.1-5.1-1V25.1h5.3c2.6,0,6.4-0.7,8.8,0c2.1,0.6,3.1,3.7,4.1,5.5c1.2,2.1,2.5,4.3,3.7,6.4
				c0.8,3.1,0.2,6.9,0.2,10.1C75.9,48.4,76.3,50.4,75.9,51.6 M78.3,36.4c0-0.1-0.1-0.3-0.1-0.4c0-0.1-0.1-0.2-0.1-0.2l-4.5-7.6
				c-1.3-2.2-2.3-5.1-5.1-5.7c-5-1-11.1,0-16.2,0c-0.7,0-1.4,0.6-1.4,1.4v27.8c0,1,0.9,1.5,1.7,1.3c3.8-0.7,5.4,2.2,8.5,3
				c1.4,0.4,3.3,0,4.7,0c2.9,0,8.1,1,10.8-0.4c2.8-1.5,2-5.8,2-8.3C78.6,43.7,79.1,39.8,78.3,36.4"/>
			<path id="Fill-36" class="st2" d="M13,60.1c0-9.4,14-9.3,14.5,0C27,69.5,13,69.6,13,60.1 M30.2,60.1c0-0.1,0-0.3,0-0.4
				c-0.5-5.3-4.4-9.6-9.9-9.6c-5.4,0-10,4.6-10,10c0,5.3,4.3,9.8,9.5,10c5.7,0.3,9.9-4.1,10.4-9.6C30.2,60.4,30.2,60.3,30.2,60.1"/>
			<path id="Fill-38" class="st2" d="M55.7,52.9c9.3,1.4,7.1,15.4-2.2,14.4C44.4,65.4,46.4,51.5,55.7,52.9 M53.1,70
				c0.1,0,0.3,0,0.4,0c5.2,0.3,10.2-2.9,11-8.4c0.8-5.4-3-10.6-8.3-11.4c-5.2-0.8-10.3,2.7-11.3,7.9c-1.1,5.6,2.6,10.5,7.9,11.8
				C52.8,70,52.9,70,53.1,70"/>
			<path id="Fill-40" class="st7" d="M57.3,28.3c-0.5,0-0.9,0.4-0.9,0.9v9.2c0,0.5,0.4,0.9,0.9,0.9h13.3c0.4,0,0.8-0.2,1-0.6
				c0.2-0.4,0.2-0.8,0-1.1l-4.5-8.3c-0.3-0.6-0.9-1-1.6-1H57.3z"/>
			<path id="Fill-42" class="st2" d="M65.7,37.2c-2.1,0-5.3,0.6-7.5,0c-0.2-1.2,0-2.8,0-3.9c0-1.2-0.2-2.7,0-3.9H61
				c1.1,0,3.2-0.4,4.3,0c1,0.4,1.3,1.6,1.8,2.5c0.8,1.5,1.6,2.9,2.3,4.4c0.1,0.2,0.4,0.6,0.5,0.9c-0.1,0-0.1,0-0.3,0
				C68.5,37.4,67,37.2,65.7,37.2 M71,33.7c-0.9-1.7-1.7-3.6-2.8-5.2c-1.8-2.8-7-1.8-10.1-1.7c-0.2-0.1-0.4-0.1-0.7,0
				c-0.2,0-0.4,0.1-0.5,0.2c-1.3,0.7-1.3,1.8-1.3,3.3c0,2.2-0.2,4.5,0,6.7c0.3,3.7,4.6,2.7,7.3,2.7c2.2,0,9.3,1.3,9.8-2
				C72.8,36.4,71.6,34.8,71,33.7"/>
		</g>
	</g>
</g>
</svg>
