<?xml version="1.0" encoding="utf-8"?>
<!-- Generator: Adobe Illustrator 21.1.0, SVG Export Plug-In . SVG Version: 6.00 Build 0)  -->
<svg version="1.1" id="Layer_1" xmlns="http://www.w3.org/2000/svg" xmlns:xlink="http://www.w3.org/1999/xlink" x="0px" y="0px"
	 viewBox="0 0 15 15" style="enable-background:new 0 0 15 15;" xml:space="preserve">
<style type="text/css">
	.st0{fill:#E14559;}
</style>
<title>Group 2</title>
<desc>Created with Sketch.</desc>
<path class="st0" d="M5,0H1C0.4,0,0,0.4,0,1v4c0,0.6,0.4,1,1,1s1-0.4,1-1V2h3c0.6,0,1-0.4,1-1S5.6,0,5,0z"/>
<path class="st0" d="M14,0h-4C9.4,0,9,0.4,9,1s0.4,1,1,1h3v3c0,0.6,0.4,1,1,1s1-0.4,1-1V1C15,0.4,14.6,0,14,0z"/>
<path class="st0" d="M5,13H2v-3c0-0.6-0.4-1-1-1s-1,0.4-1,1v4c0,0.6,0.4,1,1,1h4c0.6,0,1-0.4,1-1C6,13.4,5.6,13,5,13z"/>
<path class="st0" d="M14,9c-0.6,0-1,0.4-1,1v3h-3c-0.6,0-1,0.4-1,1c0,0.6,0.4,1,1,1h4c0.6,0,1-0.4,1-1v-4C15,9.4,14.6,9,14,9z"/>
</svg>
