<?xml version="1.0" encoding="utf-8"?>
<!-- Generator: Adobe Illustrator 21.1.0, SVG Export Plug-In . SVG Version: 6.00 Build 0)  -->
<svg version="1.1" id="Layer_1" xmlns="http://www.w3.org/2000/svg" xmlns:xlink="http://www.w3.org/1999/xlink" x="0px" y="0px"
	 viewBox="0 0 18 2" style="enable-background:new 0 0 18 2;" xml:space="preserve">
<style type="text/css">
	.st0{fill:#00B0C7;}
</style>
<title>Group 2</title>
<desc>Created with Sketch.</desc>
<path id="Rectangle-4" class="st0" d="M1,0h4c0.6,0,1,0.4,1,1l0,0c0,0.6-0.4,1-1,1H1C0.4,2,0,1.6,0,1l0,0C0,0.4,0.4,0,1,0z"/>
<path id="Rectangle-4-Copy" class="st0" d="M7,0h4c0.6,0,1,0.4,1,1l0,0c0,0.6-0.4,1-1,1H7C6.4,2,6,1.6,6,1l0,0C6,0.4,6.4,0,7,0z"/>
<path id="Rectangle-4-Copy-2" class="st0" d="M13,0h4c0.6,0,1,0.4,1,1l0,0c0,0.6-0.4,1-1,1h-4c-0.6,0-1-0.4-1-1l0,0
	C12,0.4,12.4,0,13,0z"/>
</svg>
