<?xml version="1.0" encoding="UTF-8"?>
<svg width="20px" height="20px" viewBox="0 0 20 20" version="1.1" xmlns="http://www.w3.org/2000/svg" xmlns:xlink="http://www.w3.org/1999/xlink">
    <!-- Generator: Sketch 43.1 (39012) - http://www.bohemiancoding.com/sketch -->
    <title>Facebook</title>
    <desc>Created with Sketch.</desc>
    <defs></defs>
    <g id="Symbols" stroke="none" stroke-width="1" fill="none" fill-rule="evenodd">
        <g id="Footer-Mobile" transform="translate(-50.000000, -689.000000)" fill="#FFFFFF">
            <path d="M60.682648,709 L51.1038465,709 C50.4940303,709 50,708.505663 50,707.896084 L50,690.103838 C50,689.494104 50.4941079,689 51.1038465,689 L68.8962311,689 C69.5058145,689 70,689.494104 70,690.103838 L70,707.896084 C70,708.505741 69.5057369,709 68.8962311,709 L63.7997105,709 L63.7997105,701.254898 L66.3993838,701.254898 L66.788648,698.236494 L63.7997105,698.236494 L63.7997105,696.309434 C63.7997105,695.435536 64.0423798,694.840004 65.2955374,694.840004 L66.8938797,694.839306 L66.8938797,692.139621 C66.6174525,692.102837 65.6686598,692.020654 64.5648133,692.020654 C62.2603476,692.020654 60.682648,693.427303 60.682648,696.010504 L60.682648,698.236494 L58.0763007,698.236494 L58.0763007,701.254898 L60.682648,701.254898 L60.682648,709 L60.682648,709 Z" id="Facebook"></path>
        </g>
    </g>
</svg>