<?xml version="1.0" encoding="UTF-8"?>
<svg width="20px" height="20px" viewBox="0 0 20 20" version="1.1" xmlns="http://www.w3.org/2000/svg" xmlns:xlink="http://www.w3.org/1999/xlink">
    <!-- Generator: Sketch 43.1 (39012) - http://www.bohemiancoding.com/sketch -->
    <title>Instagram</title>
    <desc>Created with Sketch.</desc>
    <defs></defs>
    <g id="Symbols" stroke="none" stroke-width="1" fill="none" fill-rule="evenodd">
        <g id="Footer-Mobile" transform="translate(-215.000000, -689.000000)" fill="#FFFFFF">
            <path d="M225.00002,689 C227.715837,689 228.056381,689.011512 229.122987,689.060178 C230.187371,689.108725 230.914306,689.277786 231.55038,689.525007 C232.207968,689.780524 232.765644,690.122457 233.321613,690.678387 C233.877543,691.234356 234.219476,691.792032 234.475033,692.44962 C234.722214,693.085694 234.891275,693.812629 234.939822,694.877013 C234.988488,695.943619 235,696.284163 235,699.00002 C235,701.715837 234.988488,702.056381 234.939822,703.122987 C234.891275,704.187371 234.722214,704.914306 234.475033,705.55038 C234.219476,706.207968 233.877543,706.765644 233.321613,707.321613 C232.765644,707.877543 232.207968,708.219476 231.55038,708.475033 C230.914306,708.722214 230.187371,708.891275 229.122987,708.939822 C228.056381,708.988488 227.715837,709 225.00002,709 C222.284163,709 221.943619,708.988488 220.877013,708.939822 C219.812629,708.891275 219.085694,708.722214 218.44962,708.475033 C217.792032,708.219476 217.234356,707.877543 216.678387,707.321613 C216.122457,706.765644 215.780524,706.207968 215.525007,705.55038 C215.277786,704.914306 215.108725,704.187371 215.060178,703.122987 C215.011512,702.056381 215,701.715837 215,699.00002 C215,696.284163 215.011512,695.943619 215.060178,694.877013 C215.108725,693.812629 215.277786,693.085694 215.525007,692.44962 C215.780524,691.792032 216.122457,691.234356 216.678387,690.678387 C217.234356,690.122457 217.792032,689.780524 218.44962,689.525007 C219.085694,689.277786 219.812629,689.108725 220.877013,689.060178 C221.943619,689.011512 222.284163,689 225.00002,689 Z M225.00002,690.801799 C222.329892,690.801799 222.013602,690.812 220.959142,690.860111 C219.984152,690.904569 219.454659,691.067478 219.102286,691.204426 C218.635512,691.385832 218.302391,691.602527 217.952479,691.952479 C217.602527,692.302391 217.385832,692.635512 217.204426,693.102286 C217.067478,693.454659 216.904569,693.984152 216.860111,694.959142 C216.812,696.013602 216.801799,696.329892 216.801799,699.00002 C216.801799,701.670108 216.812,701.986398 216.860111,703.040858 C216.904569,704.015848 217.067478,704.545341 217.204426,704.897714 C217.385832,705.364488 217.602567,705.697609 217.952479,706.047521 C218.302391,706.397473 218.635512,706.614168 219.102286,706.795574 C219.454659,706.932522 219.984152,707.095431 220.959142,707.139889 C222.013482,707.188 222.329693,707.198201 225.00002,707.198201 C227.670307,707.198201 227.986557,707.188 229.040858,707.139889 C230.015848,707.095431 230.545341,706.932522 230.897714,706.795574 C231.364488,706.614168 231.697609,706.397473 232.047521,706.047521 C232.397473,705.697609 232.614168,705.364488 232.795574,704.897714 C232.932522,704.545341 233.095431,704.015848 233.139889,703.040858 C233.188,701.986398 233.198201,701.670108 233.198201,699.00002 C233.198201,696.329892 233.188,696.013602 233.139889,694.959142 C233.095431,693.984152 232.932522,693.454659 232.795574,693.102286 C232.614168,692.635512 232.397473,692.302391 232.047521,691.952479 C231.697609,691.602527 231.364488,691.385832 230.897714,691.204426 C230.545341,691.067478 230.015848,690.904569 229.040858,690.860111 C227.986398,690.812 227.670108,690.801799 225.00002,690.801799 Z M225.00002,693.864868 C227.836073,693.864868 230.135132,696.163927 230.135132,699.00002 C230.135132,701.836073 227.836073,704.135132 225.00002,704.135132 C222.163927,704.135132 219.864868,701.836073 219.864868,699.00002 C219.864868,696.163927 222.163927,693.864868 225.00002,693.864868 Z M225.00002,702.333333 C226.840958,702.333333 228.333333,700.840958 228.333333,699.00002 C228.333333,697.159042 226.840958,695.666667 225.00002,695.666667 C223.159042,695.666667 221.666667,697.159042 221.666667,699.00002 C221.666667,700.840958 223.159042,702.333333 225.00002,702.333333 Z M231.538035,693.661987 C231.538035,694.324735 231.000762,694.861968 230.338013,694.861968 C229.675304,694.861968 229.138032,694.324735 229.138032,693.661987 C229.138032,692.999238 229.675304,692.461965 230.338013,692.461965 C231.000762,692.461965 231.538035,692.999238 231.538035,693.661987 Z" id="Instagram"></path>
        </g>
    </g>
</svg>