<?xml version="1.0" encoding="UTF-8"?>
<svg width="24px" height="17px" viewBox="0 0 24 17" version="1.1" xmlns="http://www.w3.org/2000/svg" xmlns:xlink="http://www.w3.org/1999/xlink">
    <!-- Generator: Sketch 43.1 (39012) - http://www.bohemiancoding.com/sketch -->
    <title>Youtube</title>
    <desc>Created with Sketch.</desc>
    <defs></defs>
    <g id="Symbols" stroke="none" stroke-width="1" fill="none" fill-rule="evenodd">
        <g id="Footer-Mobile" transform="translate(-296.000000, -690.000000)" fill="#FFFFFF">
            <path d="M305.522,701.634958 L305.52125,694.843871 L312.00575,698.251122 L305.522,701.634958 Z M319.76,693.667081 C319.76,693.667081 319.52525,692.0016 318.806,691.268183 C317.89325,690.30515 316.87025,690.300618 316.4015,690.244724 C313.043,690 308.00525,690 308.00525,690 L307.99475,690 C307.99475,690 302.957,690 299.5985,690.244724 C299.129,690.300618 298.10675,690.30515 297.19325,691.268183 C296.474,692.0016 296.24,693.667081 296.24,693.667081 C296.24,693.667081 296,695.623362 296,697.578887 L296,699.412805 C296,701.369085 296.24,703.32461 296.24,703.32461 C296.24,703.32461 296.474,704.990092 297.19325,705.723508 C298.10675,706.686542 299.306,706.656329 299.84,706.756787 C301.76,706.942596 308,707 308,707 C308,707 313.043,706.992447 316.4015,706.747723 C316.87025,706.691074 317.89325,706.686542 318.806,705.723508 C319.52525,704.990092 319.76,703.32461 319.76,703.32461 C319.76,703.32461 320,701.369085 320,699.412805 L320,697.578887 C320,695.623362 319.76,693.667081 319.76,693.667081 L319.76,693.667081 Z" id="Youtube"></path>
        </g>
    </g>
</svg>