<svg xmlns="http://www.w3.org/2000/svg" xmlns:xlink="http://www.w3.org/1999/xlink" viewBox="0 0 53.17 69.37"><defs><style>.cls-1{mask:url(#mask);filter:url(#luminosity-noclip-3);}.cls-2,.cls-4{mix-blend-mode:multiply;}.cls-2{fill:url(#linear-gradient);}.cls-3{mask:url(#mask-2);filter:url(#luminosity-noclip-4);}.cls-4{fill:url(#linear-gradient-2);}.cls-5{fill:#c9caca;}.cls-6{fill:#898989;}.cls-7{fill:#333;}.cls-8{mask:url(#mask-3);}.cls-9{mask:url(#mask-4);}.cls-10{fill:#595757;}.cls-11{filter:url(#luminosity-noclip-2);}.cls-12{filter:url(#luminosity-noclip);}</style><filter id="luminosity-noclip" x="6.59" y="-7664.69" width="45.58" height="32766" filterUnits="userSpaceOnUse" color-interpolation-filters="sRGB"><feFlood flood-color="#fff" result="bg"/><feBlend in="SourceGraphic" in2="bg"/></filter><mask id="mask" x="6.59" y="-7664.69" width="45.58" height="32766" maskUnits="userSpaceOnUse"><g class="cls-12"/></mask><linearGradient id="linear-gradient" x1="-9.42" y1="-146.5" x2="2.47" y2="-96.49" gradientTransform="translate(62.68 141.03) rotate(-24.4)" gradientUnits="userSpaceOnUse"><stop offset="0"/><stop offset="1" stop-color="#474747"/></linearGradient><filter id="luminosity-noclip-2" x="7.97" y="-7664.69" width="5.36" height="32766" filterUnits="userSpaceOnUse" color-interpolation-filters="sRGB"><feFlood flood-color="#fff" result="bg"/><feBlend in="SourceGraphic" in2="bg"/></filter><mask id="mask-2" x="7.97" y="-7664.69" width="5.36" height="32766" maskUnits="userSpaceOnUse"><g class="cls-11"/></mask><linearGradient id="linear-gradient-2" x1="-15.01" y1="-117.18" x2="2.51" y2="-117.18" gradientTransform="translate(62.68 141.03) rotate(-24.4)" gradientUnits="userSpaceOnUse"><stop offset="0" stop-color="#383838"/><stop offset="1" stop-color="#7a7a7a"/></linearGradient><filter id="luminosity-noclip-3" x="6.59" y="6.98" width="45.58" height="61.39" filterUnits="userSpaceOnUse" color-interpolation-filters="sRGB"><feFlood flood-color="#fff" result="bg"/><feBlend in="SourceGraphic" in2="bg"/></filter><mask id="mask-3" x="6.59" y="6.98" width="45.58" height="61.39" maskUnits="userSpaceOnUse"><g class="cls-1"><path class="cls-2" d="M6.59,7l.08,5.95a5.54,5.54,0,0,1,3.59-.36c15.44,18,31.36,31,18.59,40.14A64.11,64.11,0,0,1,7.3,62.41l.08,6s10.5-.81,23.77-6.83a85.66,85.66,0,0,0,21-13.49Z"/></g></mask><filter id="luminosity-noclip-4" x="7.97" y="14.33" width="5.36" height="44.11" filterUnits="userSpaceOnUse" color-interpolation-filters="sRGB"><feFlood flood-color="#fff" result="bg"/><feBlend in="SourceGraphic" in2="bg"/></filter><mask id="mask-4" x="7.97" y="14.33" width="5.36" height="44.11" maskUnits="userSpaceOnUse"><g class="cls-3"><path class="cls-4" d="M8,14.33l.45,43.41s.92,1.67,4.91-.14Z"/></g></mask></defs><title>confeccao</title><g id="Camada_2" data-name="Camada 2"><g id="Camada_1-2" data-name="Camada 1"><path class="cls-5" d="M6.59,7l.79,61.39s10.5-.81,23.77-6.83a85.66,85.66,0,0,0,21-13.49L6.59,7Z"/><path class="cls-6" d="M20.23,38.85A45.84,45.84,0,0,1,7.1,42.73L7,38A48.16,48.16,0,0,0,29.5,27.67l3.57,3.26A54.49,54.49,0,0,1,20.23,38.85Z"/><circle class="cls-7" cx="13.06" cy="47.99" r="2.46" transform="translate(-18.66 9.68) rotate(-24.4)"/><circle class="cls-7" cx="22.69" cy="44.59" r="2.46" transform="translate(-16.39 13.35) rotate(-24.4)"/><g class="cls-8"><path class="cls-7" d="M6.59,7l.08,5.95a5.54,5.54,0,0,1,3.59-.36c15.44,18,31.36,31,18.59,40.14A64.11,64.11,0,0,1,7.3,62.41l.08,6s10.5-.81,23.77-6.83a85.66,85.66,0,0,0,21-13.49Z"/></g><path class="cls-7" d="M9.21,67.95l3.43-6.16L18,66.3S12,68.2,9.21,67.95Z"/><path class="cls-7" d="M21.49,65.3l1.7-7.53,6.25,4.48A40.93,40.93,0,0,1,21.49,65.3Z"/><path class="cls-7" d="M32.69,60.81a30.76,30.76,0,0,0,7.47-4.12c-7-3.18-6.86-3.5-6.86-3.5Z"/><path class="cls-7" d="M43,55a69.16,69.16,0,0,0,7.28-5.25A44.39,44.39,0,0,0,43,47.81Z"/><path class="cls-6" d="M25.88,53C15.4,57.73,7.83,58.21,7.35,58.23l-.13-2.49c.17,0,17.22-1.12,35.43-16.31l2,1.86A82.62,82.62,0,0,1,25.88,53Z"/><g class="cls-9"><path class="cls-5" d="M8,14.33l.45,43.41s.92,1.67,4.91-.14Z"/></g><path class="cls-7" d="M52.88,47.34,17.68,15.63c-2.11-1.9-4.2-3.85-6.31-5.76a6.42,6.42,0,0,0,.7-6l0-.09a1.67,1.67,0,0,0-.11-.27,6.35,6.35,0,0,0-8.21-3A6.32,6.32,0,0,0,.46,8.64a6.34,6.34,0,0,0,5.2,3.86l.62,48.16.1,7.71a1,1,0,0,0,1,1A69.19,69.19,0,0,0,25.32,65,89,89,0,0,0,52.88,48.76,1,1,0,0,0,52.88,47.34ZM3.18,7.42c-1.49-3.93,4.12-6,6.07-2.5A3.79,3.79,0,0,1,9.1,7.86L7.79,6.72l-.5-.45A1,1,0,0,0,6.45,6a.91.91,0,0,0-.8.62.86.86,0,0,0-.06.48l0,2.34A3.35,3.35,0,0,1,3.18,7.42ZM24,63.37a68.86,68.86,0,0,1-15.6,3.89L7.69,14.69l0-2.3.55-.15a6.12,6.12,0,0,0,1.74-.89l17.43,15.7L50.64,48A86.28,86.28,0,0,1,24,63.37Z"/><circle class="cls-6" cx="6.26" cy="6.27" r="4.79" transform="translate(-2.03 3.15) rotate(-24.4)"/><path class="cls-10" d="M8.38,2A4.76,4.76,0,0,1,2.48,9.19,4.78,4.78,0,1,0,8.38,2Z"/><ellipse class="cls-5" cx="4.35" cy="5.36" rx="1.79" ry="1.75" transform="translate(-1.83 2.27) rotate(-24.4)"/><circle class="cls-7" cx="31.96" cy="39.41" r="2.46" transform="translate(-13.43 16.72) rotate(-24.4)"/></g></g></svg>