<svg xmlns="http://www.w3.org/2000/svg" viewBox="0 0 81.32 82.14"><defs><style>.cls-1{fill:#c9caca;}.cls-2{fill:#898989;}.cls-3{fill:#f6f6f6;}.cls-4{fill:#595757;}.cls-5{fill:#333;}</style></defs><title>entregue</title><g id="Camada_2" data-name="Camada 2"><g id="Camada_1-2" data-name="Camada 1"><circle class="cls-1" cx="4.27" cy="33.59" r="2.85"/><path class="cls-2" d="M6,31.87a2.86,2.86,0,0,1,.63.07,2.85,2.85,0,1,0-2.95,4.42A2.84,2.84,0,0,1,6,31.87Z"/><circle class="cls-3" cx="43.41" cy="13.63" r="2.71"/><circle class="cls-4" cx="37.41" cy="4.84" r="2.74"/><path class="cls-1" d="M63,81.25a5.36,5.36,0,0,0,5.36-5.36V42.4H9.55V75.88a5.36,5.36,0,0,0,5.36,5.36Z"/><path class="cls-2" d="M63,81.25a5.36,5.36,0,0,0,5.36-5.36V42.4h-4.5v29a5.36,5.36,0,0,1-5.36,5.36h-48a5.39,5.39,0,0,1-.8-.06,5.36,5.36,0,0,0,5.3,4.56Z"/><path class="cls-5" d="M63,82.14a6.26,6.26,0,0,0,6.26-6.26V42.4a.89.89,0,0,0-.89-.89H9.55a.89.89,0,0,0-.89.89V75.88a6.26,6.26,0,0,0,6.26,6.26ZM10.45,75.88V43.3h57V75.88A4.48,4.48,0,0,1,63,80.35h-48A4.48,4.48,0,0,1,10.45,75.88Z"/><polygon class="cls-4" points="58.88 29.18 19 29.18 9.55 42.4 68.33 42.4 58.88 29.18"/><path class="cls-5" d="M9.55,43.3H68.33A.89.89,0,0,0,69,41.83l-9.4-13.17a.89.89,0,0,0-.73-.37H19a.89.89,0,0,0-.73.37L8.83,41.88a.89.89,0,0,0,.73,1.41Zm9.91-13.22h39l8.17,11.44H11.29Z"/><path class="cls-4" d="M47.33,53.68a2.69,2.69,0,1,0,0-5.39H30.56a2.69,2.69,0,1,0,0,5.39Z"/><path class="cls-5" d="M47.33,54.57a3.59,3.59,0,1,0,0-7.17H30.56a3.59,3.59,0,1,0,0,7.17ZM28.75,51a1.8,1.8,0,0,1,1.8-1.8H47.33a1.8,1.8,0,1,1,0,3.6H30.56A1.8,1.8,0,0,1,28.75,51Z"/><rect class="cls-3" x="15.24" y="61.82" width="15.06" height="14.02"/><path class="cls-5" d="M30.31,76.74a.89.89,0,0,0,.89-.89v-14a.89.89,0,0,0-.89-.89H15.24a.89.89,0,0,0-.89.89v14a.89.89,0,0,0,.89.89Zm-14.17-14H29.41V75H16.14Z"/><path class="cls-5" d="M26.69,67.46a.89.89,0,0,0,0-1.79H18.86a.89.89,0,1,0,0,1.79Z"/><path class="cls-5" d="M26.69,72a.89.89,0,1,0,0-1.79H18.86a.89.89,0,1,0,0,1.79Z"/><polygon class="cls-4" points="59.14 76.06 59.14 68.16 63 68.16 55.65 61.61 48.3 68.16 52.16 68.16 52.16 76.06 59.14 76.06"/><path class="cls-5" d="M52.16,77h7a.89.89,0,0,0,.89-.89v-7h3a.89.89,0,0,0,.59-1.56l-7.35-6.55a.89.89,0,0,0-1.19,0l-7.35,6.55a.89.89,0,0,0,.59,1.56h3v7A.89.89,0,0,0,52.16,77Zm-1.51-9.68,5-4.46,5,4.46H59.14a.89.89,0,0,0-.89.89v7H53.05v-7a.89.89,0,0,0-.89-.89Z"/><path class="cls-1" d="M67.93,23.76a1.72,1.72,0,0,0,1.7-2.41l-1.16-2.6a1.72,1.72,0,0,0-1.4-1C49,15.92,44.17,34.58,44.17,34.58S55.31,22.78,67.93,23.76Z"/><path class="cls-2" d="M67.93,23.76a1.72,1.72,0,0,0,1.7-2.41l-.38-.84a1.7,1.7,0,0,1-1.72,1.08c-9.5-.74-18.17,5.77-21.87,9a25.88,25.88,0,0,0-1.49,4S55.31,22.78,67.93,23.76Z"/><path class="cls-5" d="M44.17,35.48a.89.89,0,0,0,.65-.28c.1-.11,10.15-10.6,21.61-10.6.48,0,1,0,1.43.05h.2A2.61,2.61,0,0,0,70.44,21l-1.18-2.63a2.59,2.59,0,0,0-2-1.52A23.6,23.6,0,0,0,64,16.6c-6.61,0-12.3,3.08-16.44,8.92a29.74,29.74,0,0,0-4.27,8.84.89.89,0,0,0,.87,1.12Zm4.89-9c3.84-5.39,8.87-8.12,15-8.12a21.88,21.88,0,0,1,3,.21.82.82,0,0,1,.64.48l1.18,2.63A.82.82,0,0,1,68,22.87c-.52,0-1-.06-1.57-.06-8.6,0-16.23,5.3-20.14,8.6A28.31,28.31,0,0,1,49.06,26.51Z"/><path class="cls-1" d="M22,10.79C31.66,13.89,36.35,26,36.35,26s2.09-15.32-11.9-19.45a1.38,1.38,0,0,0-1.34.32L21.46,8.48A1.38,1.38,0,0,0,22,10.79Z"/><path class="cls-2" d="M22,10.79l.68.24,1.4-1.34a1.38,1.38,0,0,1,1.29-.34A14.71,14.71,0,0,1,35.8,18.12,15,15,0,0,0,24.43,6.55a1.38,1.38,0,0,0-1.29.34l-1.68,1.6A1.38,1.38,0,0,0,22,10.79Z"/><path class="cls-5" d="M21.71,11.64c9.14,2.93,13.76,14.6,13.8,14.72a.89.89,0,0,0,.83.57h.1a.9.9,0,0,0,.78-.77,24,24,0,0,0-.7-8.75A15.85,15.85,0,0,0,24.65,5.68a2.27,2.27,0,0,0-2.13.56l-1.68,1.6a2.27,2.27,0,0,0,.87,3.8Zm.36-2.51,1.68-1.6a.48.48,0,0,1,.33-.13l.12,0A14,14,0,0,1,34.8,17.83a21.67,21.67,0,0,1,.73,4.44C33.35,18.31,29,12.1,22.26,9.94a.48.48,0,0,1-.19-.81Z"/><path class="cls-1" d="M2.63,25.64c13,.14,23.3,13.22,23.3,13.22S22.71,19.35,4.06,19.57a1.76,1.76,0,0,0-1.52.9L1.11,23a1.76,1.76,0,0,0,1.52,2.62Z"/><path class="cls-2" d="M2.63,25.64h.15a1.76,1.76,0,0,1,.16-.41L4.4,22.64a1.76,1.76,0,0,1,1.45-.9A18.8,18.8,0,0,1,21.1,27.62,18.93,18.93,0,0,0,4,19.53a1.76,1.76,0,0,0-1.45.9L1.11,23a1.76,1.76,0,0,0,1.52,2.62Z"/><path class="cls-5" d="M2.62,26.53c12.4.14,22.51,12.75,22.61,12.88a.89.89,0,0,0,.7.34h0a.89.89,0,0,0,.88-.89.87.87,0,0,0,0-.23,30.65,30.65,0,0,0-3.9-9.91c-4.08-6.61-10.2-10.1-17.69-10.1-.41,0-.82,0-1.24,0A2.64,2.64,0,0,0,1.78,20L.34,22.58a2.65,2.65,0,0,0,2.29,3.95Zm-.73-3.08,1.45-2.59a.86.86,0,0,1,.72-.44l1.15,0c6.92,0,12.35,3.1,16.15,9.21a28.83,28.83,0,0,1,2.76,5.92A47.43,47.43,0,0,0,19.7,31.6C14,27.17,8.15,24.81,2.64,24.74a.87.87,0,0,1-.75-1.29Z"/><circle class="cls-1" cx="35.2" cy="35.79" r="2.69"/><path class="cls-2" d="M34.21,38.29a2.69,2.69,0,1,0,0-5,2.68,2.68,0,0,1,0,5Z"/><path class="cls-5" d="M38.78,35.79a3.58,3.58,0,1,0-3.58,3.58A3.58,3.58,0,0,0,38.78,35.79Zm-5.37,0a1.79,1.79,0,1,1,1.79,1.79A1.8,1.8,0,0,1,33.41,35.79Z"/><circle class="cls-1" cx="53.05" cy="36.45" r="2.71"/><path class="cls-2" d="M52,39a2.71,2.71,0,1,0,0-5,2.71,2.71,0,0,1,0,5Z"/><path class="cls-5" d="M56.65,36.45A3.6,3.6,0,1,0,53,40,3.61,3.61,0,0,0,56.65,36.45Zm-5.42,0A1.82,1.82,0,1,1,53,38.26,1.82,1.82,0,0,1,51.23,36.45Z"/><path class="cls-5" d="M41,4.84a3.63,3.63,0,1,0-3.63,3.63A3.64,3.64,0,0,0,41,4.84Zm-5.48,0a1.85,1.85,0,1,1,1.85,1.85A1.85,1.85,0,0,1,35.56,4.84Z"/><path class="cls-5" d="M8,33.59a3.74,3.74,0,1,0-3.74,3.74A3.74,3.74,0,0,0,8,33.59Zm-5.69,0a2,2,0,1,1,2,2A2,2,0,0,1,2.32,33.59Z"/><path class="cls-5" d="M47,13.63a3.6,3.6,0,1,0-3.6,3.6A3.61,3.61,0,0,0,47,13.63Zm-5.42,0a1.82,1.82,0,1,1,1.82,1.82A1.82,1.82,0,0,1,41.59,13.63Z"/><path class="cls-1" d="M63.27,4.29a.8.8,0,0,0-.85-1.16l-3.23.57a.8.8,0,0,1-.71-.23L56.19,1.13a.8.8,0,0,0-1.36.45l-.46,3.24a.8.8,0,0,1-.43.6L51,6.88a.8.8,0,0,0,0,1.43L54,9.76a.8.8,0,0,1,.44.6l.48,3.24a.8.8,0,0,0,1.37.44l2.28-2.35a.8.8,0,0,1,.71-.23l3.23.54a.8.8,0,0,0,.84-1.16L61.76,7.94a.8.8,0,0,1,0-.74Z"/><path class="cls-5" d="M63.93,2.92a1.7,1.7,0,0,0-1.37-.69l-.29,0-3.18.56L56.83.5A1.72,1.72,0,0,0,55.09.08a1.68,1.68,0,0,0-1.15,1.37l-.45,3.19L50.61,6.08a1.69,1.69,0,0,0,0,3l2.9,1.42L54,13.73a1.69,1.69,0,0,0,1.67,1.44,1.71,1.71,0,0,0,1.22-.52l2.24-2.32,3.18.53.28,0a1.69,1.69,0,0,0,1.5-2.49L62.57,7.56,64.06,4.7A1.68,1.68,0,0,0,63.93,2.92Zm-4.55,7.65a1.71,1.71,0,0,0-1.5.49l-2.15,2.22-.46-3.05A1.69,1.69,0,0,0,54.34,9L51.57,7.6l2.76-1.38a1.69,1.69,0,0,0,.92-1.28l.43-3.06,2.16,2.2a1.71,1.71,0,0,0,1.5.48l3-.53L61,6.78a1.69,1.69,0,0,0,0,1.58l1.45,2.73Z"/><path class="cls-1" d="M77.89,33.49l2.28-1.9a.72.72,0,0,0-.31-1.26L77,29.68a.72.72,0,0,1-.51-.44l-1.11-2.75a.72.72,0,0,0-1.29-.1l-1.51,2.55a.72.72,0,0,1-.57.35l-3,.2a.72.72,0,0,0-.49,1.2l2,2.23a.72.72,0,0,1,.16.66l-.72,2.87a.72.72,0,0,0,1,.84l2.72-1.18a.72.72,0,0,1,.67.05l2.51,1.58a.72.72,0,0,0,1.11-.68l-.28-3A.73.73,0,0,1,77.89,33.49Z"/><path class="cls-1" d="M77.43,30.63l-2.27,1.9a.73.73,0,0,0-.26.62l.28,3a.73.73,0,0,1-.16.53l1.79,1.12a.72.72,0,0,0,1.11-.68l-.28-3a.73.73,0,0,1,.26-.62l2.28-1.9a.72.72,0,0,0-.31-1.26l-2.21-.5,0,.07A.73.73,0,0,1,77.43,30.63Z"/><path class="cls-5" d="M81.27,30.65a1.61,1.61,0,0,0-1.22-1.2l-2.81-.63-1.07-2.67a1.61,1.61,0,0,0-1.38-1,1.63,1.63,0,0,0-1.51.79l-1.47,2.48-2.87.2a1.62,1.62,0,0,0-1.1,2.68l1.9,2.16L69,36.24a1.61,1.61,0,0,0,.52,1.63,1.64,1.64,0,0,0,1.69.25L73.89,37l2.44,1.53A1.62,1.62,0,0,0,78.8,37l-.27-2.86,2.21-1.85A1.61,1.61,0,0,0,81.27,30.65Zm-4,2.15a1.62,1.62,0,0,0-.57,1.39L77,36.81l-2.22-1.39a1.61,1.61,0,0,0-1.5-.12l-2.41,1,.64-2.54a1.61,1.61,0,0,0-.36-1.46l-1.73-2L72,30.19a1.61,1.61,0,0,0,1.28-.79l1.34-2.26,1,2.43a1.62,1.62,0,0,0,1.15,1l2.56.57Z"/><path class="cls-1" d="M4.8,12.71a.72.72,0,0,0,.84,1L8.52,13a.72.72,0,0,1,.65.16l2.21,2a.72.72,0,0,0,1.21-.49l.22-3a.72.72,0,0,1,.36-.57l2.56-1.5a.72.72,0,0,0-.09-1.3L12.89,7.21a.72.72,0,0,1-.43-.52l-.63-2.9a.72.72,0,0,0-1.26-.31L8.65,5.75A.73.73,0,0,1,8,6l-3-.29a.72.72,0,0,0-.69,1.1L5.94,9.33A.72.72,0,0,1,6,10Z"/><path class="cls-1" d="M5.59,8.21a.73.73,0,0,1,.69-.34l3,.29a.73.73,0,0,0,.63-.25l1.92-2.26a.72.72,0,0,1,.41-.24l-.35-1.62a.72.72,0,0,0-1.26-.31L8.65,5.74A.72.72,0,0,1,8,6l-3-.29a.72.72,0,0,0-.69,1.1l1.1,1.77A.72.72,0,0,1,5.59,8.21Z"/><path class="cls-5" d="M4.22,14a1.62,1.62,0,0,0,1.62.53l2.79-.68,2.15,1.91a1.62,1.62,0,0,0,1.08.41,1.62,1.62,0,0,0,1.61-1.5l.21-2.87,2.48-1.45A1.62,1.62,0,0,0,16,7.5L13.31,6.42l-.61-2.81a1.62,1.62,0,0,0-2.81-.7L8,5.1,5.16,4.82A1.62,1.62,0,0,0,3.62,7.28L5.14,9.72,4,12.36A1.61,1.61,0,0,0,4.22,14ZM7.93,6.89h.16a1.61,1.61,0,0,0,1.23-.57l1.7-2,.56,2.56a1.61,1.61,0,0,0,1,1.15L15,9l-2.27,1.32a1.62,1.62,0,0,0-.8,1.28l-.19,2.62-2-1.75a1.61,1.61,0,0,0-1.08-.41,1.64,1.64,0,0,0-.38,0l-2.55.62,1.05-2.4a1.62,1.62,0,0,0-.11-1.5L5.32,6.63Z"/></g></g></svg>