<svg xmlns="http://www.w3.org/2000/svg" viewBox="0 0 62.37 82.64"><defs><style>.cls-1{fill:#c9caca;}.cls-2{fill:#fff;}.cls-3{fill:#898989;}.cls-4{fill:#595757;}.cls-5{fill:#f6f6f6;}.cls-6{fill:#c6c6c9;}.cls-7{fill:#333;}</style></defs><title>pagamento</title><g id="Camada_2" data-name="Camada 2"><g id="Camada_1-2" data-name="Camada 1"><path class="cls-1" d="M60.7,18.81a5.48,5.48,0,0,0-5.48-5.48H52.43v7.79a1.14,1.14,0,0,1-1.14,1.14H11a1.14,1.14,0,0,1-1.14-1.14V13.33H7.09a5.48,5.48,0,0,0-5.48,5.48v57A5.48,5.48,0,0,0,7.09,81.3H55.22a5.48,5.48,0,0,0,5.48-5.48Z"/><rect class="cls-2" x="9.2" y="27.74" width="43.91" height="8.98" rx="2.11" ry="2.11"/><rect class="cls-3" x="26.8" y="44" width="8.7" height="7.05" rx="1.41" ry="1.41"/><path class="cls-4" d="M31.15,44v7h2.94a1.41,1.41,0,0,0,1.41-1.41V45.41A1.41,1.41,0,0,0,34.09,44Z"/><rect class="cls-3" x="12.07" y="44" width="8.7" height="7.05" rx="1.41" ry="1.41"/><rect class="cls-3" x="26.8" y="54.77" width="8.7" height="7.05" rx="1.41" ry="1.41"/><path class="cls-4" d="M31.15,54.77v7h2.94a1.41,1.41,0,0,0,1.41-1.41V56.18a1.41,1.41,0,0,0-1.41-1.41Z"/><rect class="cls-3" x="12.07" y="54.77" width="8.7" height="7.05" rx="1.41" ry="1.41"/><rect class="cls-4" x="41.53" y="54.77" width="8.7" height="7.05" rx="1.41" ry="1.41"/><rect class="cls-3" x="26.8" y="65.55" width="8.7" height="7.05" rx="1.41" ry="1.41"/><path class="cls-4" d="M31.15,65.55v7h2.94a1.41,1.41,0,0,0,1.41-1.41V67a1.41,1.41,0,0,0-1.41-1.41Z"/><rect class="cls-3" x="12.07" y="65.55" width="8.7" height="7.05" rx="1.41" ry="1.41"/><rect class="cls-4" x="41.53" y="65.55" width="8.7" height="7.05" rx="1.41" ry="1.41"/><path class="cls-5" d="M52.43,21.11a1.14,1.14,0,0,1-1.14,1.14H11a1.14,1.14,0,0,1-1.14-1.14v-20c1,.45,1.7,1.52,2.66,1.72s1.74-.68,2.66-1.35a2.17,2.17,0,0,1,2.66,0c.91.68,1.79,1.5,2.66,1.29S22.2,1.5,23.17,1.09C24,.73,25,1.33,25.83,2a2.33,2.33,0,0,0,2.66.48c.95-.59,1.73-1.58,2.66-1.58s1.71,1,2.66,1.58A2.33,2.33,0,0,0,36.47,2c.87-.72,1.84-1.32,2.66-1,1,.41,1.7,1.48,2.66,1.73s1.75-.61,2.66-1.29a2.17,2.17,0,0,1,2.66,0C48,2.15,48.9,3,49.77,2.83s1.69-1.26,2.66-1.72Z"/><rect class="cls-4" x="41.53" y="44" width="8.71" height="7.05" rx="1.41" ry="1.41"/><path class="cls-6" d="M12.17,32.82a2.11,2.11,0,0,1,2.11-2.11H53.1v-.86A2.11,2.11,0,0,0,51,27.74H11.31A2.11,2.11,0,0,0,9.2,29.85v4.77a2.11,2.11,0,0,0,2.11,2.11h.86Z"/><path class="cls-7" d="M34.09,51.94H28.21a2.31,2.31,0,0,1-2.3-2.3V45.41a2.31,2.31,0,0,1,2.3-2.3h5.88a2.31,2.31,0,0,1,2.3,2.3v4.23A2.31,2.31,0,0,1,34.09,51.94Zm-5.88-7a.52.52,0,0,0-.52.52v4.23a.52.52,0,0,0,.52.52h5.88a.52.52,0,0,0,.52-.52V45.41a.52.52,0,0,0-.52-.52Z"/><path class="cls-7" d="M19.37,51.94H13.48a2.31,2.31,0,0,1-2.3-2.3V45.41a2.31,2.31,0,0,1,2.3-2.3h5.88a2.31,2.31,0,0,1,2.3,2.3v4.23A2.31,2.31,0,0,1,19.37,51.94Zm-5.88-7a.52.52,0,0,0-.52.52v4.23a.52.52,0,0,0,.52.52h5.88a.52.52,0,0,0,.52-.52V45.41a.52.52,0,0,0-.52-.52Z"/><path class="cls-7" d="M48.82,51.94H42.94a2.31,2.31,0,0,1-2.3-2.3V45.41a2.31,2.31,0,0,1,2.3-2.3h5.88a2.31,2.31,0,0,1,2.3,2.3v4.23A2.31,2.31,0,0,1,48.82,51.94Zm-5.88-7a.52.52,0,0,0-.52.52v4.23a.52.52,0,0,0,.52.52h5.88a.52.52,0,0,0,.52-.52V45.41a.52.52,0,0,0-.52-.52Z"/><path class="cls-7" d="M34.09,62.71H28.21a2.31,2.31,0,0,1-2.3-2.3V56.18a2.31,2.31,0,0,1,2.3-2.3h5.88a2.31,2.31,0,0,1,2.3,2.3v4.23A2.31,2.31,0,0,1,34.09,62.71Zm-5.88-7a.52.52,0,0,0-.52.52v4.23a.52.52,0,0,0,.52.52h5.88a.52.52,0,0,0,.52-.52V56.18a.52.52,0,0,0-.52-.52Z"/><path class="cls-7" d="M19.37,62.71H13.48a2.31,2.31,0,0,1-2.3-2.3V56.18a2.31,2.31,0,0,1,2.3-2.3h5.88a2.31,2.31,0,0,1,2.3,2.3v4.23A2.31,2.31,0,0,1,19.37,62.71Zm-5.88-7a.52.52,0,0,0-.52.52v4.23a.52.52,0,0,0,.52.52h5.88a.52.52,0,0,0,.52-.52V56.18a.52.52,0,0,0-.52-.52Z"/><path class="cls-7" d="M48.82,62.71H42.94a2.31,2.31,0,0,1-2.3-2.3V56.18a2.31,2.31,0,0,1,2.3-2.3h5.88a2.31,2.31,0,0,1,2.3,2.3v4.23A2.31,2.31,0,0,1,48.82,62.71Zm-5.88-7a.52.52,0,0,0-.52.52v4.23a.52.52,0,0,0,.52.52h5.88a.52.52,0,0,0,.52-.52V56.18a.52.52,0,0,0-.52-.52Z"/><path class="cls-7" d="M34.09,73.49H28.21a2.31,2.31,0,0,1-2.3-2.3V67a2.31,2.31,0,0,1,2.3-2.3h5.88A2.31,2.31,0,0,1,36.4,67v4.23A2.31,2.31,0,0,1,34.09,73.49Zm-5.88-7a.52.52,0,0,0-.52.52v4.23a.52.52,0,0,0,.52.52h5.88a.52.52,0,0,0,.52-.52V67a.52.52,0,0,0-.52-.52Z"/><path class="cls-7" d="M19.37,73.49H13.48a2.31,2.31,0,0,1-2.3-2.3V67a2.31,2.31,0,0,1,2.3-2.3h5.88a2.31,2.31,0,0,1,2.3,2.3v4.23A2.31,2.31,0,0,1,19.37,73.49Zm-5.88-7A.52.52,0,0,0,13,67v4.23a.52.52,0,0,0,.52.52h5.88a.52.52,0,0,0,.52-.52V67a.52.52,0,0,0-.52-.52Z"/><path class="cls-7" d="M48.82,73.49H42.94a2.31,2.31,0,0,1-2.3-2.3V67a2.31,2.31,0,0,1,2.3-2.3h5.88a2.31,2.31,0,0,1,2.3,2.3v4.23A2.31,2.31,0,0,1,48.82,73.49Zm-5.88-7a.52.52,0,0,0-.52.52v4.23a.52.52,0,0,0,.52.52h5.88a.52.52,0,0,0,.52-.52V67a.52.52,0,0,0-.52-.52Z"/><path class="cls-3" d="M56.66,13.52A5.48,5.48,0,0,1,56.86,15V72a5.48,5.48,0,0,1-5.48,5.48H3.25a5.48,5.48,0,0,1-1.45-.19,5.48,5.48,0,0,0,5.28,4H55.22a5.48,5.48,0,0,0,5.48-5.48v-57A5.48,5.48,0,0,0,56.66,13.52Z"/><path class="cls-4" d="M6,17.28a1.14,1.14,0,0,0,1.14,1.14h2.7V13.33H7.09a5.48,5.48,0,0,0-1.05.1Z"/><path class="cls-7" d="M62.15,66.38V18.65a.73.73,0,0,0,0-.08.68.68,0,0,0,0-.15c-.6-5.24-4.72-6-9.17-6-.51,0-2,.27-2,1.05,0,2-.37,4.39,0,6.38.21,1.15,1,1,.36,1.5s-3.12,0-3.89,0H16.27c-1,0-3.2.45-4.08,0-1.75-.9-.86-6.13-.86-8.19,0-.5-.44-.73-.91-.73C4.35,12.44.24,14.36.15,20.9.06,27.95.15,35,.15,42V68.17c0,4.27-1.25,11,3.38,13.32,4.11,2.08,11.28.71,15.63.71H45.41c4.2,0,10.88,1.15,14.41-1.8S62.15,70.52,62.15,66.38ZM59.24,76c-.81,4.72-3.65,4.43-7,4.43H10.58c-2.25,0-4.7.38-6.43-1.75C2.83,77,3.06,75,3.06,73.11V27.93c0-5.29-1.64-13,5.32-13.66C8.2,17,7.32,21.88,9.87,23a8,8,0,0,0,3,.15H31.6c5.82,0,11.65,0,17.47,0a6.87,6.87,0,0,0,3.22-.38c2.51-1.29,1.86-5.58,1.65-8.43,2.69.32,4.9,1.45,5.3,4.83V73.43A15.83,15.83,0,0,1,59.24,76Z"/><path class="cls-7" d="M50.83,26.74c-2.64-.17-5.35,0-8,0H15.43c-2,0-5.24-.58-6.61,1.26-1.08,1.45-.65,4.1-.62,5.78,0,2.08.8,3.71,3.11,3.94,2.09.21,4.3,0,6.39,0h29c2.68,0,6.78.76,7.36-2.84,0,0,0,0,0-.08a.94.94,0,0,0,0-.19C54.1,31.67,55,27,50.83,26.74Zm-4.62,9h-33a7.12,7.12,0,0,1-1.86,0c-1.62-.51-1.36-3.69-1.18-5,.36-2.67,2.85-1.94,4.92-1.94H49.18a6.68,6.68,0,0,1,1.81,0c1.79.61,1.16,4.17,1.12,5.72C51.63,36.51,47.57,35.72,46.21,35.72Z"/><path class="cls-7" d="M15.86,10a20.16,20.16,0,0,1,3.85-.68,21.37,21.37,0,0,1,3.85-.06c1.28.13,2.56.45,3.85.51a19.64,19.64,0,0,0,3.85-.22,35.35,35.35,0,0,1,3.85-.4c1.28-.07,2.56-.15,3.85-.12a36.89,36.89,0,0,1,7.69,1v.2a36.89,36.89,0,0,1-7.69,1c-1.28,0-2.56,0-3.85-.12a35.35,35.35,0,0,1-3.85-.4,19.64,19.64,0,0,0-3.85-.22c-1.28.06-2.56.38-3.85.51a21.37,21.37,0,0,1-3.85-.06,20.16,20.16,0,0,1-3.85-.68Z"/><path class="cls-7" d="M46.64,14.83a20.15,20.15,0,0,1-3.85.68,21.37,21.37,0,0,1-3.85.06c-1.28-.13-2.56-.45-3.85-.51a19.64,19.64,0,0,0-3.85.22,35.34,35.34,0,0,1-3.85.4c-1.28.07-2.56.15-3.85.12a36.89,36.89,0,0,1-7.69-1v-.2a36.89,36.89,0,0,1,7.69-1c1.28,0,2.56,0,3.85.12a35.34,35.34,0,0,1,3.85.4,19.64,19.64,0,0,0,3.85.22c1.28-.06,2.56-.38,3.85-.51a21.37,21.37,0,0,1,3.85.06,20.15,20.15,0,0,1,3.85.68Z"/><path class="cls-7" d="M53.89,1c0-1.2-1.76-.87-2.4-.45-2.06,1.36-3.8-.65-5.95-.39-.94.11-1.27.63-2,.8-2.35.5-1.38,0-3.25-.64C39-.15,38,.38,36.88.58c-5.43.94-1.38.15-4-.27A6.27,6.27,0,0,0,31.11,0a8.11,8.11,0,0,0-1.79.63l-.87.63a2.76,2.76,0,0,1-2.84-.9,10.22,10.22,0,0,0-3.22,0c-1.45.13-1.65.65-3.69.2a8.46,8.46,0,0,0-2-.54,6.25,6.25,0,0,0-2.1.64c-2.15.86-1.74.82-3.57-.39-.65-.43-2.59-.08-2.59.92V16.48c0,2.36-.91,5.69,1.75,6.69,1.06.4,2.7.06,3.79.06H44.28c2.54,0,7.81,1,9.35-1.67a.82.82,0,0,0,.26-.58Zm-4.71,20.3H16.24c-.87,0-3.58.49-4.32,0-1.33-.87-.59-6-.59-7.62V3.41a5.92,5.92,0,0,0,2.75,0c2.17-.35,4.21.63,6.27.41.76-.08,1.29-.67,2-.86q1-1.39,2.35-.09a17.13,17.13,0,0,0,1.62.8c1.95.25,3.14-1.18,4.74-1.1s2.68,1.25,4.69,1q.85-.39,1.67-.86a1.69,1.69,0,0,1,2.35.51c.74.22,1,.59,1.69.65a9.6,9.6,0,0,0,2.27-.52c1.91-.31,3.52.63,5.19.47A5.89,5.89,0,0,0,51,3.19V21.25s0,0,0,0A8.91,8.91,0,0,1,49.18,21.28Z"/></g></g></svg>