<?xml version="1.0" encoding="utf-8"?>
<!-- Generator: Adobe Illustrator 21.1.0, SVG Export Plug-In . SVG Version: 6.00 Build 0)  -->
<svg version="1.1" id="Camada_1" xmlns="http://www.w3.org/2000/svg" xmlns:xlink="http://www.w3.org/1999/xlink" x="0px" y="0px"
	 viewBox="0 0 83.7 79.9" style="enable-background:new 0 0 83.7 79.9;" xml:space="preserve">
<style type="text/css">
	.st0{fill:#898989;}
	.st1{fill:#C9CACA;}
	.st2{fill:#333333;}
	.st3{fill:#595757;}
	.st4{fill:#F6F6F6;}
</style>
<title>transportadora</title>
<g id="Camada_2">
	<g id="Camada_1-2">
		<path class="st0" d="M81.7,43.1l-7.5-12.8C73.7,29.5,72.9,29,72,29H54.5v30.6c3.5-0.8,7.2,0.5,9.5,3.3h15.5c1.4,0,2.5-1.1,2.5-2.5
			v-16C82,43.9,81.9,43.5,81.7,43.1z"/>
		<path class="st1" d="M54.5,21.6c0-1.7-1.4-3.2-3.2-3.2H4.8c-1.7,0-3.2,1.4-3.2,3.2v41.3c0,1.7,1.4,3.2,3.2,3.2h5.2
			c1.6-5,6.9-7.8,12-6.3c3,0.9,5.3,3.3,6.3,6.3h19.2c1-3.2,3.7-5.7,7-6.4V21.6z"/>
		<circle class="st2" cx="19.2" cy="68.9" r="9.5"/>
		<circle class="st2" cx="56.6" cy="68.9" r="9.5"/>
		<circle class="st1" cx="19.2" cy="68.9" r="4.1"/>
		<path class="st0" d="M25.7,62c1.2,1.1,2.1,2.5,2.5,4.1h19.2c0.5-1.6,1.4-3,2.6-4.1H25.7z"/>
		<path class="st0" d="M4.8,66.1h5.2c0.5-1.5,1.4-2.9,2.6-4.1h-11v0.9C1.6,64.7,3.1,66.1,4.8,66.1C4.8,66.1,4.8,66.1,4.8,66.1z"/>
		<path class="st0" d="M51.3,18.4h-1.2V62c1.2-1.2,2.7-2,4.4-2.4v-38C54.5,19.9,53.1,18.5,51.3,18.4C51.3,18.4,51.3,18.4,51.3,18.4z
			"/>
		<path class="st3" d="M59.3,59.8V29h-4.9v30.6C56.1,59.2,57.8,59.3,59.3,59.8z"/>
		<circle class="st1" cx="56.6" cy="68.9" r="4.1"/>
		<path class="st1" d="M19.2,73.9c-2.8,0-5-2.2-5-5c0-2.8,2.2-5,5-5s5,2.2,5,5C24.2,71.7,21.9,73.9,19.2,73.9z M19.2,65.7
			c-1.8,0-3.2,1.4-3.2,3.2c0,1.8,1.4,3.2,3.2,3.2c1.8,0,3.2-1.4,3.2-3.2l0,0C22.4,67.1,21,65.7,19.2,65.7z"/>
		<path class="st1" d="M56.6,73.9c-2.8,0-5-2.2-5-5c0-2.8,2.2-5,5-5s5,2.2,5,5C61.6,71.7,59.4,73.9,56.6,73.9z M56.6,65.7
			c-1.8,0-3.2,1.4-3.2,3.2c0,1.8,1.4,3.2,3.2,3.2c1.8,0,3.2-1.4,3.2-3.2l0,0C59.8,67.1,58.4,65.7,56.6,65.7z"/>
		<path id="Forma_5_copiar_8" class="st2" d="M36.4,30.2c-0.1-0.4-0.3-0.8-0.6-1.1c-0.2-0.3-0.4-0.6-0.7-0.9c-0.3-0.3-0.6-0.5-1-0.7
			c-0.3-0.1-0.7-0.3-1-0.3c-0.3-0.1-0.7-0.1-1-0.1c-0.4,0-0.7,0-1.1,0c-0.3,0-0.6,0-0.9,0.1c-0.3,0-0.6,0.1-1,0.2
			c-0.4,0.1-0.8,0.2-1.2,0.4c-0.4,0.2-0.8,0.4-1.2,0.7c-0.4,0.2-0.7,0.5-1,0.8c-0.2,0.3-0.4,0.5-0.6,0.8c-0.2,0.3-0.4,0.6-0.5,0.9
			c-0.1,0.2-0.2,0.4-0.3,0.7l-0.1-0.2c-0.3-0.5-0.7-1-1.2-1.5c-0.4-0.4-0.8-0.8-1.3-1.1c-0.3-0.3-0.7-0.5-1.1-0.6
			c-0.4-0.2-0.8-0.3-1.3-0.5c-0.5-0.1-0.9-0.2-1.4-0.2c-0.5,0-1,0-1.5,0c-0.5,0-1,0.1-1.4,0.3c-0.5,0.1-0.9,0.3-1.4,0.6
			c-0.4,0.2-0.7,0.5-1,0.8c-0.3,0.3-0.5,0.7-0.7,1.1c-0.2,0.5-0.2,1-0.2,1.6c0,0.6,0.1,1.1,0.3,1.6c0.2,0.5,0.4,0.9,0.6,1.4
			c0.3,0.6,0.6,1.2,1.1,1.8c0.4,0.5,0.8,1,1.2,1.4c0.4,0.4,0.7,0.8,1.1,1.2c0.3,0.4,0.7,0.8,1.1,1.2l1.1,1c0.4,0.3,0.8,0.7,1.2,1
			l1,0.8l0.9,0.7c0.4,0.3,0.9,0.7,1.3,0.9l1.3,0.8l1.3,0.8c0.4,0.3,0.9,0.6,1.3,0.8s0.8,0.5,1.1,0.6l0.5,0.3
			c0.4,0.2,0.8,0.3,1.2,0.2c0.4-0.1,0.7-0.3,1-0.6c0.2-0.3,0.2-0.6,0.2-0.9c0-0.1,0.1-0.2,0.1-0.3c0.1-0.2,0.1-0.3,0.3-0.6
			c0.1-0.2,0.3-0.6,0.5-1c0.2-0.4,0.4-0.7,0.6-1.1c0.3-0.4,0.5-0.7,0.7-1.1c0.2-0.4,0.4-0.8,0.6-1.1c0.2-0.3,0.3-0.7,0.6-1
			c0.2-0.4,0.5-0.7,0.6-1.1c0.2-0.3,0.4-0.5,0.5-0.8c0.1-0.2,0.2-0.5,0.4-0.8l0.6-1.2c0.2-0.4,0.4-0.9,0.6-1.4
			c0.2-0.4,0.3-0.9,0.3-1.4c0.1-0.5,0.1-0.9,0.1-1.4c0-0.4-0.1-0.9-0.1-1.3c-0.1-0.4-0.2-0.9-0.3-1.3 M33.7,32.6
			c0,0.3,0,0.6-0.1,0.8c0,0.3-0.1,0.6-0.2,0.9c-0.1,0.3-0.3,0.7-0.4,1c-0.2,0.4-0.4,0.8-0.5,1.1c-0.2,0.3-0.3,0.5-0.4,0.7
			c-0.1,0.1-0.2,0.4-0.4,0.7L31,39.1c-0.2,0.4-0.5,0.7-0.7,1.1c-0.2,0.4-0.4,0.7-0.6,1s-0.4,0.7-0.6,1.1c-0.3,0.4-0.5,0.9-0.7,1.4
			c-0.2,0.4-0.4,0.8-0.5,1l0,0c-0.4-0.2-0.8-0.4-1.1-0.7s-0.8-0.5-1.2-0.8l-1.2-0.8c-0.4-0.2-0.8-0.5-1.2-0.8l-1-0.7
			c-0.2-0.1-0.4-0.3-0.8-0.6c-0.4-0.3-0.7-0.6-1-0.9c-0.4-0.3-0.7-0.7-1.1-1l-0.9-1l-1-1.2c-0.4-0.4-0.7-0.8-1-1.3
			c-0.3-0.4-0.6-0.8-0.8-1.2c-0.2-0.4-0.4-0.7-0.5-1.1c-0.1-0.2-0.1-0.4-0.1-0.6c0-0.2,0-0.4,0.1-0.6c0-0.1,0.1-0.1,0.1-0.2
			c0.1-0.1,0.2-0.2,0.4-0.3c0.2-0.1,0.3-0.2,0.5-0.2c0.3-0.1,0.6-0.1,0.9-0.2c0.3,0,0.6,0,0.9,0c0.3,0,0.6,0.1,0.9,0.1
			c0.2,0.1,0.5,0.1,0.7,0.2c0.2,0.1,0.4,0.2,0.6,0.4c0.3,0.2,0.6,0.4,0.8,0.7c0.3,0.3,0.6,0.6,0.8,1c0.2,0.4,0.5,0.7,0.7,1
			s0.4,0.6,0.6,0.9c0.2,0.3,0.4,0.5,0.5,0.7s0.2,0.4,0.3,0.6c0.2,0.3,0.4,0.5,0.6,0.6c0.2,0.1,0.4,0.2,0.6,0.2
			c0.2,0,0.4-0.1,0.6-0.2c0.2-0.1,0.4-0.2,0.5-0.4c0.1-0.1,0.3-0.3,0.4-0.4c0.1-0.2,0.2-0.3,0.3-0.3c0-0.1,0.1-0.1,0.1-0.2
			c0-0.3,0.1-0.6,0.2-0.9s0.1-0.7,0.2-1c0-0.2,0.1-0.5,0.2-0.7c0-0.2,0.1-0.3,0.2-0.5c0.1-0.2,0.2-0.3,0.3-0.5
			c0.1-0.2,0.3-0.4,0.5-0.6c0.1-0.2,0.3-0.3,0.5-0.4c0.2-0.2,0.4-0.3,0.7-0.4c0.3-0.1,0.5-0.2,0.8-0.2s0.5-0.1,0.6-0.1
			c0.2,0,0.5-0.1,0.8-0.1h0.7l0.4,0c0.1,0,0.2,0,0.2,0.1l0.1,0.1c0.1,0.1,0.2,0.2,0.3,0.3c0.1,0.1,0.2,0.3,0.2,0.4
			c0.1,0.2,0.2,0.5,0.2,0.7l0.1,1 M44.1,48.1C44,48.1,44,48.1,44.1,48.1c-0.1,0.8-0.6,1.4-1.2,1.7c-0.6,0.4-1.4,0.5-2.1,0.3
			l-0.4-0.1c-0.7-0.3-1.4-0.7-1.9-1.3c-0.6-0.7-0.9-1.6-0.6-2.5c0.2-0.5,0.5-0.9,0.9-1.3c0.4-0.4,0.9-0.6,1.5-0.7
			c1-0.4,2.1-0.2,2.9,0.5l0.1,0.1c0.5,0.4,0.8,0.9,1,1.5C44.4,47,44.4,47.6,44.1,48.1"/>
		<path class="st2" d="M55.9,21.4c0-0.1,0-0.2,0-0.2c-1.2-6-12.8-3.8-17.1-3.8H9.2c-2,0-4.5-0.4-6.4,0.6c-2.8,1.4-2.6,4-2.6,6.6
			v29.2c0,3-0.5,6.3,0,9.2C1,68,6,67.1,9.9,67.1c0.6,0,1.2-0.3,1.5-0.9c3-7.7,12.5-7,15.4,0.2c0.2,0.6,0.8,0.6,1.3,0.6h19.2
			c0.6,0,1.2-0.3,1.5-0.9c0.9-2.7,3-4.9,5.8-5.6c0.4-0.1,1.2-0.5,1.2-1.1V21.4z M53,59.1c-2.8,1.1-4.5,2.8-6.3,5.5
			c-0.3,0.5,1.8,0.1-0.3,0.4c-1.2,0.1-2.4,0.1-3.6,0H29.5c-2-4.7-6.9-7.4-11.9-6.5c-2.6,0.4-5,1.7-6.7,3.7c-0.1,0.1-1.4,2.5-1.3,3
			c-1.1,0-2.2,0-3.3-0.2c-4.1-1-3.1-4.7-3.1-8V27.5c0-2-1-7,1.6-8.1c1.6-0.7,5.2,0,6.9,0h31.6c2.8,0,9-1.4,9.9,2.5L53,59.1z"/>
		<path class="st2" d="M83.2,43c0-0.2-0.1-0.3-0.1-0.5c0-0.1-0.1-0.2-0.1-0.2L78,33.9c-1.4-2.5-2.6-5.6-5.6-6.3
			c-5.5-1.1-12.3,0-17.9,0c-0.8,0-1.4,0.7-1.5,1.5v30.6c0,0.8,0.7,1.5,1.5,1.5c0.1,0,0.2,0,0.4,0c4.2-0.7,6,2.5,9.4,3.3
			c1.5,0.4,3.6,0,5.2,0c3.2,0,8.9,1.1,12-0.5c3.1-1.6,2.2-6.4,2.2-9.2C83.5,51,84.1,46.7,83.2,43z M80.5,59.8
			c-0.6,2-1.4,1.4-3.1,1.7c-3.3,0.4-8.9,0.8-12.2,0c-1.5-0.3-1.9-1.5-3.6-2.4c-1.7-0.8-3.6-1.2-5.5-1V30.5h5.8c2.9,0,7-0.8,9.8,0
			c2.3,0.7,3.4,4.1,4.6,6.1l4.1,7c0.9,3.4,0.3,7.6,0.3,11.1C80.5,56.2,81,58.4,80.5,59.8z"/>
		<path class="st2" d="M30.2,68.9c0-0.1,0-0.3,0-0.4c-0.5-5.8-4.9-10.6-11-10.6c-6.1-0.1-11.1,4.7-11.3,10.7s4.7,11.1,10.7,11.3
			c6.3,0.3,11-4.6,11.5-10.6C30.2,69.2,30.2,69,30.2,68.9z M11.1,68.9c0-10.4,15.5-10.3,16.1,0C26.7,79.2,11.1,79.3,11.1,68.9
			L11.1,68.9z"/>
		<path class="st2" d="M54.9,79.8c0.1,0,0.3,0,0.4,0c5.8,0.4,11.2-3.2,12.1-9.2c1.1-6-2.9-11.7-8.9-12.8c-6-1.1-11.7,2.9-12.8,8.9
			l0,0c-1.2,6.2,2.8,11.6,8.7,13C54.6,79.8,54.8,79.8,54.9,79.8z M57.8,61c10.3,1.6,7.8,16.9-2.5,15.9C45.3,74.7,47.6,59.4,57.8,61z
			"/>
		<path class="st4" d="M60.3,33.9c-0.6,0-1,0.4-1,1V45c0,0.6,0.4,1,1,1H75c0.7,0,1.3-0.6,1.3-1.3c0-0.2-0.1-0.4-0.2-0.6L71.2,35
			c-0.4-0.6-1-1-1.8-1L60.3,33.9z"/>
		<path class="st2" d="M75.5,40.4c-1-1.9-1.9-3.9-3.1-5.7c-2-3.1-7.8-2-11.2-1.9c-0.3-0.1-0.5-0.1-0.8,0c-0.2,0-0.4,0.1-0.6,0.3
			c-1.4,0.8-1.5,2-1.5,3.7c0,2.4-0.2,5,0,7.4c0.3,4.1,5,3,8,3c2.4,0,10.2,1.5,10.8-2.2C77.5,43.3,76.1,41.7,75.5,40.4z M69.5,44.2
			c-2.3,0-5.9,0.6-8.3,0c-0.1-1.4-0.1-2.9,0-4.3c-0.1-1.4-0.1-2.9,0-4.3h3.2c1.3,0,3.5-0.5,4.7,0s1.5,1.8,2,2.8l2.6,4.8
			c0.1,0.2,0.4,0.7,0.6,1c-0.1,0-0.2,0-0.3,0C72.6,44.4,71,44.4,69.5,44.2z"/>
	</g>
</g>
</svg>
