<?xml version="1.0" encoding="UTF-8"?>
<svg width="12px" height="22px" viewBox="0 0 12 22" version="1.1" xmlns="http://www.w3.org/2000/svg" xmlns:xlink="http://www.w3.org/1999/xlink">
    <!-- Generator: Sketch 43.1 (39012) - http://www.bohemiancoding.com/sketch -->
    <title>Page 1</title>
    <desc>Created with Sketch.</desc>
    <defs>
        <polygon id="path-1" points="11.8626194 21.8645821 3.87096775e-05 21.8645821 3.87096775e-05 0.000196428571 11.8626194 0.000196428571 11.8626194 21.8645821"></polygon>
    </defs>
    <g id="Symbols" stroke="none" stroke-width="1" fill="none" fill-rule="evenodd">
        <g id="Header" transform="translate(-1262.000000, -57.000000)">
            <g id="Page-1" transform="translate(1262.000000, 57.000000)">
                <mask id="mask-2" fill="white">
                    <use xlink:href="#path-1"></use>
                </mask>
                <g id="Clip-2"></g>
                <path d="M4.69126452,21.2883393 C4.31268387,20.904125 4.12339355,20.439375 4.12339355,19.8933036 C4.12339355,19.347625 4.31268387,18.882875 4.69126452,18.4982679 C5.06984516,18.1144464 5.52778065,17.9223393 6.06584516,17.9223393 C6.60352258,17.9223393 7.06184516,18.1144464 7.44042581,18.4982679 C7.81861935,18.882875 8.00790968,19.347625 8.00790968,19.8933036 C8.00790968,20.439375 7.81861935,20.904125 7.44042581,21.2883393 C7.06184516,21.6729464 6.60352258,21.8646607 6.06584516,21.8646607 C5.52778065,21.8646607 5.06984516,21.6729464 4.69126452,21.2883393 M11.8626194,5.70133929 C11.8626194,6.439125 11.7480387,7.08380357 11.5192645,7.63458929 C11.2897161,8.185375 10.9362968,8.79430357 10.4582323,9.46176786 L8.41126452,12.3272679 C8.02300645,12.8729464 7.77410323,13.5250893 7.66455484,14.2833036 C7.60455484,14.6981607 7.46016774,15.0364107 7.23139355,15.2992321 C6.95229677,15.6127321 6.56868387,15.7690893 6.08094194,15.7690893 C5.61255484,15.7690893 5.22932903,15.602125 4.93049032,15.2689821 C4.67113548,14.9759107 4.54184516,14.5861964 4.54184516,14.1014107 C4.54184516,13.5455179 4.61152258,13.0650536 4.75087742,12.6608036 C4.89061935,12.2569464 5.15926452,11.7815893 5.5575871,11.2355179 L7.88868387,8.05141071 C8.49603871,7.222875 8.79990968,6.439125 8.79990968,5.70133929 C8.79990968,4.86219643 8.53087742,4.164875 7.9932,3.60898214 C7.45552258,3.05308929 6.76300645,2.77494643 5.91642581,2.77494643 C5.03965161,2.77494643 4.32778065,3.05308929 3.78003871,3.60898214 C3.41113548,3.98298214 3.12236129,4.57933929 2.91332903,5.39805357 C2.80378065,5.83255357 2.66442581,6.14094643 2.49487742,6.32283929 C2.22623226,6.626125 1.85771613,6.77776786 1.38971613,6.77776786 C0.971264516,6.77776786 0.627522581,6.626125 0.358877419,6.32283929 C0.119264516,6.04980357 3.87096775e-05,5.67108929 3.87096775e-05,5.18551786 C3.87096775e-05,4.61980357 0.142103226,4.010875 0.425845161,3.35873214 C0.709974194,2.70658929 1.1055871,2.13301786 1.61384516,1.637625 C2.7488129,0.545875 4.17836129,0.000196428571 5.90132903,0.000196428571 C7.59449032,0.000196428571 9.01126452,0.525839286 10.1520387,1.577125 C11.2924258,2.62841071 11.8626194,4.00301786 11.8626194,5.70133929" id="Fill-1" fill="#00AEC5" mask="url(#mask-2)"></path>
            </g>
        </g>
    </g>
</svg>