<?xml version="1.0" encoding="UTF-8"?>
<svg width="20px" height="16px" viewBox="0 0 20 16" version="1.1" xmlns="http://www.w3.org/2000/svg" xmlns:xlink="http://www.w3.org/1999/xlink">
    <!-- Generator: Sketch 43.1 (39012) - http://www.bohemiancoding.com/sketch -->
    <title>Group</title>
    <desc>Created with Sketch.</desc>
    <defs></defs>
    <g id="Symbols" stroke="none" stroke-width="1" fill="none" fill-rule="evenodd">
        <g id="Button/Camera" transform="translate(-6.000000, -7.000000)" fill="#FFFFFF">
            <g id="Group-5">
                <g id="Group" transform="translate(6.000000, 7.000000)">
                    <path d="M17.75,16 L1.71875,16 C0.6875,16 0,15.2 0,14.208 L0,5.12 C0,4.064 0.71875,3.2 1.71875,3.2 L6.46875,3.2 L6.8125,1.472 C7.03125,0.608 7.78125,0 8.625,0 L11,0 C11.875,0 12.59375,0.608 12.8125,1.44 L13.1875,3.2 L17.75,3.2 C18.75,3.2 19.71875,4.096 19.71875,5.12 L19.71875,14.208 C19.71875,15.232 18.8125,16 17.75,16 L17.75,16 Z M1.75,4.16 C1.28125,4.16 0.96875,4.608 0.96875,5.12 L0.96875,14.208 C0.96875,14.688 1.21875,15.04 1.75,15.04 L17.78125,15.04 C18.28125,15.04 18.8125,14.688 18.8125,14.208 L18.8125,5.12 C18.8125,4.608 18.25,4.16 17.78125,4.16 L12.84375,4.16 C12.625,4.16 12.4375,4 12.375,3.776 L11.9375,1.664 C11.84375,1.248 11.46875,0.96 11.03125,0.96 L8.65625,0.96 C8.21875,0.96 7.84375,1.248 7.75,1.664 L7.3125,3.776 C7.28125,4 7.0625,4.16 6.84375,4.16 L1.75,4.16 L1.75,4.16 Z" id="Shape"></path>
                    <path d="M9.6875,12.48 C7.96875,12.48 6.5625,11.04 6.5625,9.28 C6.5625,7.52 7.96875,6.08 9.6875,6.08 C11.40625,6.08 12.8125,7.52 12.8125,9.28 C12.8125,11.04 11.40625,12.48 9.6875,12.48 L9.6875,12.48 Z M9.6875,7.04 C8.46875,7.04 7.5,8.032 7.5,9.28 C7.5,10.528 8.46875,11.52 9.6875,11.52 C10.90625,11.52 11.875,10.528 11.875,9.28 C11.875,8.032 10.875,7.04 9.6875,7.04 L9.6875,7.04 Z" id="Shape"></path>
                    <path d="M9.8125,14.336 C7.15625,14.336 5,12.128 5,9.408 C5,6.688 7.15625,4.48 9.8125,4.48 C12.46875,4.48 14.625,6.688 14.625,9.408 C14.59375,12.128 12.4375,14.336 9.8125,14.336 L9.8125,14.336 Z M9.8125,5.472 C7.6875,5.472 5.9375,7.232 5.9375,9.44 C5.9375,11.616 7.65625,13.408 9.8125,13.408 C11.9375,13.408 13.6875,11.648 13.6875,9.44 C13.65625,7.264 11.9375,5.472 9.8125,5.472 L9.8125,5.472 Z" id="Shape"></path>
                    <path d="M5.46875,2.24 L2.96875,2.24 C2.71875,2.24 2.5,2.016 2.5,1.76 C2.5,1.504 2.71875,1.28 2.96875,1.28 L5.46875,1.28 C5.71875,1.28 5.9375,1.504 5.9375,1.76 C5.9375,2.016 5.71875,2.24 5.46875,2.24 L5.46875,2.24 Z" id="Shape"></path>
                    <path d="M15.46875,1.6 L15.65625,1.6 C16.40625,1.6 16.875,2.208 16.875,2.976 L16.875,3.52 L14.375,3.52 L14.375,2.976 C14.40625,2.208 14.75,1.6 15.46875,1.6 L15.46875,1.6 Z" id="Shape"></path>
                </g>
            </g>
        </g>
    </g>
</svg>