<?xml version="1.0" encoding="UTF-8"?>
<svg width="58px" height="40px" viewBox="0 0 58 40" version="1.1" xmlns="http://www.w3.org/2000/svg" xmlns:xlink="http://www.w3.org/1999/xlink">
    <!-- Generator: Sketch 43.1 (39012) - http://www.bohemiancoding.com/sketch -->
    <title>Group 3</title>
    <desc>Created with Sketch.</desc>
    <defs>
        <polygon id="path-1" points="8.187 8.6458 0.063 8.6458 0.063 0.521 8.187 0.521 8.187 8.6458"></polygon>
        <polygon id="path-3" points="8.124 8.1248 7.10542736e-15 8.1248 0 0 8.124 0 8.124 8.1248"></polygon>
    </defs>
    <g id="Page-1" stroke="none" stroke-width="1" fill="none" fill-rule="evenodd">
        <g id="SejaCriativa/Checkout-endereço-3" transform="translate(-360.000000, -1419.000000)">
            <g id="Group-3" transform="translate(362.000000, 1421.000000)">
                <path d="M24.75,32.167 L24.75,32.167 C24.75,28.761 21.989,26 18.583,26 C15.178,26 12.417,28.761 12.417,32.167 L6,32.167 L6,26.417" id="Stroke-1" stroke="#888888" stroke-width="3" stroke-linecap="round" stroke-linejoin="round"></path>
                <g id="Group-4" transform="translate(15.000000, 29.000000)">
                    <mask id="mask-2" fill="white">
                        <use xlink:href="#path-1"></use>
                    </mask>
                    <g id="Clip-4"></g>
                    <path d="M4.125,0.521 C1.881,0.521 0.063,2.34 0.063,4.583 C0.063,6.827 1.881,8.646 4.125,8.646 C6.369,8.646 8.187,6.827 8.187,4.583 C8.187,2.34 6.369,0.521 4.125,0.521 M4.125,3.521 C4.711,3.521 5.187,3.998 5.187,4.583 C5.187,5.169 4.711,5.646 4.125,5.646 C3.54,5.646 3.063,5.169 3.063,4.583 C3.063,3.998 3.54,3.521 4.125,3.521" id="Fill-3" fill="#888888" mask="url(#mask-2)"></path>
                </g>
                <g id="Group-8" transform="translate(39.000000, 28.645800)">
                    <mask id="mask-4" fill="white">
                        <use xlink:href="#path-3"></use>
                    </mask>
                    <g id="Clip-7"></g>
                    <path d="M4.062,0 C1.818,0 0,1.819 0,4.062 C0,6.306 1.818,8.125 4.062,8.125 C6.306,8.125 8.124,6.306 8.124,4.062 C8.124,1.819 6.306,0 4.062,0 M4.062,3 C4.648,3 5.124,3.477 5.124,4.062 C5.124,4.648 4.648,5.125 4.062,5.125 C3.477,5.125 3,4.648 3,4.062 C3,3.477 3.477,3 4.062,3" id="Fill-6" fill="#888888" mask="url(#mask-4)"></path>
                </g>
                <polyline id="Stroke-9" stroke="#888888" stroke-width="3" stroke-linecap="round" stroke-linejoin="round" points="6 6.917 6 0 36.875 0 36.875 32.084"></polyline>
                <polyline id="Stroke-11" stroke="#888888" stroke-width="3" stroke-linecap="round" stroke-linejoin="round" points="54.375 26.167 54.375 19.792 43.125 19.792 43.125 14 50.333 14 47.167 9 37 9 37 32.334"></polyline>
                <path d="M49.333,32.167 L49.333,32.167 C49.333,28.761 46.572,26 43.166,26 C39.76,26 37,28.761 37,32.167" id="Stroke-13" stroke="#888888" stroke-width="3" stroke-linecap="round" stroke-linejoin="round"></path>
                <path d="M8.118,17 L1,17" id="Stroke-15" stroke="#888888" stroke-width="3" stroke-linecap="round" stroke-linejoin="round"></path>
                <path d="M9.117,21 L2,21" id="Stroke-17" stroke="#888888" stroke-width="3" stroke-linecap="round" stroke-linejoin="round"></path>
                <path d="M7.117,12 L0,12" id="Stroke-19" stroke="#888888" stroke-width="3" stroke-linecap="round" stroke-linejoin="round"></path>
            </g>
        </g>
    </g>
</svg>