<?xml version="1.0" encoding="UTF-8"?>
<svg width="16px" height="16px" viewBox="0 0 16 16" version="1.1" xmlns="http://www.w3.org/2000/svg" xmlns:xlink="http://www.w3.org/1999/xlink">
    <!-- Generator: Sketch 43.1 (39012) - http://www.bohemiancoding.com/sketch -->
    <title>Group</title>
    <desc>Created with Sketch.</desc>
    <defs></defs>
    <g id="Page-1" stroke="none" stroke-width="1" fill="none" fill-rule="evenodd" stroke-linecap="round" stroke-linejoin="round">
        <g id="SejaCriativa/Checkout-endereço-3" transform="translate(-801.000000, -1017.000000)" stroke="#E14559" stroke-width="2">
            <g id="Group" transform="translate(802.000000, 1018.000000)">
                <path d="M9.33333333,0 L9.33333333,4.2 C9.33333333,4.2 9.33333333,4.66666667 9.8,4.66666667 L11.6666667,4.66666667" id="Stroke-1"></path>
                <path d="M5.6,4.66666667 L5.6,14 L13.5333333,14 C13.5333333,14 14,14 14,13.5333333 L14,4.66666667 C14,4.66666667 14,4.2 13.5333333,3.73333333 L10.2666667,0.466666667 C9.8,0 9.33333333,0 9.33333333,0 L4.66666667,0" id="Stroke-3"></path>
                <polyline id="Stroke-9" points="0 4.66666667 2.8 5.6 5.6 4.66666667 2.8 0 0 4.66666667 0 13.0666667"></polyline>
            </g>
        </g>
    </g>
</svg>