<?xml version="1.0" encoding="UTF-8"?>
<svg width="43px" height="45px" viewBox="0 0 43 45" version="1.1" xmlns="http://www.w3.org/2000/svg" xmlns:xlink="http://www.w3.org/1999/xlink">
    <!-- Generator: Sketch 43.1 (39012) - http://www.bohemiancoding.com/sketch -->
    <title>Page 1</title>
    <desc>Created with Sketch.</desc>
    <defs>
        <polygon id="path-1" points="0 12.4347203 0 0.373194915 10.6286939 0.373194915 10.6286939 12.4347203 9.81488282e-19 12.4347203"></polygon>
    </defs>
    <g id="Symbols" stroke="none" stroke-width="1" fill="none" fill-rule="evenodd">
        <g id="Button/Novo-Pedido" transform="translate(-89.000000, -9.000000)">
            <g id="Page-1" transform="translate(89.000000, 9.000000)">
                <path d="M22.0841965,9.04782203 C22.2886351,9.40705932 22.6605474,9.60612712 23.0422667,9.60612712 C23.2293544,9.60612712 23.420214,9.55807627 23.5937228,9.45663559 L26.1458105,7.96705932 L26.1458105,10.9454492 C26.1458105,11.5632458 26.6399333,12.062822 27.250986,12.062822 C27.8605298,12.062822 28.355407,11.5632458 28.355407,10.9454492 L28.355407,7.96705932 L30.9067404,9.45663559 C31.0810035,9.55807627 31.2711088,9.60612712 31.4581965,9.60612712 C31.8406702,9.60612712 32.2118281,9.40705932 32.4162667,9.04782203 C32.721793,8.51316102 32.5407404,7.82977119 32.0119158,7.52163559 L29.4598281,6.03129661 L32.0119158,4.54172034 C32.5407404,4.23358475 32.721793,3.55019492 32.4162667,3.0155339 C32.109986,2.48087288 31.4355649,2.29705932 30.9067404,2.60672034 L28.355407,4.09629661 L28.355407,1.11790678 C28.355407,0.499347458 27.8605298,0.000533898305 27.250986,0.000533898305 C26.6399333,0.000533898305 26.1458105,0.499347458 26.1458105,1.11790678 L26.1458105,4.09629661 L23.5937228,2.60672034 C23.0641439,2.29705932 22.388214,2.48087288 22.0841965,3.0155339 C21.7794246,3.55019492 21.9597228,4.23358475 22.4885474,4.54172034 L25.0398807,6.03129661 L22.4885474,7.52163559 C21.9597228,7.82977119 21.7794246,8.51316102 22.0841965,9.04782203" id="Fill-1" fill="#FFFFFF"></path>
                <path d="M41.8772474,28.605661 L38.9313702,28.605661 L40.4039316,26.0261695 C40.7094579,25.4915085 40.5284053,24.8081186 39.9995807,24.4999831 C39.4707561,24.190322 38.7963351,24.3733729 38.4900544,24.9087966 L37.0167386,27.4890508 L35.5434228,24.9087966 C35.2378965,24.3741356 34.5627211,24.1918475 34.0346509,24.4999831 C33.5050719,24.8081186 33.3240193,25.4915085 33.6295456,26.0261695 L35.1028614,28.605661 L32.1562298,28.605661 C31.5444228,28.6071864 31.0518088,29.1067627 31.0510544,29.7237966 C31.0510544,30.3400678 31.5459316,30.8411695 32.1562298,30.8411695 L35.1028614,30.8411695 L33.6287912,33.4198983 C33.3240193,33.9545593 33.5050719,34.6371864 34.0338965,34.9460847 C34.3884579,35.1535424 34.8094053,35.1382881 35.1398263,34.9460847 C35.3020193,34.8507458 35.4430895,34.7134576 35.5434228,34.5372712 L37.0167386,31.9585424 L38.4900544,34.5372712 C38.7948263,35.0726949 39.4707561,35.2549831 39.9995807,34.9460847 C40.5276509,34.6379492 40.7087035,33.955322 40.4039316,33.4198983 L38.9306158,30.8404068 L41.8772474,30.8404068 C42.0786684,30.8404068 42.2665105,30.7854915 42.4287035,30.6909153 C42.7598789,30.4979492 42.9816684,30.1364237 42.9824228,29.7230339 C42.9816684,29.106 42.4875456,28.605661 41.8772474,28.605661" id="Fill-3" fill="#FFFFFF"></path>
                <g id="Group-7" transform="translate(0.000000, 17.288161)">
                    <mask id="mask-2" fill="white">
                        <use xlink:href="#path-1"></use>
                    </mask>
                    <g id="Clip-6"></g>
                    <path d="M10.4810614,9.41895763 C10.7850789,8.88505932 10.6047807,8.20166949 10.0759561,7.89277119 L7.52462281,6.40395763 L10.0759561,4.91514407 C10.6047807,4.60548305 10.7850789,3.92285593 10.4810614,3.38819492 C10.1747807,2.85277119 9.49960526,2.66895763 8.9707807,2.97938136 L6.41869298,4.46895763 L6.41869298,1.48980508 C6.41869298,0.872771186 5.92457018,0.373194915 5.31351754,0.373194915 C4.70397368,0.373194915 4.20985088,0.872771186 4.20985088,1.48980508 L4.20985088,4.46895763 L1.65776316,2.97938136 C1.12742982,2.66895763 0.453763158,2.85505932 0.148236842,3.38819492 C-0.157289474,3.92285593 0.0245175439,4.60548305 0.552587719,4.91514407 L3.10392105,6.40395763 L0.552587719,7.89277119 C0.0245175439,8.20166949 -0.157289474,8.88505932 0.148236842,9.41895763 C0.352675439,9.77819492 0.723833333,9.97726271 1.10630702,9.97726271 C1.29339474,9.97726271 1.4835,9.92997458 1.65776316,9.8285339 L4.20985088,8.33895763 L4.20985088,11.3173475 C4.20985088,11.9351441 4.70397368,12.4347203 5.31351754,12.4347203 C5.92457018,12.4347203 6.41869298,11.9351441 6.41869298,11.3173475 L6.41869298,8.33895763 L8.9707807,9.8285339 C9.14504386,9.92997458 9.33514912,9.97726271 9.52223684,9.97726271 C9.90395614,9.97726271 10.2758684,9.7774322 10.4810614,9.41895763" id="Fill-5" fill="#FFFFFF" mask="url(#mask-2)"></path>
                </g>
                <path d="M30.6373491,40.6072373 L15.9411561,32.0282542 L16.8449105,29.6546949 L29.9357702,37.2955424 L31.1103491,40.3784237 C30.9572088,40.4600339 30.7950158,40.5302034 30.6373491,40.6072373 L30.6373491,40.6072373 Z M24.1428404,42.3782542 L14.2075772,36.5793559 L15.112086,34.2050339 L27.8951561,41.6674068 C26.6911561,42.0174915 25.4268053,42.2516441 24.1428404,42.3782542 L24.1428404,42.3782542 Z M12.7614193,40.3784237 L13.378507,38.7561356 L19.5599456,42.3645254 C17.1262965,42.1044407 14.7748754,41.4431695 12.7614193,40.3784237 L12.7614193,40.3784237 Z M18.5792439,25.1020678 L27.2109281,30.1405424 L28.6329456,33.8732542 L17.6739807,27.4763898 L18.5792439,25.1020678 Z M20.311314,20.5509661 L24.486086,22.9870678 L25.9073491,26.7197797 L19.4075596,22.9252881 L20.311314,20.5509661 Z M21.9347526,16.2896949 L23.182507,19.5663051 L21.1403842,18.3749492 L21.9347526,16.2896949 Z M22.9659982,12.7789322 C22.8015421,12.348 22.3911561,12.0627458 21.9347526,12.0627458 C21.4775947,12.0627458 21.0672088,12.348 20.9042614,12.7789322 L10.3556825,40.4752881 C10.1625596,40.9809661 10.3556825,41.5522373 10.8143491,41.8329153 C13.9842789,43.7747797 17.959893,44.7457119 21.9362614,44.7457119 C25.9111211,44.7457119 29.8874895,43.7747797 33.0574193,41.8329153 C33.5153316,41.5522373 33.7084544,40.9809661 33.5153316,40.4752881 L22.9659982,12.7789322 Z" id="Fill-8" fill="#FFFFFF"></path>
            </g>
        </g>
    </g>
</svg>