<?xml version="1.0" encoding="UTF-8"?>
<svg width="16px" height="16px" viewBox="0 0 16 16" version="1.1" xmlns="http://www.w3.org/2000/svg" xmlns:xlink="http://www.w3.org/1999/xlink">
    <!-- Generator: Sketch 43.1 (39012) - http://www.bohemiancoding.com/sketch -->
    <title>Page 1 Copy 4</title>
    <desc>Created with Sketch.</desc>
    <defs></defs>
    <g id="Page-1" stroke="none" stroke-width="1" fill="none" fill-rule="evenodd">
        <g id="SejaCriativa/Escolha-de-peças" transform="translate(-707.000000, -365.000000)" fill="#00C4A4">
            <g id="Page-1-Copy-4" transform="translate(707.000000, 365.000000)">
                <path d="M8.0001,0 C3.5821,0 0.0001,3.582 0.0001,8 C0.0001,12.418 3.5821,16 8.0001,16 C12.4181,16 16.0001,12.418 16.0001,8 C16.0001,3.582 12.4181,0 8.0001,0 M8.0001,1.6 C11.5291,1.6 14.4001,4.471 14.4001,8 C14.4001,11.529 11.5291,14.4 8.0001,14.4 C4.4711,14.4 1.6001,11.529 1.6001,8 C1.6001,4.471 4.4711,1.6 8.0001,1.6" id="Fill-1"></path>
                <path d="M7.3195,10.5947 L7.3195,7.7997 C7.3195,7.6087 7.3245,7.4717 7.3355,7.3887 C7.3455,7.3057 7.3715,7.2247 7.4115,7.1447 C7.4665,7.0327 7.5535,6.9447 7.6725,6.8767 C7.7905,6.8097 7.9245,6.7757 8.0755,6.7757 C8.2265,6.7757 8.3605,6.8097 8.4795,6.8767 C8.5975,6.9447 8.6845,7.0327 8.7405,7.1447 C8.7795,7.2247 8.8045,7.3057 8.8165,7.3887 C8.8275,7.4717 8.8325,7.6087 8.8325,7.7997 L8.8325,10.5947 C8.8325,10.7847 8.8275,10.9227 8.8165,11.0057 C8.8045,11.0887 8.7795,11.1697 8.7405,11.2497 C8.6845,11.3607 8.5975,11.4497 8.4795,11.5177 C8.3605,11.5847 8.2265,11.6187 8.0755,11.6187 C7.9245,11.6187 7.7905,11.5847 7.6725,11.5177 C7.5535,11.4497 7.4665,11.3607 7.4115,11.2497 C7.3715,11.1697 7.3455,11.0887 7.3355,11.0057 C7.3245,10.9227 7.3195,10.7847 7.3195,10.5947 M8.6685,6.0677 C8.5045,6.2317 8.3065,6.3147 8.0755,6.3147 C7.8445,6.3147 7.6475,6.2317 7.4825,6.0677 C7.3185,5.9027 7.2365,5.7047 7.2365,5.4747 C7.2365,5.2437 7.3185,5.0457 7.4825,4.8817 C7.6475,4.7167 7.8445,4.6347 8.0755,4.6347 C8.3065,4.6347 8.5045,4.7167 8.6685,4.8817 C8.8335,5.0457 8.9155,5.2437 8.9155,5.4747 C8.9155,5.7047 8.8335,5.9027 8.6685,6.0677" id="Fill-4"></path>
            </g>
        </g>
    </g>
</svg>