<svg xmlns="http://www.w3.org/2000/svg" width="23.97" height="17.03" viewBox="0 0 23.97 17.03">
  <metadata><?xpacket begin="﻿" id="W5M0MpCehiHzreSzNTczkc9d"?>
<x:xmpmeta xmlns:x="adobe:ns:meta/" x:xmptk="Adobe XMP Core 5.6-c138 79.159824, 2016/09/14-01:09:01        ">
   <rdf:RDF xmlns:rdf="http://www.w3.org/1999/02/22-rdf-syntax-ns#">
      <rdf:Description rdf:about=""/>
   </rdf:RDF>
</x:xmpmeta>
                                                                                                    
                                                                                                    
                                                                                                    
                                                                                                    
                                                                                                    
                                                                                                    
                                                                                                    
                                                                                                    
                                                                                                    
                                                                                                    
                                                                                                    
                                                                                                    
                                                                                                    
                                                                                                    
                                                                                                    
                                                                                                    
                                                                                                    
                                                                                                    
                                                                                                    
                                                                                                    
                           
<?xpacket end="w"?></metadata>
<defs>
    <style>
      .cls-1 {
        fill: #c44658;
        fill-rule: evenodd;
      }
    </style>
  </defs>
  <path id="Forma_5_copiar_15" data-name="Forma 5 copiar 15" class="cls-1" d="M1425.83,1456.78a3.494,3.494,0,0,0-.43-0.81,4.369,4.369,0,0,0-.52-0.64,2.555,2.555,0,0,0-.7-0.51,4.181,4.181,0,0,0-.73-0.25,4.529,4.529,0,0,0-.74-0.08,3.471,3.471,0,0,0-.79,0,5.006,5.006,0,0,0-.67.06c-0.19.03-.43,0.07-0.72,0.14a6.27,6.27,0,0,0-.9.29,5.1,5.1,0,0,0-.88.52,3.541,3.541,0,0,0-.75.62c-0.18.2-.33,0.39-0.47,0.58a5.066,5.066,0,0,0-.39.67,2.253,2.253,0,0,0-.21.49l-0.1-.14a5.892,5.892,0,0,0-.89-1.08,6.6,6.6,0,0,0-.96-0.82,4.325,4.325,0,0,0-.79-0.47,6.781,6.781,0,0,0-.94-0.33,7.411,7.411,0,0,0-1.05-.17,6.731,6.731,0,0,0-1.1,0,6.41,6.41,0,0,0-1.04.19,3.291,3.291,0,0,0-1.01.41,2.941,2.941,0,0,0-.73.59,2.5,2.5,0,0,0-.47.78,3.31,3.31,0,0,0-.13,1.16,3.988,3.988,0,0,0,.19,1.21,7.784,7.784,0,0,0,.46,1.02,7.058,7.058,0,0,0,.79,1.3,11.508,11.508,0,0,0,.88,1.06c0.27,0.31.54,0.61,0.8,0.9a8.679,8.679,0,0,0,.83.87c0.26,0.25.53,0.5,0.79,0.75,0.28,0.26.57,0.51,0.87,0.76,0.32,0.25.58,0.45,0.77,0.59,0.15,0.1.37,0.26,0.67,0.48q0.48,0.375.96,0.69c0.31,0.2.62,0.39,0.93,0.58s0.61,0.39.92,0.59,0.65,0.41.98,0.6,0.61,0.34.84,0.48l0.35,0.21a1.273,1.273,0,0,0,.88.15,0.966,0.966,0,0,0,.69-0.47,1.073,1.073,0,0,0,.13-0.68,1.235,1.235,0,0,1,.1-0.2,3.472,3.472,0,0,1,.19-0.41c0.08-.17.19-0.42,0.35-0.74a7.654,7.654,0,0,1,.41-0.81,9.026,9.026,0,0,0,.51-0.81q0.24-.4.45-0.84a5.545,5.545,0,0,1,.42-0.72c0.18-.29.34-0.55,0.47-0.78a4.239,4.239,0,0,0,.37-0.61,6.252,6.252,0,0,0,.32-0.58c0.13-.25.27-0.54,0.43-0.86a6.031,6.031,0,0,0,.42-1.01,5.349,5.349,0,0,0,.23-1.02,6.994,6.994,0,0,0,.07-1.02,8.4,8.4,0,0,0-.11-0.95,4.16,4.16,0,0,0-.25-0.93m-1.96,1.86a2.68,2.68,0,0,1-.05.63,2.421,2.421,0,0,1-.13.65,3.914,3.914,0,0,1-.33.75c-0.14.3-.27,0.58-0.4,0.83-0.11.21-.2,0.38-0.27,0.49s-0.17.27-.32,0.52c-0.17.27-.33,0.54-0.5,0.81a7.969,7.969,0,0,0-.49.84q-0.225.4-.42,0.75c-0.15.25-.3,0.51-0.47,0.78a7.4,7.4,0,0,0-.53,1.01q-0.24.495-.33,0.72l-0.03.03c-0.28-.16-0.57-0.32-0.84-0.5-0.3-.18-0.59-0.36-0.88-0.56-0.34-.21-0.64-0.41-0.92-0.59s-0.56-.39-0.86-0.6c-0.32-.23-0.56-0.41-0.73-0.54-0.13-.08-0.32-0.24-0.58-0.45a7.322,7.322,0,0,1-.77-0.68c-0.27-.25-0.53-0.49-0.79-0.72-0.22-.22-0.45-0.46-0.69-0.71-0.25-.29-0.51-0.59-0.77-0.9a9.469,9.469,0,0,1-.75-0.93,4.845,4.845,0,0,1-.57-0.9,4.524,4.524,0,0,1-.35-0.81,1.151,1.151,0,0,1-.09-0.47,1.42,1.42,0,0,1,.04-0.43,0.284,0.284,0,0,1,.08-0.11,0.606,0.606,0,0,1,.27-0.21,0.851,0.851,0,0,1,.39-0.16,3.506,3.506,0,0,1,.66-0.13,5.3,5.3,0,0,1,.69,0,5.733,5.733,0,0,1,.64.1,2.11,2.11,0,0,1,.49.18,3.078,3.078,0,0,1,.44.27,3.179,3.179,0,0,1,.6.52,5.351,5.351,0,0,1,.59.7c0.18,0.27.35,0.52,0.49,0.74,0.14,0.24.29,0.47,0.43,0.68s0.25,0.37.34,0.5c0.1,0.16.19,0.31,0.26,0.44a1.621,1.621,0,0,0,.48.47,0.784,0.784,0,0,0,.44.14,1.064,1.064,0,0,0,.42-0.13,1.84,1.84,0,0,0,.38-0.27,3,3,0,0,0,.3-0.32,2.325,2.325,0,0,0,.19-0.25,0.655,0.655,0,0,0,.08-0.13c0.03-.21.08-0.43,0.13-0.66s0.1-.48.16-0.71a2,2,0,0,1,.11-0.54,1.68,1.68,0,0,1,.12-0.38,1.629,1.629,0,0,1,.21-0.34c0.1-.13.22-0.28,0.36-0.43a1.808,1.808,0,0,1,.38-0.31,3.144,3.144,0,0,1,.49-0.29c0.19-.07.38-0.12,0.57-0.17s0.34-.08.46-0.1a3.99,3.99,0,0,1,.55-0.05c0.19-.01.36-0.02,0.5-0.02,0.1,0.01.19,0.03,0.29,0.04a0.739,0.739,0,0,1,.19.05,0.555,0.555,0,0,1,.06.08,0.92,0.92,0,0,1,.2.23,1.369,1.369,0,0,1,.16.32,3.033,3.033,0,0,1,.14.53c0.03,0.24.06,0.48,0.08,0.7m7.63,11.33a0.037,0.037,0,0,0-.02.05,1.825,1.825,0,0,1-.89,1.22,2.023,2.023,0,0,1-1.56.24l-0.27-.07a3.133,3.133,0,0,1-1.4-.99,1.9,1.9,0,0,1-.44-1.87,2.107,2.107,0,0,1,.66-0.93,2.286,2.286,0,0,1,1.08-.53,2.039,2.039,0,0,1,2.15.39l0.1,0.08a2.106,2.106,0,0,1,.71,1.13,1.878,1.878,0,0,1-.12,1.28" transform="translate(-1407.72 -1454.5)"/>
</svg>
