<?xml version="1.0" encoding="UTF-8"?>
<svg width="30px" height="21px" viewBox="0 0 30 21" version="1.1" xmlns="http://www.w3.org/2000/svg" xmlns:xlink="http://www.w3.org/1999/xlink">
    <!-- Generator: Sketch 43.1 (39012) - http://www.bohemiancoding.com/sketch -->
    <title>Page 1</title>
    <desc>Created with Sketch.</desc>
    <defs></defs>
    <g id="Page-1" stroke="none" stroke-width="1" fill="none" fill-rule="evenodd">
        <g id="SejaCriativa/Escolha-de-Coleções" transform="translate(-477.000000, -42.000000)" fill="#00AEC5">
            <g id="Group-4" transform="translate(456.000000, 16.000000)">
                <g id="Page-1" transform="translate(21.000000, 26.000000)">
                    <path d="M4.03846154,3.40540541 L1.73076923,3.40540541 C0.774807692,3.40540541 0,2.64316216 0,1.7027027 C0,0.762243243 0.774807692,0 1.73076923,0 L4.03846154,0 C4.99442308,0 5.76923077,0.762243243 5.76923077,1.7027027 C5.76923077,2.64316216 4.99442308,3.40540541 4.03846154,3.40540541" id="Fill-1"></path>
                    <path d="M28.2692308,3.40540541 L9.80769231,3.40540541 C8.85173077,3.40540541 8.07692308,2.64316216 8.07692308,1.7027027 C8.07692308,0.762243243 8.85173077,0 9.80769231,0 L28.2692308,0 C29.2251923,0 30,0.762243243 30,1.7027027 C30,2.64316216 29.2251923,3.40540541 28.2692308,3.40540541" id="Fill-3"></path>
                    <path d="M28.2692308,12.2027027 L1.73076923,12.2027027 C0.774807692,12.2027027 0,11.4404595 0,10.5 C0,9.55954054 0.774807692,8.7972973 1.73076923,8.7972973 L28.2692308,8.7972973 C29.2251923,8.7972973 30,9.55954054 30,10.5 C30,11.4404595 29.2251923,12.2027027 28.2692308,12.2027027" id="Fill-5"></path>
                    <path d="M19.6153846,21 L17.3076923,21 C16.3517308,21 15.5769231,20.2377568 15.5769231,19.2972973 C15.5769231,18.3568378 16.3517308,17.5945946 17.3076923,17.5945946 L19.6153846,17.5945946 C20.5713462,17.5945946 21.3461538,18.3568378 21.3461538,19.2972973 C21.3461538,20.2377568 20.5713462,21 19.6153846,21" id="Fill-7"></path>
                    <path d="M11.5384615,21 L1.73076923,21 C0.774807692,21 0,20.2377568 0,19.2972973 C0,18.3568378 0.774807692,17.5945946 1.73076923,17.5945946 L11.5384615,17.5945946 C12.4944231,17.5945946 13.2692308,18.3568378 13.2692308,19.2972973 C13.2692308,20.2377568 12.4944231,21 11.5384615,21" id="Fill-9"></path>
                </g>
            </g>
        </g>
    </g>
</svg>