<?xml version="1.0" encoding="UTF-8"?>
<svg width="32px" height="32px" viewBox="0 0 32 32" version="1.1" xmlns="http://www.w3.org/2000/svg" xmlns:xlink="http://www.w3.org/1999/xlink">
    <!-- Generator: Sketch 43.1 (39012) - http://www.bohemiancoding.com/sketch -->
    <title>Page 1</title>
    <desc>Created with Sketch.</desc>
    <defs></defs>
    <g id="Page-1" stroke="none" stroke-width="1" fill="none" fill-rule="evenodd" stroke-linecap="round" stroke-linejoin="round">
        <g id="Desktop-Custom-16col-1392x850px" transform="translate(-1008.000000, -344.000000)" stroke="#00AEC5" stroke-width="2">
            <g id="Page-1" transform="translate(1009.000000, 345.000000)">
                <path d="M19.9277273,24.8190938 L24.6677273,29.7053438 C25.0486364,30.0981563 25.6659091,30.0981563 26.0468182,29.7053438 L28.8059091,26.8609688 C29.1868182,26.4681563 29.1868182,25.8315938 28.8059091,25.4387813 L21.7822727,18.1965938 C21.7822727,18.1965938 23.4068182,14.7409688 23.4068182,12.0690938 C23.4068182,5.40346875 18.1668182,-0.00028125 11.7031818,-0.00028125 C5.24045455,-0.00028125 -0.000454545455,5.40346875 -0.000454545455,12.0690938 C-0.000454545455,18.7347188 5.24045455,24.1375313 11.7031818,24.1375313 C14.9286364,24.1375313 17.8477273,22.7940938 19.9640909,20.6181563" id="Stroke-1"></path>
                <path d="M7.07345455,5.87221875 L7.07345455,5.87221875 C9.63072727,3.23503125 13.7761818,3.23503125 16.3334545,5.87221875" id="Stroke-3"></path>
            </g>
        </g>
    </g>
</svg>