<svg xmlns="http://www.w3.org/2000/svg" viewBox="0 0 3.2 15.5"><defs><style>.cls-1{fill:#888;}</style></defs><title>Ativo 1</title><g id="Camada_2" data-name="Camada 2"><g id="Camada_1-2" data-name="Camada 1"><g id="Page-1"><g id="SejaCriativa_Inventário" data-name="SejaCriativa/Inventário"><g id="Group-15"><g id="Group-12"><g id="Stroke-5"><path class="cls-1" d="M1.6,3.5A1.6,1.6,0,0,1,0,1.9V1.6a1.6,1.6,0,1,1,3.2,0v.3A1.6,1.6,0,0,1,1.6,3.5Z"/></g><g id="Stroke-5-Copy-2"><path class="cls-1" d="M1.6,9.5A1.6,1.6,0,0,1,0,7.9V7.6a1.6,1.6,0,1,1,3.2,0v.3A1.6,1.6,0,0,1,1.6,9.5Z"/></g><g id="Stroke-5-Copy-3"><path class="cls-1" d="M1.6,15.5A1.6,1.6,0,0,1,0,13.9v-.3a1.6,1.6,0,0,1,3.2,0v.3A1.6,1.6,0,0,1,1.6,15.5Z"/></g></g></g></g></g></g></g></svg>