<?xml version="1.0" encoding="UTF-8"?>
<svg width="16px" height="16px" viewBox="0 0 16 16" version="1.1" xmlns="http://www.w3.org/2000/svg" xmlns:xlink="http://www.w3.org/1999/xlink">
    <!-- Generator: Sketch 43.1 (39012) - http://www.bohemiancoding.com/sketch -->
    <title>Fill 1</title>
    <desc>Created with Sketch.</desc>
    <defs></defs>
    <g id="Page-1" stroke="none" stroke-width="1" fill="none" fill-rule="evenodd">
        <g id="SejaCriativa/Escolha-de-peças-subtotal-expandido" transform="translate(-1063.000000, -728.000000)" fill="#FFFFFF">
            <g id="tab-subtotal" transform="translate(1039.000000, -41.000000)">
                <path d="M34.0772862,777.017394 L39.5366062,771.662214 C40.1320872,771.077915 40.1569919,770.104595 39.5919911,769.48839 C39.0262469,768.872569 38.0854463,768.846814 37.4899652,769.431113 L32.0172637,774.799363 L26.8452763,769.450333 C26.2650354,768.849889 25.322748,768.849889 24.7428787,769.450333 C24.1618944,770.050778 24.1618944,771.024482 24.7428787,771.624926 L29.922672,776.982029 L24.4637238,782.337594 C23.867871,782.921893 23.8429663,783.895597 24.4079671,784.511418 C24.7005037,784.830092 25.0934022,784.990774 25.4874159,784.990774 C25.8546664,784.990774 26.2226604,784.85085 26.5103647,784.569079 L31.9826945,779.200444 L37.1550536,784.549474 C37.4453599,784.849697 37.825992,785 38.2062524,785 C38.5868845,785 38.9675166,784.849697 39.2578229,784.549474 C39.8384355,783.94903 39.8384355,782.975326 39.2578229,782.375266 L34.0772862,777.017394 Z" id="Fill-1"></path>
            </g>
        </g>
    </g>
</svg>