<?xml version="1.0" encoding="UTF-8"?>
<svg width="16px" height="16px" viewBox="0 0 16 16" version="1.1" xmlns="http://www.w3.org/2000/svg" xmlns:xlink="http://www.w3.org/1999/xlink">
    <!-- Generator: Sketch 43.1 (39012) - http://www.bohemiancoding.com/sketch -->
    <title>Fill 1</title>
    <desc>Created with Sketch.</desc>
    <defs></defs>
    <g id="Page-1" stroke="none" stroke-width="1" fill="none" fill-rule="evenodd">
        <g id="SejaCriativa/Checkout-endereço-3" transform="translate(-833.000000, -1017.000000)" fill="#E14559">
            <path d="M843.077286,1025.01739 L848.536606,1019.66221 C849.132087,1019.07791 849.156992,1018.10459 848.591991,1017.48839 C848.026247,1016.87257 847.085446,1016.84681 846.489965,1017.43111 L841.017264,1022.79936 L835.845276,1017.45033 C835.265035,1016.84989 834.322748,1016.84989 833.742879,1017.45033 C833.161894,1018.05078 833.161894,1019.02448 833.742879,1019.62493 L838.922672,1024.98203 L833.463724,1030.33759 C832.867871,1030.92189 832.842966,1031.8956 833.407967,1032.51142 C833.700504,1032.83009 834.093402,1032.99077 834.487416,1032.99077 C834.854666,1032.99077 835.22266,1032.85085 835.510365,1032.56908 L840.982695,1027.20044 L846.155054,1032.54947 C846.44536,1032.8497 846.825992,1033 847.206252,1033 C847.586884,1033 847.967517,1032.8497 848.257823,1032.54947 C848.838436,1031.94903 848.838436,1030.97533 848.257823,1030.37527 L843.077286,1025.01739 Z" id="Fill-1"></path>
        </g>
    </g>
</svg>