<?xml version="1.0" encoding="UTF-8"?>
<svg width="218px" height="121px" viewBox="0 0 218 121" version="1.1" xmlns="http://www.w3.org/2000/svg" xmlns:xlink="http://www.w3.org/1999/xlink">
    <!-- Generator: Sketch 43.1 (39012) - http://www.bohemiancoding.com/sketch -->
    <title>Page 1</title>
    <desc>Created with Sketch.</desc>
    <defs></defs>
    <g id="Page-1" stroke="none" stroke-width="1" fill="none" fill-rule="evenodd">
        <g id="SejaCriativa/Inventário" transform="translate(-807.000000, -107.000000)">
            <g id="Page-1" transform="translate(808.000000, 107.000000)">
                <path d="M107.302876,0.688528436 L0.122575895,44.214055 C0.122575895,44.214055 26.9676267,118.287353 108.256675,120.282198 C182.814896,122.112424 216.191646,60.5525312 216.191646,60.5525312 L197.062214,48.9196853 L196.17195,37.4522352 L160.411866,15.7348976 L149.33897,19.8573713 L115.508178,0.132549683 C115.508178,0.132549683 114.159223,2.49002384 110.864706,2.43411536 C108.419386,2.392184 107.302876,0.688528436 107.302876,0.688528436" id="Fill-1" fill="#282B59"></path>
                <path d="M131.419025,80.1511705 C131.419025,87.2826075 121.085304,93.0629229 108.336481,93.0629229 C95.5876582,93.0629229 85.253162,87.2826075 85.253162,80.1511705 C85.253162,73.0197335 95.5876582,67.2394181 108.336481,67.2394181 C121.085304,67.2394181 131.419025,73.0197335 131.419025,80.1511705" id="Fill-3" fill="#B32A18"></path>
                <path d="M108.336791,87.284937 C97.3630716,87.284937 88.1791773,83.0025029 85.8338092,77.2625658 C85.4533745,78.1912677 85.253472,79.1580185 85.253472,80.1511705 C85.253472,87.2826075 95.5871933,93.0629229 108.336791,93.0629229 C121.084839,93.0629229 131.419335,87.2826075 131.419335,80.1511705 C131.419335,79.1580185 131.217883,78.1912677 130.838998,77.2625658 C128.492855,83.0025029 119.309735,87.284937 108.336791,87.284937" id="Fill-5" fill="#D83318"></path>
                <path d="M126.70241,74.9366178 C126.70241,79.1429543 118.455268,82.6294691 108.281934,82.6294691 C98.1078248,82.6294691 89.860683,79.1429543 89.860683,74.9366178 C89.860683,66.9533531 98.1078248,58.3908144 108.281934,58.3908144 C118.455268,58.3908144 126.70241,66.9533531 126.70241,74.9366178" id="Fill-7" fill="#294C95"></path>
                <path d="M99.7608948,81.7496871 C102.30849,82.3103249 105.207077,82.6294691 108.282321,82.6294691 C111.38236,82.6294691 114.303417,82.3048893 116.867283,81.73571 C116.812271,77.0471629 113.004825,73.2640225 108.314089,73.2640225 C103.618704,73.2640225 99.8089334,77.0557044 99.7608948,81.7496871" id="Fill-9" fill="#87AE27"></path>
                <path d="M113.500242,66.122491 L113.500242,63.379093 C113.89075,63.1725423 114.157286,62.7617702 114.157286,62.2888777 C114.157286,61.6078814 113.606392,61.0557852 112.926879,61.0557852 C112.24814,61.0557852 111.697246,61.6078814 111.697246,62.2888777 C111.697246,62.7563347 111.957584,63.1640007 112.339568,63.3721045 L112.339568,65.7070599 C111.115359,65.3389958 109.738511,65.1316685 108.281856,65.1316685 C106.833725,65.1316685 105.464625,65.3366663 104.24429,65.7000714 L104.24429,63.379093 C104.635572,63.1725423 104.902109,62.7617702 104.902109,62.2888777 C104.902109,61.6078814 104.351215,61.0557852 103.671701,61.0557852 C102.992188,61.0557852 102.442068,61.6078814 102.442068,62.2888777 C102.442068,62.7563347 102.701631,63.1640007 103.085165,63.3721045 L103.085165,66.1131729 C100.653793,67.1288436 99.0584466,68.8387112 99.0584466,70.7768718 C99.0584466,73.8945459 103.187441,78.1583439 108.281856,78.1583439 C113.374722,78.1583439 117.504492,73.8945459 117.504492,70.7768718 C117.504492,68.8449232 115.917668,67.1404912 113.500242,66.122491" id="Fill-11" fill="#87AE27"></path>
                <path d="M106.150803,69.9822725 C106.150803,71.0150264 105.314776,71.852877 104.284271,71.852877 C103.252991,71.852877 102.417739,71.0150264 102.417739,69.9822725 C102.417739,68.9495187 103.252991,68.111668 104.284271,68.111668 C105.314776,68.111668 106.150803,68.9495187 106.150803,69.9822725" id="Fill-13" fill="#FEFEFE"></path>
                <path d="M105.848934,70.0766181 C105.848934,70.7234481 105.325159,71.2475901 104.679737,71.2475901 C104.03509,71.2475901 103.511314,70.7234481 103.511314,70.0766181 C103.511314,69.429788 104.03509,68.9056461 104.679737,68.9056461 C105.325159,68.9056461 105.848934,69.429788 105.848934,70.0766181" id="Fill-15" fill="#2A2422"></path>
                <path d="M114.240967,69.9822725 C114.240967,71.0150264 113.40649,71.852877 112.37521,71.852877 C111.344704,71.852877 110.509453,71.0150264 110.509453,69.9822725 C110.509453,68.9495187 111.344704,68.111668 112.37521,68.111668 C113.40649,68.111668 114.240967,68.9495187 114.240967,69.9822725" id="Fill-17" fill="#FEFEFE"></path>
                <path d="M113.94026,70.0766181 C113.94026,70.7234481 113.41726,71.2475901 112.771063,71.2475901 C112.125641,71.2475901 111.60264,70.7234481 111.60264,70.0766181 C111.60264,69.429788 112.125641,68.9056461 112.771063,68.9056461 C113.41726,68.9056461 113.94026,69.429788 113.94026,70.0766181" id="Fill-19" fill="#2A2422"></path>
                <path d="M108.329663,73.2168109 C107.612958,73.2168109 106.982258,72.9170794 106.616544,72.464376 C106.681629,73.1873037 107.423128,73.8387927 108.329663,73.8387927 C109.236972,73.8387927 109.977696,73.1873037 110.042781,72.464376 C109.677068,72.9170794 109.046367,73.2168109 108.329663,73.2168109" id="Fill-21" fill="#2A2422"></path>
                <path d="M108.306186,71.0848343 C107.911804,71.0848343 107.564687,70.9202149 107.363235,70.6709563 C107.398876,71.0685277 107.807204,71.4272737 108.306186,71.4272737 C108.805942,71.4272737 109.213495,71.0685277 109.249137,70.6709563 C109.047685,70.9202149 108.701342,71.0848343 108.306186,71.0848343" id="Fill-23" fill="#6F8D2C"></path>
                <path d="M90.3874029,83.5184139 C90.3874029,84.5876635 91.2528724,85.4550214 92.3197941,85.4550214 C93.3874906,85.4550214 94.2529601,84.5876635 94.2529601,83.5184139 C94.2529601,82.4483877 93.3874906,81.5810298 92.3197941,81.5810298 C91.2528724,81.5810298 90.3874029,82.4483877 90.3874029,83.5184139" id="Fill-25" fill="#EEDC33"></path>
                <path d="M90.7770579,83.9590038 C90.4562841,82.7251347 91.7045127,81.4384632 93.1371475,82.1148005 C93.1371475,82.1148005 93.1177771,82.114024 93.1371475,82.1148005 C92.0059161,82.1148005 91.14742,82.697957 90.7770579,83.9590038" id="Fill-27" fill="#FEFEFE"></path>
                <path d="M97.6630804,86.5372387 C97.6630804,87.7113168 98.6137796,88.6633139 99.7853015,88.6633139 C100.957598,88.6633139 101.908297,87.7113168 101.908297,86.5372387 C101.908297,85.3623842 100.957598,84.4103871 99.7853015,84.4103871 C98.6137796,84.4103871 97.6630804,85.3623842 97.6630804,86.5372387" id="Fill-29" fill="#EEDC33"></path>
                <path d="M98.0905464,87.0213906 C97.7395547,85.66561 99.1094294,84.2546975 100.683081,84.9962613 C100.683081,84.9962613 100.661386,84.9954848 100.683081,84.9962613 C99.4402759,84.9962613 98.4980996,85.6368793 98.0905464,87.0213906" id="Fill-31" fill="#FEFEFE"></path>
                <path d="M106.131897,87.4669501 C106.131897,88.7202319 107.145356,89.7359025 108.395909,89.7359025 C109.646462,89.7359025 110.659147,88.7202319 110.659147,87.4669501 C110.659147,86.2136684 109.646462,85.1979977 108.395909,85.1979977 C107.145356,85.1979977 106.131897,86.2136684 106.131897,87.4669501" id="Fill-33" fill="#EEDC33"></path>
                <path d="M106.587411,87.9837153 C106.2124,86.53786 107.674478,85.0314371 109.35273,85.8226973 C109.35273,85.8226973 109.33026,85.8219208 109.35273,85.8226973 C108.027794,85.8226973 107.022858,86.5067997 106.587411,87.9837153" id="Fill-35" fill="#FEFEFE"></path>
                <path d="M126.404261,83.5184139 C126.404261,84.5876635 125.538791,85.4550214 124.471095,85.4550214 C123.404173,85.4550214 122.538704,84.5876635 122.538704,83.5184139 C122.538704,82.4483877 123.404173,81.5810298 124.471095,81.5810298 C125.538791,81.5810298 126.404261,82.4483877 126.404261,83.5184139" id="Fill-37" fill="#EEDC33"></path>
                <path d="M126.015303,83.9590038 C126.334527,82.7251347 125.086299,81.4384632 123.655214,82.1148005 C123.655214,82.1148005 123.673809,82.114024 123.655214,82.1148005 C124.78567,82.1148005 125.643392,82.697957 126.015303,83.9590038" id="Fill-39" fill="#FEFEFE"></path>
                <path d="M119.127886,86.5372387 C119.127886,87.7113168 118.177962,88.6633139 117.00644,88.6633139 C115.834143,88.6633139 114.884219,87.7113168 114.884219,86.5372387 C114.884219,85.3623842 115.834143,84.4103871 117.00644,84.4103871 C118.177962,84.4103871 119.127886,85.3623842 119.127886,86.5372387" id="Fill-41" fill="#EEDC33"></path>
                <path d="M118.70073,87.0213906 C119.052497,85.66561 117.681072,84.2546975 116.10897,84.9962613 C116.10897,84.9962613 116.129891,84.9954848 116.10897,84.9962613 C117.351775,84.9962613 118.293177,85.6368793 118.70073,87.0213906" id="Fill-43" fill="#FEFEFE"></path>
                <path d="M107.302876,0.688528436 L0.122575895,44.214055 C0.122575895,44.214055 26.9676267,118.287353 108.256675,120.282198 C182.814896,122.112424 216.191646,60.5525312 216.191646,60.5525312 L197.062214,48.9196853 L196.17195,37.4522352 L160.411866,15.7348976 L149.33897,19.8573713 L115.508178,0.132549683 C115.508178,0.132549683 114.159223,2.49002384 110.864706,2.43411536 C108.419386,2.392184 107.302876,0.688528436 107.302876,0.688528436 Z" id="Stroke-45" stroke="#E30613" stroke-width="0.25"></path>
                <path d="M27.4249231,42.5633572 L70.8890027,21.8624668" id="Stroke-47" stroke="#E30613" stroke-width="0.25"></path>
                <path d="M149.322622,20.046606 L150.649107,20.8495138" id="Stroke-49" stroke="#E30613" stroke-width="0.25"></path>
                <path d="M153.301457,22.4530777 L194.409321,47.3152672" id="Stroke-51" stroke="#E30613" stroke-width="0.25" stroke-dasharray="3.998,3.998"></path>
                <path d="M195.735186,48.116855 L197.061671,48.9197629" id="Stroke-53" stroke="#E30613" stroke-width="0.25"></path>
            </g>
        </g>
    </g>
</svg>