<?xml version="1.0" encoding="UTF-8"?>
<svg width="200px" height="122px" viewBox="0 0 200 122" version="1.1" xmlns="http://www.w3.org/2000/svg" xmlns:xlink="http://www.w3.org/1999/xlink">
    <!-- Generator: Sketch 43.1 (39012) - http://www.bohemiancoding.com/sketch -->
    <title>Page 1</title>
    <desc>Created with Sketch.</desc>
    <defs>
        <polygon id="path-1" points="23.335 26.7191781 0.492495845 26.7191781 0.492495845 0.660958904 23.335 0.660958904 23.335 26.7191781"></polygon>
        <polygon id="path-3" points="25.9678082 0.444063865 25.9678082 19.6833805 0.0445890411 19.6833805 0.0445890411 0.444063865 25.9678082 0.444063865"></polygon>
        <polygon id="path-5" points="49.940411 0.481164384 49.940411 45.2123288 0.621849315 45.2123288 0.621849315 0.481164384 49.940411 0.481164384"></polygon>
        <polygon id="path-7" points="8.22504273 3.43150685 0.165064154 3.43150685 0.165064154 0.411864802 8.22504273 0.411864802 8.22504273 3.43150685"></polygon>
        <polygon id="path-9" points="3.36506849 0.373160853 3.36506849 8.85773574 0.571809013 8.85773574 0.571809013 0.373160853 3.36506849 0.373160853"></polygon>
    </defs>
    <g id="Page-1" stroke="none" stroke-width="1" fill="none" fill-rule="evenodd">
        <g id="SejaCriativa/Inventário" transform="translate(-815.000000, -424.000000)">
            <g id="Page-1" transform="translate(815.000000, 424.000000)">
                <polygon id="Fill-1" fill="#282B59" points="0 121.615753 199.939726 121.615753 199.939726 0 0 0"></polygon>
                <g id="Group-54" transform="translate(145.205479, 17.499315)">
                    <path d="M41.5826712,31.5338356 C41.7771918,31.9269863 40.3922603,33.0934247 40.3922603,33.0934247 C40.3922603,33.0934247 41.3771918,34.6263014 41.0011644,34.9578082 C40.6258219,35.2893151 39.1511644,34.3078082 39.1511644,34.3078082 C39.1511644,34.3078082 38.0237671,35.7413699 37.5655479,35.4626027 C37.1080137,35.1852055 37.6121233,33.5016438 37.6121233,33.5016438 C37.6121233,33.5016438 36.0429452,32.8721918 36.0237671,32.3509589 C36.0032192,31.8310959 37.9032192,31.79 37.9032192,31.79 C37.9032192,31.79 38.0593836,29.9927397 38.5066438,29.9228767 C38.9525342,29.8543836 39.6210274,31.5372603 39.6210274,31.5372603 C39.6210274,31.5372603 41.3881507,31.1420548 41.5826712,31.5338356" id="Fill-2" fill="#FEFEFE"></path>
                    <path d="M40.5586301,37.8199315 C40.6689041,38.0425342 39.8839726,38.7034932 39.8839726,38.7034932 C39.8839726,38.7034932 40.4421918,39.5726712 40.229863,39.7596575 C40.0161644,39.9473288 39.1805479,39.3911644 39.1805479,39.3911644 C39.1805479,39.3911644 38.5421918,40.2034932 38.2826027,40.0459589 C38.0236986,39.8891096 38.3093151,38.935 38.3093151,38.935 C38.3093151,38.935 37.420274,38.5781507 37.4086301,38.2829452 C37.3983562,37.9884247 38.4743836,37.9658219 38.4743836,37.9658219 C38.4743836,37.9658219 38.5627397,36.9466438 38.8154795,36.9076027 C39.0682192,36.8678767 39.4469863,37.8219863 39.4469863,37.8219863 C39.4469863,37.8219863 40.4483562,37.5973288 40.5586301,37.8199315" id="Fill-4" fill="#FEFEFE"></path>
                    <path d="M45.3143151,36.0273288 C45.445137,36.2917123 44.5129452,37.0759589 44.5129452,37.0759589 C44.5129452,37.0759589 45.1759589,38.1074658 44.9232192,38.3300685 C44.6704795,38.5533562 43.6780137,37.8930822 43.6780137,37.8930822 C43.6780137,37.8930822 42.9197945,38.8574658 42.6115753,38.6697945 C42.3033562,38.4834932 42.6437671,37.3513014 42.6437671,37.3513014 C42.6437671,37.3513014 41.5876027,36.9273288 41.5739041,36.5773288 C41.5615753,36.2273288 42.8389726,36.1999315 42.8389726,36.1999315 C42.8389726,36.1999315 42.9437671,34.9896575 43.2444521,34.9437671 C43.5444521,34.8971918 43.9944521,36.0293836 43.9944521,36.0293836 C43.9944521,36.0293836 45.1834932,35.7629452 45.3143151,36.0273288" id="Fill-6" fill="#FEFEFE"></path>
                    <path d="M21.005274,5.22445205 C28.1984247,7.92171233 32.3888356,13.8080137 32.1744521,14.3895205 C31.9600685,14.9717123 24.9511644,16.7306164 17.7285616,14.1141781 L21.005274,5.22445205 Z" id="Fill-8" fill="#EEDC33"></path>
                    <path d="M16.9619178,0.441643836 C19.5091781,-0.453561644 23.0393151,0.895753425 23.5447945,1.18273973 C24.09,1.49164384 24.1057534,2.13273973 23.5345205,2.44712329 C22.680411,2.9169863 21.7317808,3.43958904 20.5721918,5.37657534 L13.5858904,3.35191781 C13.959863,2.14917808 15.250274,1.04369863 16.9619178,0.441643836" id="Fill-10" fill="#D83318"></path>
                    <path d="M11.5326027,15.1706849 C12.8894521,17.5056164 16.4510959,18.7706849 17.0216438,18.880274 C17.6367123,18.9980822 18.0647945,18.5213699 17.8339726,17.9110959 C17.4894521,16.9987671 17.1072603,15.9857534 17.4826027,13.760411 L10.8531507,10.7658904 C10.3572603,11.9234247 10.6209589,13.6021918 11.5326027,15.1706849" id="Fill-12" fill="#D83318"></path>
                    <path d="M12.6917808,1.54767123 C6.87808219,-0.300273973 1.10616438,1.61205479 0.676027397,2.77917808 C0.245205479,3.9469863 3.31849315,9.11205479 9.01849315,11.5127397 C11.1157534,12.3956164 16.9746575,14.1490411 18.1280822,14.2661644 C18.3753425,14.2908219 19.5815068,12.720274 20.5493151,10.1045205 C20.5493151,10.1038356 20.55,10.1031507 20.55,10.1017808 C20.5527397,10.0942466 20.5547945,10.0873973 20.5575342,10.079863 C20.8321918,9.33191781 21.040411,8.67438356 21.1657534,8.08808219 C21.5445205,6.52438356 21.5561644,5.46684932 21.409589,5.36479452 C20.4554795,4.70520548 14.8609589,2.23671233 12.6917808,1.54767123" id="Fill-14" fill="#2C8DC5"></path>
                    <path d="M12.814863,7.24719178 C12.2491096,8.78280822 10.5388356,9.57184932 9.00321918,9.00609589 C7.46760274,8.43965753 6.67856164,6.73006849 7.245,5.19376712 C7.81075342,3.65815068 9.52034247,2.86979452 11.0566438,3.43623288 C12.5922603,4.0019863 13.3806164,5.71157534 12.814863,7.24719178" id="Fill-16" fill="#FEFEFE"></path>
                    <path d="M10.8269863,4.05828767 C12.0208219,4.49869863 12.6331507,5.8240411 12.1927397,7.01787671 C11.7523288,8.21239726 10.4269863,8.8240411 9.23246575,8.38363014 C8.03863014,7.94321918 7.4269863,6.61787671 7.86739726,5.42335616 C8.30712329,4.22952055 9.63246575,3.61787671 10.8269863,4.05828767" id="Fill-18" fill="#3E91C0"></path>
                    <path d="M5.51006849,4.22883562 C5.67171233,4.28842466 5.75458904,4.46856164 5.69568493,4.63020548 C5.63541096,4.79253425 5.45527397,4.87541096 5.29363014,4.81582192 C5.13130137,4.75623288 5.04842466,4.57609589 5.1080137,4.41445205 C5.16760274,4.25212329 5.34773973,4.16924658 5.51006849,4.22883562" id="Fill-20" fill="#FEFEFE"></path>
                    <path d="M5.93479452,2.78541096 C6.09712329,2.845 6.18,3.02513699 6.12041096,3.18678082 C6.06082192,3.34910959 5.88068493,3.4319863 5.7190411,3.37239726 C5.5560274,3.31280822 5.47315068,3.13267123 5.53342466,2.97034247 C5.5930137,2.80869863 5.77315068,2.72582192 5.93479452,2.78541096" id="Fill-22" fill="#FEFEFE"></path>
                    <path d="M6.24650685,1.34568493 C6.40815068,1.40527397 6.4910274,1.58541096 6.43212329,1.74705479 C6.37184932,1.91006849 6.19171233,1.99226027 6.03006849,1.93267123 C5.86773973,1.87308219 5.78417808,1.69363014 5.84445205,1.53130137 C5.9040411,1.3689726 6.08417808,1.28609589 6.24650685,1.34568493" id="Fill-24" fill="#FEFEFE"></path>
                    <path d="M4.68,6.19034247 C4.84164384,6.24993151 5.02178082,6.16705479 5.08205479,6.00472603 C5.14164384,5.84239726 5.05876712,5.66294521 4.89575342,5.60335616 C4.73410959,5.54308219 4.5539726,5.6259589 4.49438356,5.7889726 C4.43547945,5.94993151 4.51835616,6.13075342 4.68,6.19034247" id="Fill-26" fill="#FEFEFE"></path>
                    <path d="M3.98232877,7.48732877 C4.1439726,7.54691781 4.32410959,7.4640411 4.38438356,7.30171233 C4.4439726,7.13938356 4.36109589,6.95993151 4.19876712,6.90034247 C4.03643836,6.84075342 3.85630137,6.92294521 3.79671233,7.08527397 C3.73780822,7.24760274 3.82068493,7.42773973 3.98232877,7.48732877" id="Fill-28" fill="#FEFEFE"></path>
                    <path d="M19.3979452,9.34273973 C19.559589,9.40232877 19.6424658,9.58246575 19.5835616,9.74410959 C19.5239726,9.90643836 19.3438356,9.98931507 19.1821918,9.92972603 C19.0191781,9.87013699 18.9363014,9.69 18.9958904,9.52835616 C19.0561644,9.3660274 19.2356164,9.28315068 19.3979452,9.34273973" id="Fill-30" fill="#FEFEFE"></path>
                    <path d="M19.8547945,7.97123288 C20.0171233,8.03082192 20.1,8.2109589 20.040411,8.37328767 C19.9808219,8.53493151 19.8006849,8.61780822 19.6390411,8.55821918 C19.4760274,8.49863014 19.3931507,8.31849315 19.4527397,8.15684932 C19.5130137,7.99452055 19.6931507,7.91164384 19.8547945,7.97123288" id="Fill-32" fill="#FEFEFE"></path>
                    <path d="M20.1678767,6.53246575 C20.3302055,6.59205479 20.4130822,6.77219178 20.3534932,6.93383562 C20.2939041,7.09616438 20.1137671,7.1790411 19.9521233,7.11945205 C19.7891096,7.05986301 19.7062329,6.87972603 19.7665068,6.71808219 C19.8260959,6.55575342 20.0062329,6.47287671 20.1678767,6.53246575" id="Fill-34" fill="#FEFEFE"></path>
                    <path d="M18.6381507,11.2574658 C18.7997945,11.3170548 18.9799315,11.2341781 19.0395205,11.0718493 C19.0997945,10.9102055 19.0169178,10.7300685 18.8539041,10.6704795 C18.6922603,10.6108904 18.5121233,10.6937671 18.4525342,10.8560959 C18.3929452,11.0177397 18.4758219,11.1978767 18.6381507,11.2574658" id="Fill-36" fill="#FEFEFE"></path>
                    <path d="M17.9578767,12.5607534 C18.1195205,12.6203425 18.2996575,12.5374658 18.3592466,12.375137 C18.4188356,12.2134932 18.3366438,12.0333562 18.1736301,11.9737671 C18.0119863,11.9141781 17.8318493,11.9970548 17.7722603,12.1593836 C17.7126712,12.3210274 17.7955479,12.5011644 17.9578767,12.5607534" id="Fill-38" fill="#FEFEFE"></path>
                    <path d="M17.2575342,13.6617123 C17.4191781,13.7213014 17.5993151,13.6384247 17.6589041,13.4760959 C17.7184932,13.3144521 17.6356164,13.1343151 17.4732877,13.074726 C17.3116438,13.015137 17.1315068,13.0980137 17.0719178,13.2603425 C17.0123288,13.4219863 17.0952055,13.6021233 17.2575342,13.6617123" id="Fill-40" fill="#FEFEFE"></path>
                    <path d="M20.1217123,5.83013699 C20.2833562,5.88972603 20.4634932,5.80616438 20.5230822,5.64452055 C20.5833562,5.48219178 20.5004795,5.30205479 20.3381507,5.24315068 C20.1758219,5.18287671 19.9956849,5.26575342 19.9360959,5.42808219 C19.8771918,5.58972603 19.9593836,5.77054795 20.1217123,5.83013699" id="Fill-42" fill="#FEFEFE"></path>
                    <path d="M11.2650685,4.275 C11.6219178,4.88184932 11.6767123,5.7989726 11.3424658,6.70445205 C11.0089041,7.61061644 10.3726027,8.27294521 9.70753425,8.50308219 C10.759589,8.65308219 11.810274,8.05582192 12.1924658,7.01746575 C12.5746575,5.98047945 12.1636986,4.84417808 11.2650685,4.275" id="Fill-44" fill="#2A7495"></path>
                    <path d="M9.01363014,7.69664384 C8.36363014,7.13020548 8.18623288,6.26924658 8.37938356,5.6110274 C8.37938356,5.6110274 8.37390411,5.62472603 8.37938356,5.6110274 C8.28623288,5.72335616 8.20883562,5.85280822 8.15472603,5.9980137 C7.90678082,6.6719863 8.2519863,7.41993151 8.9259589,7.66856164 C8.95472603,7.67952055 8.98417808,7.68842466 9.01363014,7.69664384" id="Fill-46" fill="#FEFEFE"></path>
                    <path d="M16.1933562,13.0586986 C8.57006849,10.8586986 6.10020548,8.87308219 4.8919863,7.98952055 C7.56184932,11.2086986 14.4337671,12.6511644 16.1933562,13.0586986" id="Fill-48" fill="#FEFEFE"></path>
                    <path d="M3.16226027,7.38664384 C3.76020548,6.60513699 4.31363014,5.5489726 4.75746575,4.34349315 C5.215,3.10171233 5.48280822,1.90582192 5.52253425,0.905136986 C2.84719178,1.23184932 0.917739726,2.12294521 0.675958904,2.77910959 C0.432123288,3.44143836 1.31431507,5.3880137 3.16226027,7.38664384" id="Fill-50" fill="#D83318"></path>
                    <path d="M22.0360274,8.46952055 C21.9141096,9.04006849 21.7106849,9.67979452 21.4449315,10.4065068 C21.4421918,10.4140411 21.4394521,10.4215753 21.4367123,10.4291096 C21.4367123,10.4297945 21.4360274,10.4304795 21.4360274,10.4318493 C21.029863,11.5291096 20.5812329,12.4366438 20.1819178,13.1133562 C22.7956164,13.8222603 25.1880822,13.9208904 26.8449315,13.8592466 C28.0819178,13.8119863 29.0935616,13.6722603 29.8284932,13.525 C29.3641096,12.9359589 28.6860274,12.1736301 27.7750685,11.335274 C26.5552055,10.2126712 24.6723288,8.73527397 22.2223288,7.57842466 C22.1750685,7.8510274 22.1127397,8.1489726 22.0360274,8.46952055" id="Fill-52" fill="#E7B836"></path>
                </g>
                <text id="Venha-comemorar-" font-family="MarkerFelt-Wide, Marker Felt" font-size="14" font-weight="bold" letter-spacing="-0.798" fill="#EEDC33">
                    <tspan x="18.4771233" y="31.6867399">V</tspan>
                    <tspan x="25.1411233" y="31.6867399" letter-spacing="0.504">e</tspan>
                    <tspan x="32.4491233" y="31.6867399" letter-spacing="0.854">n</tspan>
                    <tspan x="41.1571233" y="31.6867399" letter-spacing="0.6146">h</tspan>
                    <tspan x="49.3877233" y="31.6867399">a </tspan>
                    <tspan x="18.4771233" y="47.6867399" letter-spacing="0.756">c</tspan>
                    <tspan x="26.2891233" y="47.6867399" letter-spacing="0.658">o</tspan>
                    <tspan x="34.3251233" y="47.6867399" letter-spacing="0.4326">m</tspan>
                    <tspan x="46.2517233" y="47.6867399" letter-spacing="0.5054">e</tspan>
                    <tspan x="53.5611233" y="47.6867399" letter-spacing="0.5866">m</tspan>
                    <tspan x="65.7957233" y="47.6867399" letter-spacing="0.644">o</tspan>
                    <tspan x="73.8037233" y="47.6867399" letter-spacing="0.392">r</tspan>
                    <tspan x="80.1877233" y="47.6867399" letter-spacing="0.686">a</tspan>
                    <tspan x="88.6997233" y="47.6867399">r </tspan>
                </text>
                <text id="comigo-meus-5-aninhos!" font-family="MarkerFelt-Wide, Marker Felt" font-size="14" font-weight="bold" letter-spacing="0.756" fill="#EEDC33">
                    <tspan x="18.4771233" y="43.1935892">c</tspan>
                    <tspan x="26.2891233" y="43.1935892" letter-spacing="0.658">o</tspan>
                    <tspan x="34.3251233" y="43.1935892" letter-spacing="0.6286">m</tspan>
                    <tspan x="46.6437233" y="43.1935892" letter-spacing="0.518">i</tspan>
                    <tspan x="51.0397233" y="43.1935892" letter-spacing="0.644">g</tspan>
                    <tspan x="58.7677233" y="43.1935892">o </tspan>
                    <tspan x="68.9877233" y="43.1935892" letter-spacing="0.434">m</tspan>
                    <tspan x="80.9157233" y="43.1935892" letter-spacing="0.476">e</tspan>
                    <tspan x="88.1677233" y="43.1935892" letter-spacing="0.462">u</tspan>
                    <tspan x="96.0917233" y="43.1935892">s 5 </tspan>
                    <tspan x="18.4771233" y="59.1935892" letter-spacing="0.7826">a</tspan>
                    <tspan x="27.1837233" y="59.1935892" letter-spacing="0.7434">n</tspan>
                    <tspan x="35.6691233" y="59.1935892" letter-spacing="0.7686">i</tspan>
                    <tspan x="40.5677233" y="59.1935892" letter-spacing="0.854">n</tspan>
                    <tspan x="49.2757233" y="59.1935892" letter-spacing="0.7">h</tspan>
                    <tspan x="57.6757233" y="59.1935892" letter-spacing="0.574">o</tspan>
                    <tspan x="65.5437233" y="59.1935892" letter-spacing="0.518">s</tspan>
                    <tspan x="72.3197233" y="59.1935892">!</tspan>
                </text>
                <text id="Local:-" font-family="MarkerFelt-Wide, Marker Felt" font-size="10" font-weight="bold" fill="#FEFEFE">
                    <tspan x="18.4771233" y="62.0566831">L</tspan>
                    <tspan x="23.2771233" y="62.0566831" letter-spacing="0.6">o</tspan>
                    <tspan x="29.2771233" y="62.0566831" letter-spacing="0.46">c</tspan>
                    <tspan x="18.4771233" y="73.0566831" letter-spacing="0.42">a</tspan>
                    <tspan x="24.4171233" y="73.0566831" letter-spacing="0.32">l</tspan>
                    <tspan x="27.3571233" y="73.0566831">: </tspan>
                </text>
                <text id="dd/mm/aaaa" font-family="MarkerFelt-Wide, Marker Felt" font-size="10" font-weight="bold" letter-spacing="-0.324" fill="#FEFEFE">
                    <tspan x="18.4771233" y="70.2758611">dd</tspan>
                    <tspan x="28.4291233" y="70.2758611" letter-spacing="-1.054">/</tspan>
                    <tspan x="32.7451233" y="70.2758611" letter-spacing="0.206">m</tspan>
                    <tspan x="41.3811233" y="70.2758611" letter-spacing="0.016">m</tspan>
                    <tspan x="49.6371233" y="70.2758611" letter-spacing="-1.684">/</tspan>
                    <tspan x="18.4771233" y="81.2758611" letter-spacing="0.036">aaaa</tspan>
                </text>
                <text id="00:00h" font-family="MarkerFelt-Wide, Marker Felt" font-size="10" font-weight="bold" fill="#FEFEFE">
                    <tspan x="18.4771233" y="62.0566831">00</tspan>
                    <tspan x="31.4771233" y="62.0566831" letter-spacing="-0.25">:</tspan>
                    <tspan x="33.0771233" y="62.0566831">0</tspan>
                    <tspan x="18.4771233" y="73.0566831">0h</tspan>
                </text>
                <text id="Pedro" font-family="MarkerFelt-Wide, Marker Felt" font-size="17" font-weight="bold" fill="#FEFEFE">
                    <tspan x="18.4771233" y="101.197005">P</tspan>
                    <tspan x="27.3171233" y="101.197005" letter-spacing="0.544">e</tspan>
                    <tspan x="36.0551233" y="101.197005" letter-spacing="0.493">d</tspan>
                    <tspan x="18.4771233" y="120.197005">ro</tspan>
                </text>
                <g id="Group-106" transform="translate(125.342466, 47.636301)">
                    <path d="M44.8615068,13.199863 C52.3073973,21.8142466 50.8142466,35.3060274 41.5258904,43.3354795 C32.2375342,51.3635616 18.6717808,50.8882192 11.2258904,42.2738356 C3.78,33.660137 5.27315068,20.1683562 14.5615068,12.139589 C23.849863,4.11013699 37.4156164,4.58547945 44.8615068,13.199863" id="Fill-55" fill="#D83318"></path>
                    <path d="M38.9365753,19.504726 C42.3036986,23.3999315 41.8756164,29.2869178 37.980411,32.6540411 L31.470137,38.2814384 C27.5742466,41.6485616 21.6872603,41.2197945 18.3208219,37.325274 C14.9536986,33.4293836 15.3817808,27.5423973 19.2776712,24.175274 L25.7879452,18.5485616 C29.6831507,15.1814384 35.570137,15.6095205 38.9365753,19.504726" id="Fill-57" fill="#ECB66A"></path>
                    <g id="Group-61" transform="translate(15.753425, 47.260274)">
                        <mask id="mask-2" fill="white">
                            <use xlink:href="#path-1"></use>
                        </mask>
                        <g id="Clip-60"></g>
                        <path d="M23.335,6.51643836 L10.3363699,0.660958904 C6.07267123,13.8232877 -0.532123288,29.7691781 0.626780822,32.2253425 C2.87130137,36.9815068 10.2911644,38.4952055 11.9466438,36.8726027 C12.6404795,36.1938356 13.8226712,34.0739726 15.1713014,31.1952055 C15.4623973,31.8821918 15.7630822,32.4746575 16.0596575,32.889726 C16.8486986,33.989726 19.5034932,33.1006849 19.7808904,31.9417808 C20.2288356,30.0691781 19.3233562,26.4835616 18.2076027,24.0931507 C20.644589,17.8917808 22.8939041,10.8917808 23.335,6.51643836" id="Fill-59" fill="#D83318" mask="url(#mask-2)"></path>
                    </g>
                    <path d="M32.1969863,32.7645205 C30.9606849,33.8330137 29.4284932,34.2563014 28.1236986,34.0220548 C29.3106849,35.17 31.5586301,35.1857534 33.1223288,33.8343836 C34.6867123,32.4823288 34.9956164,30.2569863 34.0312329,28.9158904 C34.0743836,30.239863 33.4339726,31.6953425 32.1969863,32.7645205" id="Fill-62" fill="#2A2422"></path>
                    <path d="M22.0132877,33.050137 C21.1858904,33.7652055 19.930411,33.6747945 19.2146575,32.8467123 C18.499589,32.0193151 18.5927397,30.7645205 19.4194521,30.0494521 C20.2475342,29.3336986 21.5016438,29.4247945 22.2167123,30.2521918 C22.9324658,31.080274 22.8413699,32.3343836 22.0132877,33.050137" id="Fill-64" fill="#FEFEFE"></path>
                    <path d="M19.7571918,32.430137 C20.1886986,32.9294521 20.9414384,32.9835616 21.4400685,32.5527397 C21.9407534,32.1205479 21.9955479,31.3671233 21.5640411,30.8678082 C21.1318493,30.3678082 20.3784247,30.3143836 19.8791096,30.7465753 C19.3804795,31.1773973 19.325,31.930137 19.7571918,32.430137" id="Fill-66" fill="#2A2422"></path>
                    <path d="M20.4634932,31.5612329 C20.6182877,31.7406849 20.8867808,31.7605479 21.0662329,31.6050685 C21.2436301,31.4523288 21.2641781,31.1817808 21.1093836,31.0036986 C20.9559589,30.8249315 20.685411,30.8064384 20.5073288,30.959863 C20.3292466,31.1146575 20.3093836,31.3831507 20.4634932,31.5612329" id="Fill-68" fill="#FEFEFE"></path>
                    <path d="M33.93,22.7494521 C33.1026027,23.4645205 31.8478082,23.3734247 31.1320548,22.5460274 C30.4169863,21.7186301 30.5094521,20.4638356 31.3361644,19.7487671 C32.1642466,19.0330137 33.4190411,19.1241096 34.1341096,19.9515068 C34.849863,20.7789041 34.7580822,22.0336986 33.93,22.7494521" id="Fill-70" fill="#FEFEFE"></path>
                    <path d="M31.674589,22.1286986 C32.1060959,22.6280137 32.8588356,22.6834932 33.3574658,22.2519863 C33.8581507,21.8191096 33.9129452,21.0663699 33.4814384,20.5670548 C33.0492466,20.0670548 32.2965068,20.0129452 31.7958219,20.4458219 C31.2971918,20.8766438 31.2423973,21.6293836 31.674589,22.1286986" id="Fill-72" fill="#2A2422"></path>
                    <path d="M32.3802055,21.2611644 C32.535,21.4399315 32.8041781,21.4591096 32.9829452,21.305 C33.1610274,21.1508904 33.1815753,20.8810274 33.0267808,20.7022603 C32.8726712,20.5241781 32.6028082,20.505 32.424726,20.6591096 C32.2466438,20.8139041 32.2260959,21.0823973 32.3802055,21.2611644" id="Fill-74" fill="#FEFEFE"></path>
                    <path d="M28.5361644,28.4569863 C27.8560274,29.0446575 27.0121918,29.2782192 26.2950685,29.1494521 C26.9484932,29.780274 28.1854795,29.789863 29.0457534,29.0460274 C29.9067123,28.3021918 30.0758904,27.0761644 29.5471233,26.3384932 C29.569726,27.0686301 29.2163014,27.8693151 28.5361644,28.4569863" id="Fill-76" fill="#CB9459"></path>
                    <path d="M20.3665068,65.7489726 C22.4541781,66.4297945 24.835,64.8743151 25.6829452,62.275 C26.5302055,59.6756849 25.5240411,57.0167808 23.4370548,56.335274 C23.3719863,56.314726 23.3062329,56.2955479 23.2404795,56.2784247 C22.1123973,59.4804795 20.9699315,62.6496575 19.945274,65.5763699 C20.0802055,65.6428082 20.2206164,65.7017123 20.3665068,65.7489726" id="Fill-78" fill="#EEDC33"></path>
                    <g id="Group-82" transform="translate(48.630137, 22.602740)">
                        <mask id="mask-4" fill="white">
                            <use xlink:href="#path-3"></use>
                        </mask>
                        <g id="Clip-81"></g>
                        <path d="M3.95623288,19.5073973 L0.0445890411,5.79712329 C13.6836301,3.48342466 30.4178767,-0.74260274 32.6802055,0.759452055 C37.0623973,3.6669863 37.4856849,11.2286301 35.6411644,12.6320548 C34.8685616,13.220411 32.5993836,14.0834247 29.5555479,15.0019178 C30.1939041,15.3882192 30.7377397,15.7717808 31.1041781,16.1258904 C32.0788356,17.0656164 30.815137,19.5635616 29.6281507,19.6690411 C27.7103425,19.8416438 24.2932192,18.4272603 22.0897945,16.9772603 C15.6014384,18.4916438 8.34869863,19.7046575 3.95623288,19.5073973" id="Fill-80" fill="#D83318" mask="url(#mask-4)"></path>
                    </g>
                    <path d="M67.1418493,25.3179452 C67.5130822,27.4823288 65.6295205,29.6124658 62.935,30.0747945 C60.2404795,30.5371233 57.754863,29.1569863 57.3829452,26.9932877 C57.3713014,26.9261644 57.3623973,26.8590411 57.354863,26.7912329 C60.6856849,26.1378082 63.9877397,25.4665753 67.0329452,24.8754795 C67.0781507,25.0186301 67.1158219,25.1665753 67.1418493,25.3179452" id="Fill-83" fill="#EEDC33"></path>
                    <g id="Group-87" transform="translate(24.657534, 28.767123)">
                        <mask id="mask-6" fill="white">
                            <use xlink:href="#path-5"></use>
                        </mask>
                        <g id="Clip-86"></g>
                        <path d="M22.8560959,0.481164384 L0.621849315,19.4996575 C12.1841781,32.5982877 24.5930822,62.3263699 27.075274,62.9291096 C32.1136301,64.155137 44.2143151,55.6140411 43.6410274,53.3921233 C43.024589,51.0058219 39.6602055,42.655137 34.5622603,35.0188356 C43.3643151,41.3284247 48.9691096,48.4599315 50.9266438,48.1770548 C56.0588356,47.4359589 64.0999315,34.9969178 62.7382877,33.1482877 C61.0780137,30.8928082 52.1595205,22.5695205 46.5060959,18.015411 C41.0841781,13.6476027 30.5410274,5.13321918 22.8560959,0.481164384" id="Fill-85" fill="#D83318" mask="url(#mask-6)"></path>
                    </g>
                    <path d="M49.5008219,28.2582877 C48.9556164,33.8007534 46.2439726,39.2569178 41.5254795,43.3356849 C36.909726,47.325411 31.2364384,49.2137671 25.7850685,49.0473288 L25.5206849,49.8589726 C31.4706849,51.3610274 37.4967123,49.4240411 42.8152055,44.8267808 C48.2405479,40.1377397 51.0446575,33.7774658 50.3213699,28.1993836 L49.5008219,28.2582877 Z" id="Fill-88" fill="#B32A18"></path>
                    <path d="M57.2678767,59.8173288 C57.6404795,60.2481507 57.5302055,60.9543151 57.0213014,61.3940411 C56.5117123,61.8337671 55.7980137,61.8406164 55.4260959,61.4097945 L43.9110274,48.0885616 C43.5384247,47.6577397 43.6486986,46.9522603 44.1576027,46.5118493 C44.6671918,46.0728082 45.3815753,46.065274 45.7534932,46.4960959 L57.2678767,59.8173288 Z" id="Fill-90" fill="#EEDC33"></path>
                    <path d="M3.12616438,31.7431507 C2.49534247,31.0136986 1.3939726,30.9328767 0.663835616,31.5636986 C-0.0663013699,32.1952055 -0.147123288,33.2979452 0.48369863,34.0273973 C0.965890411,34.5849315 1.72273973,34.7616438 2.37890411,34.5328767 L7.28986301,40.6589041 L8.80767123,39.3465753 L3.43643836,33.5075342 C3.65767123,32.9273973 3.56178082,32.2465753 3.12616438,31.7431507" id="Fill-92" fill="#EEDC33"></path>
                    <path d="M13.5432877,40.6994521 C14.6645205,41.9967123 14.409726,44.0549315 12.9727397,45.2973973 C11.5364384,46.5384932 9.46315068,46.4919178 8.34191781,45.1946575 L6.45630137,43.0138356 C5.33506849,41.7158904 5.58986301,39.6583562 7.02547945,38.4172603 C8.46246575,37.1754795 10.5357534,37.2206849 11.6576712,38.5179452 L13.5432877,40.6994521 Z" id="Fill-94" fill="#D83318"></path>
                    <path d="M35.7634247,3.53253425 C35.1326027,2.80308219 35.2141096,1.69965753 35.9435616,1.06952055 C36.6730137,0.43869863 37.7750685,0.518835616 38.4052055,1.24828767 C38.8880822,1.80582192 38.9531507,2.58047945 38.6319178,3.19691781 L43.9819178,8.94280822 L42.4641096,10.2544521 L37.4641096,4.09486301 C36.8586301,4.22979452 36.1990411,4.0359589 35.7634247,3.53253425" id="Fill-96" fill="#EEDC33"></path>
                    <path d="M43.1177397,15.1356164 C44.2396575,16.4328767 46.3129452,16.4787671 47.7492466,15.2369863 C49.1855479,13.9952055 49.4396575,11.9369863 48.3191096,10.640411 L46.4334932,8.45890411 C45.3122603,7.1609589 43.2396575,7.11575342 41.8026712,8.35753425 C40.3663699,9.59863014 40.1108904,11.6568493 41.2328082,12.9541096 L43.1177397,15.1356164 Z" id="Fill-98" fill="#D83318"></path>
                    <g id="Group-102" transform="translate(53.424658, 70.547945)">
                        <mask id="mask-8" fill="white">
                            <use xlink:href="#path-7"></use>
                        </mask>
                        <g id="Clip-101"></g>
                        <path d="M0.987123288,6.72842466 C2.52616438,9.64623288 4.47273973,9.82842466 6.2569863,8.88664384 C8.04260274,7.94486301 8.99191781,6.23664384 7.45219178,3.31883562 C5.91383562,0.401027397 3.80082192,-0.0976027397 2.01589041,0.844178082 C0.230273973,1.78527397 -0.55260274,3.81061644 0.987123288,6.72842466" id="Fill-100" fill="#EEDC33" mask="url(#mask-8)"></path>
                    </g>
                    <g id="Group-105" transform="translate(71.232877, 54.794521)">
                        <mask id="mask-10" fill="white">
                            <use xlink:href="#path-9"></use>
                        </mask>
                        <g id="Clip-104"></g>
                        <path d="M2.6740411,7.46356164 C5.19664384,9.58958904 7.06924658,9.02863014 8.36993151,7.48479452 C9.6719863,5.94232877 9.9089726,4.00191781 7.38773973,1.87520548 C4.86582192,-0.250821918 2.72061644,0.08 1.41856164,1.62383562 C0.118561644,3.16767123 0.152808219,5.33684932 2.6740411,7.46356164" id="Fill-103" fill="#EEDC33" mask="url(#mask-10)"></path>
                    </g>
                </g>
            </g>
        </g>
    </g>
</svg>