<?xml version="1.0" encoding="UTF-8"?>
<svg width="200px" height="202px" viewBox="0 0 200 202" version="1.1" xmlns="http://www.w3.org/2000/svg" xmlns:xlink="http://www.w3.org/1999/xlink">
    <!-- Generator: Sketch 43.1 (39012) - http://www.bohemiancoding.com/sketch -->
    <title>Page 1</title>
    <desc>Created with Sketch.</desc>
    <defs>
        <polygon id="path-1" points="5.44172999e-15 201.137615 5.44172999e-15 0.931192661 199.074074 0.931192661 199.074074 201.137615 0 201.137615"></polygon>
    </defs>
    <g id="Page-1" stroke="none" stroke-width="1" fill="none" fill-rule="evenodd">
        <g id="SejaCriativa/Inventário" transform="translate(-552.000000, -87.000000)">
            <g id="Page-1" transform="translate(552.000000, 87.000000)">
                <g id="Group-3">
                    <mask id="mask-2" fill="white">
                        <use xlink:href="#path-1"></use>
                    </mask>
                    <g id="Clip-2"></g>
                    <path d="M199.074074,101.034404 C199.074074,156.319671 154.509962,201.137615 99.5378106,201.137615 C44.5656589,201.137615 0,156.319671 0,101.034404 C0,45.7491366 44.5656589,0.931192661 99.5378106,0.931192661 C154.509962,0.931192661 199.074074,45.7491366 199.074074,101.034404" id="Fill-1" fill="#282B59" mask="url(#mask-2)"></path>
                </g>
                <path d="M134.748884,148.676223 C135.664315,147.478146 141.301689,150.028992 141.301689,150.028992 C141.301689,150.028992 144.541506,144.655799 146.117044,145.323502 C147.692582,145.994362 146.872119,152.060513 146.872119,152.060513 C146.872119,152.060513 152.946971,153.406968 152.77416,155.250649 C152.602905,157.09433 146.68841,158.060368 146.68841,158.060368 C146.68841,158.060368 147.088522,163.891324 145.519212,164.737397 C143.953015,165.58347 141.00433,159.736729 141.00433,159.736729 C141.00433,159.736729 135.256419,161.959248 134.379909,160.672776 C133.504956,159.38946 137.675772,154.772366 137.675772,154.772366 C137.675772,154.772366 133.835009,149.872721 134.748884,148.676223" id="Fill-4" fill="#FEFEFE"></path>
                <path d="M154.898763,141.627099 C155.402099,140.942493 158.503736,142.402455 158.503736,142.402455 C158.503736,142.402455 160.284306,139.32969 161.151918,139.711795 C162.018019,140.095493 161.566074,143.561508 161.566074,143.561508 C161.566074,143.561508 164.908043,144.330495 164.812818,145.38447 C164.719104,146.436852 161.464803,146.989313 161.464803,146.989313 C161.464803,146.989313 161.685484,150.319999 160.822407,150.805592 C159.962352,151.288 158.338981,147.946169 158.338981,147.946169 C158.338981,147.946169 155.178394,149.218262 154.696219,148.482709 C154.214045,147.75034 156.508531,145.110628 156.508531,145.110628 C156.508531,145.110628 154.395427,142.311705 154.898763,141.627099" id="Fill-6" fill="#FEFEFE"></path>
                <path d="M142.910525,129.845976 C143.506215,129.046576 147.170609,130.750191 147.170609,130.750191 C147.170609,130.750191 149.275078,127.164622 150.299483,127.612036 C151.323889,128.057885 150.789874,132.103383 150.789874,132.103383 C150.789874,132.103383 154.740078,133.001339 154.627258,134.230945 C154.515942,135.457423 150.671037,136.103513 150.671037,136.103513 C150.671037,136.103513 150.931275,139.989444 149.911382,140.554186 C148.894498,141.118929 146.976558,137.218919 146.976558,137.218919 C146.976558,137.218919 143.23996,138.701955 142.671347,137.844673 C142.10123,136.988955 144.813423,133.911811 144.813423,133.911811 C144.813423,133.911811 142.314836,130.645377 142.910525,129.845976" id="Fill-8" fill="#FEFEFE"></path>
                <path d="M29.9479848,101.748742 C30.5443545,101.007584 34.2089104,102.585633 34.2089104,102.585633 C34.2089104,102.585633 36.3129922,99.2581417 37.3378528,99.6734991 C38.3627133,100.087312 37.8286986,103.844058 37.8286986,103.844058 C37.8286986,103.844058 41.7762503,104.676316 41.6643311,105.818935 C41.5524118,106.96001 37.7087851,107.559113 37.7087851,107.559113 C37.7087851,107.559113 37.9693971,111.16917 36.9493331,111.691069 C35.9308679,112.216056 34.0138511,108.596734 34.0138511,108.596734 C34.0138511,108.596734 30.278946,109.970965 29.7081578,109.175764 C29.1389685,108.380563 31.850612,105.522472 31.850612,105.522472 C31.850612,105.522472 29.3532139,102.488356 29.9479848,101.748742" id="Fill-10" fill="#FEFEFE"></path>
                <path d="M91.6760233,53.0768857 C90.1635774,52.9837067 89.05845,46.9224098 89.05845,46.9224098 C89.05845,46.9224098 82.7671173,47.2236887 82.422949,45.5526779 C82.0787807,43.881667 87.5649492,41.2027695 87.5649492,41.2027695 C87.5649492,41.2027695 85.2141852,35.4474105 86.8387225,34.5715275 C88.4616811,33.6925385 92.6311691,38.0377879 92.6311691,38.0377879 C92.6311691,38.0377879 97.2269206,34.4830074 98.8198829,35.3091949 C100.414424,36.1322765 97.2584957,41.8006683 97.2584957,41.8006683 C97.2584957,41.8006683 102.372078,45.3119653 101.808463,46.7453696 C101.246427,48.1787739 95.0498195,47.2904671 95.0498195,47.2904671 C95.0498195,47.2904671 93.1868904,53.1700648 91.6760233,53.0768857" id="Fill-12" fill="#FEFEFE"></path>
                <path d="M75.6663175,39.1094887 C74.8016068,39.0582284 74.1725816,35.7232919 74.1725816,35.7232919 C74.1725816,35.7232919 70.5751941,35.8891341 70.3793204,34.9709712 C70.1818542,34.0528083 73.3174257,32.5783201 73.3174257,32.5783201 C73.3174257,32.5783201 71.9749743,29.4137488 72.9033838,28.9312986 C73.8286083,28.4488485 76.2125344,30.8384843 76.2125344,30.8384843 C76.2125344,30.8384843 78.8385158,28.8830536 79.7494081,29.3368583 C80.6587079,29.7906629 78.8544405,32.9069892 78.8544405,32.9069892 C78.8544405,32.9069892 81.7798061,34.8382974 81.4565349,35.6268019 C81.1364486,36.4153063 77.5947975,35.9268255 77.5947975,35.9268255 C77.5947975,35.9268255 76.5310282,39.1607491 75.6663175,39.1094887" id="Fill-14" fill="#FEFEFE"></path>
                <path d="M72.8446565,56.8019613 C71.8355012,56.7357126 71.1017123,52.4925685 71.1017123,52.4925685 C71.1017123,52.4925685 66.9055037,52.7042409 66.6770748,51.534387 C66.4470812,50.3661489 70.1050737,48.4901816 70.1050737,48.4901816 C70.1050737,48.4901816 68.5389272,44.4619415 69.6200533,43.8479298 C70.7011793,43.2339181 73.4830059,46.2748919 73.4830059,46.2748919 C73.4830059,46.2748919 76.5464572,43.7865286 77.6088083,44.3633765 C78.6711594,44.9418401 76.5667968,48.908679 76.5667968,48.908679 C76.5667968,48.908679 79.9775852,51.3663417 79.600521,52.3697661 C79.2265859,53.3715747 75.0945252,52.7510997 75.0945252,52.7510997 C75.0945252,52.7510997 73.8538118,56.8682099 72.8446565,56.8019613" id="Fill-16" fill="#FEFEFE"></path>
                <path d="M104.62963,125.734836 C82.1548653,149.546418 52.2817008,156.118696 50.3772692,154.289929 C48.4728376,152.458028 53.3180946,121.837541 75.5333744,97.7752294 L104.62963,125.734836 Z" id="Fill-18" fill="#EEDC33"></path>
                <path d="M129.555292,117.89064 C128.797655,129.463855 117.790526,141.117059 115.853662,142.625858 C113.765577,144.253856 111.277288,143.23126 111.009976,140.444216 C110.609772,136.27698 110.165271,131.647067 104.62963,123.792525 L123.931056,99.6376147 C127.937675,103.150828 130.063948,110.114519 129.555292,117.89064" id="Fill-20" fill="#2D89C2"></path>
                <path d="M81.6965029,71.017631 C70.3288233,72.4202531 59.4442817,84.3143633 58.0630026,86.3775954 C56.5748756,88.6036318 57.7207799,91.0957907 60.4833381,91.217894 C64.6132389,91.4010489 69.2015013,91.6029889 77.2491557,96.8440367 L100,75.7812237 C96.3160728,71.8723538 89.3337996,70.0736788 81.6965029,71.017631" id="Fill-22" fill="#2D89C2"></path>
                <path d="M133.03106,98.8565415 C150.0237,79.1893222 152.225931,53.376097 148.378247,49.7289481 C144.529008,46.0833551 119.150471,49.445765 100.187332,67.7359677 C93.2089345,74.4685672 76.5102366,94.46876 74.1167099,98.7896356 C73.603478,99.7154264 77.7264405,107.07663 86.3425145,115.259376 C86.345625,115.260932 86.3487355,115.264044 86.3534012,115.267156 C86.3782852,115.292051 86.4016139,115.313834 86.4264979,115.337173 C88.8931212,117.664876 91.1171259,119.586475 93.2027135,121.061517 C98.6880732,125.172339 102.807925,126.992801 103.454908,126.586698 C107.635415,123.960253 126.691869,106.194406 133.03106,98.8565415" id="Fill-24" fill="#D83318"></path>
                <path d="M110.382478,89.6794282 C105.37503,84.9097192 105.159656,76.9344191 109.902501,71.900156 C114.643808,66.8643457 122.57419,66.6477517 127.581638,71.4174608 C132.587547,76.1856227 132.802921,84.1609228 128.061614,89.1967331 C123.318769,94.2309962 115.388387,94.4491373 110.382478,89.6794282" id="Fill-26" fill="#FEFEFE"></path>
                <path d="M126.040174,87.2713477 C122.348292,91.1917825 116.193617,91.3606199 112.296887,87.6477466 C108.397078,83.9348734 108.230735,77.7452023 111.922616,73.8247675 C115.616038,69.9043327 121.769174,69.7354953 125.667443,73.4499176 C129.565713,77.1627908 129.732055,83.3509129 126.040174,87.2713477" id="Fill-28" fill="#3E91C0"></path>
                <path d="M134.804083,66.6100825 C134.277189,67.1692394 133.396871,67.1936923 132.840795,66.6638789 C132.284719,66.1340656 132.260401,65.2488697 132.787295,64.6880826 C133.31581,64.1289258 134.194507,64.1044729 134.750583,64.6342862 C135.30828,65.1640996 135.332598,66.0492954 134.804083,66.6100825" id="Fill-30" fill="#FEFEFE"></path>
                <path d="M139.434422,70.333974 C138.906018,70.8948433 138.027506,70.9176693 137.471548,70.3894088 C136.913968,69.8578874 136.889655,68.9741923 137.418059,68.4133231 C137.944842,67.8540843 138.824974,67.8279974 139.380933,68.3611492 C139.938512,68.8894098 139.961205,69.7747353 139.434422,70.333974" id="Fill-32" fill="#FEFEFE"></path>
                <path d="M144.063509,74.0591903 C143.536845,74.6197777 142.656912,74.6425923 142.101079,74.1129675 C141.543626,73.5817132 141.519318,72.698462 142.047602,72.1378746 C142.574266,71.5789168 143.452579,71.5528429 144.010032,72.0857269 C144.567486,72.6153517 144.591793,73.4986028 144.063509,74.0591903" id="Fill-34" fill="#FEFEFE"></path>
                <path d="M128.157555,60.0321546 C127.630814,60.5929871 127.655126,61.4782547 128.211039,62.0064806 C128.768573,62.5379672 129.647014,62.5135123 130.175375,61.9543102 C130.702115,61.3934777 130.679425,60.5098405 130.12027,59.9783539 C129.565977,59.4484976 128.685916,59.4729525 128.157555,60.0321546" id="Fill-36" fill="#FEFEFE"></path>
                <path d="M124.453826,54.4453969 C123.92712,55.0059843 123.95143,55.8892355 124.507307,56.4188602 C125.064805,56.9517442 125.943188,56.9256704 126.471514,56.3667126 C126.99822,55.8061251 126.975531,54.922874 126.418033,54.3916196 C125.860536,53.8619949 124.982153,53.8848095 124.453826,54.4453969" id="Fill-38" fill="#FEFEFE"></path>
                <path d="M91.2848772,112.238459 C90.7580945,112.797698 89.879583,112.822154 89.3236247,112.292263 C88.7660454,111.760742 88.7417324,110.877047 89.2685151,110.317808 C89.7969187,109.756939 90.6754301,109.732482 91.2330094,110.264004 C91.7905886,110.793895 91.8132808,111.67759 91.2848772,112.238459" id="Fill-40" fill="#FEFEFE"></path>
                <path d="M95.9151942,115.963265 C95.3883002,116.522458 94.5096033,116.546913 93.9519063,116.017065 C93.3958305,115.487217 93.3715123,114.601963 93.8984063,114.04277 C94.4269214,113.481946 95.3056184,113.457492 95.8616942,113.98734 C96.4193912,114.518818 96.4437094,115.402441 95.9151942,115.963265" id="Fill-42" fill="#FEFEFE"></path>
                <path d="M100.544904,119.687503 C100.018121,120.248254 99.1379886,120.271076 98.5820301,119.741296 C98.0244506,119.211517 98.0017584,118.328008 98.5285413,117.767257 C99.0569451,117.206506 99.9354569,117.182055 100.491415,117.713464 C101.048995,118.243244 101.073308,119.126752 100.544904,119.687503" id="Fill-44" fill="#FEFEFE"></path>
                <path d="M84.6396216,105.661753 C84.1128814,106.222504 84.1355718,107.104382 84.693106,107.635792 C85.2490194,108.165571 86.1290806,108.14275 86.6574415,107.581999 C87.1841817,107.022878 87.1598706,106.137739 86.6023364,105.60796 C86.0448022,105.07655 85.1679825,105.101002 84.6396216,105.661753" id="Fill-46" fill="#FEFEFE"></path>
                <path d="M80.9357361,101.00473 C80.4089959,101.56569 80.4316863,102.447896 80.9908413,102.979503 C81.5451341,103.509479 82.4251954,103.486649 82.9535564,102.927321 C83.4802966,102.366361 83.4559856,101.480893 82.900072,100.950917 C82.3425377,100.420941 81.4624764,100.445402 80.9357361,101.00473" id="Fill-48" fill="#FEFEFE"></path>
                <path d="M78.1583373,96.3499182 C77.6313241,96.909157 77.6540262,97.792852 78.2118494,98.3243734 C78.7680511,98.8542644 79.646947,98.8298079 80.1755818,98.2705691 C80.702595,97.7096999 80.6782713,96.8260048 80.1220697,96.2961139 C79.5642464,95.7645925 78.6853505,95.789049 78.1583373,96.3499182" id="Fill-50" fill="#FEFEFE"></path>
                <path d="M104.083511,120.560295 C103.556728,121.119534 103.581042,122.004859 104.137,122.53475 C104.69458,123.066271 105.573091,123.040184 106.099874,122.480946 C106.628278,121.920077 106.605586,121.038012 106.046385,120.506491 C105.490427,119.9766 104.611915,119.999426 104.083511,120.560295" id="Fill-52" fill="#FEFEFE"></path>
                <path d="M125,88.613717 C121.950976,88.9928892 118.176753,87.6657865 115.118166,84.8421969 C112.057985,82.0154993 110.496018,78.4149175 110.719156,75.4266055 C108.30767,79.2898107 108.894205,84.4024193 112.400662,87.6393688 C115.905525,90.8763182 121.17318,91.1715753 125,88.613717" id="Fill-54" fill="#2A7495"></path>
                <path d="M114.814815,73.5599224 C118.13373,72.0982186 121.816213,72.787002 124.074074,74.4954128 C124.074074,74.4954128 124.030384,74.4554834 124.074074,74.4954128 C123.791646,73.9863121 123.414036,73.5100106 122.933441,73.0936033 C120.703666,71.1641543 117.185023,71.2511435 115.073837,73.2903985 C114.981775,73.3773877 114.897515,73.467229 114.814815,73.5599224" id="Fill-56" fill="#FEFEFE"></path>
                <path d="M82.4074074,93.1192661 C103.858779,67.22599 115.799061,60.9498122 121.296296,57.733945 C104.178205,62.7333248 86.9650643,86.9740025 82.4074074,93.1192661" id="Fill-58" fill="#FEFEFE"></path>
                <path d="M125.925926,51.7068431 C128.001443,55.3355524 131.242768,59.2501694 135.255539,62.9886054 C139.389289,66.839859 143.667588,69.8751167 147.554664,71.7018349 C150.800704,60.7492528 150.546174,51.754752 148.362246,49.7193984 C146.157894,47.667045 136.964973,47.8524986 125.925926,51.7068431" id="Fill-60" fill="#2D89C2"></path>
                <path d="M90.3385221,124.073657 C88.3052563,122.632819 86.1379976,120.754415 83.7354721,118.480641 C83.7105432,118.4572 83.6856143,118.435322 83.6606853,118.411881 C83.6575692,118.408755 83.6544531,118.407193 83.652895,118.404067 C80.0319682,114.956681 77.2274637,111.659318 75.2440558,108.949541 C68.0676405,118.035262 63.6583362,127.277257 61.1171436,133.89855 C59.2178708,138.844596 58.066466,143.05772 57.4074074,146.197248 C60.4970365,145.367437 64.6305645,143.98442 69.451196,141.815348 C75.9031144,138.908668 84.8635061,133.993877 93.5185185,126.311489 C92.5307097,125.664518 91.464998,124.919095 90.3385221,124.073657" id="Fill-62" fill="#E7B836"></path>
            </g>
        </g>
    </g>
</svg>