<?xml version="1.0" encoding="UTF-8"?>
<svg width="87px" height="87px" viewBox="0 0 87 87" version="1.1" xmlns="http://www.w3.org/2000/svg" xmlns:xlink="http://www.w3.org/1999/xlink">
    <!-- Generator: Sketch 43.1 (39012) - http://www.bohemiancoding.com/sketch -->
    <title>Star</title>
    <desc>Created with Sketch.</desc>
    <defs>
        <linearGradient x1="0%" y1="0%" x2="100%" y2="100%" id="linearGradient-1">
            <stop stop-color="#630C17" stop-opacity="0" offset="0%"></stop>
            <stop stop-color="#630C17" offset="100%"></stop>
        </linearGradient>
        <polygon id="path-2" points="597 192 585 199 578 187 564 188 565 174 553 167 560 156 553 144 565 137 564 123 578 124 585 112 597 119 608 112 615 124 629 123 628 137 640 144 633 156 640 167 628 174 629 188 615 187 608 199"></polygon>
    </defs>
    <g id="Page-1" stroke="none" stroke-width="1" fill="none" fill-rule="evenodd">
        <g id="SejaCriativa/Escolha-de-Coleções" transform="translate(-553.000000, -112.000000)">
            <g id="Star">
                <use fill="#E14559" fill-rule="evenodd" xlink:href="#path-2"></use>
                <use fill-opacity="0.0899999961" fill="url(#linearGradient-1)" fill-rule="evenodd" xlink:href="#path-2"></use>
                <path stroke="#E14559" stroke-width="1" d="M585.179954,198.316175 L578.431889,186.748064 L578.274984,186.479084 L577.964376,186.501271 L564.539833,187.460167 L565.498729,174.035624 L565.520916,173.725016 L565.251936,173.568111 L553.700851,166.829978 L560.421831,156.268438 L560.585453,156.011317 L560.431889,155.748064 L553.683825,144.179954 L565.251936,137.431889 L565.520916,137.274984 L565.498729,136.964376 L564.539833,123.539833 L577.964376,124.498729 L578.274984,124.520916 L578.431889,124.251936 L585.179954,112.683825 L596.748064,119.431889 L597.011317,119.585453 L597.268438,119.421831 L607.829978,112.700851 L614.568111,124.251936 L614.725016,124.520916 L615.035624,124.498729 L628.460167,123.539833 L627.501271,136.964376 L627.479084,137.274984 L627.748064,137.431889 L639.316175,144.179954 L632.568111,155.748064 L632.414547,156.011317 L632.578169,156.268438 L639.299149,166.829978 L627.748064,173.568111 L627.479084,173.725016 L627.501271,174.035624 L628.460167,187.460167 L615.035624,186.501271 L614.725016,186.479084 L614.568111,186.748064 L607.829978,198.299149 L597.268438,191.578169 L597.011317,191.414547 L596.748064,191.568111 L585.179954,198.316175 Z"></path>
            </g>
        </g>
    </g>
</svg>