<?xml version="1.0" encoding="UTF-8"?>
<svg width="125px" height="127px" viewBox="0 0 125 127" version="1.1" xmlns="http://www.w3.org/2000/svg" xmlns:xlink="http://www.w3.org/1999/xlink">
    <!-- Generator: Sketch 43.1 (39012) - http://www.bohemiancoding.com/sketch -->
    <title>Page 1 Copy 12</title>
    <desc>Created with Sketch.</desc>
    <defs></defs>
    <g id="Page-1" stroke="none" stroke-width="1" fill="none" fill-rule="evenodd">
        <g id="SejaCriativa/Escolha-de-Coleções" transform="translate(-679.000000, -112.000000)">
            <g id="Page-1-Copy-12" transform="translate(679.000000, 112.000000)">
                <path d="M68.6033509,123.328196 C61.5154812,123.328196 55.8163992,121.255854 52.2058577,117.429522 C52.0925498,117.899395 51.9088072,118.360086 51.6454428,118.811593 C50.2153132,121.257385 47.0426915,122.662414 42.943701,122.662414 C40.1645946,122.662414 34.607913,121.978266 28.6148429,117.397381 C25.4131286,114.946998 20.3295842,109.03761 22.7580485,103.43739 C22.7764227,101.256381 23.6063267,97.4989229 25.5233742,89.3013889 C26.1940345,86.4301092 26.9136929,83.3491466 27.6195706,80.1579855 C26.6625781,82.3022621 25.2477603,84.6990765 23.5006747,85.955644 C22.7672356,86.4821473 21.8546475,86.7591738 20.8609064,86.7591738 C19.1811931,86.7591738 17.3789847,85.975541 16.2688734,84.7618284 C16.1004427,84.5781645 15.9488551,84.3853173 15.8141105,84.1848175 C13.5724512,84.999061 12.7394848,85.048038 12.3505631,85.0725266 C12.2893156,85.0771182 12.1392591,85.0817098 12.0780116,85.0817098 C9.39077651,85.0817098 7.21036468,82.7384639 6.14925134,81.342618 C4.05764842,78.5907199 2.24931529,74.1139113 3.44823556,69.8069918 C4.14033258,67.3290591 7.06030825,65.1893741 19.066354,58.3524838 L26.1312558,54.3394266 C27.3347697,53.6522174 28.5382835,52.958886 29.731079,52.2655546 C27.8431241,49.8564959 26.4528053,47.1505138 25.6106519,44.2425013 C22.6278975,43.6226355 20.3893005,41.0987868 20.3893005,38.0897592 L20.3893005,35.0822621 C20.3893005,33.1859319 21.297295,31.4258191 22.7840787,30.2519004 L22.9035113,27.0056402 C22.2068208,26.1561945 21.8071807,25.0741077 21.8071807,23.9170249 C21.8071807,21.2248176 23.9983108,19.034625 26.6916707,19.034625 C28.5934063,19.034625 30.2455582,20.1274255 31.0509631,21.7176491 C35.926266,16.4373108 43.1167252,13.186459 50.9165973,13.186459 C58.7225942,13.186459 66.0079871,16.4847573 70.9123825,21.875294 C71.6871637,20.1993605 73.3852512,19.034625 75.3497656,19.034625 C75.7203131,19.034625 76.086267,19.0790105 76.4399715,19.1601287 C77.6281734,17.753569 78.9419328,16.285788 80.3720625,14.7766826 L81.6659164,13.4298137 L82.6902812,12.3921124 L83.6916782,11.3987966 L84.6792945,10.440683 L86.579499,8.66067327 L87.8565098,7.50971256 L88.7262246,6.74903772 L89.5331608,6.063359 C89.7597766,5.87357292 89.9955796,5.67919525 90.2221954,5.49706184 C90.536089,5.24299338 91.1868439,4.74250914 91.1868439,4.74250914 L91.8513795,4.25733022 C91.9355949,4.1961089 92.4271062,3.87163594 92.4271062,3.87163594 C92.5281647,3.80735356 92.6567845,3.73082691 92.7838731,3.6604224 C92.8114345,3.64511707 92.9722092,3.55634617 93.0013018,3.54104084 C93.1773884,3.44920886 93.3305072,3.38492648 93.4744389,3.32829677 C93.5923404,3.28085025 93.7944572,3.21197627 93.9169523,3.17983508 C94.1680671,3.1063695 94.4819607,3.06198405 94.801979,3.06198405 C95.1924319,3.06198405 95.6272893,3.14463282 95.9886497,3.28850291 C96.3591972,3.41553714 97.0528254,3.79970089 97.5749606,4.64608557 C97.6392705,4.7501618 97.7219546,4.90933722 97.774015,5.02106612 C97.8122947,5.09606223 97.879667,5.24299338 97.9516328,5.42971839 C97.9669447,5.47104278 98.0144116,5.6072602 98.0281923,5.64858459 C98.0894398,5.83224854 98.1307819,5.96846596 98.1721239,6.12151925 L98.3405546,6.81178957 C98.3405546,6.81178957 98.547265,7.84949085 98.547265,7.85255192 L98.6850719,8.68822286 C98.7356011,9.0157569 98.856565,9.90040489 98.8580962,9.90652702 L98.9974343,11.0421824 L99.1291165,12.2467118 L99.247018,13.4818518 L99.3557323,14.7629078 L99.4521972,16.0822271 C99.4843521,16.5505702 99.5149759,17.0357491 99.5425373,17.5285807 L99.6282838,19.3162431 L99.6834066,20.8284095 L99.710968,21.9028436 L96.6547165,22.2166029 L99.7170927,22.1584426 C99.8150887,27.3148078 99.6145031,34.4394383 98.1108764,39.1136857 C96.7772116,43.2629603 93.5004691,50.7166553 90.4932157,57.2612139 C95.803376,58.5346172 100.661836,61.0309163 104.3275,64.4042108 C108.536736,64.8036798 112.108998,66.0005565 114.967726,67.9734134 C115.111658,68.04994 115.249465,68.1341193 115.382678,68.2320734 C115.489861,68.3116612 115.592451,68.3943099 115.69504,68.4800198 L115.982904,68.7111302 C116.681125,69.2804885 117.238478,69.8024002 117.742239,70.3579836 C117.778987,70.3962469 117.901482,70.5416475 117.935169,70.5814414 C118.533863,71.2686507 119.020781,71.9237187 119.434202,72.5971532 C122.962059,78.3443041 122.406238,85.9571746 117.870859,94.0337965 C113.652435,101.548713 106.388479,108.714668 97.4172482,114.216933 C87.8366044,120.092649 77.600612,123.328196 68.6033509,123.328196 L68.6033509,123.328196" id="Fill-1" fill="#FEFEFE"></path>
                <path d="M94.8025914,0.000765266433 C94.2038969,0.000765266433 93.5990776,0.0864751069 93.0049766,0.254833722 C92.8013286,0.312993971 92.5639945,0.395642746 92.3557529,0.47829152 C92.1505737,0.556348696 91.9055836,0.663485997 91.616189,0.810417152 C91.4967564,0.871638467 91.388042,0.931329248 91.2793277,0.992550563 C91.1185529,1.08438253 90.9531846,1.18080611 90.7725044,1.2971266 L90.4984217,1.47313788 C90.3468341,1.57415305 90.2029024,1.67363769 90.052846,1.77771392 L89.7772321,1.97515266 C89.6333005,2.0792289 89.4694633,2.20014099 89.3025638,2.32870575 L89.0790104,2.49706437 C88.8585193,2.66695352 88.6303723,2.84602586 88.3899757,3.04040354 L88.2843238,3.12611338 C88.0546456,3.31130785 87.8065931,3.51486872 87.5508847,3.73067386 L87.333456,3.9143378 L87.2477094,3.98627285 L86.7179184,4.43778004 L86.4361798,4.68419583 L86.3596203,4.75000875 L85.8374852,5.20763807 L85.4424387,5.55966063 L84.9095852,6.04024795 L84.5114763,6.40451477 L83.9127818,6.95703714 L83.8178481,7.04580804 L83.548359,7.2952849 C83.2497774,7.57537242 82.9466021,7.86311259 82.6418957,8.15544437 L82.5653363,8.22737942 C82.2300061,8.54879132 81.8946759,8.87479482 81.5562833,9.20538992 L81.3128244,9.44415304 L81.1964541,9.56047354 L80.5288561,10.2247248 L80.2226185,10.5323619 L80.112373,10.6425603 L79.4708052,11.2960978 L79.0604468,11.7185249 L78.3913176,12.4149173 L78.3116958,12.4990966 L78.1463275,12.6705163 C78.1141725,12.7057186 78.0820176,12.7409208 78.0498626,12.7776536 C77.0209042,13.8658625 76.0485998,14.9341744 75.1390741,15.9764673 C73.5037652,16.0208528 71.9894202,16.5580698 70.7430331,17.4473094 C65.4313416,12.8511192 58.3848141,10.1252402 50.9156786,10.1252402 C43.4327624,10.1252402 36.4459512,12.8281612 31.1725395,17.3615996 C29.8955286,16.4861348 28.3536222,15.9749368 26.6922831,15.9749368 C22.3084917,15.9749368 18.7438858,19.5380173 18.7438858,23.9168718 C18.7438858,25.3540422 19.1236204,26.7192775 19.8065303,27.9008489 L19.7697818,28.8849815 C18.232469,30.5593845 17.3260056,32.7480465 17.3260056,35.0821091 L17.3260056,38.0896061 C17.3260056,41.9312436 19.7406892,45.2402557 23.1828,46.6804871 C23.7539332,48.2737718 24.4751228,49.8058352 25.3402441,51.2644331 C25.1013787,51.4006505 24.859451,51.539929 24.6113985,51.6822685 C23.2562971,52.4551876 21.904258,53.2219846 20.5736556,53.9765373 L17.5495591,55.6937952 C5.06884503,62.7985287 1.54098769,65.255034 0.49977979,68.9849426 C-0.775699883,73.5597053 0.424751574,78.8706543 3.7106812,83.1944097 C6.13455194,86.3855707 9.10505682,88.1426224 12.0770929,88.1426224 C12.2363364,88.1426224 12.3940488,88.1380308 12.5486988,88.1273171 C13.1228943,88.0936454 13.8440839,87.9941608 14.9266339,87.6911152 C16.5711299,89.0242094 18.745417,89.821617 20.8599877,89.821617 C21.3453744,89.821617 21.823105,89.7787621 22.2855238,89.6961133 C20.6379655,96.7579919 19.8294981,100.42974 19.7100655,102.89849 C18.126817,107.643142 19.6044135,114.363711 26.7550618,119.829244 C31.7283607,123.629557 37.477972,125.724857 42.9443134,125.724857 C47.1918292,125.724857 50.7227489,124.426965 52.9659394,122.100555 C56.9975577,124.8999 62.3368105,126.389108 68.6024322,126.389108 C78.1570458,126.389108 88.9611089,122.991325 99.0194834,116.824808 C119.858953,104.046389 129.972451,83.9152907 122.043959,70.9960628 C121.552447,70.1940635 120.979783,69.4196139 120.293811,68.6298589 C120.197346,68.5135384 120.108537,68.4079317 120.016666,68.3069165 C119.402659,67.6319515 118.736592,67.004433 117.97253,66.3830367 C117.837785,66.2728383 117.736727,66.1901896 117.637199,66.1121324 C117.484081,65.9850982 117.34168,65.8733693 117.196217,65.766232 C117.000225,65.6223619 116.799639,65.4922666 116.591398,65.3759461 C113.558114,63.3127878 109.884794,62.0041822 105.63881,61.4700262 C102.541216,58.7992463 98.8357408,56.7085385 94.750531,55.3019788 C97.3367077,49.5670721 99.870824,43.6454405 101.026871,40.0502187 C102.339099,35.9713487 102.928607,29.9333965 102.77855,22.0985988 L102.777019,22.0985988 L102.773957,21.8858547 C102.764769,21.4710803 102.755582,21.108344 102.744864,20.7440772 L102.741802,20.6629589 L102.731083,20.3048143 C102.717303,19.9283032 102.703522,19.5502616 102.68821,19.1737505 L102.683617,19.0742658 L102.672898,18.8079531 C102.651462,18.3564459 102.630025,17.9110609 102.605526,17.4687369 L102.599401,17.3615996 C102.57184,16.8549932 102.541216,16.3591005 102.50753,15.8739216 L102.50753,15.8708605 C102.476906,15.4101702 102.44322,14.9601935 102.408003,14.5178695 L102.389628,14.2898201 L102.380441,14.1826828 C102.354411,13.8474961 102.325318,13.5184315 102.297757,13.1954891 L102.264071,12.8480581 C102.233447,12.5159325 102.204355,12.2174786 102.173731,11.9282079 L102.135451,11.5532273 C102.106359,11.2654872 102.074204,10.9869302 102.042049,10.7129648 L102.03133,10.6165412 L102.002238,10.3685949 C101.96702,10.0716715 101.930272,9.78240081 101.893523,9.50078276 L101.864431,9.28038603 C101.815433,8.91458867 101.764904,8.56868825 101.715906,8.24268475 C101.712843,8.22890995 101.711312,8.21360462 101.70825,8.19982983 C101.659252,7.87841792 101.610254,7.58761668 101.561256,7.31212076 L101.524507,7.11162096 C101.475509,6.84683877 101.435698,6.64021684 101.395887,6.45043076 L101.337702,6.17799591 C101.288704,5.95912971 101.247362,5.78311843 101.207551,5.62241248 L101.121805,5.30100058 C101.066682,5.09743971 101.010028,4.91377576 100.954905,4.74541715 C100.910501,4.61073026 100.869159,4.49134869 100.830879,4.38574193 C100.735945,4.13014294 100.630293,3.88984928 100.512392,3.64802508 C100.400615,3.41538409 100.279651,3.19804842 100.173999,3.02968981 C99.2231314,1.49609588 97.9491829,0.759909568 97.0473132,0.415539673 C96.346029,0.146165889 95.5528736,0.000765266433 94.8025914,0.000765266433 M94.8025914,6.12289673 C94.8209657,6.12289673 94.8378088,6.12442726 94.8515895,6.13054939 C94.8898692,6.14432419 94.9281489,6.18870964 94.9679598,6.25299202 C94.9802093,6.27441948 94.9939899,6.30503014 95.0062395,6.3310492 C95.0338008,6.38614838 95.0613622,6.44583916 95.0904548,6.52236581 C95.1057667,6.56215966 95.1210786,6.61113671 95.1363904,6.65858323 C95.1639518,6.73970147 95.189982,6.82847238 95.2175434,6.92642648 C95.2343865,6.98611726 95.2512295,7.04886911 95.2680726,7.11621256 C95.295634,7.22641092 95.3231954,7.34579249 95.3507568,7.47129618 C95.3660687,7.54323123 95.3829117,7.61516627 95.3982236,7.69016238 C95.4303786,7.8401546 95.4610023,8.00392162 95.4916261,8.1707497 C95.5038756,8.24115421 95.5176563,8.30543659 95.5299058,8.37737164 C95.572779,8.6222569 95.6156523,8.88091695 95.6600568,9.1579434 C95.6600568,9.162535 95.661588,9.1671266 95.661588,9.17324873 C95.7059924,9.4655805 95.7503969,9.77474814 95.7948013,10.1007516 C95.8039884,10.165034 95.8116444,10.2354385 95.8208315,10.2997209 C95.8545177,10.558381 95.8882038,10.8246937 95.9218899,11.1032507 C95.9341394,11.2042658 95.9463889,11.3129337 95.9586384,11.4185404 C95.987731,11.6726089 96.0168236,11.931269 96.0459162,12.1991122 C96.0566345,12.3154327 96.0704152,12.4317532 96.0811335,12.5511348 C96.1102261,12.8251001 96.1377874,13.1036571 96.1638176,13.3883362 C96.174536,13.5061873 96.1852543,13.6240383 96.1959726,13.7449504 C96.223534,14.051057 96.2510954,14.3617551 96.2755944,14.6785754 C96.2847815,14.7841822 96.2939686,14.889789 96.3016246,14.9969263 C96.3353107,15.4178228 96.3674657,15.8479026 96.3965582,16.285635 C96.3980894,16.285635 96.3980894,16.2871655 96.3980894,16.2871655 C96.4287132,16.7493864 96.4578058,17.2207905 96.4853671,17.6998473 C96.4868983,17.7350496 96.4884295,17.7702518 96.4899607,17.8069846 C96.5129285,18.2278812 96.5343652,18.6548998 96.5542706,19.0849796 C96.5588642,19.2013001 96.5634577,19.3176206 96.5680513,19.4339411 C96.5833632,19.7920857 96.5971439,20.1502304 96.6093934,20.5129667 C96.6139869,20.6507147 96.6185805,20.7884626 96.6216429,20.9277411 C96.6323612,21.272111 96.6415483,21.6210725 96.6492043,21.970034 C96.6507355,22.0526828 96.6537978,22.133801 96.655329,22.2179803 L96.6537978,22.2179803 C96.7671057,28.1319593 96.4363691,34.3199037 95.1961068,38.175316 C93.7981321,42.5220293 89.9625059,51.1894369 86.0457268,59.5782876 C92.7033326,60.3466151 98.8311473,63.1627955 102.995979,67.3732915 C107.218996,67.6212378 110.85863,68.7415878 113.57802,70.7419943 C113.574957,70.7282195 113.574957,70.7144447 113.573426,70.7022004 C113.665297,70.7695439 113.749513,70.8460705 113.838322,70.916475 C113.928662,70.985349 114.01594,71.0588146 114.104748,71.1307496 C114.594729,71.5286882 115.057147,71.9557069 115.476693,72.4163972 C115.533347,72.4791491 115.583876,72.544962 115.637468,72.6077139 C116.072325,73.105137 116.475028,73.6285793 116.822607,74.1979375 C122.864675,84.0392638 113.458587,100.789416 95.8162379,111.607222 C86.4484293,117.349781 76.644232,120.266977 68.6024322,120.266977 C61.4977194,120.266977 55.7664825,117.989544 52.9337845,113.371926 C52.7331989,113.044392 52.5525187,112.710736 52.3856192,112.369427 C52.3320276,112.259229 52.2876231,112.144439 52.2386251,112.03424 C52.1329731,111.800069 52.0273212,111.564367 51.9369811,111.321012 C51.8864519,111.187856 51.8435786,111.048577 51.7991741,110.91236 C51.7226147,110.685841 51.6491177,110.460853 51.586339,110.229742 C51.5465281,110.085872 51.5143731,109.938941 51.4791558,109.79354 C51.4240331,109.56243 51.375035,109.329789 51.3321618,109.092556 C51.3199123,109.025213 51.301538,108.9594 51.2908197,108.892056 C51.2938821,108.895118 51.2969444,108.896648 51.301538,108.899709 C50.7839964,105.746811 51.3474736,102.212811 52.848038,98.5563681 C52.7837281,98.0283342 52.7163558,97.4880561 52.6413276,96.9355338 C52.1620657,95.1983789 51.8803271,93.3755143 51.7869246,91.4960199 C51.5434657,90.1828227 51.2601959,88.8344233 50.9294593,87.4600048 C49.7427885,96.9630833 46.701849,105.846296 45.5595827,108.149748 C45.5366149,108.197195 45.4707738,108.232397 45.4340253,108.275252 C47.2699198,111.337848 50.1975514,115.22234 49.0016935,117.265602 C48.1717896,118.687467 45.9132871,119.602725 42.9443134,119.602725 C39.3919571,119.602725 34.8259542,118.291059 30.4758489,114.965211 C28.7777613,113.667319 23.2823273,108.449732 25.8639104,104.077 C25.3479,101.476625 29.5280435,87.095738 32.3270553,72.56792 C30.2140157,73.8275486 27.9983866,75.0626886 25.8271619,76.2029356 C25.0753485,78.8507574 23.345106,82.2975174 21.7128595,83.4699056 C21.4938996,83.6275505 21.1937867,83.6994855 20.8599877,83.6994855 C19.6610675,83.6994855 18.028821,82.7811658 18.1283482,81.6791822 C18.1773462,81.1511483 18.3442457,80.4777139 18.583111,79.7384665 C15.554421,81.0883965 13.1749547,81.9562086 12.1643706,82.0174299 C12.135278,82.0189604 12.1061855,82.020491 12.0770929,82.020491 C9.63637908,82.020491 4.94328761,75.850913 6.39944747,70.6287349 C6.86339746,68.9650456 13.0371478,65.3086026 20.5828427,61.0123969 C22.8551258,59.7190966 25.2468416,58.3691666 27.6508069,56.9962786 L27.6508069,56.9962786 C29.9797439,55.6662456 32.3117434,54.3178461 34.5442156,52.9816909 C31.16029,49.8532818 28.8359465,45.7560453 28.042791,41.1828131 C27.7227727,41.2685229 27.3889737,41.3282137 27.0383316,41.3282137 C25.0569743,41.3282137 23.450758,39.8772685 23.450758,38.0896061 L23.450758,35.0821091 C23.450758,33.6939158 24.4230624,32.5199971 25.7812262,32.0577761 L26.0200916,25.6081106 C25.3463688,25.3417979 24.8686381,24.6867298 24.8686381,23.9168718 C24.8686381,22.9113117 25.6847614,22.0970682 26.6922831,22.0970682 C27.6982737,22.0970682 28.5128658,22.9113117 28.5128658,23.9168718 C28.5128658,24.6117337 28.1254752,25.2147637 27.554342,25.5208703 L27.7518653,31.9093144 C28.0305415,31.959822 28.2923747,32.0455319 28.5434895,32.1511386 C31.2046944,22.9939605 40.1988932,16.2473716 50.9156786,16.2473716 C60.9036185,16.2473716 69.3925252,22.1093125 72.6600806,30.3175603 C72.7718573,30.0573697 72.8821028,29.8017707 72.9877548,29.5706602 C73.3659583,28.7411114 73.860532,27.8549329 74.4423835,26.9335521 L74.4852568,25.5208703 C73.9156548,25.2147637 73.526733,24.6117337 73.526733,23.9168718 C73.526733,22.9113117 74.3443875,22.0970682 75.3488468,22.0970682 C76.1282216,22.0970682 76.7820389,22.5898998 77.0423409,23.2771091 C78.6990864,21.1496684 80.6283834,18.9594759 82.59596,16.8810122 C82.5944289,16.8810122 82.5944289,16.8810122 82.5944289,16.8794817 C82.6725194,16.7983635 82.75061,16.7187758 82.8287006,16.636127 C83.0400046,16.4141997 83.2528397,16.1922724 83.4656749,15.9734062 C83.5958259,15.8387194 83.7259768,15.7040325 83.8561278,15.5708761 C84.0582447,15.3611931 84.2603615,15.1561017 84.4640095,14.9525408 C84.5956917,14.8178539 84.728905,14.683167 84.8621184,14.5500107 C85.0749535,14.3357361 85.2877887,14.1260531 85.5006238,13.9163701 C85.6139318,13.8046412 85.7287709,13.6898512 85.8420788,13.5781223 C86.1636283,13.2643631 86.4836466,12.9536649 86.7990713,12.6506194 C86.8251015,12.6261309 86.8496005,12.6031729 86.8756307,12.5786844 C87.1665565,12.3001274 87.4544198,12.026162 87.7376896,11.7613798 C87.8555911,11.6496509 87.9719614,11.5455747 88.0883317,11.4369068 C88.2766678,11.259365 88.4665352,11.0848843 88.6518089,10.9149951 C88.7788975,10.7986746 88.9013926,10.6854152 89.02695,10.5721558 C89.1984431,10.4191025 89.3668737,10.2660492 89.5322421,10.116057 C89.6562683,10.0058586 89.7772322,9.89872131 89.898196,9.79005347 C90.0635643,9.64465285 90.2243391,9.50384383 90.3835826,9.36456534 C90.4953594,9.26661123 90.6086673,9.1671266 90.7189128,9.07376409 C90.8858123,8.929894 91.0465871,8.79214604 91.2058306,8.65745915 C91.2961707,8.57940198 91.3911044,8.49981427 91.4799133,8.42634869 C91.7095915,8.23350155 91.9316138,8.05136814 92.1429177,7.87994846 C92.1720103,7.85545993 92.2011029,7.83250194 92.2301955,7.80954394 C92.4369058,7.64271586 92.6328979,7.48966258 92.8197029,7.34579249 C92.885544,7.2952849 92.9421979,7.25089945 93.0049766,7.20498346 C93.1366588,7.10549883 93.2652786,7.00907526 93.3831801,6.92183488 C93.4505524,6.87285783 93.5133311,6.83000291 93.5761098,6.78714799 C93.6817618,6.71215188 93.781289,6.6432779 93.8746915,6.58205659 C93.9313454,6.54226273 93.9879994,6.50706048 94.0400598,6.47338875 C94.1273375,6.41828957 94.2038969,6.37390412 94.2789251,6.33257973 C94.3248608,6.30656067 94.3692652,6.28054161 94.4106073,6.25911415 C94.4825731,6.22085083 94.5422895,6.19789284 94.5989434,6.17493484 C94.6265048,6.16422111 94.6586598,6.15044632 94.6816276,6.14432419 C94.7290944,6.13054939 94.7704365,6.12289673 94.8025914,6.12289673" id="Fill-3" fill="#FEFEFE"></path>
                <path d="M86.0908968,71.5876137 C87.7736725,76.6399027 84.9976285,83.5533196 84.4142459,84.5405133 C83.7864588,85.6042337 82.5232286,85.6134169 81.9214717,84.4777615 C81.0226643,82.77887 80.0243297,80.891723 76.2422951,78.5438856 L80.4637806,64.8394943 C82.8218103,65.617005 84.96088,68.1944223 86.0908968,71.5876137" id="Fill-5" fill="#EEDC33"></path>
                <path d="M57.2257047,60.4029387 C52.5770177,63.000253 49.9648108,69.9794828 49.730539,71.1013634 C49.477893,72.3104844 50.4042618,73.1691133 51.6139004,72.734442 C53.4252959,72.085496 55.4357458,71.3646151 59.8103502,72.177328 L65.9335713,59.209123 C63.667413,58.1943798 60.3493284,58.6566007 57.2257047,60.4029387" id="Fill-7" fill="#EEDC33"></path>
                <path d="M95.1958005,38.1759282 C98.1525247,28.9850783 95.9506763,6.55664974 94.8512832,6.1311616 C93.7534214,5.70414294 77.0022237,20.7906054 72.9874486,29.5712724 C68.847116,38.6274354 59.4104039,70.6966905 58.800991,73.9949888 C58.67084,74.702095 61.2202682,77.5550083 66.2731888,79.5125598 C66.3099374,79.5263346 66.3436235,79.5370484 66.3773096,79.5508231 C66.412527,79.5645979 66.4446819,79.5799033 66.4798992,79.5936781 C71.5343511,81.5512296 75.3408847,81.1624743 75.7206193,80.5517916 C77.4952663,77.70347 92.1472051,47.6560488 95.1958005,38.1759282" id="Fill-9" fill="#3F973B"></path>
                <path d="M70.736449,76.4795028 C68.4580411,82.356749 65.395665,86.6498937 63.8966318,86.0698218 C62.3975987,85.4897498 63.0315106,80.2537969 65.3099184,74.3765507 C67.5898575,68.4993045 69.751895,63.8571983 72.1512668,64.7862318 C74.5491073,65.7167957 73.016388,70.6022566 70.736449,76.4795028" id="Fill-11" fill="#EEDC33"></path>
                <path d="M81.2019664,41.4775937 C78.357019,40.3740795 76.9391388,37.1645521 78.0431254,34.320822 C79.1455808,31.477092 82.3580134,30.0598185 85.2014297,31.1633327 C88.0479083,32.2637859 89.4642573,35.4748438 88.3618019,38.3201044 C87.2593465,41.1638345 84.0469139,42.5795774 81.2019664,41.4775937" id="Fill-13" fill="#FEFEFE"></path>
                <path d="M87.2086641,37.8724235 C86.3511988,40.0840435 83.861487,41.1814356 81.6489202,40.3258677 C79.4363534,39.4672388 78.3384916,36.9785923 79.1959569,34.7685029 C80.0534222,32.5553524 82.5431341,31.4579603 84.7557008,32.3150587 C86.9682676,33.1736876 88.0676607,35.6608035 87.2086641,37.8724235" id="Fill-15" fill="#3E91C0"></path>
                <path d="M86.7914154,38.6825346 C85.6476179,39.32995 83.9372808,39.401885 82.2590987,38.7514086 C80.5809165,38.1009321 79.3651532,36.8948722 78.9578572,35.6474879 C78.6454948,37.6035089 79.7265136,39.5794268 81.6496858,40.3247963 C83.5713269,41.0701659 85.7042718,40.3385711 86.7914154,38.6825346" id="Fill-17" fill="#2A7495"></path>
                <path d="M80.4820018,34.380972 C81.558427,33.1871563 83.170768,32.8825803 84.3895938,33.2652135 C84.3895938,33.2652135 84.3650948,33.2544998 84.3895938,33.2652135 C84.1828834,33.0846106 83.9455492,32.93921 83.6760601,32.8336032 C82.4281418,32.3514854 81.0225112,32.9698207 80.5386557,34.2187355 C80.5172191,34.2723041 80.4988448,34.3258728 80.4820018,34.380972" id="Fill-19" fill="#FEFEFE"></path>
                <path d="M75.6477348,55.7994019 C72.8027873,54.6974183 71.3849071,51.4878909 72.4888937,48.6426303 C73.5913492,45.8004307 76.8037818,44.3816268 79.647198,45.485141 C82.4936767,46.5871246 83.9100257,49.7981826 82.8075702,52.6419126 C81.7051148,55.4856427 78.4926822,56.9029161 75.6477348,55.7994019" id="Fill-21" fill="#FEFEFE"></path>
                <path d="M81.6544325,52.1943848 C80.7969672,54.4060048 78.3072553,55.5049274 76.0946886,54.647829 C73.8821218,53.7907306 72.7842599,51.3020842 73.6417253,49.0904642 C74.4991906,46.8773136 76.9889024,45.7814521 79.199938,46.63702 C81.414036,47.4956489 82.5118978,49.9842954 81.6544325,52.1943848" id="Fill-23" fill="#3E91C0"></path>
                <path d="M81.2371837,53.0044959 C80.0933862,53.6519113 78.3830492,53.7253768 76.704867,53.0733698 C75.0266849,52.4244239 73.8109215,51.2168335 73.4036255,49.9709797 C73.0912631,51.9270007 74.1722819,53.9029187 76.093923,54.6467576 C78.0170952,55.3936577 80.148509,54.6605324 81.2371837,53.0044959" id="Fill-25" fill="#2A7495"></path>
                <path d="M74.9277701,48.7027802 C76.0041953,47.5089646 77.6165364,47.2043885 78.8353621,47.5870217 C78.8353621,47.5870217 78.8108631,47.576308 78.8353621,47.5870217 C78.6286517,47.4079494 78.3913176,47.2625488 78.1218285,47.156942 C76.8739102,46.6732936 75.4682795,47.2916289 74.9844241,48.5420742 C74.9629874,48.5956429 74.9446132,48.647681 74.9277701,48.7027802" id="Fill-27" fill="#FEFEFE"></path>
                <path d="M89.4201591,22.0395202 C89.2823522,22.3946038 88.8827121,22.5721456 88.5274764,22.4343977 C88.1753032,22.2966497 87.9976854,21.8971806 88.1354923,21.542097 C88.2732992,21.1870134 88.6729393,21.0125327 89.0266438,21.1487501 C89.3818794,21.286498 89.557966,21.6859671 89.4201591,22.0395202" id="Fill-29" fill="#FEFEFE"></path>
                <path d="M92.5834405,23.0290097 C92.4456336,23.3840933 92.0459935,23.5601046 91.6922891,23.4223566 C91.3370535,23.2846087 91.1609668,22.8866701 91.2987737,22.5315865 C91.4365807,22.1765029 91.8346896,22.0004916 92.1899252,22.1382396 C92.5451608,22.2759875 92.7212475,22.6754566 92.5834405,23.0290097" id="Fill-31" fill="#FEFEFE"></path>
                <path d="M95.7422816,23.7673388 C95.6044746,24.1208918 95.2048345,24.2984337 94.8511301,24.1606857 C94.4958945,24.0229377 94.3198078,23.6234687 94.4576148,23.2699156 C94.5938905,22.9133014 94.9935306,22.7388207 95.3487662,22.8765686 C95.7040019,23.0143166 95.8800885,23.4122551 95.7422816,23.7673388" id="Fill-33" fill="#FEFEFE"></path>
                <path d="M85.1316075,20.1413533 C84.9938006,20.496437 85.1698872,20.895906 85.5251228,21.0321235 C85.8803585,21.1698714 86.2799986,20.9953907 86.4162743,20.6403071 C86.5540812,20.2852234 86.3779946,19.8857544 86.0242902,19.7480064 C85.6690545,19.611789 85.2694144,19.7878003 85.1316075,20.1413533" id="Fill-35" fill="#FEFEFE"></path>
                <path d="M82.3010532,18.5600068 C82.1647775,18.9135599 82.3393329,19.3114984 82.6945686,19.4492464 C83.0498042,19.5869943 83.4494443,19.4125136 83.58572,19.05743 C83.7235269,18.7023463 83.5474403,18.3028773 83.1922047,18.1651293 C82.8385002,18.0273814 82.4388601,18.2049232 82.3010532,18.5600068" id="Fill-37" fill="#FEFEFE"></path>
                <path d="M89.1786907,20.2204819 C91.5872496,21.1525764 94.1856758,21.8137666 96.6554821,22.2178273 C96.499301,14.0355986 95.490248,6.37681213 94.8517426,6.13039634 C94.211706,5.88245001 88.2492596,10.9056589 82.594582,16.8793287 C84.7627443,18.3195601 86.7686007,19.2868568 89.1786907,20.2204819" id="Fill-39" fill="#D83318"></path>
                <path d="M63.4132357,64.3683963 C68.9301064,48.7523695 72.1165088,33.2052166 81.5363779,21.0742131 C71.8470197,28.0794621 64.4758803,60.7517471 63.4132357,64.3683963" id="Fill-41" fill="#FEFEFE"></path>
                <path d="M74.1128718,37.7513584 C74.1128718,49.6267629 63.7283542,59.2553451 50.9169036,59.2553451 C38.1054529,59.2553451 27.7209353,49.6267629 27.7209353,37.7513584 C27.7209353,25.8744234 38.1054529,16.2473716 50.9169036,16.2473716 C63.7283542,16.2473716 74.1128718,25.8744234 74.1128718,37.7513584" id="Fill-43" fill="#D83318"></path>
                <path d="M65.1335256,38.6855956 C65.1335256,44.0547049 60.7788266,48.4090709 55.4058877,48.4090709 L46.4270007,48.4090709 C41.0540618,48.4090709 36.6993629,44.0547049 36.6993629,38.6855956 C36.6993629,33.3149558 41.0540618,28.9605898 46.4270007,28.9605898 L55.4058877,28.9605898 C60.7788266,28.9605898 65.1335256,33.3149558 65.1335256,38.6855956" id="Fill-45" fill="#ECB66A"></path>
                <path d="M26.5996463,103.077103 C22.3934726,107.619725 28.6453135,113.567375 30.4750833,114.966282 C38.4617603,121.073108 47.1788141,120.385899 49.0024591,117.266673 C50.2886571,115.065767 46.7960171,110.731298 45.0320884,107.587583 L26.5996463,103.077103 Z" id="Fill-47" fill="#EEDC33"></path>
                <path d="M54.9639868,107.565544 C52.7575448,113.347897 60.7779079,116.534466 62.9965995,117.151271 C72.6859577,119.838887 80.5164535,115.951333 81.0462446,112.377539 C81.4183233,109.855221 76.5583323,107.136994 73.7486022,104.876397 L54.9639868,107.565544 Z" id="Fill-49" fill="#EEDC33"></path>
                <path d="M41.8681945,65.8315857 L35.6025728,52.3445301 C23.2550721,59.8227137 7.16075419,67.9023967 6.39822252,70.6298062 C4.92675078,75.9132057 9.74999324,82.1684935 12.1646768,82.0169708 C13.175261,81.9542189 15.5547273,81.0894678 18.5834173,79.7364768 C18.3445519,80.4772547 18.1776524,81.1506892 18.1286544,81.678723 C18.0015658,83.0852827 20.7041128,84.194919 21.7116345,83.4694464 C23.343881,82.2985888 25.0756548,78.8518288 25.8259369,76.2024764 C31.981313,72.9730521 38.534798,68.9844834 41.8681945,65.8315857" id="Fill-51" fill="#D83318"></path>
                <path d="M50.7651628,44.5505976 C49.0609505,44.5505976 47.5619173,43.8388998 46.6906713,42.7644657 C46.8453213,44.4801931 48.60925,46.0260313 50.7651628,46.0260313 C52.9226068,46.0260313 54.6850043,44.4801931 54.8396543,42.7644657 C53.9699395,43.8388998 52.4709063,44.5505976 50.7651628,44.5505976" id="Fill-53" fill="#2A2422"></path>
                <path d="M42.531352,37.83064 C41.3906169,37.83064 40.4596545,36.9031371 40.4596545,35.7613596 C40.4596545,34.619582 41.3906169,33.6936097 42.531352,33.6936097 C43.6736183,33.6936097 44.6015183,34.619582 44.6015183,35.7613596 C44.6015183,36.9031371 43.6736183,37.83064 42.531352,37.83064" id="Fill-55" fill="#FEFEFE"></path>
                <path d="M41.172882,35.8023778 C41.172882,36.4895871 41.7302344,37.0467011 42.4177379,37.0467011 C43.1083037,37.0467011 43.6656562,36.4895871 43.6656562,35.8023778 C43.6656562,35.113638 43.1083037,34.5580546 42.4177379,34.5580546 C41.7302344,34.5580546 41.172882,35.113638 41.172882,35.8023778" id="Fill-57" fill="#2A2422"></path>
                <path d="M42.3234167,35.5991231 C42.3234167,35.8455389 42.5224711,36.0445081 42.7689924,36.0445081 C43.0139825,36.0445081 43.2145681,35.8455389 43.2145681,35.5991231 C43.2145681,35.3527073 43.0139825,35.153738 42.7689924,35.153738 C42.5224711,35.153738 42.3234167,35.3527073 42.3234167,35.5991231" id="Fill-59" fill="#FEFEFE"></path>
                <path d="M58.9669718,37.83064 C57.8262367,37.83064 56.8968055,36.9031371 56.8968055,35.7613596 C56.8968055,34.619582 57.8262367,33.6936097 58.9669718,33.6936097 C60.1092381,33.6936097 61.0371381,34.619582 61.0371381,35.7613596 C61.0371381,36.9031371 60.1092381,37.83064 58.9669718,37.83064" id="Fill-61" fill="#FEFEFE"></path>
                <path d="M57.6098798,35.8023778 C57.6098798,36.4895871 58.1657011,37.0467011 58.8532045,37.0467011 C59.5453015,37.0467011 60.1011228,36.4895871 60.1011228,35.8023778 C60.1011228,35.113638 59.5453015,34.5580546 58.8532045,34.5580546 C58.1657011,34.5580546 57.6098798,35.113638 57.6098798,35.8023778" id="Fill-63" fill="#2A2422"></path>
                <path d="M58.7590364,35.5991231 C58.7590364,35.8455389 58.9580909,36.0445081 59.2046122,36.0445081 C59.4511335,36.0445081 59.6517191,35.8455389 59.6517191,35.5991231 C59.6517191,35.3527073 59.4511335,35.153738 59.2046122,35.153738 C58.9580909,35.153738 58.7590364,35.3527073 58.7590364,35.5991231" id="Fill-65" fill="#FEFEFE"></path>
                <path d="M50.8144671,38.6557503 C49.8758488,38.6557503 49.0505384,38.2639338 48.5728077,37.6716176 C48.6585543,38.6174869 49.6277963,39.4669327 50.8144671,39.4669327 C52.0011378,39.4669327 52.9719111,38.6174869 53.0576576,37.6716176 C52.5768646,38.2639338 51.7530854,38.6557503 50.8144671,38.6557503" id="Fill-67" fill="#CB9459"></path>
                <path d="M18.9190537,62.5089519 C20.1011309,64.4695645 23.0440744,64.8659725 25.4863194,63.3935999 C27.9285644,61.9196968 28.9483357,59.137188 27.7662585,57.1765754 C27.7295099,57.1153541 27.6912302,57.0556633 27.6498882,56.9959725 C24.5752625,58.7530243 21.509824,60.4748737 18.7046874,62.0865248 C18.7659349,62.2288644 18.8363696,62.3712039 18.9190537,62.5089519" id="Fill-69" fill="#EEDC33"></path>
                <path d="M60.4839198,65.8315857 L66.7510726,52.3445301 C79.095511,59.8227137 95.1913601,67.9023967 95.9523606,70.6298062 C97.4268947,75.9132057 92.602121,82.1684935 90.1874374,82.0169708 C89.1768533,81.9542189 86.797387,81.0894678 83.7671658,79.7364768 C84.0060311,80.4772547 84.1744618,81.1506892 84.2219287,81.678723 C84.3505485,83.0852827 81.6480015,84.194919 80.6404797,83.4694464 C79.0067021,82.2985888 77.2749283,78.8518288 76.5246462,76.2024764 C70.3708013,72.9730521 63.8173163,68.9844834 60.4839198,65.8315857" id="Fill-71" fill="#D83318"></path>
                <path d="M83.432295,62.5089519 C82.2486866,64.4695645 79.3088055,64.8659725 76.8650293,63.3935999 C74.4227843,61.9196968 73.4014818,59.137188 74.5850902,57.1765754 C74.6218387,57.1153541 74.6601184,57.0556633 74.7014605,56.9959725 C77.7760862,58.7530243 80.8415247,60.4748737 83.6481925,62.0865248 C83.586945,62.2288644 83.5149791,62.3712039 83.432295,62.5089519" id="Fill-73" fill="#EEDC33"></path>
                <path d="M65.2561737,52.2226997 L34.7273457,52.0635243 C34.9156819,70.2875791 24.4270435,102.208373 25.9750746,104.377138 C29.1155414,108.780481 44.4963257,110.294178 45.5605014,108.149901 C46.7027677,105.846449 49.7437072,96.9632364 50.930378,87.4586273 C53.5732086,98.4417311 53.1322265,107.892772 54.8701249,109.005469 C59.4269407,111.919604 74.262622,107.589726 74.4478958,105.202095 C74.677574,102.291021 73.3163478,89.6381061 71.9612463,82.1890026 C70.6612676,75.0444752 68.1470568,61.1349926 65.2561737,52.2226997" id="Fill-75" fill="#D83318"></path>
                <path d="M67.4998236,52.79818 C63.2875252,56.7989929 57.424606,59.2554982 50.9155255,59.2554982 C44.5503766,59.2554982 38.7823911,56.8755196 34.5930605,53.0246989 L33.8305289,53.4869198 C37.5023179,58.7289949 43.5811346,61.3110038 50.9155255,61.3110038 C58.3999728,61.3110038 64.9519266,58.2040221 68.1888583,53.3109085 L67.4998236,52.79818 Z" id="Fill-77" fill="#B32A18"></path>
                <path d="M52.0974496,82.9977362 C52.0974496,83.591583 51.5278476,84.0737008 50.8265635,84.0737008 C50.1237481,84.0737008 49.5556774,83.591583 49.5556774,82.9977362 L49.5556774,64.6328724 C49.5556774,64.0374951 50.1237481,63.5569078 50.8265635,63.5569078 C51.5278476,63.5569078 52.0974496,64.0374951 52.0974496,64.6328724 L52.0974496,82.9977362 Z" id="Fill-79" fill="#EEDC33"></path>
                <path d="M28.5128658,23.9168718 C28.5128658,22.9113117 27.6982737,22.0970682 26.6922831,22.0970682 C25.6847614,22.0970682 24.8686381,22.9113117 24.8686381,23.9168718 C24.8686381,24.6867298 25.3463688,25.3417979 26.0200916,25.6081106 L25.7169163,33.7918699 L27.8100504,33.7918699 L27.554342,25.5208703 C28.1254752,25.2147637 28.5128658,24.6117337 28.5128658,23.9168718" id="Fill-81" fill="#EEDC33"></path>
                <path d="M30.6249866,38.089147 C30.6249866,39.8768094 29.0187703,41.3277545 27.0374129,41.3277545 C25.0560556,41.3277545 23.4513704,39.8768094 23.4513704,38.089147 L23.4513704,35.0816499 C23.4513704,33.292457 25.0560556,31.8430424 27.0374129,31.8430424 C29.0187703,31.8430424 30.6249866,33.292457 30.6249866,35.0816499 L30.6249866,38.089147 Z" id="Fill-83" fill="#D83318"></path>
                <path d="M73.5273455,23.9168718 C73.5273455,22.9113117 74.3434687,22.0970682 75.3494593,22.0970682 C76.3554499,22.0970682 77.1715731,22.9113117 77.1715731,23.9168718 C77.1715731,24.6867298 76.6938425,25.3417979 76.0201197,25.6081106 L76.3232949,33.7918699 L74.2301608,33.7918699 L74.4858692,25.5208703 C73.9147361,25.2147637 73.5273455,24.6117337 73.5273455,23.9168718" id="Fill-85" fill="#EEDC33"></path>
                <path d="M71.4152247,38.089147 C71.4152247,39.8768094 73.021441,41.3277545 75.0027983,41.3277545 C76.9841557,41.3277545 78.5888408,39.8768094 78.5888408,38.089147 L78.5888408,35.0816499 C78.5888408,33.292457 76.9841557,31.8430424 75.0027983,31.8430424 C73.021441,31.8430424 71.4152247,33.292457 71.4152247,35.0816499 L71.4152247,38.089147 Z" id="Fill-87" fill="#D83318"></path>
                <path d="M37.9295194,94.8266125 C37.153207,98.176949 38.5649624,99.6493216 40.6167544,100.123787 C42.6685465,100.598252 44.5840628,99.8972679 45.3603751,96.5454009 C46.1366875,93.1935339 44.8076162,91.358425 42.7558242,90.8854904 C40.7040322,90.4094947 38.7043005,91.4747455 37.9295194,94.8266125" id="Fill-89" fill="#EEDC33"></path>
                <path d="M63.5665077,96.2718947 C64.1070171,99.6712082 65.9674106,100.505349 68.0482952,100.174754 C70.1291798,99.8456889 71.6389312,98.4743315 71.099953,95.0780791 C70.5609748,91.6802961 68.640865,90.4772973 66.5615116,90.8078924 C64.480627,91.1384875 63.0275295,92.8741117 63.5665077,96.2718947" id="Fill-91" fill="#EEDC33"></path>
                <path d="M116.823067,74.1971722 C122.863604,84.0415596 113.459046,100.78865 95.8166973,111.606457 C78.172817,122.425793 58.9747808,123.215548 52.9327127,113.372691 C46.8937069,103.529835 56.2982641,86.7812135 73.9421444,75.9618766 C91.5844934,65.1440703 110.78253,64.3543154 116.823067,74.1971722" id="Fill-93" fill="#B32A18"></path>
                <path d="M90.9222546,103.631615 C75.7359312,112.943377 59.3981543,114.824402 51.2905134,108.893587 C51.5508154,110.496055 52.092856,112.002099 52.9334783,113.371926 C58.9740152,123.216314 78.1735826,122.425028 95.8159317,111.607222 C113.458281,100.789416 122.864369,84.0407944 116.823832,74.1979375 C115.981679,72.8265801 114.883817,71.6618445 113.57312,70.7022004 C115.188523,80.6154618 106.107047,94.3198531 90.9222546,103.631615" id="Fill-95" fill="#D83318"></path>
                <path d="M105.879053,71.0015727 C109.442128,76.8084144 100.980782,88.6195365 86.903039,97.2502113 C72.8237646,105.883947 58.4550956,108.071079 54.8935521,102.265768 C48.1302944,91.2459309 52.2905324,72.4295598 66.371338,63.7958239 C80.4506124,55.162088 99.1157951,59.9832666 105.879053,71.0015727" id="Fill-97" fill="#294C95"></path>
                <path d="M74.3655179,103.26842 C78.3665123,101.880226 82.6477142,99.8599229 86.9028859,97.2503644 C91.1932749,94.6209089 94.9615288,91.6945301 98.0269673,88.732949 C93.9800372,82.3093025 85.5049112,80.3180793 79.0142049,84.2974647 C72.5158427,88.2829723 70.4548635,96.7483496 74.3655179,103.26842" id="Fill-99" fill="#87AE27"></path>
                <path d="M80.1419249,70.0390206 L77.8175814,66.2509517 C78.1835353,65.6356775 78.2034408,64.8413309 77.8038007,64.1893239 C77.2265428,63.2495768 75.9969988,62.9541839 75.0568493,63.5311948 C74.1166998,64.1082057 73.8227117,65.3372236 74.3984384,66.2769708 C74.7950161,66.9228556 75.4993626,67.265695 76.2067715,67.2274317 L78.1850665,70.4507339 C76.177679,70.9802983 74.0967943,71.8634157 72.0802196,73.0985557 C70.0758944,74.3291042 68.354839,75.7723967 66.9752386,77.3105822 L65.0091931,74.1056464 C65.375147,73.4903722 65.3965837,72.6960256 64.9938812,72.0440186 C64.4181545,71.1027409 63.1886104,70.8088786 62.248461,71.3858895 C61.3083115,71.9613698 61.0143234,73.1919183 61.5900501,74.1301349 C61.9866278,74.7775503 62.6909743,75.1173286 63.3983832,75.0805958 L65.7211955,78.8640731 C63.2161718,82.3291995 62.4567025,86.0422722 64.0981362,88.7176436 C66.7394356,93.0215021 76.0659022,95.4030112 83.1154922,91.0807864 C90.1635509,86.7585616 92.2658721,77.3687424 89.6261039,73.0664146 C87.9892638,70.3986958 84.3496298,69.3916051 80.1419249,70.0390206" id="Fill-101" fill="#87AE27"></path>
                <path d="M73.2402477,81.6032677 C74.1145561,83.0297244 73.6674492,84.8939134 72.2419131,85.7693782 C70.8148458,86.6433124 68.9483275,86.1963968 68.0740191,84.7699402 C67.1981796,83.3465447 67.6452865,81.4808251 69.0723538,80.6053603 C70.4994211,79.7298955 72.3644082,80.1768111 73.2402477,81.6032677" id="Fill-103" fill="#FEFEFE"></path>
                <path d="M72.9023145,81.9903395 C73.4504799,82.8826401 73.1687413,84.0504367 72.2760586,84.5983675 C71.3833759,85.1462982 70.2150794,84.8662107 69.6669141,83.9739101 C69.1187488,83.0800789 69.4004874,81.9122823 70.2916388,81.3658821 C71.1858527,80.8164208 72.3541492,81.0965083 72.9023145,81.9903395" id="Fill-105" fill="#2A2422"></path>
                <path d="M84.436295,74.7383687 C85.3106034,76.1648253 84.8650277,78.0274838 83.4394916,78.9044791 C82.0124243,79.7768829 80.145906,79.3299673 79.2715976,77.9050412 C78.3972892,76.4801151 78.8443961,74.6143955 80.2699322,73.7404612 C81.6969995,72.8634659 83.5619866,73.311912 84.436295,74.7383687" id="Fill-107" fill="#FEFEFE"></path>
                <path d="M84.099893,75.1239099 C84.6480583,76.0162105 84.3678509,77.1840071 83.4751682,77.7319379 C82.5809544,78.2813992 81.4126579,77.9997811 80.8644926,77.1074805 C80.3163272,76.2136493 80.5965346,75.0473832 81.4907485,74.4994525 C82.3834311,73.9499912 83.5517276,74.2300787 84.099893,75.1239099" id="Fill-109" fill="#2A2422"></path>
                <path d="M78.9956775,84.2189484 C78.0034676,84.8265699 76.8765132,84.9490126 75.9868929,84.6337228 C76.6897082,85.576531 78.266832,85.8474354 79.5224062,85.0791079 C80.7779804,84.3077193 81.2511175,82.7802475 80.7289824,81.7257103 C80.6064874,82.6608659 79.9878874,83.6113268 78.9956775,84.2189484" id="Fill-111" fill="#2A2422"></path>
                <path d="M77.15718,81.296855 C76.612077,81.6320417 75.9919458,81.6978547 75.5004345,81.5249044 C75.8878251,82.0437551 76.7575399,82.1922168 77.4465745,81.7697897 C78.1386715,81.3443016 78.4005047,80.5025085 78.1111101,79.9254976 C78.0437379,80.4382261 77.7038141,80.9601378 77.15718,81.296855" id="Fill-113" fill="#6F8D2C"></path>
                <path d="M62.8912537,113.663799 C63.7977171,115.139232 65.7300764,115.602984 67.2061417,114.696908 C68.6837382,113.790833 69.146157,111.859301 68.2412249,110.382336 C67.3332304,108.906903 65.4024022,108.443151 63.9248057,109.350757 C62.4472092,110.255302 61.9847904,112.186835 62.8912537,113.663799" id="Fill-115" fill="#EEDC33"></path>
                <path d="M63.8035356,113.941744 C62.3136896,112.509165 62.952195,109.674618 65.5077479,109.391469 C65.5077479,109.391469 65.4801865,109.406775 65.5077479,109.391469 C63.9413425,110.351113 63.2492455,111.886238 63.8035356,113.941744" id="Fill-117" fill="#FEFEFE"></path>
                <path d="M75.5175838,111.656352 C76.5113248,113.278717 78.6335515,113.785323 80.2550797,112.790477 C81.8781391,111.79563 82.3864935,109.675842 81.3912213,108.053478 C80.3974802,106.432643 78.2752535,105.926037 76.6521941,106.919353 C75.030666,107.914199 74.5223115,110.033987 75.5175838,111.656352" id="Fill-119" fill="#EEDC33"></path>
                <path d="M76.5194401,111.962765 C74.8856625,110.389377 75.5854154,107.277803 78.390552,106.965575 C78.390552,106.965575 78.3614594,106.983941 78.390552,106.965575 C76.6710278,108.021642 75.9100273,109.705229 76.5194401,111.962765" id="Fill-121" fill="#FEFEFE"></path>
                <path d="M88.0250936,105.754005 C89.086207,107.483507 91.349303,108.025316 93.0810767,106.964656 C94.8113192,105.903997 95.3518286,103.640339 94.2907153,101.910837 C93.2280707,100.181335 90.9665059,99.6395262 89.2362634,100.700185 C87.5044897,101.762375 86.9639803,104.022972 88.0250936,105.754005" id="Fill-123" fill="#EEDC33"></path>
                <path d="M89.0935567,106.079855 C87.3495334,104.402391 88.0967532,101.081135 91.0902259,100.75054 C91.0902259,100.75054 91.058071,100.767376 91.0902259,100.75054 C89.2558626,101.875482 88.4443329,103.672327 89.0935567,106.079855" id="Fill-125" fill="#FEFEFE"></path>
                <path d="M112.735713,83.1008941 C113.642176,84.5763278 113.179758,86.5093908 111.70063,87.4139357 C110.224565,88.3200112 108.292205,87.8562597 107.385742,86.3808261 C106.479279,84.9038618 106.943229,82.9723294 108.419294,82.0662539 C109.89689,81.1601785 111.82925,81.6239299 112.735713,83.1008941" id="Fill-127" fill="#EEDC33"></path>
                <path d="M112.570498,84.0395699 C111.96721,82.063652 109.149824,81.3488932 107.741131,83.4962308 C107.741131,83.4962308 107.767161,83.4793949 107.741131,83.4962308 C109.306005,82.5365867 110.987249,82.6131133 112.570498,84.0395699" id="Fill-129" fill="#FEFEFE"></path>
                <path d="M105.223245,93.4425516 C106.216986,95.0633859 105.708632,97.183174 104.087103,98.1780203 C102.465575,99.1713362 100.34488,98.6647298 99.3496076,97.0438955 C98.3543353,95.4215306 98.8626898,93.3017426 100.484218,92.3068963 C102.107277,91.3120499 104.227973,91.8201868 105.223245,93.4425516" id="Fill-131" fill="#EEDC33"></path>
                <path d="M105.042412,94.4722942 C104.380938,92.3035291 101.286407,91.5183657 99.7399074,93.8753863 C99.7399074,93.8753863 99.769,93.8585505 99.7399074,93.8753863 C101.459432,92.8223797 103.306044,92.9080896 105.042412,94.4722942" id="Fill-133" fill="#FEFEFE"></path>
            </g>
        </g>
    </g>
</svg>