<?xml version="1.0" encoding="utf-8"?>
<!-- Generator: Adobe Illustrator 21.0.2, SVG Export Plug-In . SVG Version: 6.00 Build 0)  -->
<svg version="1.0" id="Camada_1" xmlns="http://www.w3.org/2000/svg" xmlns:xlink="http://www.w3.org/1999/xlink" x="0px" y="0px"
	 viewBox="0 0 704 183.5" style="enable-background:new 0 0 704 183.5;" xml:space="preserve">
<style type="text/css">
	.st0{fill:#00B0C7;}
	.st1{fill:#F9DF19;}
	.st2{fill:#E14559;}
</style>
<path class="st0" d="M32.8,171.9C32.9,171.9,32.9,171.8,32.8,171.9c0.3-0.2,0.6-0.3,0.9-0.2l2.8,0.8c1.6,0.5,1.9,0,1.3-1.5
	l-4.6-11.3c-1.1-2.8-1.7-3.5-3-0.8l-5.8,11.6c-0.9,1.7-0.2,2,1.7,1.6l2.4-0.5c0.3-0.1,0.6,0,0.8,0.2c0.2,0.2,0.3,0.4,0.3,0.7l-0.1,3
	c0,1.1-0.1,1.9,1,1.9c0.5,0,0.5,0,0.9,0c0.8,0,0.9-1.1,1-1.9c0.1-1.9,0-1.1,0.1-2.9C32.6,172.2,32.7,172,32.8,171.9"/>
<path class="st0" d="M658.7,109.5C658.7,109.5,658.8,109.5,658.7,109.5c0.3-0.2,0.6-0.3,0.9-0.2l2.8,0.8c1.6,0.5,1.9,0,1.3-1.5
	l-4.6-11.3c-1.1-2.8-1.7-3.5-3-0.8l-5.8,11.6c-0.9,1.8-0.2,2,1.7,1.6l2.4-0.5c0.3-0.1,0.6,0,0.8,0.2c0.2,0.2,0.3,0.4,0.3,0.7l-0.1,3
	c0,1.1-0.1,1.9,1,1.9c0.5,0,0.5,0,0.9,0c0.8,0,0.9-1.1,1-1.9c0.1-1.9,0-1.1,0.1-2.9C658.4,109.9,658.5,109.7,658.7,109.5"/>
<path class="st0" d="M14.7,108.7C14.7,108.6,14.7,108.6,14.7,108.7c-0.2-0.3-0.2-0.6-0.2-0.9l0.9-2.8c0.5-1.6,0-1.9-1.5-1.4
	l-11.5,4.1c-2.8,1-3.6,1.5-0.9,3L13,117c1.7,0.9,2,0.3,1.6-1.6l-0.4-2.4c0-0.3,0-0.6,0.2-0.8c0.2-0.2,0.4-0.3,0.7-0.3l3,0.3
	c1.1,0.1,1.9,0.2,2-0.9c0-0.5,0-0.5,0.1-0.9c0.1-0.8-1-1-1.9-1l-2.9-0.2C15.1,109,14.9,108.9,14.7,108.7"/>
<path class="st0" d="M143.8,38.4C143.8,38.4,143.7,38.4,143.8,38.4c-0.2-0.3-0.2-0.6-0.2-0.9l0.9-2.8c0.5-1.6,0-1.9-1.5-1.4
	l-11.5,4.1c-2.8,1-3.6,1.5-0.9,3l11.4,6.3c1.7,0.9,2,0.3,1.6-1.6l-0.4-2.4c0-0.3,0-0.6,0.2-0.8c0.2-0.2,0.4-0.3,0.7-0.3l3,0.3
	c1.1,0.1,1.9,0.2,2-0.9c0-0.5,0-0.5,0.1-0.9c0.1-0.8-1-1-1.9-1l-2.9-0.2C144.1,38.7,143.9,38.6,143.8,38.4"/>
<path class="st1" d="M115.3,120.5c0.1,0,0.3,0,0.4,0c0.9,0.2,1.7,0.7,2.1,1.5l4.7,8.2c2.7,4.7,4.5,4.2,6.4-0.5l14.7-36.2
	c3.6-8.9,4-11.8-5.2-8.7L99.2,98.6c-5.9,2-5,4,0.4,7.4l6.6,4.1c0.8,0.5,1.3,1.3,1.4,2.2c0.1,0.9-0.2,1.7-0.8,2.3l-7.1,6.7
	c-2.6,2.5-4.5,4-1.9,6.7c1,1.1,1,1.1,2.1,2.1c1.8,1.9,4.5-0.4,6.5-2.3c4.4-4.1,2.5-2.4,6.9-6.5C113.9,120.8,114.6,120.5,115.3,120.5
	"/>
<path class="st1" d="M571.4,134.6c0.1,0,0.2,0,0.4-0.1c0.9-0.1,1.8,0.3,2.4,0.9l6.6,6.8c3.8,3.9,5.4,3,6.1-2.1l5.1-38.7
	c1.3-9.5,0.9-12.5-7.2-7.1l-34.7,23c-5.2,3.4-3.8,5.1,2.2,7l7.5,2.3c0.9,0.3,1.6,0.9,1.9,1.7c0.3,0.8,0.3,1.7-0.2,2.5l-5.2,8.2
	c-1.9,3.1-3.3,5-0.2,6.9c1.3,0.8,1.3,0.8,2.5,1.6c2.2,1.4,4.3-1.5,5.8-3.8c3.2-5.1,1.8-2.9,5-8C570.1,135.2,570.7,134.8,571.4,134.6
	"/>
<path class="st1" d="M243.5,52.5c0,0,0-0.1,0-0.1c0-0.3,0.1-0.6,0.3-0.8l2.2-2.2c1.2-1.2,1-1.8-0.7-2l-12.6-1.6
	c-3.1-0.4-4.1-0.2-2.3,2.4l7.6,11.3c1.1,1.7,1.7,1.2,2.3-0.8l0.7-2.5c0.1-0.3,0.3-0.5,0.6-0.6c0.3-0.1,0.6-0.1,0.8,0.1l2.7,1.7
	c1,0.6,1.6,1.1,2.3,0c0.3-0.4,0.3-0.4,0.5-0.8c0.4-0.7-0.5-1.4-1.3-1.9c-1.7-1-1-0.6-2.6-1.6C243.7,53,243.6,52.8,243.5,52.5"/>
<path class="st2" d="M305.8,40.7c0,0,0.1-0.1,0.1-0.1c0.3-0.3,0.7-0.4,1.1-0.4l4.4,0.4c2.5,0.2,2.8-0.6,1.5-2.6l-9.9-15.3
	c-2.4-3.7-3.5-4.7-4.7-0.3L293.1,41c-0.8,2.8,0.2,3,2.9,1.8l3.4-1.4c0.4-0.2,0.8-0.2,1.2,0c0.4,0.2,0.6,0.5,0.7,0.9l0.7,4.5
	c0.2,1.7,0.3,2.8,2,2.5c0.7-0.1,0.7-0.1,1.4-0.2c1.2-0.2,1.1-1.8,0.9-3.1c-0.4-2.8-0.2-1.6-0.6-4.4C305.5,41.4,305.6,41,305.8,40.7"
	/>
<path class="st2" d="M275,87c-0.1-0.8-0.2-1.6-0.4-2.4c-0.2-0.9-0.6-1.7-1.1-2.4c-0.4-0.7-1-1.4-1.6-2c-0.5-0.4-1.1-0.7-1.8-0.9
	c-0.7-0.2-1.3-0.3-2-0.3c-0.8,0-1.6,0.1-2.3,0.4c-0.7,0.2-1.4,0.5-2.1,0.9c-0.7,0.4-1.4,0.8-2,1.2c-0.6,0.5-1.2,1-1.7,1.5
	c-0.5,0.5-0.9,1.1-1.3,1.7c-0.4,0.6-0.6,1.1-0.9,1.8c-0.4,0.8-0.6,1.7-0.8,2.6c-0.2,1-0.3,2-0.3,3l0,0.4c-0.3-0.3-0.6-0.5-1-0.7
	c-0.5-0.3-1-0.6-1.5-0.8c-0.5-0.2-1-0.4-1.5-0.5c-0.7-0.2-1.4-0.3-2.1-0.3c-1.4-0.1-2.9,0.1-4.2,0.6c-0.6,0.2-1.1,0.4-1.5,0.6
	c-0.4,0.2-0.9,0.4-1.3,0.7c-0.5,0.2-1,0.5-1.4,0.9c-0.4,0.3-0.9,0.6-1.2,1c-0.4,0.4-0.7,0.8-1,1.3c-0.3,0.5-0.6,1.1-0.7,1.7
	c-0.1,0.6-0.2,1.2-0.2,1.8c0,0.7,0,1.3,0.2,2l0,0c0.1,0.7,0.4,1.3,0.6,2c0.3,0.6,0.6,1.3,0.9,1.9c0.4,0.6,0.8,1.2,1.3,1.8
	c0.5,0.6,1,1.1,1.6,1.6c0.6,0.5,1.3,1,1.9,1.4c0.7,0.4,1.3,0.8,1.8,1.1c0.5,0.3,0.9,0.6,1.3,0.7c0.4,0.3,0.9,0.5,1.4,0.7
	c0.5,0.3,1.1,0.6,1.8,0.9c0.6,0.2,1.1,0.5,1.6,0.8c0.6,0.4,1.2,0.7,1.8,1c0.6,0.3,1.2,0.6,1.9,0.9c0.6,0.3,1.1,0.6,1.7,1
	c0.7,0.4,1.2,0.7,1.5,1c0.3,0.2,0.6,0.3,0.8,0.5c0.1,0.1,0.3,0.2,0.4,0.3c0.2,0.5,0.6,0.9,1,1.1c0.6,0.3,1.2,0.3,1.8,0.1
	c0.6-0.2,1.1-0.7,1.4-1.3l0.4-0.8c0.3-0.5,0.6-1.1,1-1.8c0.4-0.7,0.7-1.5,1.1-2.2c0.3-0.7,0.7-1.4,1-2.1s0.7-1.4,1-2.1
	c0.3-0.8,0.6-1.5,0.9-2.4c0.3-0.7,0.5-1.3,0.6-1.6c0.2-0.5,0.4-1.1,0.7-2c0.3-0.8,0.5-1.6,0.7-2.4c0.2-0.8,0.4-1.5,0.5-2.3
	c0.2-0.8,0.4-1.7,0.5-2.5c0.1-0.8,0.3-1.7,0.4-2.6c0.2-1,0.3-2,0.3-3C275.2,89.2,275.2,88.1,275,87z M270.3,90.1
	c0,0.9-0.1,1.7-0.3,2.6c-0.1,0.9-0.2,1.7-0.3,2.5c-0.1,0.7-0.3,1.4-0.4,2.1c-0.2,0.7-0.4,1.5-0.6,2.2c-0.2,0.7-0.4,1.4-0.6,2.1
	c-0.2,0.7-0.4,1.2-0.5,1.5c-0.2,0.4-0.4,1-0.7,1.8c-0.3,0.7-0.6,1.4-0.8,2.1c-0.3,0.7-0.6,1.4-1,2.1c-0.3,0.7-0.6,1.4-0.9,2
	c-0.3,0.6-0.6,1.3-0.9,1.9c0,0-0.1,0-0.1,0c-0.3-0.2-0.8-0.5-1.4-0.9c-0.7-0.5-1.4-0.9-2.1-1.2c-0.6-0.3-1.2-0.6-1.8-0.9
	c-0.5-0.3-1.1-0.6-1.6-0.9c-0.6-0.4-1.2-0.7-1.9-1c-0.6-0.3-1.2-0.6-1.9-0.9c-0.6-0.3-1-0.5-1.2-0.6c-0.3-0.1-0.6-0.3-1.1-0.6
	c-0.5-0.3-1.1-0.7-1.7-1.1c-0.5-0.3-1-0.6-1.5-1c-0.4-0.3-0.7-0.6-1-1c-0.3-0.3-0.6-0.7-0.8-1.1l0,0c-0.2-0.4-0.4-0.9-0.7-1.4
	c-0.2-0.4-0.3-0.7-0.4-1.1c-0.1-0.2-0.1-0.5-0.1-0.8c0-0.2,0-0.4,0.1-0.6c0-0.1,0-0.2,0-0.2c0.1-0.1,0.2-0.2,0.3-0.3
	c0.2-0.1,0.3-0.3,0.5-0.4c0.3-0.1,0.6-0.3,0.9-0.5c0.3-0.2,0.7-0.4,1.1-0.5c0.2-0.1,0.6-0.2,1-0.3c0.4-0.1,0.8-0.3,1.2-0.4
	c0.4,0,0.8-0.1,1.2,0c0.4,0,0.7,0,1,0.1c0.4,0.1,0.8,0.3,1.2,0.4c0.3,0.1,0.5,0.2,0.8,0.4c0.2,0.2,0.5,0.4,0.7,0.6
	c0.3,0.2,0.6,0.5,0.8,0.9c0.4,0.4,0.7,0.7,1.1,1.1c0.4,0.4,0.7,0.7,1,1.1c0.1,0.1,0.2,0.1,0.3,0.2c0.1,0.1,0.3,0.1,0.6,0.2
	c0.3,0.1,0.6,0.2,0.9,0.2c0.3,0.1,0.7,0.1,1,0.1c0.3,0,0.6-0.1,0.9-0.2c0.3-0.2,0.5-0.4,0.6-0.8c0.2-0.4,0.3-0.9,0.3-1.4
	c0-0.3,0-0.7-0.1-1.1c0-0.3,0-0.8,0.1-1.3c0-0.6,0-1.1,0-1.8c0-0.6,0-1.2,0-1.9c0-0.7,0.1-1.3,0.3-2c0.1-0.6,0.2-1.1,0.5-1.6
	c0.1-0.3,0.3-0.7,0.5-1c0.2-0.3,0.4-0.6,0.7-0.9c0.3-0.3,0.7-0.6,1-0.9c0.4-0.3,0.8-0.6,1.2-0.8c0.4-0.2,0.9-0.4,1.3-0.5
	c0.3-0.1,0.6-0.2,0.9-0.2c0.2,0,0.5,0,0.7,0.1c0.1,0,0.2,0.1,0.3,0.1c0.2,0.2,0.4,0.5,0.6,0.7c0.2,0.3,0.3,0.6,0.4,1
	c0.2,0.6,0.3,1.2,0.3,1.9C270.4,88.6,270.4,89.3,270.3,90.1z"/>
<path class="st2" d="M244.6,131.3c0,0,0.1,0,0.1,0.1c0.8,0.8,1.9,1.3,3,1.2c1.2,0,2.3-0.5,3.1-1.4l0.4-0.4c0.8-1,1.3-2.2,1.4-3.4
	c0.3-1.5-0.3-3-1.4-3.9c-0.7-0.5-1.5-0.9-2.3-1c-0.9-0.1-1.8-0.1-2.6,0.3c-1.7,0.3-3,1.5-3.4,3.2l-0.1,0.3c-0.3,0.9-0.3,1.9,0,2.9
	C243.2,130,243.8,130.8,244.6,131.3"/>
<path class="st2" d="M681.1,163.7c-0.3-0.5-0.6-0.9-1-1.3c-0.5-0.4-1-0.8-1.5-1.1c-0.5-0.3-1.1-0.5-1.7-0.7
	c-0.6-0.2-1.2-0.3-1.8-0.4c-0.6-0.1-1.2-0.1-1.8-0.1c-0.6,0-1.1,0.1-1.7,0.2c-0.5,0.1-1,0.3-1.5,0.5c-0.7,0.3-1.3,0.6-1.9,1
	c-0.7,0.4-1.3,0.9-1.9,1.5l-0.2,0.2c0-0.3-0.1-0.6-0.2-0.9c-0.1-0.4-0.2-0.9-0.4-1.3c-0.2-0.4-0.3-0.8-0.6-1.2c-0.3-0.5-0.6-1-1-1.4
	c-0.4-0.5-0.8-0.9-1.3-1.2c-0.4-0.3-0.9-0.6-1.4-0.9c-0.4-0.2-0.8-0.4-1.2-0.5c-0.3-0.1-0.6-0.2-1.1-0.4c-0.4-0.2-0.9-0.3-1.3-0.3
	c-0.4-0.1-0.8-0.1-1.3-0.1c-0.4,0-0.9,0.1-1.3,0.1c-0.5,0.1-1,0.3-1.4,0.6c-0.4,0.3-0.8,0.6-1.1,0.9c-0.4,0.4-0.7,0.8-1,1.2h0
	c-0.3,0.5-0.6,1-0.8,1.5c-0.2,0.5-0.4,1-0.5,1.6c-0.1,0.6-0.2,1.2-0.3,1.8c-0.1,0.6-0.1,1.2,0,1.9c0.1,0.6,0.2,1.3,0.3,1.9
	c0.1,0.6,0.3,1.2,0.4,1.6s0.2,0.9,0.3,1.1c0.1,0.4,0.2,0.8,0.4,1.2c0.1,0.4,0.3,0.9,0.5,1.5c0.2,0.5,0.3,0.9,0.4,1.4
	c0.1,0.6,0.3,1.1,0.4,1.6c0.2,0.5,0.3,1,0.6,1.6c0.2,0.5,0.3,1,0.4,1.5c0.1,0.6,0.3,1.1,0.3,1.4c0.1,0.3,0.1,0.6,0.2,0.8
	c0,0.1,0.1,0.3,0.1,0.4c-0.1,0.4-0.1,0.8,0,1.2c0.2,0.5,0.5,0.9,1,1.1c0.5,0.2,1,0.3,1.5,0.1l0.7-0.2c0.4-0.1,1-0.3,1.6-0.5
	c0.6-0.2,1.3-0.4,1.9-0.7c0.6-0.2,1.2-0.4,1.8-0.6s1.2-0.4,1.8-0.6c0.6-0.2,1.2-0.5,1.9-0.8c0.6-0.2,1-0.4,1.3-0.6
	c0.4-0.2,0.9-0.4,1.5-0.7c0.6-0.3,1.2-0.6,1.8-1c0.5-0.3,1.1-0.7,1.6-1c0.6-0.3,1.2-0.7,1.7-1.2c0.6-0.4,1.1-0.8,1.7-1.2
	c0.7-0.5,1.3-0.9,1.9-1.5c0.7-0.6,1.3-1.2,1.8-1.9c0.4-0.5,0.8-1,1.2-1.6c0.4-0.6,0.6-1.3,0.8-2c0.2-0.7,0.3-1.4,0.2-2.1
	C681.5,164.7,681.4,164.2,681.1,163.7z M677.5,166.6c0,0.3-0.2,0.6-0.3,0.8c-0.3,0.4-0.6,0.8-0.9,1.2c-0.4,0.5-0.8,0.9-1.3,1.3
	c-0.6,0.5-1.1,0.9-1.6,1.3c-0.6,0.4-1.1,0.8-1.6,1.2c-0.5,0.3-1,0.7-1.4,0.9c-0.5,0.3-1.1,0.6-1.6,0.9c-0.5,0.3-1,0.6-1.6,0.9
	c-0.5,0.3-0.9,0.4-1.1,0.6c-0.3,0.1-0.8,0.4-1.4,0.6c-0.6,0.2-1.1,0.5-1.7,0.7s-1.1,0.4-1.8,0.7c-0.6,0.2-1.1,0.4-1.7,0.6
	c-0.5,0.2-1.1,0.4-1.6,0.5c0,0,0,0,0-0.1c0-0.3-0.1-0.7-0.3-1.4c-0.1-0.7-0.3-1.3-0.5-1.9c-0.2-0.5-0.3-1-0.5-1.5
	c-0.1-0.4-0.3-0.9-0.4-1.4c-0.1-0.6-0.3-1.1-0.5-1.6c-0.2-0.5-0.4-1.1-0.5-1.6c-0.2-0.5-0.3-0.8-0.3-1c-0.1-0.2-0.2-0.5-0.3-0.9
	c-0.1-0.5-0.2-1-0.4-1.6c-0.1-0.5-0.2-0.9-0.3-1.4c0-0.4,0-0.8,0-1.2c0-0.4,0.1-0.7,0.2-1.1l0,0c0.1-0.4,0.3-0.8,0.4-1.2
	c0.1-0.3,0.3-0.6,0.4-0.9c0.1-0.2,0.2-0.3,0.4-0.5c0.1-0.1,0.3-0.2,0.4-0.3c0,0,0.1-0.1,0.1-0.1c0.1,0,0.2,0,0.3,0
	c0.2,0,0.3,0,0.5,0.1c0.2,0.1,0.5,0.1,0.8,0.2c0.3,0.1,0.6,0.2,0.9,0.3c0.2,0.1,0.4,0.2,0.7,0.4s0.6,0.3,0.9,0.5
	c0.3,0.2,0.5,0.4,0.7,0.7c0.2,0.2,0.4,0.4,0.5,0.7c0.2,0.3,0.3,0.6,0.4,0.9c0.1,0.2,0.2,0.4,0.2,0.6c0,0.2,0.1,0.5,0.1,0.7
	c0,0.3,0,0.6,0,1c0,0.4,0,0.8,0,1.3c0,0.4,0,0.8,0,1.2c0,0.1,0,0.2,0.1,0.2c0,0.1,0.1,0.3,0.2,0.5c0.1,0.2,0.2,0.5,0.4,0.7
	c0.2,0.2,0.3,0.4,0.5,0.6c0.2,0.2,0.4,0.3,0.7,0.4c0.3,0.1,0.5,0,0.8-0.1c0.4-0.1,0.7-0.4,1-0.6c0.2-0.2,0.4-0.4,0.6-0.7
	c0.2-0.2,0.5-0.4,0.8-0.7c0.3-0.3,0.6-0.7,1-1c0.3-0.3,0.7-0.7,1.1-1.1c0.4-0.4,0.8-0.7,1.3-1c0.4-0.3,0.8-0.5,1.2-0.7
	c0.3-0.1,0.5-0.2,0.8-0.3c0.3-0.1,0.6-0.1,0.9-0.1c0.4,0,0.7,0,1.1,0.1c0.4,0.1,0.8,0.2,1.2,0.3c0.4,0.1,0.7,0.3,1.1,0.5
	c0.2,0.1,0.4,0.2,0.6,0.4c0.2,0.1,0.3,0.3,0.4,0.4c0,0.1,0.1,0.1,0.1,0.2C677.6,166.1,677.6,166.3,677.5,166.6z"/>
<path class="st2" d="M636.9,178.7c0,0,0,0.1,0,0.1c0,0.9,0.4,1.8,1,2.4c0.7,0.7,1.6,1,2.5,1l0.5,0c1-0.1,1.9-0.5,2.7-1.1
	c1-0.7,1.5-1.8,1.4-3c-0.1-0.7-0.3-1.3-0.8-1.9c-0.4-0.6-1-1-1.6-1.3c-1.1-0.8-2.6-0.9-3.8-0.1l-0.2,0.1c-0.7,0.4-1.3,0.9-1.6,1.7
	C636.9,177.2,636.8,178,636.9,178.7"/>
<path class="st2" d="M232.5,8.3c-0.6-1-1.5-1.9-2.5-2.4c-1.1-0.6-2.3-1-3.5-1.1c-0.6-0.1-1.2-0.1-1.8-0.1c-0.6,0-1.1,0.1-1.7,0.2
	c-0.5,0.1-1,0.3-1.5,0.5c-0.7,0.3-1.3,0.6-1.9,1c-0.7,0.4-1.3,0.9-1.9,1.5l-0.2,0.2c0-0.3-0.1-0.6-0.2-0.9c-0.1-0.4-0.2-0.9-0.4-1.3
	c-0.2-0.4-0.3-0.8-0.6-1.2c-0.3-0.5-0.6-1-1-1.4c-0.4-0.4-0.8-0.9-1.3-1.2c-0.4-0.3-0.9-0.6-1.4-0.8c-0.4-0.2-0.8-0.4-1.2-0.5
	c-0.4-0.1-0.7-0.3-1.1-0.4c-0.4-0.2-0.9-0.3-1.3-0.3c-0.4-0.1-0.8-0.1-1.3-0.1c-0.4,0-0.9,0.1-1.3,0.2c-0.5,0.1-1,0.3-1.4,0.6
	c-0.4,0.3-0.8,0.6-1.1,0.9c-0.4,0.4-0.7,0.8-1,1.2l0,0c-0.3,0.5-0.6,1-0.8,1.5c-0.2,0.5-0.4,1.1-0.5,1.6c-0.1,0.6-0.2,1.2-0.3,1.8
	c-0.1,0.6-0.1,1.2,0,1.8c0.1,0.6,0.2,1.3,0.3,1.9c0.1,0.6,0.3,1.2,0.4,1.6s0.2,0.9,0.3,1.1c0.1,0.4,0.2,0.8,0.4,1.2
	c0.1,0.5,0.3,1,0.5,1.5c0.2,0.5,0.3,0.9,0.4,1.4c0.1,0.6,0.3,1.1,0.4,1.6s0.3,1.1,0.6,1.6c0.2,0.5,0.3,1,0.4,1.5
	c0.1,0.6,0.3,1.1,0.3,1.4c0.1,0.3,0.1,0.6,0.2,0.8c0,0.1,0.1,0.3,0.1,0.4c-0.1,0.4-0.1,0.8,0,1.2c0.2,0.5,0.5,0.9,1,1.1
	c0.5,0.2,1,0.2,1.5,0.1l0.7-0.2c0.4-0.1,1-0.3,1.6-0.5c0.6-0.2,1.3-0.4,1.9-0.7c0.6-0.2,1.2-0.4,1.8-0.6c0.6-0.2,1.2-0.4,1.8-0.6
	c0.6-0.2,1.2-0.5,1.9-0.8c0.6-0.3,1-0.4,1.3-0.6c0.4-0.2,0.9-0.4,1.5-0.7c0.6-0.3,1.2-0.6,1.8-0.9c0.5-0.3,1.1-0.7,1.6-1
	c0.6-0.3,1.2-0.7,1.7-1.2c0.6-0.4,1.1-0.8,1.7-1.2c0.7-0.5,1.3-1,1.9-1.5c0.7-0.6,1.3-1.2,1.8-1.9c0.4-0.5,0.8-1,1.2-1.6
	c0.4-0.6,0.6-1.3,0.8-2c0.2-0.7,0.3-1.4,0.2-2.1C232.9,9.3,232.8,8.8,232.5,8.3z M228.9,11.2c-0.1,0.3-0.2,0.6-0.3,0.8
	c-0.3,0.4-0.6,0.8-0.9,1.2c-0.4,0.5-0.8,0.9-1.3,1.3c-0.5,0.5-1,0.9-1.6,1.3c-0.6,0.4-1.1,0.8-1.6,1.2c-0.5,0.3-1,0.6-1.4,0.9
	c-0.5,0.3-1.1,0.6-1.6,0.9c-0.5,0.3-1,0.6-1.6,0.9c-0.5,0.3-0.9,0.4-1.1,0.6c-0.3,0.1-0.8,0.4-1.4,0.6c-0.6,0.2-1.1,0.5-1.7,0.7
	c-0.5,0.2-1.1,0.4-1.8,0.7c-0.6,0.2-1.1,0.4-1.7,0.6c-0.5,0.2-1.1,0.4-1.6,0.5l0-0.1c0-0.3-0.1-0.7-0.3-1.4
	c-0.1-0.7-0.3-1.3-0.5-1.9c-0.2-0.5-0.3-1-0.5-1.5c-0.1-0.4-0.3-0.9-0.4-1.4c-0.1-0.6-0.3-1.1-0.5-1.6c-0.2-0.5-0.4-1.1-0.5-1.6
	c-0.2-0.5-0.3-0.8-0.3-1c-0.1-0.2-0.2-0.5-0.3-0.9c-0.1-0.5-0.2-1-0.4-1.6c-0.1-0.5-0.2-0.9-0.3-1.4c0-0.4,0-0.8,0-1.2
	c0-0.4,0.1-0.7,0.2-1.1l0,0c0.1-0.4,0.3-0.8,0.4-1.2c0.1-0.3,0.3-0.6,0.4-0.9c0.1-0.2,0.2-0.3,0.4-0.5c0.1-0.1,0.3-0.2,0.4-0.3
	c0,0,0.1-0.1,0.1-0.1c0.1,0,0.2,0,0.3,0c0.2,0,0.3,0,0.5,0c0.2,0.1,0.5,0.1,0.8,0.2c0.3,0.1,0.6,0.2,0.9,0.3
	c0.2,0.1,0.4,0.2,0.7,0.4c0.3,0.1,0.6,0.3,0.9,0.5c0.3,0.2,0.5,0.4,0.7,0.7c0.2,0.2,0.4,0.4,0.5,0.7c0.2,0.3,0.3,0.6,0.4,0.9
	c0.1,0.2,0.2,0.4,0.2,0.7c0,0.2,0.1,0.5,0.1,0.7c0,0.3,0,0.6,0,1c0,0.4,0,0.8,0,1.3c0,0.4,0,0.8,0,1.2c0,0.1,0,0.2,0.1,0.2
	c0,0.1,0.1,0.3,0.2,0.5c0.1,0.2,0.2,0.4,0.4,0.7c0.2,0.2,0.3,0.4,0.5,0.6c0.2,0.2,0.4,0.3,0.7,0.4c0.3,0.1,0.5,0,0.8-0.1
	c0.4-0.1,0.7-0.4,1-0.6c0.2-0.2,0.4-0.4,0.6-0.7c0.2-0.2,0.5-0.4,0.8-0.7c0.3-0.3,0.6-0.7,1-1c0.3-0.3,0.7-0.7,1.1-1.1
	c0.4-0.4,0.8-0.7,1.3-1c0.4-0.3,0.8-0.5,1.2-0.7c0.3-0.1,0.5-0.2,0.8-0.3c0.3-0.1,0.6-0.1,0.9-0.1c0.4,0,0.7,0,1.1,0.1
	c0.4,0.1,0.8,0.1,1.2,0.3c0.4,0.1,0.7,0.3,1.1,0.5c0.2,0.1,0.4,0.2,0.6,0.4c0.2,0.1,0.3,0.3,0.4,0.5c0,0.1,0.1,0.1,0.1,0.2
	C229,10.7,229,10.9,228.9,11.2z"/>
<path class="st2" d="M188.3,23.3c0,0,0,0.1,0,0.1c0,0.9,0.4,1.8,1,2.4c0.7,0.7,1.6,1,2.5,1l0.5,0c1-0.1,1.9-0.5,2.7-1.2
	c1-0.7,1.5-1.8,1.4-3c-0.1-0.7-0.3-1.3-0.8-1.9c-0.4-0.6-1-1-1.6-1.3c-1.1-0.8-2.6-0.9-3.8-0.1l-0.2,0.1c-0.7,0.4-1.3,0.9-1.6,1.7
	C188.3,21.8,188.2,22.5,188.3,23.3"/>
<path class="st2" d="M65.1,123.6c-0.2-0.3-0.4-0.6-0.6-0.8c-0.3-0.3-0.6-0.5-0.9-0.7c-0.3-0.2-0.7-0.3-1-0.4
	c-0.4-0.1-0.7-0.2-1.1-0.3c-0.4-0.1-0.7-0.1-1.1-0.1c-0.4,0-0.7,0-1,0.1c-0.3,0.1-0.6,0.2-0.9,0.3c-0.4,0.2-0.8,0.4-1.2,0.6
	c-0.4,0.3-0.8,0.6-1.2,0.9l-0.1,0.1c0-0.2,0-0.4-0.1-0.6c-0.1-0.3-0.1-0.5-0.2-0.8c-0.1-0.2-0.2-0.5-0.3-0.7
	c-0.2-0.3-0.4-0.6-0.6-0.8c-0.2-0.3-0.5-0.5-0.8-0.8c-0.3-0.2-0.6-0.4-0.9-0.5c-0.3-0.1-0.5-0.2-0.7-0.3c-0.2-0.1-0.4-0.1-0.7-0.2
	c-0.3-0.1-0.5-0.2-0.8-0.2c-0.3-0.1-0.5-0.1-0.8-0.1c-0.3,0-0.5,0-0.8,0.1c-0.3,0.1-0.6,0.2-0.8,0.4c-0.2,0.2-0.5,0.3-0.7,0.6
	c-0.2,0.2-0.5,0.5-0.6,0.7l0,0c-0.2,0.3-0.3,0.6-0.5,0.9c-0.1,0.3-0.2,0.6-0.3,1c-0.1,0.4-0.1,0.7-0.2,1.1c0,0.4,0,0.7,0,1.1
	c0,0.4,0.1,0.8,0.2,1.1c0.1,0.4,0.2,0.7,0.2,1s0.1,0.5,0.2,0.7c0.1,0.2,0.1,0.5,0.2,0.7c0.1,0.3,0.2,0.6,0.3,0.9
	c0.1,0.3,0.2,0.6,0.2,0.9c0.1,0.3,0.2,0.7,0.3,1s0.2,0.6,0.3,1c0.1,0.3,0.2,0.6,0.2,0.9c0.1,0.4,0.1,0.7,0.2,0.9
	c0,0.2,0.1,0.3,0.1,0.5c0,0.1,0,0.2,0,0.2c-0.1,0.2-0.1,0.5,0,0.8c0.1,0.3,0.3,0.5,0.6,0.6c0.3,0.1,0.6,0.2,0.9,0.1l0.4-0.1
	c0.3-0.1,0.6-0.2,1-0.3c0.4-0.1,0.8-0.2,1.1-0.4c0.4-0.1,0.7-0.3,1.1-0.4c0.4-0.1,0.7-0.3,1.1-0.4c0.4-0.1,0.8-0.3,1.1-0.5
	c0.4-0.2,0.6-0.3,0.8-0.3c0.2-0.1,0.5-0.2,0.9-0.4c0.4-0.2,0.7-0.4,1.1-0.6l1-0.6c0.4-0.2,0.7-0.5,1.1-0.7c0.3-0.2,0.7-0.5,1-0.8
	c0.4-0.3,0.8-0.6,1.2-0.9c0.4-0.3,0.8-0.7,1.1-1.2c0.3-0.3,0.5-0.6,0.7-0.9c0.2-0.4,0.4-0.8,0.5-1.2c0.1-0.4,0.2-0.8,0.1-1.2
	C65.3,124.2,65.2,123.9,65.1,123.6z M62.9,125.3c0,0.2-0.1,0.3-0.2,0.5c-0.2,0.3-0.4,0.5-0.6,0.8c-0.2,0.3-0.5,0.6-0.8,0.8
	c-0.3,0.3-0.7,0.6-1,0.8l-1,0.8c-0.3,0.2-0.6,0.4-0.9,0.6c-0.3,0.2-0.6,0.4-1,0.6c-0.3,0.2-0.6,0.4-1,0.5c-0.3,0.2-0.6,0.3-0.7,0.3
	c-0.2,0.1-0.5,0.2-0.9,0.4c-0.4,0.1-0.7,0.3-1,0.4s-0.7,0.3-1.1,0.4c-0.3,0.1-0.7,0.3-1,0.4c-0.3,0.1-0.7,0.2-1,0.3c0,0,0,0,0,0
	c0-0.2-0.1-0.5-0.2-0.8c-0.1-0.4-0.2-0.8-0.3-1.2c-0.1-0.3-0.2-0.6-0.3-0.9c-0.1-0.3-0.2-0.6-0.2-0.9c-0.1-0.3-0.2-0.7-0.3-1
	c-0.1-0.3-0.2-0.6-0.3-1c-0.1-0.3-0.2-0.5-0.2-0.6c0-0.1-0.1-0.3-0.2-0.6c-0.1-0.3-0.1-0.6-0.2-1c-0.1-0.3-0.1-0.6-0.2-0.9
	c0-0.2,0-0.5,0-0.7c0-0.2,0-0.4,0.1-0.7h0c0.1-0.2,0.2-0.5,0.2-0.7c0.1-0.2,0.2-0.3,0.3-0.5c0.1-0.1,0.1-0.2,0.2-0.3
	c0.1-0.1,0.2-0.1,0.3-0.2c0,0,0.1-0.1,0.1-0.1c0.1,0,0.1,0,0.2,0l0.3,0c0.1,0,0.3,0.1,0.5,0.1c0.2,0,0.4,0.1,0.5,0.2
	c0.1,0.1,0.3,0.1,0.4,0.2c0.2,0.1,0.4,0.2,0.5,0.3c0.2,0.1,0.3,0.3,0.4,0.4c0.1,0.1,0.2,0.3,0.3,0.4c0.1,0.2,0.2,0.4,0.3,0.5
	c0.1,0.1,0.1,0.3,0.1,0.4c0,0.1,0,0.3,0,0.4c0,0.2,0,0.4,0,0.6c0,0.2,0,0.5,0,0.8c0,0.2,0,0.5,0,0.7c0,0.1,0,0.1,0,0.2
	c0,0.1,0.1,0.2,0.1,0.3c0.1,0.1,0.1,0.3,0.2,0.4c0.1,0.1,0.2,0.3,0.3,0.4c0.1,0.1,0.2,0.2,0.4,0.2c0.2,0,0.3,0,0.5,0
	c0.2-0.1,0.4-0.2,0.6-0.4c0.1-0.1,0.2-0.2,0.4-0.4c0.1-0.1,0.3-0.3,0.5-0.4c0.2-0.2,0.4-0.4,0.6-0.6c0.2-0.2,0.4-0.4,0.7-0.6
	c0.2-0.2,0.5-0.4,0.8-0.6c0.2-0.2,0.5-0.3,0.7-0.4c0.2-0.1,0.3-0.1,0.5-0.2c0.2,0,0.4-0.1,0.5-0.1c0.2,0,0.5,0,0.7,0.1
	c0.2,0,0.5,0.1,0.7,0.2c0.2,0.1,0.4,0.2,0.6,0.3c0.1,0.1,0.3,0.1,0.4,0.3c0.1,0.1,0.2,0.2,0.2,0.3c0,0,0,0.1,0,0.1
	C62.9,125,62.9,125.2,62.9,125.3z"/>
<path class="st2" d="M38.1,132.6C38.1,132.6,38.1,132.6,38.1,132.6c0,0.6,0.2,1.2,0.6,1.6c0.4,0.4,1,0.6,1.5,0.6l0.3,0
	c0.6-0.1,1.2-0.3,1.7-0.7c0.6-0.4,1-1.1,0.9-1.9c-0.1-0.8-0.6-1.6-1.4-1.9c-0.7-0.5-1.6-0.5-2.3-0.1l-0.1,0.1c-0.4,0.2-0.8,0.6-1,1
	C38.1,131.6,38,132.1,38.1,132.6"/>
<path class="st0" d="M566.6,44c0,0,0,0.1-0.1,0.1c-0.1,0.2-0.2,0.5-0.1,0.8l1,2.8c0.6,1.6,0.1,1.9-1.4,1.4l-11.7-3.6
	c-2.9-0.9-3.6-1.4-1.1-2.9l11.1-6.7c1.7-1,2-0.4,1.7,1.5l-0.3,2.4c0,0.3,0,0.6,0.2,0.8c0.2,0.2,0.5,0.3,0.7,0.3l3-0.4
	c1.1-0.1,1.9-0.3,2,0.9c0.1,0.5,0.1,0.5,0.1,0.9c0.1,0.8-1,1-1.8,1.1c-1.9,0.2-1.1,0.1-2.9,0.4C566.9,43.7,566.7,43.8,566.6,44"/>
<path class="st0" d="M453,85.6C453,85.6,452.9,85.6,453,85.6c-0.4-0.2-0.6-0.2-0.9-0.1l-2.7,1.2c-1.5,0.7-1.9,0.2-1.5-1.3l3.1-11.8
	c0.8-2.9,1.2-3.7,2.9-1.2l7.2,10.8c1.1,1.6,0.5,1.9-1.5,1.8l-2.4-0.2c-0.3,0-0.6,0.1-0.8,0.3c-0.2,0.2-0.3,0.5-0.2,0.7l0.5,3
	c0.2,1.1,0.4,1.8-0.8,2l-0.9,0.1c-0.8,0.1-1.1-0.9-1.2-1.8c-0.3-1.9-0.2-1.1-0.5-2.9C453.3,85.9,453.2,85.7,453,85.6"/>
<path class="st2" d="M531.6,63.2c-0.1-0.3-0.4-0.5-0.7-0.5c-0.2,0-0.5,0-0.7,0.1c-0.1,0-0.2,0-0.2,0c-0.1,0-0.3,0-0.5-0.1
	s-0.5-0.1-0.9-0.1c-0.3,0-0.6-0.1-1-0.1c-0.3-0.1-0.7-0.2-1-0.2s-0.7-0.1-1-0.2c-0.3,0-0.6-0.1-0.9-0.2c-0.4-0.1-0.7-0.2-0.9-0.2
	c-0.2-0.1-0.5-0.1-0.7-0.2c-0.2,0-0.4-0.1-0.7-0.1s-0.6-0.1-1-0.1c-0.4-0.1-0.8-0.1-1.2-0.1c-0.4,0-0.8,0-1.1,0.1
	c-0.4,0.1-0.7,0.2-1.1,0.3c-0.3,0.1-0.6,0.3-0.9,0.4c-0.3,0.2-0.6,0.3-0.9,0.6l0,0c-0.3,0.2-0.5,0.4-0.7,0.7
	c-0.2,0.2-0.3,0.5-0.5,0.7c-0.1,0.3-0.2,0.6-0.3,0.9c0,0.3,0,0.5,0,0.8c0,0.3,0.1,0.5,0.2,0.8c0.1,0.3,0.1,0.5,0.3,0.8
	c0.1,0.2,0.2,0.4,0.3,0.6c0.1,0.2,0.2,0.4,0.4,0.7c0.2,0.3,0.4,0.6,0.6,0.8c0.2,0.3,0.5,0.5,0.8,0.7c0.3,0.2,0.6,0.4,0.9,0.6
	c0.3,0.1,0.5,0.2,0.7,0.3c0.3,0.1,0.5,0.1,0.8,0.2c0.2,0,0.4,0.1,0.6,0.1l-0.1,0.1c-0.3,0.4-0.6,0.8-0.8,1.2
	c-0.2,0.4-0.4,0.8-0.5,1.2c-0.1,0.3-0.2,0.6-0.2,0.9c0,0.3-0.1,0.7,0,1.1c0,0.4,0.1,0.7,0.2,1.1c0.1,0.4,0.2,0.7,0.4,1.1
	c0.1,0.3,0.3,0.7,0.5,1c0.2,0.3,0.4,0.6,0.7,0.9c0.3,0.2,0.5,0.4,0.8,0.5c0.3,0.1,0.6,0.2,0.9,0.2c0.4,0,0.8-0.1,1.2-0.2
	c0.4-0.1,0.8-0.3,1.2-0.6c0.3-0.2,0.6-0.5,0.9-0.8c0.4-0.4,0.8-0.8,1.1-1.2c0.3-0.4,0.6-0.8,0.8-1.2c0.2-0.4,0.4-0.7,0.7-1.1
	c0.2-0.4,0.4-0.7,0.6-1.1c0.2-0.4,0.3-0.7,0.5-1c0.2-0.4,0.3-0.7,0.5-1.1c0.2-0.4,0.3-0.7,0.4-1c0.1-0.2,0.2-0.5,0.3-0.8
	c0.2-0.4,0.3-0.8,0.4-1.2c0.1-0.4,0.2-0.8,0.3-1.1s0.2-0.7,0.3-1.1c0.1-0.4,0.2-0.8,0.3-1.2c0.1-0.4,0.1-0.7,0.2-1l0.1-0.4
	C531.8,63.8,531.8,63.5,531.6,63.2z M528.9,66.1c-0.1,0.4-0.2,0.7-0.3,1.1c-0.1,0.4-0.2,0.8-0.3,1.1s-0.2,0.7-0.3,1.1
	c-0.1,0.4-0.2,0.7-0.3,0.9c0,0.1-0.1,0.4-0.3,0.7c-0.1,0.3-0.3,0.7-0.4,1c-0.2,0.3-0.3,0.7-0.5,1c-0.1,0.3-0.3,0.6-0.5,0.9
	c-0.2,0.3-0.4,0.7-0.7,1.1c-0.2,0.4-0.4,0.7-0.7,1.1c-0.4,0.6-0.9,1.1-1.4,1.5c-0.1,0.1-0.3,0.2-0.5,0.2c-0.1,0.1-0.3,0.1-0.4,0.1
	c0,0-0.1,0-0.1,0c-0.1,0-0.2-0.1-0.3-0.2c-0.1-0.1-0.2-0.2-0.3-0.3c-0.1-0.2-0.3-0.4-0.3-0.6c-0.2-0.4-0.3-0.9-0.3-1.4
	c0-0.2,0-0.4,0-0.5c0-0.2,0.1-0.4,0.1-0.5c0.1-0.3,0.2-0.5,0.3-0.8c0.2-0.3,0.3-0.6,0.5-0.8c0.2-0.3,0.4-0.5,0.6-0.7
	c0.2-0.2,0.4-0.4,0.6-0.6c0.2-0.2,0.3-0.4,0.4-0.5c0.1-0.2,0.3-0.3,0.4-0.4c0.1-0.2,0.3-0.4,0.3-0.6c0-0.2,0-0.3,0-0.5
	c-0.1-0.1-0.2-0.3-0.3-0.4c-0.1-0.1-0.3-0.2-0.4-0.3c-0.1-0.1-0.3-0.1-0.4-0.2c-0.1,0-0.2-0.1-0.3-0.1c0,0-0.1,0-0.2,0
	c-0.2,0-0.5,0.1-0.7,0.1c-0.3,0-0.5,0.1-0.8,0.1c-0.2,0-0.4,0.1-0.6,0.1c-0.1,0-0.3,0-0.4,0c-0.1,0-0.3-0.1-0.4-0.1
	c-0.2-0.1-0.4-0.1-0.6-0.2c-0.2-0.1-0.3-0.2-0.4-0.3c-0.2-0.1-0.3-0.3-0.5-0.4c-0.1-0.2-0.2-0.3-0.3-0.5c-0.1-0.2-0.2-0.3-0.3-0.4
	c-0.1-0.2-0.2-0.3-0.2-0.5c-0.1-0.2-0.1-0.4-0.2-0.5c0-0.1,0-0.2-0.1-0.3c0-0.1,0-0.1,0-0.2c0,0,0-0.1,0.1-0.1
	c0-0.1,0.1-0.2,0.2-0.3c0.1-0.1,0.2-0.2,0.3-0.3c0.2-0.1,0.3-0.2,0.5-0.3c0.2-0.1,0.5-0.2,0.7-0.3h0c0.2-0.1,0.4-0.1,0.7-0.2
	c0.2-0.1,0.5-0.1,0.7-0.1c0.3,0,0.6,0,0.9,0.1c0.4,0,0.7,0.1,1,0.1c0.2,0,0.4,0.1,0.6,0.1c0.1,0,0.3,0.1,0.6,0.1
	c0.3,0.1,0.7,0.2,1,0.2c0.3,0.1,0.7,0.2,1,0.2c0.3,0.1,0.6,0.1,0.9,0.2c0.3,0.1,0.6,0.1,0.9,0.2c0.4,0.1,0.8,0.2,1.2,0.2
	c0.4,0.1,0.7,0.1,0.8,0.1c0,0,0,0,0,0C529.1,65.5,529,65.8,528.9,66.1z"/>
<path class="st2" d="M527.9,52.4C527.9,52.4,527.9,52.5,527.9,52.4c0.6-0.1,1.2,0.1,1.6,0.5c0.4,0.4,0.7,0.9,0.7,1.5l0,0.3
	c0,0.6-0.2,1.2-0.6,1.7c-0.4,0.6-1,1-1.8,1.1c-0.9,0-1.6-0.5-2-1.3c-0.5-0.6-0.7-1.5-0.3-2.3l0.1-0.1c0.2-0.5,0.5-0.8,0.9-1.1
	C527,52.5,527.4,52.4,527.9,52.4"/>
<path class="st2" d="M665.9,50.9c-0.2-0.4-0.6-0.7-1.1-0.8l-0.6-0.1c-0.4-0.1-0.9-0.2-1.4-0.4c-0.6-0.2-1.1-0.3-1.7-0.4
	c-0.5-0.1-1.1-0.3-1.6-0.4s-1.1-0.2-1.6-0.4c-0.6-0.1-1.2-0.2-1.8-0.3c-0.6-0.1-1-0.2-1.2-0.2c-0.4-0.1-0.9-0.1-1.5-0.2
	c-0.6-0.1-1.2-0.1-1.8-0.1c-0.6,0-1.1,0-1.7-0.1c-0.6,0-1.2,0-1.8,0c-0.6,0-1.2,0.1-1.9,0.1c-0.7,0-1.4,0.1-2.1,0.2
	c-0.8,0.1-1.5,0.3-2.3,0.5c-0.6,0.2-1.1,0.3-1.6,0.6c-0.6,0.3-1.1,0.7-1.6,1.1c-0.5,0.4-0.9,0.9-1.2,1.4c-0.2,0.4-0.3,0.9-0.4,1.4
	c0,0.5,0,1,0.1,1.4c0.1,0.5,0.3,1.1,0.6,1.6c0.3,0.5,0.6,0.9,0.9,1.4c0.3,0.4,0.7,0.8,1.2,1.2c0.4,0.4,0.8,0.7,1.3,1
	c0.4,0.3,0.9,0.5,1.4,0.7c0.4,0.2,0.9,0.3,1.4,0.4c0.6,0.1,1.3,0.2,1.9,0.2c0.7,0,1.4,0,2.1-0.2l0.3,0c-0.1,0.2-0.3,0.5-0.3,0.8
	c-0.1,0.4-0.3,0.8-0.3,1.1c-0.1,0.4-0.1,0.8-0.2,1.1c0,0.5,0,1,0.1,1.5c0.1,0.5,0.2,1,0.3,1.5c0.2,0.5,0.4,0.9,0.6,1.3
	c0.2,0.3,0.4,0.6,0.6,0.9c0.2,0.3,0.4,0.5,0.6,0.8c0.2,0.3,0.5,0.6,0.8,0.9c0.3,0.3,0.6,0.5,0.9,0.7c0.3,0.2,0.7,0.4,1,0.5
	c0.4,0.2,0.9,0.2,1.3,0.2c0.4,0,0.9,0,1.3-0.1c0.5-0.1,0.9-0.2,1.4-0.4l0,0c0.5-0.2,0.9-0.4,1.3-0.7c0.4-0.3,0.8-0.6,1.2-0.9
	c0.4-0.4,0.7-0.8,1.1-1.2c0.3-0.4,0.7-0.9,0.9-1.4c0.3-0.5,0.5-1,0.7-1.5c0.2-0.5,0.4-1,0.5-1.4s0.3-0.7,0.3-1
	c0.1-0.3,0.2-0.7,0.3-1.1c0.1-0.4,0.3-0.9,0.4-1.4c0.1-0.4,0.2-0.8,0.4-1.2c0.2-0.5,0.3-0.9,0.5-1.4s0.3-0.9,0.4-1.4
	c0.1-0.4,0.3-0.9,0.5-1.3c0.2-0.5,0.4-0.9,0.5-1.2c0.1-0.2,0.2-0.5,0.3-0.6c0-0.1,0.1-0.2,0.1-0.3c0.3-0.2,0.5-0.5,0.6-0.9
	C666.3,51.7,666.2,51.2,665.9,50.9z M661.8,52.8c-0.1,0.2-0.3,0.6-0.5,1.1c-0.2,0.5-0.4,1.1-0.6,1.7c-0.1,0.5-0.3,0.9-0.4,1.4
	c-0.1,0.4-0.3,0.8-0.4,1.3c-0.2,0.5-0.3,1-0.4,1.4c-0.1,0.5-0.3,0.9-0.4,1.4c-0.1,0.4-0.2,0.7-0.2,0.9c-0.1,0.2-0.1,0.5-0.3,0.8
	c-0.1,0.4-0.3,0.9-0.5,1.3c-0.1,0.4-0.3,0.8-0.5,1.2c-0.2,0.3-0.4,0.6-0.6,0.9c-0.2,0.3-0.4,0.5-0.7,0.7l0,0
	c-0.3,0.2-0.6,0.4-0.9,0.7c-0.2,0.2-0.5,0.3-0.8,0.4c-0.2,0.1-0.3,0.1-0.5,0.2c-0.2,0-0.3,0-0.5,0c-0.1,0-0.1,0-0.2,0
	c-0.1,0-0.2-0.1-0.2-0.1c-0.1-0.1-0.2-0.2-0.4-0.3c-0.1-0.2-0.3-0.3-0.5-0.6c-0.2-0.2-0.4-0.5-0.5-0.7c-0.1-0.2-0.2-0.4-0.4-0.6
	c-0.2-0.3-0.3-0.5-0.4-0.8c-0.1-0.3-0.2-0.6-0.2-0.9c0-0.2-0.1-0.5,0-0.7c0-0.3,0.1-0.6,0.1-0.9c0-0.2,0.1-0.4,0.2-0.6
	c0.1-0.2,0.2-0.4,0.3-0.6c0.1-0.3,0.3-0.5,0.5-0.7c0.2-0.3,0.4-0.6,0.6-0.9c0.2-0.3,0.4-0.6,0.6-0.9c0-0.1,0.1-0.1,0.1-0.2
	c0-0.1,0-0.2,0.1-0.5c0-0.2,0-0.5,0-0.7c0-0.2,0-0.5-0.1-0.7c0-0.2-0.2-0.4-0.3-0.6c-0.2-0.2-0.4-0.3-0.6-0.3c-0.3-0.1-0.7-0.1-1,0
	c-0.2,0.1-0.5,0.1-0.8,0.2l-0.9,0.1c-0.4,0.1-0.8,0.2-1.2,0.3c-0.4,0.1-0.8,0.2-1.3,0.2c-0.5,0.1-0.9,0.1-1.4,0.1
	c-0.4,0-0.8,0-1.2-0.1c-0.3,0-0.5-0.1-0.8-0.2c-0.3-0.1-0.5-0.2-0.7-0.4c-0.3-0.2-0.5-0.4-0.8-0.6c-0.3-0.2-0.5-0.5-0.7-0.8
	c-0.2-0.3-0.4-0.6-0.5-0.9c-0.1-0.2-0.2-0.4-0.2-0.6c-0.1-0.2-0.1-0.3,0-0.5c0-0.1,0-0.1,0.1-0.2c0.1-0.2,0.3-0.4,0.4-0.5
	c0.2-0.2,0.4-0.3,0.6-0.4c0.4-0.2,0.8-0.3,1.3-0.5c0.5-0.2,1.1-0.3,1.6-0.4c0.7-0.1,1.3-0.1,1.8-0.2c0.6,0,1.2-0.1,1.8-0.1
	c0.5,0,1,0,1.5,0c0.5,0,1.1,0.1,1.6,0.1c0.5,0,1.1,0.1,1.6,0.1c0.4,0,0.7,0.1,1.1,0.1c0.3,0.1,0.8,0.1,1.4,0.2
	c0.6,0.1,1.1,0.2,1.6,0.3s1,0.2,1.6,0.4c0.5,0.1,1,0.2,1.6,0.4C660.8,52.4,661.3,52.6,661.8,52.8L661.8,52.8z"/>
<path class="st2" d="M677.1,63.1C677.1,63.1,677.1,63.1,677.1,63.1c0.5-0.8,0.7-1.6,0.5-2.4c-0.2-0.8-0.7-1.5-1.4-2l-0.4-0.2
	c-0.8-0.4-1.7-0.6-2.6-0.5c-1.1,0-2,0.6-2.6,1.5c-0.3,0.5-0.4,1.1-0.4,1.7c0,0.6,0.2,1.2,0.5,1.8c0.4,1.1,1.5,1.9,2.7,1.9l0.2,0
	c0.7,0.1,1.4-0.1,2-0.4C676.4,64.3,676.8,63.8,677.1,63.1"/>
<path class="st0" d="M417.7,40.6L417.7,40.6c-0.3-1-0.7-2-1.2-2.9c-0.5-0.9-1-1.8-1.5-2.6c-0.5-0.7-1-1.3-1.6-1.9
	c-0.7-0.7-1.5-1.4-2.4-2c-0.8-0.6-1.6-1.1-2.4-1.6c-0.7-0.3-1.4-0.6-2.2-0.9c-0.7-0.2-1.6-0.5-2.6-0.8c-1-0.3-2-0.4-3-0.4
	c-0.8,0-1.6,0-2.5,0c-0.8,0.1-1.6,0.2-2.3,0.4c-1,0.3-2,0.6-2.9,1c-1,0.4-1.9,0.9-2.8,1.4c-0.7,0.5-1.4,1-2.1,1.5
	c-0.6,0.5-1.1,1-1.7,1.5c-0.6,0.6-1.2,1.2-1.7,1.9c-0.6,0.8-1.1,1.6-1.5,2.4c-0.5,0.9-0.9,1.8-1.2,2.8c-0.2,0.8-0.4,1.6-0.6,2.4
	c-0.2,1-0.4,2.1-0.3,3.1c-0.1,1-0.1,2,0,3c0,0.8,0.2,1.6,0.3,2.4c0.1,0.7,0.3,1.5,0.6,2.2c0.3,0.8,0.7,1.6,1.1,2.4
	c0.3,0.7,0.7,1.5,1.2,2.1c0.3,0.5,0.7,1,1.1,1.5c0.5,0.6,1,1.2,1.6,1.7c0.6,0.5,1.1,1,1.8,1.4c0.4,0.3,0.9,0.6,1.4,0.9
	c0.7,0.3,1.3,0.6,2,0.8c0.7,0.3,1.5,0.5,2.2,0.6c0.6,0.1,1.2,0.1,1.9,0.2c0.8,0,1.7,0,2.5-0.2c0.9-0.1,1.7-0.2,2.4-0.4
	c0.6-0.2,1.2-0.4,1.8-0.6c0.7-0.3,1.3-0.6,2-0.9c0.6-0.3,1.1-0.6,1.4-0.8l0.4-0.3c0.6-0.3,1-0.8,1.3-1.4c0.2-0.5,0.2-1-0.1-1.4
	c-0.4-0.4-0.9-0.7-1.5-0.7c-0.7,0-1.4,0.1-1.9,0.5l-0.4,0.2c-0.2,0.1-0.6,0.3-1.1,0.6c-0.4,0.2-0.7,0.4-1.1,0.5
	c-0.3,0.2-0.7,0.3-1.1,0.4c-0.5,0.1-1,0.2-1.5,0.3c-0.5,0.1-1,0.1-1.5,0.1c-0.4,0-0.8-0.1-1.3-0.1c-0.5-0.1-0.9-0.2-1.4-0.4
	c-0.5-0.2-0.9-0.4-1.4-0.6c-0.4-0.2-0.8-0.4-1.2-0.7c-0.5-0.3-0.9-0.7-1.3-1.1c-0.5-0.4-0.9-0.9-1.3-1.3c-0.3-0.4-0.7-0.9-1-1.3
	c-0.4-0.6-0.7-1.2-1-1.9c-0.4-0.8-0.7-1.5-0.9-2c-0.2-0.6-0.4-1.2-0.5-1.8c-0.1-0.7-0.2-1.3-0.3-2c-0.1-0.9-0.1-1.8,0-2.6
	c0-0.9,0.1-1.7,0.3-2.6c0.2-0.7,0.3-1.4,0.5-2c0.2-0.7,0.5-1.3,0.9-2c0.4-0.6,0.7-1.3,1.2-1.9c0.3-0.3,0.6-0.7,0.9-0.9
	c0.5-0.4,1-0.9,1.5-1.3c0.5-0.4,1-0.7,1.5-1c0.5-0.3,1.1-0.6,1.7-0.9c0.6-0.2,1.1-0.4,1.7-0.6c0.4-0.1,0.9-0.2,1.4-0.2
	c0.5,0,1,0,1.7,0c0.7,0.1,1.4,0.2,2,0.3c0.8,0.2,1.5,0.4,2.2,0.6c0.5,0.2,1,0.4,1.5,0.7c0.7,0.4,1.4,0.9,2,1.4c0.7,0.5,1.4,1,2,1.6
	c0.5,0.5,0.9,1,1.3,1.5c0.5,0.7,0.9,1.5,1.3,2.2c0.4,0.7,0.7,1.5,1,2.3c0.1,0.5,0.2,1.1,0.2,1.6c0,0.4,0,0.8-0.1,1.1
	c-0.1,0.3-0.3,0.5-0.6,0.8c-0.3,0.3-0.7,0.6-1.1,0.9c-0.2,0.1-0.3,0.1-0.5,0.2c-0.1,0-0.2,0-0.3,0c-0.1-0.1-0.3-0.1-0.4-0.2
	c-0.3-0.2-0.5-0.4-0.8-0.6c-0.2-0.2-0.4-0.4-0.6-0.7c-0.2-0.2-0.4-0.5-0.6-0.8c-0.5-0.6-0.9-1.2-1.2-1.7c-0.1-0.5-0.3-1-0.5-1.6
	c-0.2-0.6-0.5-1.1-0.9-1.7c-0.2-0.4-0.4-0.8-0.6-1.1c0.2-0.1,0.4-0.3,0.5-0.5c0.4-0.4,0.5-1,0.3-1.5c-0.2-0.5-0.6-0.9-1.1-1.1
	l-0.5-0.1c-0.4-0.1-0.8-0.2-1.3-0.3c-0.6-0.1-1.2-0.1-1.8-0.1c-0.8,0.1-1.7,0.2-2.5,0.4c-1,0.3-1.9,0.7-2.8,1.2
	c-0.9,0.5-1.8,1.2-2.6,2c-1,1.1-1.8,2.3-2.4,3.5c-0.7,1.3-1.2,2.7-1.5,4.2c-0.2,1.1-0.2,2.3,0,3.4c0.2,0.9,0.4,1.8,0.8,2.7
	c0.4,0.7,0.8,1.4,1.3,2c0.5,0.6,1.1,1.2,1.7,1.6c0.6,0.5,1.3,0.9,2,1.2c0.8,0.3,1.5,0.5,2.3,0.6c1,0.1,2,0,3-0.2
	c1-0.2,1.9-0.5,2.8-1c0.8-0.4,1.5-1,2.2-1.6c0.7-0.6,1.3-1.4,1.7-2.3c0.3-0.7,0.5-1.4,0.6-2.1c0.1,0,0.2,0.1,0.2,0.1
	c0.8,0.2,1.6,0.2,2.4,0.1c1.1-0.2,2.1-0.5,3.1-1c0.9-0.6,1.8-1.2,2.6-2c0.8-0.8,1.4-1.7,1.8-2.8c0.2-0.7,0.3-1.4,0.2-2.2
	C418,42.1,417.9,41.4,417.7,40.6z M402.7,50.8c-0.1,0.5-0.2,1-0.4,1.5c-0.1,0.3-0.2,0.5-0.4,0.7c-0.2,0.3-0.5,0.5-0.8,0.6
	c-0.3,0.2-0.6,0.2-0.9,0.3c-0.3,0.1-0.6,0.1-1,0.1c-0.4,0-0.7-0.1-1.1-0.3c-0.4-0.1-0.8-0.4-1.2-0.7c-0.4-0.3-0.8-0.7-1.2-1.1
	c-0.4-0.5-0.7-1-0.9-1.5c-0.3-0.7-0.5-1.4-0.6-2.1c-0.1-0.8-0.2-1.6-0.1-2.4c0.2-1,0.6-2,1.1-2.9c0.4-0.9,0.9-1.7,1.5-2.4
	c0.3-0.4,0.7-0.7,1.1-0.9c0.4-0.2,0.8-0.4,1.2-0.5c0.1,0,0.2-0.1,0.2-0.1c0,0.4,0,0.8,0.2,1.1c0.2,0.5,0.4,1,0.6,1.4
	c0.2,0.5,0.5,1,0.8,1.5s0.7,1.2,1,1.9v0c0.1,0.3,0.2,0.5,0.3,0.8c0.2,0.7,0.3,1.5,0.4,2.3c0,0.2,0,0.3,0.1,0.5
	C402.8,49.4,402.8,50.1,402.7,50.8z"/>
<path class="st0" d="M210,83.8L210,83.8c-0.2-0.6-0.4-1.2-0.7-1.8c-0.3-0.6-0.6-1.1-0.9-1.6c-0.3-0.4-0.6-0.8-1-1.2
	c-0.5-0.5-0.9-0.9-1.5-1.3c-0.6-0.4-1.1-0.8-1.5-1c-0.4-0.2-0.9-0.4-1.3-0.6c-0.5-0.1-1-0.3-1.6-0.5c-0.6-0.2-1.2-0.2-1.9-0.3
	c-0.5,0-1.1,0-1.5,0c-0.5,0-1,0.1-1.4,0.2c-0.6,0.2-1.2,0.4-1.8,0.6c-0.6,0.3-1.2,0.6-1.7,0.9c-0.4,0.3-0.9,0.6-1.3,0.9
	c-0.4,0.3-0.7,0.6-1.1,0.9c-0.4,0.4-0.8,0.8-1.1,1.2c-0.3,0.5-0.7,1-0.9,1.5c-0.3,0.6-0.5,1.2-0.7,1.8c-0.1,0.5-0.3,1-0.4,1.5
	c-0.1,0.6-0.2,1.3-0.2,2c0,0.6,0,1.3,0,1.9c0,0.5,0.1,1,0.2,1.5c0.1,0.5,0.2,0.9,0.4,1.4c0.2,0.5,0.4,1,0.7,1.5
	c0.2,0.5,0.5,0.9,0.7,1.4c0.2,0.3,0.4,0.6,0.7,0.9c0.3,0.4,0.6,0.7,1,1.1c0.3,0.3,0.7,0.6,1.1,0.9c0.3,0.2,0.6,0.4,0.9,0.6
	c0.4,0.2,0.8,0.4,1.3,0.5c0.4,0.2,0.9,0.3,1.4,0.4c0.4,0.1,0.8,0.1,1.2,0.1c0.5,0,1,0,1.5-0.1c0.6-0.1,1.1-0.2,1.5-0.2
	c0.4-0.1,0.7-0.2,1.1-0.4c0.4-0.2,0.8-0.4,1.2-0.6c0.4-0.2,0.7-0.4,0.9-0.5l0.2-0.2c0.4-0.2,0.6-0.5,0.8-0.9
	c0.1-0.3,0.1-0.7-0.1-0.9c-0.2-0.3-0.6-0.4-0.9-0.4c-0.4,0-0.8,0.1-1.2,0.3l-0.3,0.1c-0.1,0.1-0.4,0.2-0.7,0.4
	c-0.2,0.1-0.5,0.3-0.7,0.4c-0.2,0.1-0.4,0.2-0.7,0.2c-0.3,0.1-0.6,0.1-0.9,0.2c-0.3,0.1-0.6,0.1-0.9,0.1c-0.2,0-0.5,0-0.8-0.1
	c-0.3-0.1-0.6-0.1-0.9-0.2c-0.3-0.1-0.6-0.2-0.8-0.4c-0.3-0.1-0.5-0.3-0.7-0.4c-0.3-0.2-0.6-0.4-0.8-0.7c-0.3-0.3-0.6-0.5-0.8-0.9
	c-0.2-0.3-0.4-0.5-0.6-0.8c-0.2-0.4-0.4-0.8-0.6-1.2c-0.2-0.5-0.4-0.9-0.6-1.3c-0.1-0.4-0.2-0.8-0.3-1.1c-0.1-0.4-0.1-0.8-0.2-1.3
	c0-0.6,0-1.1,0-1.7c0-0.6,0.1-1.1,0.2-1.6c0.1-0.5,0.2-0.9,0.3-1.3c0.2-0.4,0.3-0.9,0.6-1.3c0.2-0.4,0.5-0.8,0.7-1.2
	c0.2-0.2,0.4-0.4,0.6-0.6c0.3-0.3,0.6-0.5,0.9-0.8c0.3-0.2,0.6-0.4,0.9-0.6c0.3-0.2,0.7-0.4,1.1-0.6c0.3-0.2,0.7-0.3,1.1-0.4
	c0.3-0.1,0.6-0.1,0.8-0.1c0.3,0,0.6,0,1,0c0.4,0,0.8,0.1,1.3,0.2c0.5,0.1,0.9,0.3,1.3,0.4c0.3,0.1,0.6,0.3,0.9,0.4
	c0.4,0.3,0.9,0.6,1.3,0.9c0.4,0.3,0.9,0.6,1.3,1c0.3,0.3,0.5,0.6,0.8,1c0.3,0.5,0.6,0.9,0.8,1.4c0.3,0.5,0.5,1,0.6,1.5
	c0.1,0.3,0.1,0.7,0.2,1c0,0.2,0,0.5-0.1,0.7c-0.1,0.2-0.2,0.3-0.3,0.5c-0.2,0.2-0.4,0.4-0.7,0.6c-0.1,0-0.2,0.1-0.3,0.1
	c-0.1,0-0.2,0-0.2,0c-0.1,0-0.1-0.1-0.2-0.1c-0.2-0.1-0.3-0.3-0.5-0.4c-0.1-0.1-0.2-0.3-0.4-0.4c-0.1-0.1-0.2-0.3-0.4-0.5
	c-0.3-0.4-0.5-0.7-0.8-1.1c-0.1-0.3-0.2-0.7-0.3-1c-0.1-0.4-0.3-0.7-0.5-1.1c-0.1-0.2-0.3-0.5-0.4-0.7c0.1-0.1,0.2-0.2,0.3-0.3
	c0.2-0.3,0.3-0.6,0.2-0.9c-0.1-0.3-0.4-0.6-0.7-0.7l-0.3-0.1c-0.2-0.1-0.5-0.1-0.8-0.2c-0.4,0-0.7-0.1-1.1-0.1c-0.5,0-1,0.1-1.5,0.3
	c-0.6,0.2-1.2,0.4-1.7,0.8c-0.6,0.3-1.1,0.8-1.6,1.3c-0.6,0.7-1.1,1.4-1.5,2.2c-0.5,0.8-0.8,1.7-0.9,2.6c-0.1,0.7-0.1,1.4,0,2.1
	c0.1,0.6,0.3,1.2,0.5,1.7c0.2,0.5,0.5,0.9,0.8,1.3c0.3,0.4,0.7,0.8,1.1,1.1c0.4,0.3,0.8,0.6,1.3,0.8c0.5,0.2,1,0.3,1.4,0.4
	c0.6,0,1.2,0,1.8-0.1c0.6-0.1,1.2-0.3,1.7-0.6c0.5-0.3,1-0.6,1.4-1c0.4-0.4,0.8-0.9,1.1-1.4c0.2-0.4,0.3-0.9,0.4-1.3
	c0,0,0.1,0,0.1,0c0.5,0.1,1,0.1,1.5,0c0.7-0.1,1.3-0.3,1.9-0.7c0.6-0.4,1.1-0.8,1.6-1.3c0.5-0.5,0.9-1.1,1.1-1.8
	c0.1-0.5,0.2-0.9,0.1-1.4C210.2,84.7,210.1,84.3,210,83.8z M200.7,90.2c0,0.3-0.1,0.6-0.2,0.9c-0.1,0.2-0.2,0.3-0.3,0.4
	c-0.2,0.2-0.3,0.3-0.5,0.4c-0.2,0.1-0.4,0.2-0.6,0.2c-0.2,0-0.4,0.1-0.6,0.1c-0.2,0-0.4-0.1-0.7-0.2c-0.3-0.1-0.5-0.2-0.7-0.4
	c-0.3-0.2-0.5-0.4-0.7-0.7c-0.2-0.3-0.4-0.6-0.6-1c-0.2-0.4-0.3-0.9-0.4-1.3c-0.1-0.5-0.1-1,0-1.5c0.1-0.6,0.4-1.3,0.7-1.8
	c0.3-0.5,0.6-1,0.9-1.5c0.2-0.2,0.4-0.4,0.7-0.6c0.2-0.1,0.5-0.2,0.7-0.3c0.1,0,0.1,0,0.2-0.1c0,0.2,0,0.5,0.1,0.7
	c0.1,0.3,0.2,0.6,0.4,0.9c0.1,0.3,0.3,0.6,0.5,1s0.4,0.8,0.6,1.2l0,0c0,0.2,0.1,0.4,0.2,0.5c0.1,0.5,0.2,0.9,0.3,1.4
	c0,0.1,0,0.2,0,0.3C200.8,89.3,200.8,89.8,200.7,90.2z"/>
<path class="st0" d="M703.8,126.7c-0.1-0.5-0.2-1-0.4-1.6c-0.2-0.6-0.4-1.2-0.7-1.7c-0.2-0.5-0.5-0.9-0.8-1.3
	c-0.3-0.4-0.6-0.8-0.9-1.1c-0.5-0.4-0.9-0.9-1.5-1.2c-0.5-0.4-1.1-0.7-1.7-1c-0.5-0.2-1-0.4-1.4-0.6c-0.4-0.1-0.9-0.3-1.3-0.4
	c-0.5-0.2-1-0.3-1.6-0.3c-0.6-0.1-1.2-0.1-1.8-0.1c-0.6,0-1.3,0.1-1.9,0.3c-0.5,0.1-1,0.3-1.5,0.5c-0.6,0.2-1.2,0.5-1.8,0.8
	c-0.6,0.3-1.1,0.6-1.7,1c-0.4,0.3-0.8,0.6-1.2,0.9c-0.4,0.3-0.7,0.7-1,1c-0.3,0.4-0.7,0.9-0.9,1.3c-0.3,0.4-0.6,0.9-0.8,1.3
	c-0.2,0.4-0.3,0.7-0.5,1.1c-0.2,0.4-0.3,0.9-0.4,1.4c-0.1,0.5-0.2,0.9-0.2,1.4c0,0.3,0,0.7,0,1c0,0.5,0.1,0.9,0.2,1.4
	c0.1,0.5,0.2,0.9,0.4,1.4c0.2,0.4,0.3,0.7,0.5,1.1c0.3,0.4,0.5,0.9,0.9,1.3c0.3,0.4,0.6,0.8,1,1.1c0.3,0.3,0.6,0.5,0.9,0.8
	c0.3,0.3,0.7,0.5,1.1,0.8c0.4,0.2,0.7,0.4,0.9,0.5l0.3,0.1c0.3,0.2,0.8,0.3,1.2,0.2c0.3,0,0.6-0.2,0.7-0.6c0.1-0.3,0.1-0.7-0.1-1
	c-0.2-0.4-0.5-0.7-0.9-0.9l-0.3-0.1c-0.1-0.1-0.4-0.2-0.7-0.4c-0.2-0.1-0.5-0.3-0.7-0.4c-0.2-0.1-0.4-0.3-0.5-0.5
	c-0.2-0.2-0.4-0.5-0.6-0.7c-0.2-0.2-0.4-0.5-0.5-0.8c-0.1-0.2-0.2-0.5-0.3-0.7c-0.1-0.3-0.2-0.6-0.2-0.8c-0.1-0.3-0.1-0.6-0.1-0.9
	c0-0.3,0-0.6,0-0.9c0-0.4,0.1-0.7,0.2-1.1c0.1-0.4,0.2-0.8,0.3-1.1c0.1-0.3,0.3-0.6,0.4-0.9c0.2-0.4,0.4-0.8,0.7-1.1
	c0.3-0.4,0.6-0.8,0.8-1.2c0.3-0.3,0.5-0.6,0.8-0.8c0.3-0.3,0.7-0.5,1-0.8c0.4-0.2,0.8-0.5,1.4-0.9c0.5-0.3,1-0.5,1.5-0.7
	c0.5-0.1,0.9-0.3,1.3-0.4c0.5-0.1,0.9-0.1,1.4-0.2c0.5,0,0.9,0,1.4,0c0.3,0,0.5,0.1,0.8,0.2c0.4,0.1,0.8,0.2,1.2,0.4
	c0.3,0.1,0.7,0.3,1,0.4c0.4,0.2,0.7,0.4,1,0.6c0.3,0.2,0.6,0.5,0.9,0.7c0.2,0.2,0.4,0.4,0.5,0.6c0.2,0.2,0.3,0.5,0.5,0.9
	c0.2,0.4,0.3,0.8,0.5,1.2c0.1,0.5,0.3,1,0.3,1.4c0.1,0.3,0.1,0.7,0.1,1c0,0.5,0,1-0.1,1.5c0,0.5-0.1,1.1-0.2,1.6
	c-0.1,0.4-0.3,0.8-0.4,1.2c-0.2,0.5-0.5,1-0.8,1.4c-0.3,0.5-0.6,0.9-1,1.3c-0.2,0.2-0.5,0.5-0.8,0.6c-0.2,0.1-0.4,0.2-0.7,0.3
	c-0.2,0-0.4,0-0.6-0.1c-0.3-0.1-0.6-0.2-0.8-0.3c-0.1-0.1-0.2-0.1-0.3-0.2c-0.1-0.1-0.1-0.1-0.1-0.2c0-0.1,0-0.2,0-0.3
	c0-0.2,0-0.4,0.1-0.6c0.1-0.2,0.1-0.4,0.2-0.5c0.1-0.2,0.1-0.4,0.2-0.6c0.2-0.4,0.4-0.8,0.5-1.2c0.2-0.2,0.5-0.5,0.7-0.8
	c0.2-0.3,0.5-0.6,0.6-1c0.1-0.2,0.3-0.5,0.4-0.7c0.1,0.1,0.3,0.1,0.4,0.1c0.3,0.1,0.7-0.1,0.9-0.3c0.2-0.3,0.3-0.6,0.2-0.9l-0.1-0.3
	c-0.1-0.2-0.1-0.5-0.2-0.8c-0.1-0.3-0.3-0.7-0.5-1c-0.3-0.4-0.6-0.8-1-1.2c-0.5-0.4-1-0.8-1.5-1.1c-0.6-0.3-1.2-0.6-1.9-0.7
	c-0.9-0.2-1.8-0.2-2.7-0.1c-0.9,0-1.9,0.2-2.8,0.6c-0.7,0.3-1.3,0.6-1.8,1.1c-0.5,0.4-0.9,0.8-1.2,1.3c-0.3,0.4-0.5,0.9-0.7,1.4
	c-0.2,0.5-0.3,0.9-0.4,1.4c-0.1,0.5-0.1,1,0,1.5c0.1,0.5,0.2,1,0.4,1.4c0.3,0.6,0.6,1.1,1,1.5c0.4,0.5,0.9,0.8,1.4,1.1
	c0.5,0.3,1,0.5,1.6,0.7c0.6,0.2,1.2,0.2,1.8,0.2c0.5-0.1,0.9-0.2,1.3-0.3c0,0.1,0,0.1,0,0.1c0.2,0.5,0.4,0.9,0.7,1.3
	c0.4,0.5,0.9,0.9,1.5,1.3c0.6,0.3,1.2,0.6,1.9,0.7c0.7,0.2,1.4,0.2,2.1,0.1c0.4-0.1,0.9-0.3,1.3-0.6c0.4-0.3,0.8-0.6,1.1-0.9l0,0
	c0.5-0.5,0.9-1,1.2-1.5c0.3-0.5,0.7-1.1,0.9-1.6c0.2-0.5,0.4-1,0.5-1.5c0.2-0.6,0.3-1.3,0.3-1.9c0.1-0.6,0.1-1.2,0.1-1.8
	C703.9,127.6,703.9,127.2,703.8,126.7z M694.2,128.4c-0.2,0.3-0.4,0.7-0.7,1.2l0,0c-0.1,0.1-0.3,0.3-0.4,0.4c-0.3,0.3-0.7,0.7-1.1,1
	c-0.1,0.1-0.2,0.1-0.2,0.2c-0.4,0.3-0.8,0.5-1.2,0.7c-0.3,0.1-0.6,0.2-0.9,0.3c-0.2,0-0.3,0-0.5,0c-0.2-0.1-0.4-0.1-0.6-0.2
	c-0.2-0.1-0.3-0.2-0.4-0.4c-0.1-0.1-0.3-0.3-0.4-0.5c-0.1-0.2-0.2-0.4-0.2-0.6c-0.1-0.3-0.1-0.6,0-0.9c0-0.3,0.1-0.7,0.2-1
	c0.2-0.3,0.3-0.7,0.5-1c0.3-0.4,0.6-0.7,0.9-1c0.4-0.3,0.8-0.6,1.3-0.8c0.6-0.2,1.3-0.3,1.9-0.3c0.6-0.1,1.2,0,1.8,0.1
	c0.3,0.1,0.6,0.1,0.8,0.3c0.2,0.1,0.4,0.3,0.6,0.5c0,0,0.1,0.1,0.1,0.1c-0.2,0.1-0.4,0.3-0.6,0.5c-0.2,0.2-0.4,0.5-0.6,0.8
	C694.6,127.7,694.4,128,694.2,128.4z"/>
<path class="st0" d="M79.1,54c-0.2-1.4-0.5-2.8-0.9-4.2c-0.4-1.1-0.8-2.2-1.3-3.3c-0.5-1-1.1-2.2-1.9-3.5c-0.8-1.3-1.7-2.5-2.7-3.6
	c-0.8-0.9-1.7-1.8-2.6-2.6c-0.9-0.7-1.8-1.4-2.8-2.1c-1.3-0.8-2.7-1.4-4.1-2c-1.4-0.6-2.9-1.1-4.5-1.4c-1.2-0.3-2.5-0.5-3.7-0.6
	l-3.3-0.3c-1.3-0.1-2.5,0-3.8,0.1c-1.4,0.2-2.8,0.5-4.1,0.9c-1.4,0.4-2.8,1-4.2,1.7c-1.1,0.6-2.1,1.2-3.1,1.9
	c-1.3,0.8-2.5,1.8-3.6,2.9c-1.1,1-2.2,2-3.2,3.2c-0.8,0.9-1.5,1.8-2.1,2.8c-0.6,0.9-1.2,1.9-1.7,2.9c-0.5,1.2-1,2.4-1.3,3.6
	c-0.4,1.1-0.7,2.3-1,3.5c-0.2,0.9-0.3,1.8-0.4,2.8c-0.2,1.1-0.2,2.3-0.1,3.4c0.1,1.1,0.2,2.2,0.4,3.3c0.1,0.8,0.3,1.6,0.6,2.4
	c0.3,1,0.8,2,1.2,3c0.5,1,1,2,1.7,2.9c0.6,0.7,1.2,1.5,1.8,2.2c0.9,0.9,1.8,1.7,2.8,2.4c1.1,0.9,2.1,1.5,2.9,2.1
	c0.8,0.4,1.7,0.9,2.6,1.3c1,0.4,2,0.8,3,1.1c1,0.3,1.8,0.5,2.3,0.7l0.7,0.1c0.9,0.3,1.9,0.2,2.8-0.1c0.7-0.3,1.3-0.9,1.4-1.7
	c0.1-0.8-0.3-1.7-0.9-2.3c-0.7-0.8-1.6-1.3-2.5-1.5l-0.7-0.2c-0.4-0.1-1-0.3-1.8-0.6c-0.6-0.1-1.2-0.4-1.8-0.6
	c-0.5-0.2-1-0.5-1.5-0.8c-0.7-0.4-1.3-0.8-1.8-1.3c-0.6-0.4-1.2-0.9-1.7-1.4c-0.4-0.4-0.8-0.9-1.2-1.5c-0.4-0.6-0.8-1.2-1.1-1.8
	c-0.3-0.7-0.6-1.4-0.8-2.1c-0.2-0.6-0.4-1.3-0.5-2c-0.2-0.8-0.3-1.7-0.3-2.5c-0.1-0.9,0-1.9,0-2.8c0.1-0.8,0.2-1.6,0.3-2.4
	c0.2-1,0.5-2,0.9-3c0.4-1.2,0.8-2.2,1.2-3.1c0.4-0.8,0.9-1.6,1.4-2.4c0.5-0.8,1.2-1.6,1.8-2.4c0.9-1,1.8-1.9,2.7-2.8
	c0.9-0.9,1.9-1.7,3-2.4c1-0.6,1.8-1.1,2.7-1.6c1-0.5,2-0.8,3-1.1c1-0.3,2.1-0.5,3.2-0.7c0.6-0.1,1.3-0.1,2-0.1
	c1,0.1,1.9,0.2,2.9,0.2c0.9,0.1,1.7,0.2,2.6,0.4c0.9,0.2,1.9,0.5,2.8,0.9c0.8,0.3,1.6,0.7,2.4,1.2c0.6,0.4,1.1,0.8,1.7,1.2
	c0.5,0.5,1.1,1.1,1.8,1.7c0.7,0.8,1.3,1.6,1.8,2.5c0.6,1.1,1.2,2.1,1.6,2.9c0.3,0.8,0.6,1.5,0.9,2.3c0.3,1.2,0.6,2.4,0.7,3.6
	c0.3,1.3,0.4,2.5,0.4,3.8c0,1-0.1,1.9-0.3,2.9c-0.3,1.3-0.6,2.5-1,3.8c-0.3,1.2-0.8,2.4-1.4,3.5C69,68,68.5,68.7,68,69.3
	c-0.4,0.4-0.8,0.8-1.3,1.1c-0.4,0.1-0.9,0.2-1.4,0.2c-0.7,0-1.4-0.1-2-0.2c-0.3-0.1-0.5-0.2-0.7-0.4c-0.1-0.1-0.3-0.2-0.4-0.3
	c-0.1-0.2-0.1-0.4-0.2-0.6c-0.1-0.5-0.2-1-0.1-1.5c0-0.4,0-0.9,0.1-1.3c0-0.4,0.1-0.9,0.2-1.5c0.2-1.1,0.3-2.1,0.5-3
	c0.9-1.5,1.5-3.1,1.9-4.8c0.2-0.6,0.4-1.2,0.5-1.8c0.4,0.1,0.7,0.1,1.1,0c0.8-0.1,1.5-0.5,1.9-1.3c0.3-0.7,0.3-1.6-0.1-2.3L67.5,51
	c-0.3-0.5-0.6-1.1-1-1.7c-0.5-0.7-1.1-1.3-1.8-1.9c-0.9-0.8-2-1.6-3.1-2.2c-1.3-0.7-2.8-1.3-4.2-1.7c-1.6-0.4-3.2-0.6-4.8-0.6
	c-2.1,0.1-4.2,0.5-6.2,1.2c-2.1,0.6-4.1,1.5-5.9,2.8c-1.4,1-2.5,2.2-3.5,3.6c-0.8,1.2-1.5,2.4-2,3.7c-0.4,1.1-0.7,2.3-0.8,3.5
	c-0.2,1.2-0.1,2.4,0.1,3.5c0.2,2.4,1.2,4.6,2.8,6.5c1,1.1,2.1,2.1,3.3,2.9c1.2,0.8,2.6,1.4,4,1.8c1.3,0.4,2.6,0.6,4,0.7
	c1.4,0.1,2.9-0.1,4.2-0.6c1-0.4,2-0.9,2.9-1.5c0,0.1,0.1,0.2,0.2,0.3c0.7,1,1.5,1.9,2.5,2.6c1.3,0.9,2.8,1.6,4.3,2.1
	c1.6,0.4,3.2,0.6,4.8,0.6c1.7,0.1,3.3-0.3,4.8-1c0.9-0.5,1.8-1.2,2.5-2c0.8-0.8,1.4-1.7,2-2.7h0c0.8-1.3,1.4-2.8,1.8-4.2
	c0.5-1.4,0.8-2.8,1.1-4.3c0.2-1.2,0.3-2.4,0.3-3.7C79.5,57,79.4,55.5,79.1,54z M57.6,51.3c-0.3,0.7-0.6,1.4-0.8,2.1
	c-0.2,0.7-0.5,1.6-0.7,2.5c-0.3,0.9-0.6,1.9-0.9,3.1h0c-0.2,0.4-0.4,0.7-0.6,1.1c-0.6,1-1.2,1.9-1.9,2.8c-0.1,0.2-0.3,0.4-0.4,0.6
	c-0.7,0.8-1.4,1.6-2.3,2.2c-0.6,0.5-1.2,0.8-1.9,1.1c-0.4,0.2-0.8,0.2-1.2,0.2c-0.5,0-1-0.1-1.5-0.2c-0.5-0.1-0.9-0.4-1.2-0.6
	c-0.4-0.3-0.8-0.6-1.1-0.9c-0.4-0.4-0.6-0.9-0.8-1.4c-0.3-0.6-0.5-1.3-0.5-2c-0.1-0.8-0.1-1.6-0.1-2.4c0.1-0.9,0.3-1.7,0.6-2.6
	c0.4-1,0.9-1.9,1.6-2.8c0.7-1,1.5-1.8,2.4-2.6c1.3-0.9,2.7-1.5,4.2-1.8c1.3-0.5,2.7-0.8,4.1-0.9c0.7,0,1.4,0,2.1,0.2
	c0.6,0.2,1.2,0.4,1.7,0.7c0.1,0,0.2,0.1,0.4,0.1C58.2,50.3,57.8,50.8,57.6,51.3z"/>
</svg>
