<?xml version="1.0" encoding="utf-8"?>
<!-- Generator: Adobe Illustrator 21.1.0, SVG Export Plug-In . SVG Version: 6.00 Build 0)  -->
<svg version="1.1" xmlns="http://www.w3.org/2000/svg" xmlns:xlink="http://www.w3.org/1999/xlink" x="0px" y="0px"
	 viewBox="0 0 500 500" style="enable-background:new 0 0 500 500;" xml:space="preserve">
<style type="text/css">
	.st0{fill:#DEDEDE;}
	.st1{clip-path:url(#SVGID_2_);}
	.st2{fill:#6EC2A3;}
	.st3{fill:none;stroke:#63ADC4;stroke-width:20;stroke-miterlimit:10;}
	.st4{fill:none;stroke:#C3C0BC;stroke-width:11;stroke-miterlimit:10;}
	.st5{fill:#63ADC4;}
	.st6{fill:none;stroke:#C3C0BC;stroke-width:5;stroke-miterlimit:10;}
	.st7{fill:#C3C0BC;}
	.st8{fill:none;stroke:#F1DD3B;stroke-width:12;stroke-miterlimit:10;}
	.st9{fill:#DF636D;}
</style>
<g id="Background">
	<rect class="st0" width="500" height="500"/>
</g>
<g id="Objects">
	<g>
		<defs>
			<rect id="SVGID_1_" x="0" y="0" width="500" height="500"/>
		</defs>
		<clipPath id="SVGID_2_">
			<use xlink:href="#SVGID_1_"  style="overflow:visible;"/>
		</clipPath>
		<g class="st1">
			<path class="st2" d="M450.3,293.2l27.4,197.5c1.2,8.6,9.7,14.1,18,11.8l51.3-14.6c4-1.1,7.4-4,9.1-7.8l31.1-68.2
				c1.7-3.7,1.7-8,0-11.8l-61.2-135.9c-3.2-7.1-11.6-10.4-18.7-7.2l-48.6,21.2C452.9,280.7,449.5,286.9,450.3,293.2z"/>
			<path class="st3" d="M118-47.2c-7.5,21,1,45.5,16.9,61.1C150.9,29.6,173,37.5,195,41c22.1,3.5,44.5,2.9,66.8,4
				c22.3,1.1,45,4,65.1,13.8c17,8.3,31.3,21.2,47.2,31.5c52.7,34.2,118.9,37.8,181.6,40.5"/>
			<path class="st4" d="M393.1,498.5c0,19-3.4,36.8-10.1,52.8c-11.1,26.5-31.6,47.6-56.2,57.8l-6.2,2.5L91.3,552.9l-4-4.1
				c-10.9-11.4-17.2-27.2-17.2-43.4c0-5.4,0.7-10.7,2.1-15.8c1.9-7,5-13.5,9.2-19.4c8.1-11.5,20-20.3,33.6-24.2
				c7.6-2.2,15-2.8,21.5-3.2c3.5-0.3,6.9-0.5,9.8-1c18.3-3,34.3-17.4,51.2-32.5c18.8-16.8,40.1-35.9,68.4-41.8
				c30.3-6.3,63.9,4.5,87.9,28.2c25.2,25,34.4,56.9,37.6,79.3C392.5,482.8,393.1,490.8,393.1,498.5
				C393.1,498.5,393.1,498.5,393.1,498.5z"/>
			<path class="st5" d="M319.2,590.6c20.6-8.5,36.7-26.4,45.4-47c8.6-20.6,10.3-43.7,7.1-65.8c-3.6-25.2-13.8-50.1-31.9-68
				c-18.1-17.9-44.8-28-69.7-22.8c-46.8,9.8-73.2,66.6-120.4,74.5c-9.6,1.6-19.6,1-29,3.7c-13.9,4-25.3,15.6-29,29.6
				c-3.8,13.9,0.3,29.7,10.3,40.2L319.2,590.6z"/>
			<path class="st4" d="M33.9,532.4c1.3-30.6,2.7-61.4,10.7-91s23.1-58.1,47.4-76.7c14.1-10.8,31.1-18.1,43.1-31.2
				c17-18.6,21.1-45.3,24.4-70.3C172.8,161.5,186.2,59.7,199.6-42"/>
			<path class="st2" d="M141.3,359.1c-7.8,7.3-22.5,14.8-29,23.3c-6.3,8.3-6.7,18.7-0.1,27.8c8.5,11.8,24.5,15.2,37.5,8.7
				c15.2-7.6,26.2-20.7,38.4-32.5c27.8-26.7,62.8-44.5,100-51.9c6-1.2,6.6-9.6,0.7-11.6l-93.4-32.9c-8.6-3-17.9,2.1-20,11
				C170.5,322.8,157.2,344.2,141.3,359.1z"/>
			<polyline class="st4" points="110.3,447.6 70.2,386.9 44.3,259.6 -25.7,105.7 			"/>
			<path class="st4" d="M163.1,235.8"/>
			<path class="st4" d="M296,366.6"/>
			<path class="st4" d="M292.9,366.9c12.6-7.7,21.7-20.9,24.5-35.3c0.1-0.6,0.2-1.2,0.3-1.8c3.2-20.3-9-39.8-28.3-46.7l-126.3-45
				l-188.7,34.3"/>
			<line class="st4" x1="318.2" y1="315.9" x2="518.3" y2="228.3"/>
			<polyline class="st4" points="468.3,-21.7 425.4,269 468.3,538.3 			"/>
			<polyline class="st4" points="-35.7,105.7 178.5,118.6 335.5,163.7 438.6,179.3 			"/>
			<line class="st6" x1="184.1" y1="421" x2="115.3" y2="348.3"/>
			<path class="st6" d="M247.5,373.9c-18.2-11.4-28.7-32.5-31.3-53.8c-2.6-21.3,2-42.9,8.5-63.3"/>
			<line class="st6" x1="153" y1="385.7" x2="217.5" y2="328.1"/>
			<polygon class="st7" points="110.3,269.3 116.9,328.1 85.7,328.1 85.7,269.3 			"/>
			<polygon class="st7" points="70.7,313 78.7,313 78.7,269.3 62.2,269.3 			"/>
			<polygon class="st7" points="95.4,335.2 95.4,351.9 77,351.9 73.7,335.2 			"/>
			<path class="st2" d="M135.3,255.8c-4.1,0.7-8.4,2.7-9.7,6.6c-0.8,2.4-0.4,5,0.1,7.5c0.7,3.8,1.4,7.7,2.1,11.5
				c0.6,3.2,1.2,6.5,3,9.2c1.8,2.7,5.1,4.7,8.3,3.9c2.4-0.6,4.2-2.6,5.1-4.8c1-2.2,1.3-4.7,1.5-7.1c0.9-7.7,1.8-15.4,2.7-23.1
				l0.3-2.1c-0.4-1.2-0.8-2.4-1.2-3.6C143.6,255.2,139.4,255.1,135.3,255.8z"/>
			<path class="st6" d="M144.7,311c-8.4-0.3-16.6-5.4-20.6-12.8c-2.2-4-3.2-8.6-4-13.1c-2.3-12.6-3.4-25.5-3.2-38.3"/>
			
				<rect x="-34.1" y="303.8" transform="matrix(6.123234e-17 -1 1 6.123234e-17 -320.1231 332.7899)" class="st7" width="80.9" height="45.3"/>
			
				<rect x="-5.9" y="392.3" transform="matrix(6.123234e-17 -1 1 6.123234e-17 -402.5757 412.0757)" class="st7" width="21.3" height="30"/>
			
				<rect x="-5.9" y="422.8" transform="matrix(6.123234e-17 -1 1 6.123234e-17 -433.0757 442.5757)" class="st7" width="21.3" height="30"/>
			
				<rect x="-5.9" y="453.3" transform="matrix(6.123234e-17 -1 1 6.123234e-17 -463.5757 473.0757)" class="st7" width="21.3" height="30"/>
			<path class="st6" d="M49.9,420.3c-4.3-12.4-9.3-25.5-19.9-33.1c-5.9-4.2-13.1-6.3-20.3-7.1c-7.2-0.8-14.5-0.3-21.7,0.1"/>
			<circle class="st2" cx="55.8" cy="383.5" r="3.4"/>
			<circle class="st2" cx="52.4" cy="366.9" r="3.4"/>
			<circle class="st2" cx="32.4" cy="276.6" r="3.4"/>
			<circle class="st2" cx="38.6" cy="418.7" r="3.4"/>
			<circle class="st2" cx="6.3" cy="493.4" r="3.4"/>
			<circle class="st2" cx="90.2" cy="441.9" r="3.4"/>
			<circle class="st2" cx="101.3" cy="407.8" r="3.4"/>
			<circle class="st2" cx="53.3" cy="241.7" r="3.4"/>
			<circle class="st2" cx="115.3" cy="161.3" r="3.4"/>
			<circle class="st2" cx="115.3" cy="139" r="3.4"/>
			<circle class="st2" cx="183.2" cy="197.1" r="3.4"/>
			<circle class="st2" cx="279.8" cy="67.1" r="3.4"/>
			<circle class="st2" cx="175.1" cy="12" r="3.4"/>
			<circle class="st2" cx="45.8" cy="95" r="3.4"/>
			<circle class="st2" cx="78.7" cy="84.7" r="3.4"/>
			<circle class="st2" cx="78.7" cy="15.5" r="3.4"/>
			<circle class="st2" cx="115.6" cy="28.9" r="3.4"/>
			<circle class="st2" cx="292.8" cy="8.6" r="3.4"/>
			<circle class="st2" cx="107.5" cy="338.7" r="3.4"/>
			<circle class="st2" cx="127.5" cy="321.5" r="3.4"/>
			<circle class="st2" cx="171" cy="282.4" r="3.4"/>
			<circle class="st2" cx="288" cy="348.3" r="3.4"/>
			<circle class="st2" cx="413.9" cy="256.7" r="3.4"/>
			<circle class="st2" cx="425.4" cy="374.7" r="3.4"/>
			<circle class="st2" cx="431.9" cy="413.5" r="3.4"/>
			<circle class="st2" cx="445.3" cy="486.7" r="3.4"/>
			<circle class="st2" cx="425" cy="191.8" r="3.4"/>
			<circle class="st2" cx="458" cy="142.5" r="3.4"/>
			<circle class="st2" cx="437.2" cy="91" r="3.4"/>
			<circle class="st2" cx="477.9" cy="40.8" r="3.4"/>
			<circle class="st2" cx="491.2" cy="203.5" r="3.4"/>
			<circle class="st2" cx="325.2" cy="357.7" r="3.4"/>
			<circle class="st2" cx="348.8" cy="26.5" r="3.4"/>
			<circle class="st2" cx="366" cy="8.6" r="3.4"/>
			<circle class="st2" cx="308.7" cy="171.7" r="3.4"/>
			<circle class="st2" cx="356.2" cy="279.1" r="3.4"/>
			<circle class="st2" cx="291.1" cy="198.7" r="3.4"/>
			<circle class="st2" cx="289.6" cy="163.7" r="3.4"/>
			<circle class="st2" cx="214.7" cy="238.6" r="3.4"/>
			<circle class="st2" cx="304.3" cy="330.6" r="3.4"/>
			
				<rect x="86.7" y="382.7" transform="matrix(0.7669 -0.6418 0.6418 0.7669 -229.5855 149.8447)" class="st7" width="9.6" height="16.5"/>
			<line class="st6" x1="116.7" y1="245.2" x2="91.5" y2="113.4"/>
			<path class="st4" d="M30.8,106.9C30,93.1,34.9,79,44,68.6c10.8-12.3,26.7-19,38.7-30.2C93.5,28.4,100.8,15,105.7,1
				c4.9-14,7.4-28.6,9.9-43.1"/>
			<polyline class="st4" points="250,272.1 335.5,163.7 335.5,-62.3 			"/>
			<path class="st2" d="M352.2,109.4l0,37.1c0,2.5,1.8,4.6,4.2,4.9l64,9.8c2.7,0.4,5.3-1.5,5.7-4.2l2.3-15.9
				c0.4-2.5-1.2-4.9-3.7-5.5c-23.1-6-45.2-16.3-64.6-30.2C356.8,103,352.2,105.4,352.2,109.4z"/>
			<path class="st2" d="M-7.9-14.1l-19.8,36.5c-0.7,1.2-0.8,2.7-0.5,4l16.9,62.2c0.6,2.2,2.5,3.8,4.8,4l16,1.3
				c2.9,0.2,5.4-1.8,5.8-4.7c1.9-14.9,11.9-28.5,23.2-38.7c4-3.6,8.5-7,10.3-12c1.7-4.6,0.7-9.8-0.3-14.6c-3-14.6-6-29.3-9-43.9
				c-0.6-2.9-3.4-4.8-6.4-4.2l-37.3,7.4C-5.7-16.5-7.1-15.5-7.9-14.1z"/>
			<path class="st6" d="M380.3,434.7c25.1-14.7,46.8-35.5,62.6-59.9"/>
			<path class="st6" d="M224,258c0.8-41.8,1.6-83.7,2.4-125.5"/>
			<path class="st6" d="M338.5-25.5c1.7,25.9,19.5,50.1,43.7,59.4c14,5.4,29.2,6,44.1,7.8c29.9,3.7,59.1,12.6,85.9,26.2"/>
			<polygon class="st7" points="156.8,188 163.1,132.5 127.5,130.8 127.5,188 			"/>
			
				<rect x="126.1" y="193.1" transform="matrix(6.123234e-17 -1 1 6.123234e-17 -72.3739 348.1239)" class="st7" width="23.5" height="34.2"/>
			<polygon class="st7" points="33.9,202.6 45.7,228.5 97.1,223.7 91.3,202.6 			"/>
			<polygon class="st7" points="36.9,186.9 97.1,186.9 81.9,130.8 9.5,126.5 			"/>
			
				<rect x="62.2" y="420" transform="matrix(6.123234e-17 -1 1 6.123234e-17 -357.8322 497.3322)" class="st7" width="15.2" height="15.2"/>
			
				<rect x="55.8" y="446" transform="matrix(6.123234e-17 -1 1 6.123234e-17 -390.1613 517.0032)" class="st7" width="15.2" height="15.2"/>
			
				<rect x="48.3" y="471.4" transform="matrix(6.123234e-17 -1 1 6.123234e-17 -423.1613 534.8365)" class="st7" width="15.2" height="15.2"/>
			
				<rect x="225.7" y="-26" transform="matrix(6.123234e-17 -1 1 6.123234e-17 235.6678 248.6656)" class="st7" width="33" height="65"/>
			
				<rect x="274.7" y="-7.7" transform="matrix(6.123234e-17 -1 1 6.123234e-17 309.001 308.3322)" class="st7" width="68" height="14.7"/>
			<polygon class="st7" points="271.7,104.5 243.7,104.5 243.7,116.7 320.3,136.7 320.3,78.3 271.7,78.3 			"/>
			<polygon class="st7" points="197.3,104.9 225.2,112.7 225.2,63.7 201.5,63.7 			"/>
			
				<rect x="236.2" y="63.7" transform="matrix(6.123234e-17 -1 1 6.123234e-17 172.5011 324.3323)" class="st7" width="24.5" height="24.5"/>
			<path class="st2" d="M-3.3,254.8l22.8-4c2.2-0.4,3.4-2.7,2.4-4.7L2.2,203.4c-1.4-3.1-6.1-2.3-6.4,1.2l-3.1,46.7
				C-7.4,253.4-5.4,255.1-3.3,254.8z"/>
			<polygon class="st7" points="291.1,242 276.4,260.5 316.9,279.1 334.6,261 			"/>
			<g>
				<polygon class="st7" points="320.1,205.9 296.3,235.5 340.6,254.8 368,226.8 				"/>
				<polygon class="st7" points="325.2,199.4 374,220.6 402.5,191.5 340.2,180.7 				"/>
			</g>
			<polyline class="st7" points="452.5,232 483,223.2 483,188.4 452.5,188.4 452.5,232 			"/>
			
				<rect x="464.9" y="147.1" transform="matrix(6.123234e-17 -1 1 6.123234e-17 308.4391 638.6006)" class="st7" width="17.2" height="36"/>
			
				<rect x="165.5" y="171.2" transform="matrix(1.249573e-14 -1 1 1.249573e-14 20.1361 384.9673)" class="st7" width="74.2" height="22.5"/>
			
				<rect x="172.8" y="218.9" transform="matrix(6.123234e-17 -1 1 6.123234e-17 -42.2489 402.0822)" class="st7" width="14.3" height="6.5"/>
			<polygon class="st7" points="236.2,189 236.2,195.2 270.5,195.2 270.5,161.8 236.2,151.5 			"/>
			<rect x="232.7" y="216.5" class="st7" width="7" height="21.2"/>
			<rect x="244" y="216.5" class="st7" width="7" height="21.2"/>
			<rect x="255.3" y="216.5" class="st7" width="7" height="21.2"/>
			<line class="st6" x1="280.8" y1="233" x2="280.8" y2="149.1"/>
			<path class="st2" d="M375.3,316.9l39.9,12.2c2.3,0.7,4.5-1.2,4.1-3.5l-4.7-31.9c-0.3-2.2-2.8-3.4-4.8-2.3L374.6,311
				C372.2,312.4,372.6,316,375.3,316.9z"/>
			<line class="st6" x1="68.5" y1="46.7" x2="57.5" y2="-24.3"/>
			<polygon class="st7" points="125.9,50.6 97.1,48.7 95.7,98.5 125.9,100.1 			"/>
			<polygon class="st7" points="134.1,100.4 164.1,102 169.5,53.2 134.1,51 			"/>
			<polygon class="st7" points="368.4,40.7 356.8,38.2 356.8,59 368.4,65.1 			"/>
			<polygon class="st7" points="392.1,45.6 375.6,42.2 375.6,68.9 392.1,77.6 			"/>
			<polygon class="st7" points="399.4,81.4 426,95.5 430.4,53.5 399.4,47.1 			"/>
			
				<rect x="377" y="-20.1" transform="matrix(6.123234e-17 -1 1 6.123234e-17 395.738 398.1624)" class="st7" width="39.9" height="42.7"/>
			
				<rect x="411.5" y="-2.4" transform="matrix(6.123234e-17 -1 1 6.123234e-17 433.153 441.4487)" class="st7" width="51.6" height="13.1"/>
			<line class="st6" x1="445.3" y1="374.7" x2="547.7" y2="270.7"/>
			<line class="st6" x1="456.3" y1="443" x2="580" y2="456.7"/>
			<line class="st6" x1="308.7" y1="296.7" x2="431.9" y2="212"/>
			
				<rect x="463.3" y="76.5" transform="matrix(6.123234e-17 -1 1 6.123234e-17 393.261 565.0088)" class="st7" width="31.8" height="18.7"/>
			<polygon class="st7" points="475.5,32.2 507,41.8 507,9 479.1,10.5 			"/>
			
				<rect x="388.5" y="446.3" transform="matrix(6.123234e-17 -1 1 6.123234e-17 -38.1656 881.9989)" class="st7" width="66.8" height="27.5"/>
			<polygon class="st7" points="342.7,369.4 393.1,403.7 411.6,365.6 353.5,342.3 			"/>
			<path class="st8" d="M562.1,397.4L173,267.3c-56-18.7-97-66.8-106.6-125L33.9-54.1"/>
			<line class="st8" x1="616" y1="378.2" x2="-35.7" y2="148.7"/>
			<path class="st8" d="M-4.2-70.2L49,233.7c13,74.4,3,150.9-28.7,219.4l-44.1,95.3"/>
			<g>
				<polygon class="st7" points="393.2,269.1 404.7,263.4 399.3,245.3 387.3,253 				"/>
				<polygon class="st7" points="383,255.8 368,265.3 373.1,279.1 388.7,271.4 				"/>
			</g>
			<g>
				<path class="st9" d="M238,221.8c0-7.8-6.3-14.1-14.1-14.1c-7.8,0-14.1,6.3-14.1,14.1c0,2.1,0.5,4.1,1.3,5.8h0l0.1,0.2
					c0.2,0.4,0.4,0.7,0.5,1l10.7,20.2c0.6,1.2,2.4,1.2,3,0l10.7-20.2c0.2-0.3,0.4-0.7,0.5-1l0.1-0.2h0
					C237.6,225.8,238,223.8,238,221.8z M224,231c-5.3,0-9.5-4.3-9.5-9.5c0-5.2,4.3-9.5,9.5-9.5c5.2,0,9.5,4.3,9.5,9.5
					C233.5,226.7,229.2,231,224,231z"/>
			</g>
		</g>
	</g>
</g>
<g id="Designed_by_Freepik">
</g>
</svg>
